<?xml version="1.0" encoding="utf-8"?>
<!-- Generator: Adobe Illustrator 22.1.0, SVG Export Plug-In . SVG Version: 6.00 Build 0)  -->
<svg version="1.1" id="Calque_1" xmlns="http://www.w3.org/2000/svg" xmlns:xlink="http://www.w3.org/1999/xlink" x="0px" y="0px"
	 viewBox="0 0 47 47" style="enable-background:new 0 0 47 47;" xml:space="preserve">
<style type="text/css">
	.st0{clip-path:url(#SVGID_2_);}
	.st1{fill:#030303;}
	.st2{fill:#3A33FF;}
</style>
<title>bouton</title>
<g>
	<defs>
		<circle id="SVGID_1_" cx="23.5" cy="23.5" r="23.5"/>
	</defs>
	<clipPath id="SVGID_2_">
		<use xlink:href="#SVGID_1_"  style="overflow:visible;"/>
	</clipPath>
	<g class="st0">
		<path class="st1" d="M47-0.5c-0.4-0.1-0.8,0.1-1,0.4c-0.3,0.3-0.6,0.6-0.9,0.9L45,0.7c-0.4-0.4-0.7-0.7-1.1-1.1
			c-0.1-0.1-0.2-0.1-0.2-0.1c-0.3,0-0.7,0-1,0l1.9,1.9L43,2.8l-2-2l-2,2l-1.3-1.4l1.9-1.9l0,0h-0.2c-0.2,0-0.4,0-0.6,0
			c-0.3,0-0.6,0.1-0.7,0.3c-0.3,0.3-0.6,0.7-1,1c-0.3-0.3-0.6-0.6-0.9-1c-0.2-0.3-0.5-0.4-0.8-0.3H35c-0.3,0-0.6,0.1-0.8,0.3
			c-0.3,0.3-0.6,0.6-1,1c-0.3-0.3-0.7-0.7-1-1c-0.2-0.2-0.4-0.3-0.7-0.3c-0.3,0-0.5,0-0.8,0l1.9,1.9l-1.4,1.4l-2-2l-2,2l-1.4-1.4
			l1.9-1.9c-0.4,0-0.8,0-1.2,0c0,0-0.1,0.1-0.2,0.1l-1.2,1.2c-0.4-0.3-0.7-0.7-1-1.1c-0.1-0.2-0.4-0.3-0.6-0.3c-0.2,0-0.5,0-0.7,0
			c-0.1,0-0.2,0.1-0.3,0.1c-0.4,0.4-0.8,0.8-1.2,1.2l-0.4-0.4l-0.8-0.8L20-0.5h-1.1l1.9,1.9l-1.4,1.4l-2-2l-2,2l-1.4-1.4l1.9-1.9
			l0,0c-0.2,0-0.4,0-0.7,0c-0.3-0.1-0.7,0.1-0.9,0.4c-0.3,0.3-0.6,0.6-0.9,1c-0.3-0.3-0.7-0.7-1-1c-0.2-0.2-0.5-0.4-0.8-0.3
			c-0.3,0-0.5-0.1-0.8,0s-0.4,0.3-0.5,0.5L9.5,0.9C9.1,0.5,8.7,0.1,8.3-0.3C8.2-0.4,8.1-0.5,8-0.5c-0.3,0-0.7,0-1,0l1.9,1.9L7.5,2.8
			l-2-2l-2,2L2.1,1.4L4-0.5c-0.4,0-0.8,0-1.2,0c-0.1,0-0.1,0.1-0.2,0.1L1.4,0.8C1.4,0.8,1.3,0.7,1.2,0.6C0.9,0.3,0.6,0,0.3-0.3
			C0.2-0.4,0.1-0.5-0.1-0.5h-0.4c0,0.2,0,0.4,0,0.6c0,0,0,0.1,0.1,0.1l3,3l2.2,2.2l0,0L3.5,6.7l-4-4c0,0.4,0,0.8,0,1.1
			C-0.5,3.9-0.5,4-0.4,4l3,3c0.1,0.1,0.2,0.2,0.3,0.2L1.6,8.7l-1.9-2h-0.1c0,0.2,0,0.4,0,0.6c-0.1,0.4,0.1,0.8,0.4,1
			c0.4,0.3,0.7,0.6,1,1C0.6,9.7,0.2,10-0.1,10.4c-0.2,0.2-0.4,0.5-0.4,0.8c-0.1,0.5,0.1,1,0.5,1.3c0.9,0.8,1.8,1.7,2.6,2.6
			c0.5,0.5,1,1,1.6,1.6l0.6,0.6l-1.3,1.3l-4-4c0,0.4,0,0.8,0,1.2c0,0.1,0,0.1,0.1,0.1L2.8,19l0.2,0.2l-1.4,1.4l-2-2
			c0,0.4,0,0.8,0,1.2c0,0,0.1,0.1,0.1,0.1L1,21.3c-0.1,0-0.2,0.1-0.2,0.1c-0.4,0.4-0.7,0.7-1.1,1.1c-0.1,0.1-0.1,0.2-0.1,0.3
			c0,0.3,0,0.6,0,0.9c0,0.1,0,0.2,0.1,0.3l4,4c0.4,0.4,0.8,0.8,1.2,1.1l-1.3,1.3l-4-4l0,0c0,0.4,0,0.8,0,1.1c0,0.1,0.1,0.1,0.2,0.2
			c1,1,2,2.1,3.1,3.1L2.9,31l-1.4,1.4l-2-2c0,0.1,0,0.1,0,0.2v0.3c0,0.2,0,0.5,0,0.7c0.1,0.2,0.3,0.4,0.5,0.6s0.5,0.5,0.8,0.8v0.1
			l-0.6,0.6C0,34-0.2,34.2-0.4,34.4c-0.1,0.1-0.1,0.1-0.1,0.2c0,0.3,0,0.7,0,1c0,0.1,0,0.2,0.1,0.2l4.1,4.1L4.9,41l-1.3,1.3l-4-4
			l0,0c0,0.4,0,0.8,0,1.1c0,0.1,0,0.1,0.1,0.1l2.8,2.8L3,42.8l-1.5,1.4l-1.9-1.9h-0.1c0,0.3,0,0.6,0,0.9c0,0.2,0.1,0.4,0.2,0.5
			c0.4,0.4,0.8,0.8,1.2,1.2L0.8,45l-1.1,1.2c-0.1,0.1-0.2,0.2-0.2,0.4c0,0.1,0,0.3,0,0.4l0,0V-0.5h47.3C46.9-0.5,46.9-0.5,47-0.5z"
			/>
		<path class="st1" d="M23.9,47l1.2-1.2l4-4l0.2-0.2l0.9,1l4.3,4.3l0.1,0.1h-2.6c0,0-0.1-0.1-0.1-0.2L29.9,45l-0.8-0.8l-0.5,0.5
			l-1.9,1.9L26.5,47L23.9,47z"/>
		<path class="st1" d="M35.8,47l0.8-0.8l4.3-4.3c0.1-0.1,0.1-0.1,0.2-0.2l1.5,1.5c1.3,1.3,2.5,2.5,3.8,3.8c0,0,0,0,0.1,0.1h-2.6
			c-0.1-0.1-0.1-0.2-0.2-0.2l-1.7-1.7c-0.3-0.3-0.5-0.5-0.8-0.8l-0.3,0.4L38.3,47H35.8z"/>
		<path class="st1" d="M12,47l1.4-1.4l2.7-2.7l1.2-1.2l1.6,1.6l2.7,2.7l1,1.1H20l-0.2-0.2l-2-2l-0.5-0.4L14.6,47H12z"/>
		<path class="st1" d="M0.2,47l1.3-1.3l2.3-2.3l1.7-1.8c0.1,0.2,0.2,0.3,0.4,0.4l4.8,4.8l0.2,0.2H8.2c0,0-0.1-0.1-0.1-0.1l-2.1-2.2
			c-0.1-0.1-0.3-0.3-0.4-0.5l-0.1,0.1l-2.4,2.4c0,0-0.1,0.1-0.1,0.2L0.2,47z"/>
		<path class="st1" d="M47,26.5c-0.2,0.1-0.3,0.3-0.4,0.4L44,29.4l-0.8,0.8L43,30.5l-1.3-1.3c0.2-0.1,0.3-0.3,0.5-0.4l4.7-4.7
			l0.2-0.2V26.5z"/>
		<path class="st1" d="M47,14.6c-0.1,0-0.1,0.1-0.2,0.1l-3.7,3.7L43,18.6l-1.3-1.3l1.2-1.2l3.7-3.7L47,12V14.6z"/>
		<path class="st1" d="M47,2.8c-0.1,0.1-0.3,0.2-0.4,0.4L44,5.7c-0.3,0.3-0.7,0.7-1,1l-1.3-1.3L43.1,4l3.8-3.8L47,0.1V2.8z"/>
		<path class="st1" d="M47,38.3l-2.4,2.4L43,42.3L41.7,41c0.1-0.1,0.3-0.2,0.4-0.3l4.5-4.5c0.1-0.1,0.3-0.3,0.4-0.4V38.3z"/>
		<path class="st1" d="M47,42.4c-0.2,0.2-0.3,0.3-0.5,0.4l-1.5,1.5L45,44.3L43.6,43l0.4-0.4l2.9-2.9l0.1-0.1V42.4z"/>
		<path class="st1" d="M47,18.6c-0.2,0.1-0.3,0.3-0.5,0.4L45,20.6l0,0l-1.4-1.4l0.7-0.6l2.6-2.6c0,0,0.1-0.1,0.1-0.1L47,18.6z"/>
		<path class="st1" d="M47,6.8l-0.5,0.4L45,8.7L45,8.7l-1.4-1.4l0.8-0.8l2.4-2.4C46.9,4.1,46.9,4,47,4V6.8z"/>
		<path class="st1" d="M47,30.5c-0.1,0-0.1,0.1-0.2,0.1l-1.7,1.7c0,0-0.1,0.1-0.1,0.1l-1.4-1.4l0.2-0.3l3-3l0.1-0.1V30.5z"/>
		<path class="st2" d="M47,6.8V8l-0.3,0.3l-1,1l1.3,1.5V12l-0.5,0.4l-3.7,3.7l-1.2,1.2l1.3,1.3l0.1-0.1l3.7-3.7c0,0,0.1-0.1,0.2-0.1
			v1.2c-0.1,0-0.1,0.1-0.1,0.1l-2.6,2.6l-0.7,0.6l1.4,1.4l0,0l1.5-1.5c0.1-0.1,0.3-0.3,0.5-0.4v1.2l-0.9,0.8l-0.5,0.5l1.4,1.4v1.3
			L46.8,24l-4.7,4.7c-0.2,0.2-0.3,0.3-0.5,0.4l1.3,1.4l0.2-0.2l0.8-0.8l2.5-2.5c0.1-0.1,0.3-0.3,0.4-0.4v1.2l-0.1,0.1l-3,3L43.7,31
			l1.3,1.5c0,0,0.1-0.1,0.1-0.1l1.7-1.7c0.1,0,0.1-0.1,0.2-0.1v1.2l-1,1L45.6,33l1.4,1.5v1.2c-0.1,0.1-0.3,0.3-0.4,0.4L42,40.7
			c-0.1,0.1-0.3,0.2-0.4,0.3l1.4,1.3l1.6-1.7l2.4-2.4v1.2l-0.1,0.1L44,42.5l-0.4,0.4l1.4,1.4l0.1-0.1l1.5-1.5
			c0.1-0.2,0.3-0.3,0.5-0.4v1.2l-0.2,0.1l-1,1c-0.1,0.1-0.1,0.1-0.2,0.2l1.4,1.5V47h-0.6c0,0,0,0-0.1-0.1c-1.3-1.3-2.5-2.5-3.8-3.8
			l-1.5-1.5c-0.1,0.1-0.1,0.1-0.2,0.2l-4.3,4.3L35.8,47h-1.2l-0.1-0.1l-4.3-4.3l-0.9-1L29,41.8L25,45.8L23.9,47h-1.2l-1-1.1L19,43.3
			l-1.6-1.6l-1.2,1.2l-2.7,2.7L12,47h-1.2l-0.2-0.2L5.8,42c-0.1-0.1-0.2-0.2-0.4-0.4l-1.7,1.8l-2.3,2.3L0.2,47h-0.6
			c0-0.1,0-0.3,0-0.4c0-0.2,0-0.3,0.2-0.4l1.1-1.1L0.9,45c-0.4-0.4-0.8-0.8-1.2-1.2c-0.2-0.1-0.2-0.3-0.2-0.5c0-0.3,0-0.6,0-0.9h0.1
			l1.9,1.9L2.9,43l-0.6-0.5l-2.8-2.8c0,0-0.1-0.1-0.1-0.1c0-0.4,0-0.8,0-1.1l0,0l4,4L4.9,41l-1.2-1.1l-4.1-4.1
			c-0.1-0.1-0.1-0.1-0.1-0.2c0-0.3,0-0.7,0-1c0-0.1,0-0.2,0.1-0.2c0.2-0.2,0.4-0.4,0.7-0.7l0.6-0.6V33c-0.3-0.3-0.5-0.5-0.8-0.8
			s-0.4-0.3-0.5-0.6c0-0.2,0-0.5,0-0.7v-0.3c0-0.1,0-0.1,0-0.2l2,2L3,31l-0.2-0.2c-1.1-1-2.1-2-3.1-3c-0.1-0.1-0.2-0.1-0.2-0.2
			c0-0.4,0-0.7,0-1.1l0,0l4,4l1.3-1.3c-0.4-0.4-0.8-0.8-1.2-1.2l-4.1-4c-0.1-0.1-0.1-0.2-0.1-0.3c0-0.3,0-0.6,0-0.9
			c0-0.1,0-0.2,0.1-0.3c0.4-0.4,0.7-0.7,1.1-1.1c0.1-0.1,0.2-0.1,0.3-0.2l-1.3-1.4c0,0-0.1-0.1-0.1-0.1c0-0.4,0-0.8,0-1.2l2,2
			L3,19.2L2.8,19l-3.1-3.1c0,0-0.1-0.1-0.1-0.1c0-0.4,0-0.8,0-1.2l4,4l1.3-1.3l-0.6-0.6c-0.5-0.5-1.1-1-1.6-1.6
			c-0.9-0.9-1.7-1.8-2.7-2.6c-0.4-0.3-0.5-0.8-0.5-1.3c0-0.3,0.1-0.6,0.4-0.8c0.4-0.3,0.7-0.7,1.1-1.1c-0.3-0.3-0.7-0.7-1-1
			c-0.3-0.2-0.5-0.6-0.4-1c0-0.2,0-0.4,0-0.6h0.1l1.9,2L3,7.3C2.9,7.2,2.8,7.2,2.7,7.1l-3-3C-0.3,4-0.4,4-0.4,3.9c0-0.4,0-0.7,0-1.1
			l4,4l1.3-1.3l0,0L2.6,3.2l-3-3c0,0-0.1-0.1-0.1-0.1c0-0.2,0-0.4,0-0.5H0c0.1,0,0.3,0,0.4,0.2C0.7,0,1,0.3,1.3,0.6
			c0.1,0.1,0.1,0.2,0.2,0.2l1.2-1.3c0,0,0.1-0.1,0.2-0.1c0.4,0,0.7,0,1.2,0L2.1,1.4l1.4,1.4l2-2l2,2l1.5-1.4L7-0.5c0.4,0,0.7,0,1,0
			c0.1,0,0.2,0.1,0.3,0.1C8.7,0,9.1,0.4,9.5,0.8L10.3,0c0.2-0.2,0.3-0.4,0.5-0.5s0.5,0,0.8,0c0.3,0,0.6,0.1,0.8,0.3
			c0.3,0.3,0.6,0.7,1,1c0.3-0.3,0.6-0.6,0.9-1c0.2-0.3,0.5-0.4,0.9-0.4c0.2,0,0.4,0,0.7,0l0,0l-1.9,2l1.4,1.4l2-2l2,2l1.4-1.4
			l-1.9-1.9H20c0,0,0.1,0,0.1,0.1l0.8,0.8l0.4,0.4c0.4-0.4,0.8-0.8,1.2-1.2c0.1-0.1,0.2-0.1,0.3-0.1c0.2,0,0.5,0,0.7,0
			c0.2,0,0.5,0.1,0.6,0.3c0.3,0.4,0.7,0.7,1,1.1l1.2-1.2c0,0,0.1-0.1,0.2-0.1c0.4,0,0.7,0,1.2,0l-1.9,1.9l1.4,1.4l2-2l2,2l1.4-1.4
			l-1.9-1.9c0.3,0,0.5,0,0.8,0c0.3,0,0.5,0.1,0.7,0.3c0.3,0.3,0.7,0.7,1,1c0.3-0.3,0.7-0.7,1-1c0.2-0.2,0.5-0.4,0.8-0.3h0.3
			c0.3-0.1,0.7,0.1,0.8,0.3c0.3,0.3,0.6,0.6,0.9,1c0.4-0.4,0.7-0.7,1-1c0.2-0.2,0.4-0.3,0.7-0.3c0.2,0,0.4,0,0.6,0h0.2l0,0l-1.9,1.9
			l1.4,1.4l2-2l2,2l1.5-1.4l-1.9-1.9c0.3,0,0.7,0,1,0c0.1,0,0.2,0,0.2,0.1c0.4,0.3,0.7,0.7,1.1,1.1l0.1,0.1c0.3-0.3,0.6-0.6,0.9-0.9
			c0.2-0.3,0.6-0.5,1-0.4v0.6l-0.1,0.1L43.1,4l-1.4,1.4L43,6.7c0.3-0.3,0.7-0.7,1-1l2.6-2.6C46.7,3,46.8,2.9,47,2.8V4
			c-0.1,0-0.1,0.1-0.2,0.1l-2.4,2.4l-0.8,0.8L45,8.8L45,8.7l1.5-1.5L47,6.8z M46.4,35.1l-5.3-5.3l-5.3,5.3l1.3,1.3l4-4l4,4
			L46.4,35.1z M17.3,8.6l4,4l1.3-1.3l-5.3-5.3L12,11.4l1.3,1.3L17.3,8.6z M16.7,5.4l-5.3-5.3L6.1,5.4l1.3,1.3l4-4l4,4L16.7,5.4z
			 M35.1,35.7L29.8,41l1.3,1.3l4-4l4,4l1.3-1.3L35.1,35.7z M40.4,5.4l-5.3-5.3l-5.3,5.3l1.3,1.3l4-4l4,4L40.4,5.4z M28.6,5.4
			l-5.3-5.3L18,5.4l1.3,1.3l4-4l4,4L28.6,5.4z M19.3,18.6l4-4l4,4l1.3-1.3L23.3,12L18,17.3L19.3,18.6z M11.4,14.6l4,4l1.3-1.3
			L11.4,12l-5.3,5.3l1.3,1.3L11.4,14.6z M35.1,23.9l-5.3,5.3l1.3,1.3l4-4l4,4l1.3-1.3L35.1,23.9z M41.1,6.1l-5.3,5.3l1.3,1.3l4-4
			l4,4l1.3-1.3L41.1,6.1z M29.2,18l-5.3,5.3l1.3,1.3l4-4l4,4l1.3-1.3L29.2,18z M5.5,6.1l-5.3,5.3l1.3,1.3l4-4l4,4l1.3-1.3L5.5,6.1z
			 M34.5,11.4l-5.3-5.3l-5.3,5.3l1.3,1.3l4-4l4,4L34.5,11.4z M22.6,23.3L17.3,18l-5.3,5.3l1.3,1.3l4-4l4,4L22.6,23.3z M35.8,23.3
			l1.3,1.3l4-4l4,4l1.3-1.3L41.1,18L35.8,23.3z M40.4,17.4L35.1,12l-5.3,5.3l1.3,1.3l4-4.1l4,4L40.4,17.4z M5.5,18l-5.3,5.2l1.3,1.3
			l4-4l4,4l1.3-1.3L5.5,18z M33.2,36.4l1.3-1.3l-5.3-5.3l-5.3,5.3l1.3,1.3l4-4L33.2,36.4z M19.3,30.5l4-4l4,4l1.3-1.3l-5.3-5.3
			L18,29.2L19.3,30.5z M16.7,29.2l-5.3-5.3l-5.3,5.3l1.3,1.3l4-4l4,4L16.7,29.2z M1.5,36.4l4-4l4,4l1.3-1.3l-5.3-5.3l-5.3,5.3
			L1.5,36.4z M11.5,38.3l4,4l1.3-1.3l-5.3-5.3L6.1,41l1.3,1.3L11.5,38.3z M27.3,42.3l1.3-1.3l-5.3-5.3L18,41l1.3,1.3l4-4L27.3,42.3z
			 M17.4,32.3l4,4l1.3-1.3l-5.3-5.3L12,35.1l1.3,1.3L17.4,32.3z M26.6,43l-3.4-3.4L19.9,43l1.4,1.4l2-2l2,2L26.6,43z M5.5,12.6l2,2
			l1.4-1.4L5.5,9.9l-3.4,3.4l1.4,1.4L5.5,12.6z M23.3,6.7l2,2l1.4-1.4L23.3,4l-3.4,3.4l1.4,1.4L23.3,6.7z M44.4,25.2L41,21.8
			l-3.4,3.4l1.4,1.4l2-2l2,2L44.4,25.2z M11.4,4L8.1,7.4l1.4,1.4l2-2l2,2l1.4-1.4L11.4,4z M33.2,8.8l2-2.1l2,2l1.4-1.4L35.1,4
			l-3.4,3.4L33.2,8.8z M20.7,25.1l-3.4-3.4L14,25.2l1.4,1.4l2-2l2,2L20.7,25.1z M32.6,13.3l-3.4-3.4l-3.4,3.4l1.4,1.4l2-2l2,2
			L32.6,13.3z M21.3,20.6l2-2l1.9,2l1.4-1.4l-3.4-3.4l-3.4,3.4L21.3,20.6z M13.4,20.6l1.4-1.4l-3.4-3.4L8,19.2l1.4,1.4l2-2
			L13.4,20.6z M15.4,14.7l2-2l2,2l1.4-1.4l-3.4-3.4L14,13.3L15.4,14.7z M14.8,31.1l-3.4-3.4l-3.4,3.4l1.4,1.5l2-2l2,2L14.8,31.1z
			 M5.5,33.6L2.1,37l1.4,1.4l2-2l2,2L8.9,37L5.5,33.6z M3.5,26.6l2-2l2,2l1.4-1.4l-3.4-3.4l-3.4,3.4L3.5,26.6z M27.2,38.4l2-2l2,2
			l1.4-1.4l-3.4-3.4L25.8,37L27.2,38.4z M38.5,31.1l-3.3-3.4l-3.4,3.4l1.4,1.4l2-2l2,2L38.5,31.1z M31.8,19.2l1.4,1.4l2-2l2,2
			l1.4-1.4l-3.4-3.4L31.8,19.2z M38.5,43l-3.4-3.4L31.8,43l1.4,1.4l2-2l2,2L38.5,43z M43,14.7l1.4-1.4L41.1,10l-3.4,3.4l1.4,1.4l2-2
			L43,14.7z M23.3,27.7l-3.4,3.4l1.4,1.4l2-2l2,2l1.4-1.4L23.3,27.7z M17.3,33.7L13.9,37l1.4,1.4l2-2l2,2l1.4-1.4L17.3,33.7z
			 M27.2,26.6l2-2l1.9,1.9l1.4-1.4l-3.4-3.4l-3.4,3.4L27.2,26.6z M41.1,33.7L37.7,37l1.4,1.4l2-2l2,2l1.4-1.4L41.1,33.7z M9.4,44.4
			l2-2l2,2l1.3-1.4l-3.4-3.4L8,43L9.4,44.4z M17.4,2L16,3.4l1.4,1.4l1.4-1.4L17.4,2z M30.6,3.4l-1.4-1.3l-1.4,1.4l1.4,1.4L30.6,3.4z
			 M15.9,15.3l1.4,1.3l1.4-1.3l-1.4-1.4L15.9,15.3z M11.4,19.8L10,21.2l1.4,1.4l1.4-1.4L11.4,19.8z M23.3,10.8l1.4-1.4L23.3,8
			l-1.4,1.4L23.3,10.8z M27.8,15.3l1.4,1.4l1.4-1.4l-1.4-1.4L27.8,15.3z M5.4,16.7l1.4-1.4l-1.4-1.4l-1.4,1.4L5.4,16.7z M15.9,27.2
			l1.4,1.4l1.4-1.4l-1.4-1.4L15.9,27.2z M41.1,13.9l-1.4,1.4l1.4,1.4l1.4-1.4L41.1,13.9z M23.3,34.5l1.4-1.4l-1.3-1.3l-1.4,1.3
			L23.3,34.5z M24.6,21.3l-1.4-1.4l-1.3,1.4l1.4,1.4L24.6,21.3z M11.4,34.5l1.4-1.4l-1.4-1.4L10,33.1L11.4,34.5z M17.4,40.4l1.3-1.4
			l-1.3-1.4L16,39L17.4,40.4z M11.4,10.8l1.4-1.4L11.4,8L10,9.4L11.4,10.8z M33.8,21.2l1.4,1.4l1.4-1.3l-1.3-1.4L33.8,21.2z
			 M5.4,37.7L4.1,39l1.4,1.4L6.9,39L5.4,37.7z M12.8,45l-1.4-1.4L10,45l1.4,1.4L12.8,45z M6.9,3.4L5.5,2.1L4.1,3.4l1.4,1.4L6.9,3.4z
			 M36.5,45l-1.4-1.4L33.8,45l1.4,1.4L36.5,45z M33.8,9.3l1.4,1.4l1.4-1.4L35.1,8L33.8,9.3z M4.1,27.1l1.3,1.4l1.4-1.4l-1.4-1.4
			L4.1,27.1z M21.9,45l1.3,1.3l1.3-1.3l-1.3-1.4L21.9,45z M29.2,25.8l-1.3,1.3l1.3,1.4l1.4-1.4L29.2,25.8z M30.6,39l-1.4-1.4
			L27.8,39l1.4,1.4L30.6,39z M41.1,2.1l-1.4,1.3l1.4,1.4l1.4-1.4L41.1,2.1z M39.7,39l1.4,1.4l1.4-1.4l-1.3-1.4L39.7,39z M41.1,25.8
			l-1.4,1.3l1.4,1.4l1.4-1.4L41.1,25.8z M36.5,33.1l-1.4-1.4l-1.4,1.4l1.4,1.4L36.5,33.1z"/>
		<path class="st2" d="M2.8,47c0-0.1,0.1-0.1,0.1-0.2l2.4-2.4l0.1-0.1c0.1,0.2,0.3,0.3,0.4,0.5l2.1,2.2c0,0,0.1,0.1,0.1,0.1H7l0,0
			l-1.4-1.4l-0.1-0.1L4,46.9l0,0L2.8,47z"/>
		<path class="st2" d="M14.6,47l2.7-2.7l0.5,0.4l2,2L20,47h-1.2c0,0-0.1-0.1-0.1-0.1c-0.3-0.3-0.6-0.6-0.9-0.9
			c-0.1-0.1-0.3-0.3-0.4-0.5l-1,1L15.8,47L14.6,47z"/>
		<path class="st2" d="M38.3,47l2.4-2.4l0.3-0.4c0.3,0.3,0.5,0.6,0.8,0.8l1.7,1.7c0.1,0.1,0.1,0.2,0.2,0.2h-1.2
			c-0.3-0.3-0.7-0.7-1-1c-0.2-0.2-0.3-0.4-0.5-0.5l-1.2,1.2c-0.1,0.1-0.2,0.2-0.3,0.3L38.3,47z"/>
		<path class="st2" d="M26.5,47l0.3-0.3l1.9-1.9l0.5-0.5l0.8,0.8l1.8,1.8c0,0,0.1,0.1,0.1,0.2h-1.2v-0.1c-0.5-0.4-0.9-0.9-1.3-1.3
			l-0.1-0.1L27.8,47l0,0L26.5,47z"/>
		<path class="st1" d="M39.6,47c0.1-0.1,0.2-0.2,0.3-0.3l1.2-1.2c0.2,0.2,0.3,0.4,0.5,0.5c0.3,0.3,0.6,0.7,1,1L39.6,47z"/>
		<path class="st1" d="M27.7,47L27.7,47l1.4-1.5l0.1,0.1c0.4,0.5,0.9,0.9,1.3,1.3v0.1L27.7,47z"/>
		<path class="st1" d="M15.9,47l0.5-0.6l1-1c0.1,0.2,0.3,0.3,0.4,0.5c0.3,0.3,0.6,0.6,0.9,0.9c0,0,0.1,0.1,0.1,0.1L15.9,47z"/>
		<path class="st1" d="M4,47L4,47l1.5-1.5l0.1,0.1L6.9,47l0,0L4,47z"/>
		<path class="st1" d="M47,46.3l-1.4-1.5c0.1,0,0.1-0.1,0.2-0.2l1-1l0.2-0.1L47,46.3z"/>
		<path class="st1" d="M47,22.6l-1.4-1.4l0.5-0.5l0.9-0.8V22.6z"/>
		<path class="st1" d="M47,34.5L45.6,33l0.4-0.4l1-1L47,34.5z"/>
		<path class="st1" d="M47,10.8l-1.4-1.4l1-1L47,8V10.8z"/>
		<path class="st1" d="M46.4,35.1l-1.3,1.3l-4-4l-4,4l-1.3-1.3l5.3-5.3L46.4,35.1z"/>
		<path class="st1" d="M17.3,8.6l-4,4l-1.3-1.3L17.4,6l5.3,5.3l-1.3,1.3L17.3,8.6z"/>
		<path class="st1" d="M16.7,5.4l-1.3,1.3l-4-4l-4,4.1L6.1,5.4l5.3-5.3L16.7,5.4z"/>
		<path class="st1" d="M35.1,35.7l5.3,5.3l-1.3,1.3l-4-4l-4,4L29.8,41L35.1,35.7z"/>
		<path class="st1" d="M40.4,5.4l-1.3,1.3l-4-4l-4,4l-1.3-1.3l5.3-5.3L40.4,5.4z"/>
		<path class="st1" d="M28.6,5.5l-1.3,1.3l-4-4l-4,4L18,5.4l5.3-5.3L28.6,5.5z"/>
		<path class="st1" d="M19.3,18.6L18,17.3l5.3-5.3l5.3,5.3l-1.3,1.3l-4-4L19.3,18.6z"/>
		<path class="st1" d="M11.4,14.6l-4,4l-1.3-1.3l5.3-5.3l5.3,5.3l-1.3,1.3L11.4,14.6z"/>
		<path class="st1" d="M35.1,23.9l5.3,5.3l-1.3,1.3l-4-4l-4,4l-1.3-1.3L35.1,23.9z"/>
		<path class="st1" d="M41.1,6.1l5.3,5.3l-1.3,1.3l-4-4l-4,4l-1.3-1.3L41.1,6.1z"/>
		<path class="st1" d="M29.2,18l5.3,5.3l-1.3,1.2l-4-4l-4,4l-1.3-1.3L29.2,18z"/>
		<path class="st1" d="M5.5,6.1l5.3,5.3l-1.3,1.3l-4-4l-4,4l-1.3-1.3L5.5,6.1z"/>
		<path class="st1" d="M34.5,11.4l-1.3,1.3l-4-4l-4,4l-1.3-1.3l5.3-5.3L34.5,11.4z"/>
		<path class="st1" d="M22.6,23.3l-1.3,1.3l-4-4l-4,4l-1.3-1.3l5.3-5.2L22.6,23.3z"/>
		<path class="st1" d="M35.8,23.3l5.3-5.3l5.3,5.3l-1.3,1.3l-4-4l-4,4L35.8,23.3z"/>
		<path class="st1" d="M40.4,17.3l-1.3,1.3l-4-4l-4,4.1l-1.3-1.3l5.3-5.4L40.4,17.3z"/>
		<path class="st1" d="M5.5,18l5.3,5.3l-1.3,1.2l-4-4l-4,4l-1.3-1.3L5.5,18z"/>
		<path class="st1" d="M33.2,36.4l-4-4l-4,4l-1.3-1.3l5.3-5.3l5.3,5.3L33.2,36.4z"/>
		<path class="st1" d="M19.3,30.5L18,29.2l5.3-5.3l5.3,5.3l-1.3,1.3l-4-4L19.3,30.5z"/>
		<path class="st1" d="M16.7,29.2l-1.3,1.3l-4-4l-4,4l-1.3-1.3l5.3-5.3L16.7,29.2z"/>
		<path class="st1" d="M1.5,36.4l-1.3-1.3l5.3-5.3l5.3,5.3l-1.3,1.3l-4-4L1.5,36.4z"/>
		<path class="st1" d="M11.4,38.3l-4,4L6.1,41l5.3-5.3l5.3,5.3l-1.3,1.3L11.4,38.3z"/>
		<path class="st1" d="M27.3,42.3l-4-4l-4,4L17.9,41l5.3-5.3l5.3,5.3L27.3,42.3z"/>
		<path class="st1" d="M17.3,32.4l-4,4L12,35.1l5.3-5.3l5.3,5.3l-1.3,1.3L17.3,32.4z"/>
		<path class="st1" d="M26.6,43l-1.4,1.4l-2-2l-2,2L19.9,43l3.4-3.4L26.6,43z"/>
		<path class="st1" d="M5.5,12.6l-2,2l-1.4-1.4l3.4-3.4l3.4,3.4l-1.4,1.4L5.5,12.6z"/>
		<path class="st1" d="M23.3,6.7l-2,2l-1.4-1.4L23.3,4l3.4,3.4l-1.4,1.4L23.3,6.7z"/>
		<path class="st1" d="M44.4,25.2l-1.4,1.4l-2-2l-2,2l-1.4-1.4l3.4-3.4L44.4,25.2z"/>
		<path class="st1" d="M11.4,4l3.4,3.4l-1.4,1.4l-2-2l-2,2L8.1,7.3L11.4,4z"/>
		<path class="st1" d="M33.2,8.8l-1.4-1.4L35.1,4l3.4,3.4l-1.4,1.4l-2-2L33.2,8.8z"/>
		<path class="st1" d="M20.7,25.1l-1.4,1.4l-2-2l-2,2L14,25.2l3.4-3.4L20.7,25.1z"/>
		<path class="st1" d="M32.6,13.3l-1.4,1.4l-2-2l-2,2l-1.4-1.4l3.4-3.4L32.6,13.3z"/>
		<path class="st1" d="M21.3,20.6l-1.4-1.4l3.4-3.4l3.4,3.4l-1.4,1.4l-1.9-2L21.3,20.6z"/>
		<path class="st1" d="M13.4,20.6l-2-2l-2,2L8,19.2l3.4-3.4l3.4,3.4L13.4,20.6z"/>
		<path class="st1" d="M15.4,14.7l-1.4-1.4l3.4-3.4l3.4,3.4l-1.4,1.4l-2-2L15.4,14.7z"/>
		<path class="st1" d="M14.8,31.1l-1.4,1.4l-2-2l-2,2L8,31.1l3.4-3.4L14.8,31.1z"/>
		<path class="st1" d="M5.5,33.6L8.9,37l-1.4,1.4l-2-2l-2,2L2.1,37L5.5,33.6z"/>
		<path class="st1" d="M3.5,26.5l-1.4-1.4l3.4-3.4l3.4,3.4l-1.4,1.4l-2-2L3.5,26.5z"/>
		<path class="st1" d="M27.2,38.4L25.8,37l3.4-3.4l3.4,3.4l-1.4,1.4l-2-2L27.2,38.4z"/>
		<path class="st1" d="M38.5,31.1l-1.3,1.4l-2-2l-2,2l-1.4-1.4l3.4-3.4L38.5,31.1z"/>
		<path class="st1" d="M31.8,19.2l3.3-3.4l3.4,3.4l-1.4,1.4l-2-2l-2,2L31.8,19.2z"/>
		<path class="st1" d="M38.5,43l-1.4,1.4l-2-2l-2,2L31.8,43l3.4-3.4L38.5,43z"/>
		<path class="st1" d="M43,14.7l-2-2l-2,2l-1.4-1.4L41,9.9l3.4,3.4L43,14.7z"/>
		<path class="st1" d="M23.3,27.7l3.4,3.3l-1.4,1.4l-2-2l-2,2L19.9,31L23.3,27.7z"/>
		<path class="st1" d="M17.4,33.6l3.4,3.4l-1.4,1.4l-2-2l-2,2L13.9,37L17.4,33.6z"/>
		<path class="st1" d="M27.2,26.6l-1.4-1.4l3.4-3.4l3.4,3.4l-1.4,1.4l-1.9-1.9L27.2,26.6z"/>
		<path class="st1" d="M41.1,33.6l3.4,3.4l-1.4,1.4l-2-2l-2,2L37.7,37L41.1,33.6z"/>
		<path class="st1" d="M9.4,44.4L8,43l3.4-3.4l3.4,3.4l-1.4,1.4l-2-2L9.4,44.4z"/>
		<path class="st1" d="M17.4,2.1l1.4,1.4l-1.4,1.4L16,3.4L17.4,2.1z"/>
		<path class="st1" d="M30.6,3.4l-1.4,1.4l-1.4-1.4l1.4-1.4L30.6,3.4z"/>
		<path class="st1" d="M15.9,15.3l1.4-1.4l1.4,1.4l-1.4,1.3L15.9,15.3z"/>
		<path class="st1" d="M11.4,19.8l1.4,1.4l-1.4,1.4L10,21.2L11.4,19.8z"/>
		<path class="st1" d="M23.3,10.8l-1.4-1.4L23.3,8l1.3,1.3L23.3,10.8z"/>
		<path class="st1" d="M27.8,15.3l1.4-1.4l1.4,1.4l-1.4,1.4L27.8,15.3z"/>
		<path class="st1" d="M5.4,16.7l-1.4-1.4l1.4-1.4l1.4,1.4L5.4,16.7z"/>
		<path class="st1" d="M15.9,27.2l1.4-1.4l1.4,1.4l-1.4,1.4L15.9,27.2z"/>
		<path class="st1" d="M41.1,13.9l1.3,1.4l-1.4,1.4l-1.4-1.4L41.1,13.9z"/>
		<path class="st1" d="M23.3,34.5l-1.4-1.4l1.4-1.3l1.3,1.3L23.3,34.5z"/>
		<path class="st1" d="M24.6,21.3l-1.3,1.3l-1.4-1.4l1.3-1.4L24.6,21.3z"/>
		<path class="st1" d="M11.4,34.5L10,33.1l1.4-1.4l1.4,1.4L11.4,34.5z"/>
		<path class="st1" d="M17.4,40.4L16,39l1.4-1.4l1.3,1.4L17.4,40.4z"/>
		<path class="st1" d="M11.4,10.8L10,9.4L11.4,8l1.4,1.4L11.4,10.8z"/>
		<path class="st1" d="M33.8,21.2l1.4-1.4l1.3,1.4l-1.4,1.3L33.8,21.2z"/>
		<path class="st1" d="M5.4,37.7L6.9,39l-1.4,1.4L4.1,39L5.4,37.7z"/>
		<path class="st1" d="M12.8,45l-1.4,1.3L10,45l1.4-1.4L12.8,45z"/>
		<path class="st1" d="M6.9,3.4L5.5,4.8L4.1,3.4l1.3-1.3L6.9,3.4z"/>
		<path class="st1" d="M36.5,45l-1.4,1.3L33.8,45l1.3-1.4L36.5,45z"/>
		<path class="st1" d="M33.8,9.3L35.1,8l1.4,1.4l-1.4,1.4L33.8,9.3z"/>
		<path class="st1" d="M4.1,27.1l1.4-1.3l1.4,1.4l-1.4,1.4L4.1,27.1z"/>
		<path class="st1" d="M21.9,45l1.3-1.4l1.3,1.4l-1.3,1.3L21.9,45z"/>
		<path class="st1" d="M29.2,25.8l1.4,1.4l-1.4,1.4l-1.3-1.4L29.2,25.8z"/>
		<path class="st1" d="M30.6,39l-1.4,1.3L27.8,39l1.3-1.4L30.6,39z"/>
		<path class="st1" d="M41.1,2.1l1.3,1.3l-1.4,1.4l-1.4-1.4L41.1,2.1z"/>
		<path class="st1" d="M39.7,39l1.4-1.4l1.4,1.4l-1.4,1.4L39.7,39z"/>
		<path class="st1" d="M41.1,25.8l1.3,1.3l-1.4,1.4l-1.4-1.4L41.1,25.8z"/>
		<path class="st1" d="M36.5,33.1l-1.4,1.4l-1.4-1.4l1.4-1.4L36.5,33.1z"/>
	</g>
</g>
</svg>
