<?xml version="1.0" encoding="utf-8"?>
<!-- Generator: Adobe Illustrator 22.1.0, SVG Export Plug-In . SVG Version: 6.00 Build 0)  -->
<svg version="1.1" id="Calque_1" xmlns="http://www.w3.org/2000/svg" xmlns:xlink="http://www.w3.org/1999/xlink" x="0px" y="0px"
	 viewBox="0 0 47 47" style="enable-background:new 0 0 47 47;" xml:space="preserve">
<style type="text/css">
	.st0{clip-path:url(#SVGID_2_);}
	.st1{fill:#DFDFDF;}
	.st2{fill:#3A33FF;}
</style>
<title>bouton</title>
<g>
	<defs>
		<circle id="SVGID_1_" cx="23.5" cy="23.5" r="23.5"/>
	</defs>
	<clipPath id="SVGID_2_">
		<use xlink:href="#SVGID_1_"  style="overflow:visible;"/>
	</clipPath>
	<g class="st0">
		<path class="st1" d="M37.6-2.6H42c1,0.2,2,0.7,2.6,1.6c0.5,0.4,0.7,1,0.7,1.6c0-1.5,1.1-2.5,3.3-3.2h2.2v2.4
			c-0.3,1.6-1.6,2.9-3.2,3.3c1.7-0.2,2.7,0.9,3.2,3.1v4.6c-0.3,1.6-1.6,2.9-3.2,3.3c1.7-0.2,2.7,0.9,3.2,3.1v4.6
			c-0.3,1.6-1.6,2.9-3.2,3.3c1.7-0.2,2.7,0.9,3.2,3.1v4.6c-0.7,2-1,2.3-2.9,3.3c1.4-0.2,2.4,0.9,2.9,3.1v4.6c-0.7,2-1,2.3-2.9,3.3
			c1.4-0.2,2.4,0.9,2.9,3.1v2.2c-2.2,0.4-4.1,0-5.3-2c-0.2-0.1-0.3-0.1-0.3,0c-1,1.6-2.8,2.4-4.6,2.1c-0.7,0-1.4,0-2.1,0
			c-1.5,0.1-2.9-0.5-3.7-1.7c-0.3-0.5-0.6-0.6-1,0c-0.9,1.2-2.3,1.9-3.8,1.7c-0.8,0-1.7,0-2.6,0c-1.5,0.1-2.9-0.6-3.7-1.7
			c-0.3-0.4-0.5-0.7-0.9-0.1c-0.9,1.3-2.5,2.1-4.1,1.9c-0.6,0-1.2,0-1.8,0c-1.9,0.1-3.5-0.4-4.5-2.1c-0.2-0.1-0.3-0.1-0.3,0
			c-1,1.6-2.8,2.4-4.6,2.2c-0.8,0-1.5,0-2.3,0c-1.7,0-3.3-0.9-4-2.5c-1.1,2-2.7,2.6-4.8,2.5c-0.7,0-0.8-0.3-0.9-0.9
			c-0.2-1.6,0.4-3.1,1.7-4.1c0.6-0.5,0.7-0.8,0-1.3c-1.2-0.9-1.9-2.5-1.6-4c0-0.6,0-1.1,0-1.7c-0.2-1.6,0.4-3.1,1.7-4.1
			c0.6-0.4,0.7-0.8,0-1.3c-1.3-0.9-1.9-2.4-1.7-3.9c0-0.2,0-0.5,0-0.7c-0.2-2.3,0.2-4.3,2.6-5.7c-2.3-1.3-2.6-3.2-2.6-5.5
			S-4,15.2-1.9,14c-1-1-2.3-1.7-2.4-3.2c-0.1-1.5-0.1-3.1,0-4.6C-4.1,5.2-3.7,4.4-3,3.9c0.4-0.3,0.7-0.6,1-1c-1.9-1-2.9-3.3-2.2-5.4
			H-2C-1-2.4,0-1.8,0.7-1c0.5,0.4,0.7,1,0.7,1.6c0-1.5,1.1-2.5,3.3-3.2H9c1.2,0.2,2.2,0.9,2.9,1.8c0.3,0.4,0.6,0.8,0.3,1.3
			c0.4-1.6,1.8-2.8,3.5-3.1H20c1,0.2,2,0.7,2.6,1.6c0.5,0.4,0.7,1,0.7,1.6c0-1.5,1.1-2.5,3.3-3.2H31c1.2,0.2,2.2,0.9,2.9,1.8
			c0.4,0.4,0.5,0.9,0.2,1.4C34.5-1,35.9-2.3,37.6-2.6z"/>
		<path class="st2" d="M-4.2-2.6c-0.4,2.7,1.3,4.2,3.3,5.5c-3,1.5-4.3,5.2-2.7,8.3c0.6,1.2,1.6,2.2,2.7,2.7c-2,1.3-3.3,2.8-3.4,5.5
			s1.3,4.2,3.4,5.5c-3,1.5-4.3,5.2-2.7,8.3c0.6,1.2,1.6,2.2,2.7,2.7c-2,1.3-3.4,2.8-3.4,5.5c0,2.7,1.2,4.2,3.3,5.5
			c-0.9,0.6-1.7,1.3-2.4,2.1c-0.8,1-1.2,2.8-0.8,3.3s2.2,0.1,3.3-0.6c0.9-0.7,1.6-1.6,2.1-2.6c0.9,2.2,3.1,3.5,5.5,3.4
			c2.4,0.1,4.6-1.3,5.5-3.6c0.9,2.2,3.1,3.6,5.5,3.5c2.3,0.2,4.5-1.2,5.4-3.3c3.8,4.8,7.7,4.7,11.1,0.1c3.6,4.7,7.6,4.7,11.1-0.1
			c1.2,2.2,2.8,3.6,5.5,3.3c0,0.5-0.3,0.2-0.5,0.2H-3.8c-0.6,0-0.7-0.1-0.7-0.7c0-18,0-36,0-54.1C-4.4-2.2-4.7-2.6-4.2-2.6z"/>
		<path class="st2" d="M37.6-2.6c-1.4,0.8-2.5,1.9-3.3,3.3c-0.8-1.4-2-2.5-3.3-3.3H37.6z"/>
		<path class="st2" d="M15.6-2.6c-1.4,0.8-2.5,2-3.3,3.4C11.5-0.6,10.4-1.8,9-2.6H15.6z"/>
		<path class="st2" d="M26.6-2.6c-1.4,0.8-2.5,1.9-3.3,3.3c-0.8-1.4-2-2.5-3.3-3.3H26.6z"/>
		<path class="st2" d="M4.6-2.6C3.2-1.8,2.1-0.6,1.3,0.8C0.5-0.6-0.6-1.7-2-2.6H4.6z"/>
		<path class="st2" d="M48.6-2.6c-1.4,0.8-2.5,2-3.3,3.4c-0.8-1.4-2-2.6-3.3-3.4H48.6z"/>
		<path class="st2" d="M50.8,28.2c-0.7-1.5-2-2.7-3.5-3.3c1.5-0.6,2.7-1.7,3.5-3V28.2z"/>
		<path class="st2" d="M50.8,50.2c-0.7-1.5-2-2.7-3.5-3.3c1.4-0.6,2.7-1.7,3.5-3V50.2z"/>
		<path class="st2" d="M50.8,17.2c-0.7-1.5-1.9-2.7-3.5-3.3c1.4-0.6,2.7-1.7,3.5-3.1V17.2z"/>
		<path class="st2" d="M50.8,39.2c-0.7-1.5-1.9-2.7-3.5-3.3c1.4-0.7,2.6-1.7,3.5-3.1V39.2z"/>
		<path class="st2" d="M50.8,6.2c-0.7-1.5-2-2.7-3.5-3.2c1.5-0.6,2.7-1.7,3.5-3.1V6.2z"/>
		<path class="st2" d="M14.4,35.9c1.5-0.7,2.8-1.8,3.5-3.3c0.8,1.4,1.9,2.5,3.4,3.3c-1.5,0.8-2.6,2.1-3.3,3.6
			C17.2,37.9,16,36.6,14.4,35.9z"/>
		<path class="st2" d="M48.7,8.5c-1.4,0.7-2.6,1.9-3.4,3.3c-0.8-1.4-1.9-2.6-3.4-3.3c1.5-0.7,2.7-2,3.3-3.6
			C45.9,6.5,47.2,7.7,48.7,8.5z"/>
		<path class="st2" d="M-2.1,8.5C-0.6,7.8,0.6,6.5,1.3,5C2,6.5,3.2,7.7,4.6,8.4c-1.4,0.8-2.5,1.9-3.3,3.3C0.5,10.4-0.7,9.2-2.1,8.5z
			"/>
		<path class="st2" d="M8.9,41.4c1.6-0.6,2.8-1.8,3.4-3.4c0.7,1.5,1.8,2.7,3.3,3.3c-1.4,0.8-2.5,2-3.3,3.5
			C11.5,43.4,10.3,42.2,8.9,41.4z"/>
		<path class="st2" d="M45.3,26.9c0.7,1.5,1.9,2.8,3.3,3.5c-1.4,0.8-2.5,2-3.3,3.3c-0.8-1.4-2-2.5-3.4-3.3
			C43.5,29.7,44.6,28.5,45.3,26.9z"/>
		<path class="st2" d="M14.3,14c1.5-0.6,2.8-1.8,3.5-3.3c0.8,1.4,2,2.5,3.4,3.2c-1.5,0.8-2.7,2-3.4,3.5C17.2,15.9,15.9,14.6,14.3,14
			z"/>
		<path class="st2" d="M26.6,30.5c-1.4,0.7-2.6,1.9-3.3,3.3c-0.8-1.4-2-2.6-3.4-3.3c1.5-0.7,2.7-1.9,3.4-3.5
			C24,28.5,25.2,29.7,26.6,30.5z"/>
		<path class="st2" d="M36.4,14c1.5-0.7,2.7-1.9,3.4-3.4c0.8,1.4,1.9,2.6,3.3,3.4c-1.5,0.8-2.6,2.1-3.3,3.6
			C39.2,15.9,38,14.7,36.4,14z"/>
		<path class="st2" d="M39.9,39.4c-1.1-1.8-1.1-1.8-3.4-3.5c1.5-0.7,2.6-1.9,3.3-3.3c0.8,1.4,2,2.6,3.4,3.3
			C41.7,36.7,40.6,37.9,39.9,39.4z"/>
		<path class="st2" d="M15.8,19.4c-1.5,0.7-2.7,1.9-3.4,3.3c-0.9-1.4-2.1-2.6-3.6-3.3c1.6-0.6,2.9-1.9,3.5-3.4
			C13,17.5,14.2,18.8,15.8,19.4z"/>
		<path class="st2" d="M19.9,19.5c1.5-0.7,2.8-1.9,3.4-3.5c0.7,1.5,1.9,2.7,3.4,3.4c-1.4,0.8-2.5,2-3.3,3.4
			C22.5,21.4,21.3,20.2,19.9,19.5z"/>
		<path class="st2" d="M30.8,19.4c1.6-0.6,2.8-1.8,3.4-3.4c0.7,1.5,1.9,2.7,3.4,3.4c-1.4,0.8-2.6,2-3.3,3.4
			C33.5,21.3,32.3,20.2,30.8,19.4z"/>
		<path class="st2" d="M48.7,19.4c-1.4,0.7-2.6,1.9-3.4,3.3c-0.8-1.4-2-2.5-3.4-3.3c1.5-0.7,2.7-1.9,3.4-3.5
			C46,17.5,47.2,18.8,48.7,19.4z"/>
		<path class="st2" d="M4.7,30.5c-1.4,0.7-2.6,1.9-3.4,3.3c-0.8-1.4-1.9-2.5-3.3-3.3c1.4-0.9,2.7-1.7,3.3-3.6
			C2,28.5,3.2,29.7,4.7,30.5z"/>
		<path class="st2" d="M23.3,11.8c-0.8-1.4-2-2.6-3.4-3.3c1.5-0.7,2.8-1.9,3.4-3.5c0.7,1.5,1.9,2.7,3.4,3.5
			C25.2,9.2,24.1,10.4,23.3,11.8z"/>
		<path class="st2" d="M45.3,37.9c0.6,1.5,1.8,2.8,3.3,3.5c-1.4,0.8-2.6,1.9-3.4,3.3c-0.8-1.4-2-2.5-3.4-3.3
			C43.4,40.7,44.6,39.5,45.3,37.9z"/>
		<path class="st2" d="M30.8,41.4c1.6-0.6,2.8-1.8,3.5-3.4c0.7,1.5,1.9,2.7,3.3,3.4c-1.4,0.8-2.6,1.9-3.3,3.4
			C33.5,43.3,32.3,42.2,30.8,41.4z"/>
		<path class="st2" d="M23.3,44.8c-0.8-1.4-1.9-2.6-3.4-3.4c1.5-0.7,2.7-1.9,3.4-3.4c0.7,1.5,1.9,2.8,3.4,3.5
			C25.3,42.2,24.1,43.4,23.3,44.8z"/>
		<path class="st2" d="M39.8,43.5c0.8,1.5,1.9,2.6,3.4,3.4c-1.5,0.8-2.6,2-3.3,3.5c-0.6-1.6-1.9-2.8-3.5-3.4
			C37.9,46.3,39.1,45.1,39.8,43.5z"/>
		<path class="st2" d="M4.7,19.4c-1.4,0.8-2.6,1.9-3.3,3.3c-0.8-1.4-2-2.6-3.5-3.3c1.5-0.7,2.8-1.9,3.4-3.5
			C1.9,17.5,3.2,18.7,4.7,19.4z"/>
		<path class="st2" d="M39.8-0.4c0.8,1.4,1.9,2.6,3.3,3.3c-1.4,0.8-2.6,2.1-3.3,3.6C39.2,4.9,38,3.6,36.4,3
			C37.9,2.3,39.1,1.1,39.8-0.4z"/>
		<path class="st2" d="M1.3,44.8c-0.8-1.4-2-2.5-3.4-3.3c1.5-0.7,2.7-1.9,3.3-3.5c0.7,1.5,1.9,2.8,3.5,3.4
			C3.3,42.2,2.1,43.3,1.3,44.8z"/>
		<path class="st2" d="M34.3,33.8c-0.7-1.5-1.9-2.7-3.4-3.4c1.5-0.7,2.7-1.9,3.4-3.4c0.7,1.5,1.9,2.7,3.4,3.4
			C36.2,31.2,35.1,32.4,34.3,33.8z"/>
		<path class="st2" d="M14.3,25c1.6-0.6,2.8-1.8,3.5-3.4c0.8,1.4,2,2.5,3.4,3.3c-1.4,0.8-2.6,2-3.3,3.4C17.1,26.8,15.9,25.6,14.3,25
			z"/>
		<path class="st2" d="M39.8,21.5c0.7,1.5,1.9,2.6,3.3,3.4c-1.4,0.8-2.6,2-3.3,3.5c-0.7-1.5-1.9-2.7-3.5-3.4
			C37.9,24.3,39.1,23,39.8,21.5z"/>
		<path class="st2" d="M12.3,11.8c-0.7-1.4-1.9-2.6-3.3-3.3c1.4-0.9,2.7-1.7,3.3-3.6c0.6,1.4,1.7,2.6,3,3.3c0.4,0.2,0.3,0.4-0.1,0.6
			C14,9.5,13,10.6,12.3,11.8z"/>
		<path class="st2" d="M15.7,30.5c-1.4,0.8-2.6,1.9-3.4,3.4c-0.7-1.5-1.9-2.6-3.4-3.3c1.5-0.8,2.7-2,3.3-3.5
			C13,28.5,14.2,29.7,15.7,30.5z"/>
		<path class="st2" d="M34.3,11.8c-0.7-1.5-1.9-2.6-3.4-3.3c1.5-0.7,2.7-2,3.3-3.5c0.6,1.4,1.6,2.5,2.9,3.2c0.4,0.2,0.3,0.4,0,0.6
			C36,9.5,35,10.6,34.3,11.8z"/>
		<path class="st2" d="M6.9,6.4C6.2,4.8,4.9,3.6,3.3,3c1.5-0.7,2.8-1.9,3.5-3.4c0.8,1.4,2,2.6,3.4,3.3C8.8,3.7,7.6,4.9,6.9,6.4z"/>
		<path class="st2" d="M17.8-0.5c0.8,1.5,1.9,2.6,3.4,3.4c-1.4,0.8-2.6,2-3.3,3.4c-0.7-1.5-1.9-2.7-3.5-3.3
			C15.9,2.3,17.2,1.1,17.8-0.5z"/>
		<path class="st2" d="M28.8,6.3c-0.7-1.5-1.9-2.7-3.5-3.3c1.5-0.7,2.8-1.9,3.4-3.5c0.8,1.4,1.9,2.6,3.4,3.4
			C30.8,3.7,29.6,4.9,28.8,6.3z"/>
		<path class="st2" d="M6.8,17.4c-0.7-1.5-1.9-2.7-3.5-3.4c1.5-0.7,2.7-1.9,3.4-3.4c0.8,1.4,2,2.5,3.4,3.3
			C8.7,14.7,7.6,15.9,6.8,17.4z"/>
		<path class="st2" d="M28.8,43.5c0.7,1.4,1.9,2.6,3.3,3.4c-1.4,0.8-2.5,2-3.3,3.4c-0.7-1.5-1.9-2.7-3.4-3.3
			C26.9,46.3,28.1,45.1,28.8,43.5z"/>
		<path class="st2" d="M21.3,46.9c-1.5,0.8-2.6,2-3.4,3.4c-0.7-1.5-1.9-2.7-3.4-3.3c1.5-0.7,2.7-1.9,3.4-3.4
			C18.6,45,19.8,46.2,21.3,46.9z"/>
		<path class="st2" d="M3.3,46.9c1.6-0.6,2.8-1.8,3.5-3.3c0.8,1.4,2,2.5,3.4,3.3c-1.4,0.8-2.6,2-3.3,3.4C6.1,48.8,4.9,47.6,3.3,46.9
			z"/>
		<path class="st2" d="M32.2,13.9c-1.4,0.8-2.6,2-3.4,3.4c-0.7-1.5-1.9-2.7-3.5-3.4c1.5-0.7,2.7-1.9,3.4-3.4
			C29.6,12,30.8,13.2,32.2,13.9z"/>
		<path class="st2" d="M6.8,32.6c0.8,1.4,1.9,2.6,3.3,3.4c-1.4,0.8-2.6,1.9-3.3,3.4c-0.7-1.5-2-2.7-3.5-3.3
			C4.9,35.3,6.1,34.1,6.8,32.6z"/>
		<path class="st2" d="M3.4,24.9c1.5-0.7,2.7-1.8,3.4-3.4c0.8,1.4,2,2.6,3.4,3.3c-1.4,0.8-2.6,2-3.4,3.4C6.1,26.8,4.9,25.6,3.4,24.9
			z"/>
		<path class="st2" d="M28.9,39.4c-0.7-1.5-1.9-2.8-3.5-3.4c1.5-0.7,2.7-1.9,3.4-3.4c0.8,1.4,1.9,2.5,3.3,3.3
			C30.7,36.7,29.6,38,28.9,39.4z"/>
		<path class="st2" d="M28.8,28.4c-0.7-1.5-1.9-2.8-3.5-3.4c1.5-0.6,2.8-1.8,3.4-3.4c0.8,1.4,2,2.6,3.4,3.3
			C30.7,25.7,29.6,26.9,28.8,28.4z"/>
		<path class="st2" d="M6.4,29.6C6.5,30,6.3,30,5.9,30c-2.1-0.5-3.7-2.1-4.2-4.1c0-0.5,0.1-0.6,0.5-0.6C3.9,25.4,6.4,28,6.4,29.6z"
			/>
		<path class="st2" d="M5.8,8c-2-0.4-3.6-2-4.1-4C1.7,3.4,1.9,3.4,2.4,3.4c2,0.5,3.6,2.1,4,4.1C6.4,8,6.3,8.1,5.8,8z"/>
		<path class="st2" d="M27.8,30c-2-0.4-3.5-2-4-3.9c-0.1-0.6,0-0.7,0.6-0.6c2,0.5,3.6,2.1,4,4.1C28.5,30.1,28.3,30.1,27.8,30z"/>
		<path class="st2" d="M50.4,29.6c0.1,0.5-0.2,0.5-0.5,0.4c-2-0.5-3.6-2-4.1-4c-0.1-0.5,0.1-0.6,0.6-0.6
			C48.1,25.6,50.3,27.8,50.4,29.6z"/>
		<path class="st2" d="M6.4,51.5C6.5,51.9,6.4,52,6,52c-1.7,0-4.2-2.5-4.2-4.2c0-0.5,0.2-0.5,0.6-0.5C4.4,47.8,6,49.5,6.4,51.5z"/>
		<path class="st2" d="M23.8,47.9c-0.1-0.5,0.1-0.5,0.5-0.5c2.1,0.5,3.7,2.1,4.1,4.2c0,0.5,0,0.5-0.5,0.5
			C26.1,51.8,23.9,49.6,23.8,47.9z"/>
		<path class="st2" d="M50.4,7.6C50.5,8.1,50.2,8,49.9,8c-2.1-0.5-3.7-2.1-4.2-4.1c0-0.4,0.1-0.6,0.5-0.6C48,3.5,50.4,5.9,50.4,7.6z
			"/>
		<path class="st2" d="M46.2,47.3c1.6-0.1,4.3,2.6,4.2,4.3c0,0.5-0.2,0.4-0.5,0.4c-2.1-0.4-3.7-2.1-4.1-4.1
			C45.7,47.5,45.8,47.3,46.2,47.3z"/>
		<path class="st2" d="M24.5,3.4c2,0.5,3.5,2.1,3.9,4.1c0,0.4,0,0.6-0.5,0.5c-2.1-0.5-3.7-2.1-4.1-4.1C23.7,3.3,24,3.3,24.5,3.4z"/>
		<path class="st2" d="M35.3,36.4c1.9,0.4,3.5,1.9,4,3.8c0.1,0.6-0.2,0.8-0.8,0.7c-1.5-0.2-3.7-2.5-3.8-4
			C34.7,36.4,34.9,36.3,35.3,36.4z"/>
		<path class="st2" d="M17.3,18.3c0.1,0.7-0.3,0.7-0.8,0.7c-1.9-0.6-3.3-2.1-3.7-4c-0.1-0.4,0-0.6,0.5-0.6
			C14.8,14.4,17.2,16.7,17.3,18.3z"/>
		<path class="st2" d="M28.3,40.3c0.1,0.7-0.4,0.7-0.9,0.6c-1.9-0.6-3.3-2.1-3.7-4c0-0.4,0.1-0.6,0.5-0.6
			C25.8,36.4,28.3,38.8,28.3,40.3z"/>
		<path class="st2" d="M50.3,40.3c0.1,0.7-0.3,0.7-0.8,0.6c-1.9-0.6-3.3-2.1-3.7-4c0-0.4,0.1-0.6,0.5-0.6
			C47.8,36.4,50.3,38.8,50.3,40.3z"/>
		<path class="st2" d="M13.4,47.4c1.4,0,3.8,2.3,4,3.8c0.1,0.6-0.3,0.8-0.8,0.7c-1.9-0.6-3.3-2.1-3.8-4.1
			C12.7,47.5,12.8,47.3,13.4,47.4z"/>
		<path class="st2" d="M39.3,51.3c0.1,0.7-0.3,0.7-0.8,0.7c-1.9-0.6-3.3-2.1-3.7-4c0-0.4,0-0.6,0.5-0.6
			C36.9,47.4,39.3,49.7,39.3,51.3z"/>
		<path class="st2" d="M17.3,7.3C17.4,7.9,17,8,16.5,7.9c-1.5-0.2-3.7-2.4-3.8-4c0-0.3,0-0.5,0.4-0.5C14.7,3.3,17.3,5.8,17.3,7.3z"
			/>
		<path class="st2" d="M39.3,7.3C39.4,8,39,8,38.5,7.9c-1.9-0.6-3.3-2.1-3.7-4c0-0.3,0-0.5,0.4-0.6C36.7,3.3,39.3,5.7,39.3,7.3z"/>
		<path class="st2" d="M6.3,18.3C6.4,18.9,6,19,5.5,18.9c-1.6-0.2-3.7-2.5-3.8-4c0-0.4,0.1-0.5,0.4-0.5C3.7,14.2,6.3,16.8,6.3,18.3z
			"/>
		<path class="st2" d="M39.3,18.3c0,0.5-0.1,0.7-0.6,0.7c-1.5,0-4-2.5-4-4.1c0-0.4,0.2-0.5,0.5-0.5C36.8,14.4,39.2,16.7,39.3,18.3z"
			/>
		<path class="st2" d="M50.3,18.3c0,0.5-0.2,0.6-0.7,0.6c-1.5-0.1-3.8-2.5-3.9-4.1c0-0.4,0.1-0.5,0.5-0.5
			C47.7,14.3,50.3,16.8,50.3,18.3z"/>
		<path class="st2" d="M24.3,14.4c1.5,0.1,3.8,2.3,4,3.8c0.1,0.6-0.2,0.8-0.8,0.8c-1.5-0.2-3.7-2.4-3.8-4
			C23.7,14.4,23.8,14.3,24.3,14.4z"/>
		<path class="st2" d="M13.4,25.4c1.4,0,3.8,2.3,4,3.8c0.1,0.6-0.2,0.8-0.8,0.7c-1.9-0.6-3.3-2.1-3.8-4.1
			C12.7,25.5,12.8,25.3,13.4,25.4z"/>
		<path class="st2" d="M39.3,29.3c0,0.6-0.3,0.7-0.8,0.6c-1.5-0.2-3.7-2.5-3.8-4c0-0.4,0-0.5,0.4-0.5C36.7,25.3,39.3,27.8,39.3,29.3
			z"/>
		<path class="st2" d="M6.3,40.3C6.4,40.9,6,41,5.5,40.9c-1.9-0.6-3.3-2.1-3.7-4c0-0.4,0-0.6,0.5-0.6C3.8,36.3,6.2,38.7,6.3,40.3z"
			/>
		<path class="st2" d="M13.5,36.4c1.8,0.5,3.2,1.9,3.8,3.7c0.1,0.7-0.1,1-0.9,0.8c-1.8-0.6-3.2-2-3.6-3.9
			C12.7,36.3,12.9,36.3,13.5,36.4z"/>
		<path class="st2" d="M50.3,9.6c-0.5,2-2,3.5-4,3.9c-0.5,0.1-0.7,0-0.6-0.6c0.5-1.9,2-3.4,4-3.9C50.2,8.9,50.5,9,50.3,9.6z"/>
		<path class="st2" d="M30,7.9c-0.5,0.1-0.7-0.1-0.7-0.6c0.1-1.5,2.5-3.9,4.1-3.9c0.4,0,0.5,0.1,0.5,0.5C33.9,5.4,31.5,7.9,30,7.9z"
			/>
		<path class="st2" d="M11.9,3.8c0,1.5-2.4,4-3.9,4.1c-0.6,0-0.7-0.2-0.7-0.7c0.2-1.6,2.5-3.7,4-3.8C11.8,3.4,11.9,3.5,11.9,3.8z"/>
		<path class="st2" d="M41,51.9c-0.5,0-0.7-0.1-0.7-0.6c0.1-1.5,2.5-3.9,4.1-3.9c0.4,0,0.5,0.1,0.5,0.5C44.9,49.4,42.5,51.9,41,51.9
			z"/>
		<path class="st2" d="M33.9,47.9c-0.1,1.5-2.3,3.8-3.8,4c-0.6,0.1-0.8-0.2-0.7-0.8c0.6-1.9,2.1-3.3,4-3.8
			C33.8,47.3,33.9,47.5,33.9,47.9z"/>
		<path class="st2" d="M0.4,25.4c0.6,0,0.5,0.3,0.5,0.7c-0.5,1.8-1.9,3.3-3.7,3.8C-3.3,30-3.7,30-3.7,29.4
			C-3.7,27.9-1,25.3,0.4,25.4z"/>
		<path class="st2" d="M-3,7.9C-3.7,8-3.7,7.6-3.6,7.1c0.6-1.8,2-3.2,3.9-3.7c0.4-0.1,0.6,0,0.6,0.4C0.9,5.4-1.5,7.9-3,7.9z"/>
		<path class="st2" d="M11.9,48.1c0,1.2-2.3,3.7-3.9,3.8c-0.6,0-0.7-0.2-0.7-0.7c0.6-1.9,2.1-3.3,4-3.8
			C11.7,47.4,11.9,47.5,11.9,48.1z"/>
		<path class="st2" d="M50.3,31.6c-0.5,2-2,3.5-4,3.9c-0.5,0.1-0.7-0.1-0.6-0.6c0.5-1.9,2-3.5,3.9-4C50.2,30.9,50.5,31,50.3,31.6z"
			/>
		<path class="st2" d="M22.4,25.4c0.6,0,0.5,0.4,0.5,0.7c-0.5,1.8-1.9,3.3-3.7,3.9c-0.4,0.1-0.8,0.1-0.8-0.5
			C18.3,27.9,21,25.3,22.4,25.4z"/>
		<path class="st2" d="M6.3,9.6c-0.5,1.9-2,3.4-4,3.8c-0.5,0.1-0.6-0.1-0.6-0.6c0.5-1.9,2.1-3.4,4-3.9C6.3,8.9,6.4,9,6.3,9.6z"/>
		<path class="st2" d="M39.3,42.4c0,1.6-2.6,4.2-4.2,4.1c-0.4,0-0.4-0.2-0.4-0.6c0.2-1.6,2.5-3.9,4-4C39.3,41.9,39.3,42,39.3,42.4z"
			/>
		<path class="st2" d="M-3.1,51.9c-0.5,0-0.6-0.2-0.6-0.7c0.2-1.5,2.4-3.7,4-3.9c0.4,0,0.6,0.1,0.6,0.5C0.8,49.5-1.6,51.9-3.1,51.9z
			"/>
		<path class="st2" d="M6.4,31.4c0,1.6-2.6,4.2-4.2,4.1c-0.4,0-0.4-0.2-0.4-0.6c0.1-1.6,2.4-3.9,4-4C6.3,30.9,6.4,31,6.4,31.4z"/>
		<path class="st2" d="M28.3,9.5c0,1.6-2.4,4-4.1,4c-0.5,0-0.5-0.2-0.5-0.6c0.5-1.9,2-3.4,3.9-3.9C28.1,8.9,28.5,8.9,28.3,9.5z"/>
		<path class="st2" d="M28.3,31.4c0,1.6-2.6,4.2-4.2,4.1c-0.4,0-0.4-0.2-0.4-0.6c0.1-1.6,2.4-3.9,4-4C28.3,30.9,28.3,31,28.3,31.4z"
			/>
		<path class="st2" d="M11.4,25.4c0.5-0.1,0.5,0.2,0.5,0.6c-0.5,1.9-1.9,3.4-3.8,3.9c-0.6,0.1-0.8-0.1-0.8-0.7
			C7.6,27.6,9.9,25.4,11.4,25.4z"/>
		<path class="st2" d="M24.3,2.5c-0.5,0-0.5-0.2-0.5-0.6c0.5-1.9,2-3.4,3.9-3.9c0.4,0,0.7,0,0.7,0.5C28.3,0.1,25.9,2.5,24.3,2.5z"/>
		<path class="st2" d="M-3,18.9c-0.5,0.1-0.7-0.2-0.7-0.7c0.2-1.5,2.5-3.7,4.1-3.8c0.4,0,0.5,0.1,0.5,0.5C0.8,16.4-1.5,18.9-3,18.9z
			"/>
		<path class="st2" d="M6.3-1.4c-0.5,1.9-2,3.4-4,3.9C1.8,2.5,1.7,2.4,1.8,1.9c0.5-1.9,2.1-3.4,4-3.9C6.3-2.1,6.5-1.9,6.3-1.4z"/>
		<path class="st2" d="M33.9,25.9c0,1.5-2.5,4.1-4,4.1c-0.5,0-0.6-0.3-0.5-0.7c0.6-1.9,2.1-3.3,4-3.8C33.7,25.4,33.9,25.5,33.9,25.9
			z"/>
		<path class="st2" d="M38.8,19.9c0.5-0.1,0.6,0.2,0.5,0.6c-0.5,2-2.1,3.5-4.1,3.9c-0.5,0-0.6-0.1-0.5-0.6
			C34.9,22.3,37.2,20,38.8,19.9z"/>
		<path class="st2" d="M44.8,26.1c-0.4,1.9-1.8,3.3-3.7,3.9c-0.7,0.1-1-0.2-0.8-0.9c0.6-1.8,2-3.1,3.8-3.6
			C44.8,25.3,45,25.5,44.8,26.1z"/>
		<path class="st2" d="M46.3,46.5c-0.6,0-0.5-0.3-0.5-0.6c0.5-1.9,2-3.3,3.8-3.9c0.5-0.1,0.8-0.1,0.7,0.6
			C50.2,44.2,47.8,46.5,46.3,46.5z"/>
		<path class="st2" d="M2.2,24.5c-0.5,0.1-0.5-0.2-0.5-0.6c0.5-1.9,2-3.4,3.9-3.9c0.4,0,0.7-0.1,0.7,0.5C6.3,22.1,3.9,24.5,2.2,24.5
			z"/>
		<path class="st2" d="M22.8,4.1c-0.4,1.9-1.8,3.3-3.7,3.8c-0.7,0.1-1-0.1-0.8-0.9c0.6-1.8,2-3.1,3.8-3.6C22.8,3.3,23,3.5,22.8,4.1z
			"/>
		<path class="st2" d="M44.9,15c0,1.4-2.3,3.9-3.9,4c-0.5,0-0.7-0.2-0.7-0.7c0.2-1.5,2.5-3.7,4-3.8C44.7,14.4,44.9,14.5,44.9,15z"/>
		<path class="st2" d="M50.3,20.5c0,1.6-2.4,3.9-4.1,4c-0.5,0-0.5-0.2-0.5-0.6c0.5-1.9,2-3.5,3.9-4C50,19.9,50.5,19.9,50.3,20.5z"/>
		<path class="st2" d="M33.9,14.8c0,1.5-2.3,4-3.9,4.1c-0.5,0-0.7-0.2-0.7-0.7c0.6-1.9,2.1-3.3,4-3.8C33.7,14.4,33.9,14.5,33.9,14.8
			z"/>
		<path class="st2" d="M13.2,2.5c-0.4,0-0.5-0.2-0.4-0.6c0.2-1.6,2.4-3.9,4-4c0.4,0,0.6,0,0.6,0.5C17.4,0.1,14.7,2.6,13.2,2.5z"/>
		<path class="st2" d="M22.9,47.8c0.1,1.5-2.5,4.2-4,4.1c-0.5,0-0.6-0.3-0.5-0.7c0.6-1.9,2.1-3.4,4-3.8
			C22.7,47.4,22.9,47.5,22.9,47.8z"/>
		<path class="st2" d="M13.2,46.5c-0.4,0-0.5-0.2-0.4-0.6c0.2-1.6,2.4-3.9,4-4c0.4,0,0.6,0,0.6,0.5C17.4,44,14.7,46.6,13.2,46.5z"/>
		<path class="st2" d="M40.9,40.9c-0.6,0-0.6-0.4-0.5-0.8c0.6-1.8,2-3.2,3.9-3.7c0.4-0.1,0.6-0.1,0.6,0.4
			C44.9,38.4,42.4,41,40.9,40.9z"/>
		<path class="st2" d="M13.3,24.5c-0.6,0-0.5-0.3-0.5-0.6c0.5-1.9,2-3.3,3.8-3.9c0.4-0.1,0.8-0.1,0.7,0.6
			C17.2,22.2,14.8,24.5,13.3,24.5z"/>
		<path class="st2" d="M39.3-1.5c0,1.6-2.7,4.2-4.2,4.1c-0.4,0-0.4-0.2-0.4-0.6c0.5-1.9,2-3.5,3.9-4C39-2.1,39.4-2.2,39.3-1.5z"/>
		<path class="st2" d="M40.9,7.9c-0.6,0.1-0.7-0.3-0.6-0.8c0.6-1.9,2.1-3.3,4-3.8c0.3,0,0.5-0.1,0.6,0.4C45,5.3,42.5,7.9,40.9,7.9z"
			/>
		<path class="st2" d="M11.9,36.8c0,1.5-2.3,4-3.9,4.1c-0.6,0-0.7-0.2-0.7-0.7c0.2-1.5,2.5-3.7,4-3.8C11.7,36.4,11.9,36.5,11.9,36.8
			z"/>
		<path class="st2" d="M28.3,42.4c0,1.6-2.6,4.2-4.2,4.1c-0.5,0-0.4-0.3-0.4-0.7c0.5-1.9,2-3.3,3.9-3.8C28.2,41.9,28.3,42,28.3,42.4
			z"/>
		<path class="st2" d="M46.2,2.5c-0.5,0.1-0.5-0.2-0.5-0.6c0.5-1.9,2-3.4,3.9-3.9c0.4,0,0.7-0.1,0.7,0.5C50.3,0.1,47.9,2.4,46.2,2.5
			z"/>
		<path class="st2" d="M39.3,31.4c0,1.6-2.6,4.2-4.2,4.1c-0.5,0-0.4-0.3-0.4-0.7c0.5-1.9,2-3.3,3.9-3.8C39,30.9,39.4,30.8,39.3,31.4
			z"/>
		<path class="st2" d="M22.9,14.9c0,1.6-2.3,4-3.9,4.1c-0.5,0-0.7-0.2-0.6-0.7c0.6-1.9,2.1-3.3,4.1-3.8
			C22.8,14.4,22.9,14.5,22.9,14.9z"/>
		<path class="st2" d="M11.9,14.9c-0.4,1.9-1.9,3.5-3.8,4c-0.6,0.1-0.8-0.2-0.7-0.8c0.6-1.9,2.1-3.3,4-3.7
			C11.8,14.4,11.9,14.4,11.9,14.9z"/>
		<path class="st2" d="M13.3,35.5c-0.6,0-0.6-0.3-0.5-0.7c0.5-1.9,2-3.3,3.9-3.8c0.4-0.1,0.8-0.1,0.7,0.6
			C17.2,33.2,14.8,35.5,13.3,35.5z"/>
		<path class="st2" d="M-3.1,40.9c-0.5,0-0.6-0.2-0.6-0.7c0.1-1.5,2.4-3.7,4-3.9c0.3,0,0.5,0,0.5,0.4C0.9,38.3-1.5,40.9-3.1,40.9z"
			/>
		<path class="st2" d="M19,40.9c-0.6,0.1-0.7-0.3-0.6-0.7c0.6-1.9,2.1-3.3,4-3.8c0.4,0,0.6,0,0.6,0.5C22.8,38.5,20.5,40.8,19,40.9z"
			/>
		<path class="st2" d="M28.3,20.5c0,1.6-2.6,4.1-4.2,4c-0.4,0-0.4-0.2-0.4-0.6c0.1-1.6,2.5-3.9,4-4C28.1,19.9,28.4,20,28.3,20.5z"/>
		<path class="st2" d="M29.9,40.9c-0.5,0-0.6-0.3-0.5-0.7c0.2-1.5,2.5-3.7,4-3.8c0.3,0,0.5,0,0.5,0.4C33.9,38.4,31.4,41,29.9,40.9z"
			/>
		<path class="st2" d="M35.2,13.5c-0.5,0.1-0.5-0.2-0.5-0.6c0.5-1.9,2-3.4,3.9-3.9c0.5-0.1,0.7,0.1,0.7,0.7
			C39.1,11.3,36.8,13.5,35.2,13.5z"/>
		<path class="st2" d="M17.3,9.6c-0.5,1.9-2.1,3.4-4,3.9c-0.5,0.1-0.6-0.1-0.6-0.6c0.5-1.9,2-3.4,3.9-3.9
			C17.3,8.9,17.5,9.1,17.3,9.6z"/>
		<path class="st2" d="M6.4,42.5c0.1,1.5-2.6,4.1-4.2,4c-0.5,0-0.5-0.3-0.4-0.7c0.5-1.8,2-3.3,3.8-3.8C6,41.9,6.4,41.8,6.4,42.5z"/>
		<path class="st2" d="M29.9,41.9c1.5,0,4.1,2.8,4,4.2c0,0.4-0.3,0.4-0.6,0.3c-1.9-0.5-3.4-2-3.9-3.8C29.3,42.2,29.4,41.9,29.9,41.9
			z"/>
		<path class="st2" d="M8,41.9c1.4,0,3.9,2.6,3.9,4.1c0,0.5-0.3,0.5-0.6,0.4c-1.8-0.5-3.3-1.9-3.8-3.7C7.3,42.2,7.4,41.9,8,41.9z"/>
		<path class="st2" d="M11.9,2c0,0.6-0.3,0.6-0.7,0.5C9.4,2,7.9,0.5,7.4-1.3C7.3-1.8,7.4-2.1,8-2.1C9.4-2,11.9,0.6,11.9,2z"/>
		<path class="st2" d="M33.9,2.1c0,0.4-0.2,0.5-0.6,0.4c-1.6-0.2-3.8-2.4-4-3.9c0-0.5,0.2-0.6,0.7-0.6C31.5-2,33.9,0.7,33.9,2.1z"/>
		<path class="st2" d="M29.9,19.9c1.5,0,4.1,2.8,4,4.2c0,0.4-0.3,0.4-0.6,0.3c-1.9-0.5-3.4-2-3.9-3.8C29.3,20.1,29.4,19.9,29.9,19.9
			z"/>
		<path class="st2" d="M7.9,19.9c1.5,0,4.1,2.8,4,4.2c-0.1,0.4-0.3,0.4-0.6,0.3c-1.9-0.5-3.4-2-3.9-3.8C7.3,20.2,7.4,19.9,7.9,19.9z
			"/>
		<path class="st2" d="M22.9,24c0.1,0.5-0.2,0.5-0.6,0.5c-1.9-0.5-3.4-2-3.9-3.8c-0.1-0.6,0.1-0.7,0.7-0.7
			C20.5,20.1,22.8,22.5,22.9,24z"/>
		<path class="st2" d="M33.8,34.9c0.1,0.6-0.3,0.6-0.7,0.5c-1.8-0.5-3.3-1.9-3.8-3.8c-0.1-0.7,0.2-0.8,0.8-0.7
			C31.7,31.2,33.7,33.5,33.8,34.9z"/>
		<path class="st2" d="M33.9,13c0,0.6-0.3,0.5-0.7,0.5c-1.8-0.5-3.3-1.9-3.8-3.8c-0.1-0.4-0.1-0.7,0.5-0.8
			C31.3,8.9,33.9,11.6,33.9,13z"/>
		<path class="st2" d="M18.9,31c1.5-0.1,4.1,2.6,4,4.1c0,0.4-0.2,0.4-0.6,0.4c-1.6-0.2-3.8-2.4-4-3.9C18.3,31.2,18.4,30.9,18.9,31z"
			/>
		<path class="st2" d="M18.9,9c1.5,0,3.9,2.5,3.9,4.1c0,0.5-0.2,0.5-0.6,0.4c-1.9-0.5-3.4-2-3.9-3.8C18.3,9.1,18.4,8.9,18.9,9z"/>
		<path class="st2" d="M-3.1,42c1.5,0,3.9,2.5,4,4.1c0,0.5-0.2,0.5-0.6,0.5c-1.9-0.5-3.4-2-3.9-3.9C-3.7,42.1-3.6,42-3.1,42z"/>
		<path class="st2" d="M7.9,31c1.5,0,3.9,2.5,3.9,4.1c0,0.5-0.2,0.5-0.6,0.5c-1.9-0.5-3.4-2-3.9-3.8C7.3,31.2,7.4,30.9,7.9,31z"/>
		<path class="st2" d="M18.9,42c1.5-0.1,4.1,2.7,4,4.1c0,0.3-0.2,0.4-0.5,0.4c-1.5,0-4-2.4-4.1-3.9C18.3,42.1,18.5,41.9,18.9,42z"/>
		<path class="st2" d="M-3.1,31c1.5,0,3.9,2.5,4,4.1c0,0.5-0.2,0.5-0.6,0.5c-1.9-0.5-3.4-2-3.9-3.8C-3.7,31.2-3.6,30.9-3.1,31z"/>
		<path class="st2" d="M40.8,31c1.5-0.1,4.1,2.6,4,4.1c0,0.4-0.2,0.4-0.6,0.4c-1.6-0.2-3.8-2.4-4-3.9C40.3,31.1,40.4,31,40.8,31z"/>
		<path class="st2" d="M-3.1,20c1.5,0,3.9,2.5,4,4.1c0,0.5-0.2,0.5-0.6,0.5c-1.9-0.5-3.4-2-3.9-3.9C-3.7,20.2-3.6,19.9-3.1,20z"/>
		<path class="st2" d="M40.9,42c1.5,0,3.9,2.5,3.9,4.1c0,0.5-0.3,0.5-0.6,0.4c-1.9-0.5-3.4-2-3.9-3.8C40.3,42.1,40.4,41.9,40.9,42z"
			/>
		<path class="st2" d="M11.9,13c0,0.6-0.3,0.5-0.7,0.5C9.4,13,7.9,11.5,7.4,9.7C7.3,9.2,7.4,8.9,8,9C9.5,9,11.9,11.6,11.9,13z"/>
		<path class="st2" d="M0.9,13c0,0.4-0.2,0.5-0.6,0.4c-1.9-0.5-3.5-2-4-3.9c0-0.5,0.2-0.6,0.6-0.6C-1.5,9.1,0.9,11.6,0.9,13z"/>
		<path class="st2" d="M40.9,20c1.5,0,3.9,2.5,4,4.1c0,0.5-0.2,0.5-0.6,0.5c-1.9-0.5-3.4-2-3.9-3.8C40.3,20.2,40.4,19.9,40.9,20z"/>
		<path class="st2" d="M40.9,9c1.5,0,3.9,2.5,3.9,4.1c0,0.5-0.2,0.5-0.6,0.5c-1.9-0.5-3.4-2-3.9-3.8C40.3,9.2,40.4,8.9,40.9,9z"/>
		<path class="st2" d="M44.8,2c0,0.4-0.1,0.5-0.5,0.4c-1.5-0.1-3.8-2.3-4-3.9c-0.1-0.5,0.1-0.7,0.6-0.7C42.4-2,44.8,0.5,44.8,2z"/>
		<path class="st2" d="M18.9-2c1.5,0,3.9,2.5,4,4.1c0,0.5-0.2,0.5-0.6,0.4c-1.9-0.5-3.4-2-3.9-3.8C18.3-1.8,18.4-2.1,18.9-2z"/>
		<path class="st2" d="M-3.1-2c1.5,0,3.9,2.5,3.9,4c0,0.5-0.2,0.5-0.6,0.4c-1.9-0.5-3.4-2-3.9-3.8C-3.7-1.8-3.6-2.1-3.1-2z"/>
	</g>
</g>
</svg>
