<?xml version="1.0" encoding="utf-8"?>
<!-- Generator: Adobe Illustrator 22.1.0, SVG Export Plug-In . SVG Version: 6.00 Build 0)  -->
<svg version="1.1" id="Calque_1" xmlns="http://www.w3.org/2000/svg" xmlns:xlink="http://www.w3.org/1999/xlink" x="0px" y="0px"
	 viewBox="0 0 51 51" style="enable-background:new 0 0 51 51;" xml:space="preserve">
<style type="text/css">
	.st0{clip-path:url(#SVGID_2_);}
	.st1{fill:#030303;}
	.st2{fill:#DFDFDF;}
	.st3{fill:#3A33FF;}
</style>
<title>bouton</title>
<g>
	<defs>
		<circle id="SVGID_1_" cx="25.5" cy="25.5" r="25.5"/>
	</defs>
	<clipPath id="SVGID_2_">
		<use xlink:href="#SVGID_1_"  style="overflow:visible;"/>
	</clipPath>
	<g class="st0">
		<path class="st1" d="M51.3,17.2v8.7c0,0-0.1,0-0.1,0c-0.2-0.3-0.5-0.5-0.7-0.7l-1.5-1.5l-1.8-1.8c0,0-0.1-0.1-0.2-0.1s0,0.1,0,0.2
			c0,1.1,0,2.2,0,3.3c0,1.6,0,3.3,0,4.9c0,0.5,0,1,0,1.5c0,0.2,0.1,0.3,0,0.5L46.8,32c0-0.1,0-0.1-0.1-0.2l-3.3-3.3
			c-0.3-0.3-0.7-0.7-1-1c-0.2-0.2-0.4-0.4-0.6-0.5c-0.1-0.1-0.1-0.1-0.2,0c0,0,0,0,0,0l-0.5,0.5l-2.5,2.5C38,30.5,37.5,31,37,31.6
			c-0.1,0.1-0.3,0.2-0.3,0.4c-0.1,0-0.2,0-0.2,0.1s-0.1,0.1-0.2,0.1l-2.5,2.5c-0.6,0.6-1.3,1.3-1.9,1.9c-0.2,0.2-0.5,0.5-0.7,0.7
			c-0.1,0-0.2-0.1-0.2-0.2l-2.1-2.1l-3-3v-0.1h0.1c0.1,0,0.1,0,0.2,0c0.4,0,0.7,0,1.1,0h8.7c0.1,0,0.2,0,0.4,0
			c0.1,0,0.1-0.1,0.1-0.2c0-0.1,0-0.1,0-0.2c0-0.9,0-1.9,0-2.8c0-0.5,0-1.1,0-1.7s0-1.4,0-2.1c0-1.1-0.1-2.3,0-3.4c0,0,0-0.1,0-0.1
			c0,0-0.1,0-0.1,0c0,0,0,0,0,0c-0.1,0.1-0.2,0.3-0.4,0.4c-0.3,0.3-0.7,0.7-1,1c-1,1-2,2-3,3c-0.2,0.2-0.5,0.4-0.7,0.7
			c-0.1,0-0.1,0-0.2-0.1l-1.5-1.5c-1.2-1.2-2.5-2.5-3.7-3.7V11c-0.1,0.1-0.2,0.1-0.3,0.2l-4.2,4.2l-0.8,0.8l-2.9-2.9L15.1,11
			c0-1.9,0-3.8,0-5.7c0-0.7,0-1.4,0-2.1V0.7c0-0.1,0-0.2,0-0.3c0.2-0.4,0.2-0.4-0.2-0.4H4.8c-0.1,0-0.3,0-0.3,0.1s-0.1,0.1-0.1,0
			S4.2,0.1,4.1,0.1H0.3c-0.1,0-0.2,0-0.2,0.1s0.1,0.1,0.2,0.1c0.4,0,0.7,0,1,0h2.9c0.1,0,0.1,0,0.1,0.1c-0.1,0-0.1,0.1-0.2,0.1
			C3.5,1.3,2.7,2,2,2.7C1.4,3.3,0.9,3.9,0.3,4.4C0.2,4.5,0.1,4.7,0.1,4.9v9c0,0.4,0,0.8,0,1.2v0.1c0,0.6,0,1.3,0,1.9
			c0,0.1,0,0.1,0.1,0.2c0.3,0.3,0.5,0.6,0.9,0.9c0.5,0.5,1,1,1.4,1.4s1.2,1.2,1.8,1.8c0,0.1,0.1,0.1,0.2,0.1
			c0.1,0.2-0.1,0.3-0.2,0.4l-4,3.9c-0.1,0.1-0.1,0.1-0.1,0.2c0,0.7,0,1.4,0,2.1c0,0,0,0,0,0.1c0,1.3,0,2.6,0,4
			c0,0.2,0.1,0.2,0.2,0.2h3.5c0.1,0,0.3,0,0.4-0.1l0.2,0.1c0,0,0,0.1,0,0.1C4,32.6,3.6,33,3.3,33.3l-3,3c-0.1,0.1-0.2,0.3-0.2,0.4
			v10c0,0.1,0,0.2,0,0.3v0.1c0,0.5,0,1.1,0,1.6c0,0.3,0.1,0.6,0.3,0.7C1,50,1.5,50.5,2,51.1c0.1,0,0.1,0.1,0.1,0.2h-2
			c-0.1,0-0.2,0-0.1-0.1s0,0,0-0.1V0.2C0,0,0,0,0.2,0h50.8c0.1,0,0.2,0,0.2,0h-4c-0.2,0-0.4,0-0.4,0.3h-0.1C46.7,0.1,46.5,0,46.3,0
			h-9.5c-0.2,0-0.4,0.1-0.4,0.2c0,0-0.1,0-0.1,0.1c-0.1,0-0.2,0.1-0.3,0.2c-0.2,0.3-0.5,0.5-0.7,0.7c-0.5,0.5-1,1-1.4,1.4
			s-0.8,0.8-1.2,1.2s-0.9,0.9-1.4,1.4c-0.1,0.1-0.2,0.2-0.3,0.3c-0.1,0-0.2-0.1-0.2-0.1l-0.9-0.9l-4.1-4c-0.1-0.1-0.1-0.2,0-0.3
			c0.2,0.1,0.4,0.1,0.7,0h9.2c0.1,0,0.2,0,0.3,0c0.1,0,0.1,0.1,0.2,0c0-0.1,0-0.1,0-0.2C36.2,0,36.1,0,36,0H26
			c-0.3,0-0.4-0.1-0.3,0.3c0,0,0,0.1,0,0.1V8c0,0.9,0,1.8,0,2.7c0,0.1,0,0.2,0.1,0.3c0,0.1,0.1,0.2,0.1,0.2c0.8,0.8,1.5,1.5,2.3,2.3
			c0.5,0.5,1,1,1.5,1.5c0.3,0.3,0.6,0.7,1,1s0.3,0.3,0,0.5c-1.2,1.2-2.5,2.5-3.7,3.7c-0.4,0.4-0.7,0.8-1,1.1c-0.1,0-0.1,0.1-0.1,0.2
			c0,0.1,0.1,0.1,0.2,0.1c0.2,0,0.5,0,0.7,0c0.5,0,1,0,1.6,0c0.7,0,1.4,0,2.1,0c0.7,0,1.3,0,2,0c0.9,0,1.7,0,2.6,0
			c0.2,0,0.5,0,0.7,0c0.1,0,0.3,0.1,0.5,0c0-0.1,0-0.1-0.1-0.1c-0.5-0.5-0.9-0.9-1.4-1.4s-1.2-1.3-1.7-1.8l-1.7-1.7
			c-0.2-0.2-0.2-0.2,0-0.4l2.2-2.2l2.7-2.6c0,0,0.1-0.1,0.2-0.1s0,0.1,0,0.2c0,0.5,0,1,0,1.5c0,0.8,0,1.7,0,2.5s0,1.7,0,2.5
			c0,1,0,2,0,3c0,0.2,0,0.4,0,0.6c-0.1,0.1,0,0.1,0,0.1l1,1c1.4,1.4,2.7,2.7,4.1,4.1c0.1,0.1,0.2,0.1,0.3,0l5-5
			c0.1-0.1,0.2-0.2,0.2-0.3s0.2-0.1,0.2-0.1c0.5-0.6,1.1-1.1,1.7-1.7s1.2-1.2,1.8-1.8C50.7,17.6,51,17.4,51.3,17.2z M15.1,10.8
			L15.1,10.8l0.4,0.1h9.9c0.1,0,0.2,0,0.2,0s0-0.1-0.1-0.2c-0.3-0.3-0.6-0.6-0.9-0.9c-0.5-0.6-1.1-1.1-1.7-1.7
			c-0.8-0.8-1.5-1.5-2.3-2.3c-0.1-0.1-0.2-0.1-0.4,0c-0.1,0.1-0.5,0.5-0.7,0.7c-0.6,0.6-1.1,1.1-1.7,1.7s-1.2,1.2-1.8,1.8
			C15.7,10.3,15.4,10.6,15.1,10.8z M16.6,0.3h-1.3c0,0-0.1,0-0.1,0s0,0.1,0.1,0.1c0.2,0.2,0.5,0.5,0.7,0.7l2.5,2.5l1.8,1.7
			c0.1,0.1,0.2,0.1,0.3,0c0.9-0.9,1.7-1.7,2.6-2.6s1.6-1.5,2.3-2.3c0,0,0.1-0.1,0.1-0.2s-0.1,0-0.2,0c-0.5,0-0.9,0-1.4,0
			c-1.5,0-2.9,0-4.4,0L16.6,0.3z"/>
		<path class="st1" d="M36.4,32.2c0-0.1,0.1-0.1,0.2-0.1s0.3,0,0.4,0c1,0,2,0,3,0h4.6h1.9c0.1,0,0.2,0,0.3,0l0.1,0.1l0.1,0.1
			l0.1,0.1c1.1,1.1,2.2,2.2,3.3,3.3c0.3,0.3,0.6,0.6,0.9,0.9v2.2l-0.1,0.1l-3.4,3.4c-0.2,0.3-0.5,0.5-0.8,0.7c0-0.2-0.2-0.1-0.2-0.2
			c-0.2-0.2-0.4-0.4-0.5-0.6L43,38.9l-1.1-1.1c-0.1-0.1-0.1-0.1-0.2-0.3c0,0,0.1,0,0.1,0c0.3,0.3,0.7,0.7,1,1l2.8,2.9
			c0.3,0.3,0.7,0.7,1,1c0.1,0.1,0.1,0.2,0.2,0.2s0-0.1,0-0.2l0,0c0-0.7,0-1.3,0-2c0-2.6,0-5.3,0-7.9c0-0.1,0.1-0.2,0-0.3
			s-0.2,0.1-0.2,0.2l-2.9,3l-2,2c-0.1,0.1-0.2,0.2-0.3,0s-0.4-0.4-0.6-0.6L38,33.8L36.4,32.2z"/>
		<path class="st1" d="M46.7,42.7c0,0.1,0.2,0,0.2,0.2l0,0c-0.1,0-0.1,0.1-0.1,0.1l-4.2,4.2c-0.3,0.3-0.7,0.7-1,1
			c-0.1-0.1-0.2-0.3-0.3-0.4c-0.6-0.5-1.1-1.1-1.7-1.7L38,44.5L36.5,43c0,0-0.1-0.1-0.1-0.1s0,0.1,0,0.1c0,1,0,1.9,0,2.9v5.4h-2.1
			c-0.1-0.2-0.3-0.3-0.4-0.5c-0.6-0.6-1.2-1.1-1.7-1.7c-0.3-0.3-0.6-0.6-0.8-0.8c-0.1-0.1-0.1-0.2,0-0.3c0.4-0.4,0.7-0.7,1.1-1.1
			c1.2-1.3,2.5-2.5,3.7-3.7c0.1-0.1,0.2-0.2,0.2-0.3h0.1c0.1,0,0.2,0,0.4,0c1.4,0,2.8,0,4.3,0C42.9,42.7,44.8,42.8,46.7,42.7z"/>
		<path class="st1" d="M47,42.8c0.3-0.2,0.6-0.4,0.8-0.7l3.4-3.4l0.1-0.1v10.5h-0.1l-2,2c0,0-0.1,0.1-0.1,0.2H47c0-2,0-4,0-6
			C47,44.5,47,43.6,47,42.8L47,42.8z"/>
		<path class="st1" d="M44.8,51.3c-0.4-0.5-0.9-1-1.4-1.4l-1.7-1.7c0.3-0.3,0.6-0.7,1-1l4.2-4.2c0,0,0.1-0.1,0.1-0.1
			c0,0.8,0,1.7,0,2.5c0,2,0,4,0,6L44.8,51.3z"/>
		<path class="st1" d="M25.8,51.3v-8.5h0.1c0,0.1,0.1,0.2,0.2,0.3l3.4,3.4l1.4,1.4c0.2,0.2,0.2,0.2,0,0.4L28.2,51
			c-0.1,0.1-0.2,0.1-0.2,0.2L25.8,51.3z"/>
		<path class="st1" d="M9.8,48.2c0.3,0.3,0.6,0.6,0.9,0.8c0.1,0.1,0.2,0.2,0.3,0.3l1.8,1.8c0.1,0,0.1,0.1,0.1,0.2H6.7
			c0.2-0.2,0.4-0.5,0.6-0.6c0.8-0.8,1.5-1.5,2.3-2.3c0,0,0.1-0.1,0.1-0.1L9.8,48.2z"/>
		<path class="st1" d="M51.3,4.8c-0.5-0.4-0.9-0.9-1.4-1.3C49,2.5,48,1.6,47.1,0.6C47,0.6,47,0.5,46.9,0.4c0-0.1,0.1-0.1,0.2-0.1
			h1.8h2.3L51.3,4.8z"/>
		<path class="st1" d="M47,32.2c0.1-0.1,0.2-0.1,0.3-0.1c0.8,0,1.7,0,2.5,0c0.5,0,1,0,1.5,0v4.3c-0.3-0.3-0.6-0.6-0.9-0.9
			C49.3,34.5,48.2,33.4,47,32.2L47,32.2z"/>
		<path class="st1" d="M49.2,51.3c0-0.1,0-0.1,0.1-0.2l2-2h0.1c0,0.7,0,1.3,0,2c0,0.1,0,0.1-0.1,0.1L49.2,51.3z"/>
		<path class="st1" d="M51.3,0.4h-2.3h-1.8c-0.1,0-0.1,0-0.2,0.1h-0.1l0,0V0.3c0-0.3,0.2-0.3,0.4-0.3h4L51.3,0.4z"/>
		<path class="st1" d="M4.5,10.9c-0.1,0-0.1,0-0.2,0.1c-0.7,0.7-1.4,1.4-2.1,2c-0.5,0.5-0.9,1-1.4,1.4c-0.2,0.2-0.4,0.5-0.7,0.7
			c0-0.4,0-0.8,0-1.2v-9c0-0.2,0.1-0.4,0.2-0.5c0.6-0.5,1.1-1,1.7-1.6C2.7,2,3.5,1.3,4.2,0.5c0,0,0.1-0.1,0.2-0.1h7.4
			c0.6,0,1.3,0,1.9,0c0.3,0,0.6,0,0.9,0c0,0,0.1,0,0.1,0s0,0.1-0.1,0.1c-0.2,0.2-0.4,0.4-0.6,0.6c-0.7,0.7-1.4,1.4-2,2
			s-1.3,1.3-1.9,2C10,5.2,9.9,5.4,9.8,5.6C9.2,6.1,8.6,6.7,8,7.3c-1.2,1.1-2.3,2.3-3.5,3.4C4.5,10.7,4.4,10.8,4.5,10.9
			C4.5,10.9,4.5,10.9,4.5,10.9z"/>
		<path class="st1" d="M41.6,5.6c-0.1,0-0.1,0-0.2-0.1l-3-3l-2.1-2.1c0-0.1,0.1-0.1,0.1-0.1h0.6h2.1c2,0,4,0,6.1,0c0.5,0,1,0,1.5,0
			h0.1v0.1l0,0l0,0L43,4.2L41.6,5.6z"/>
		<path class="st1" d="M15,0.5c-0.5,0.4-0.9,0.9-1.4,1.3c-0.7,0.7-1.4,1.4-2.1,2.1C11,4.5,10.4,5,9.8,5.6H9.8
			c0.1-0.2,0.2-0.4,0.4-0.5c0.6-0.7,1.3-1.3,1.9-2s1.3-1.4,2-2c0.2-0.2,0.4-0.4,0.6-0.6c0,0,0.1,0,0.1-0.1s-0.1,0-0.1,0
			c-0.3,0-0.6,0-0.9,0c-0.6,0-1.3,0-1.9,0H4.4c0-0.1-0.1-0.1-0.1-0.1L4.1,0.2c0.1,0,0.3-0.1,0.3,0.1s0.1,0,0.1,0s0.2-0.1,0.3-0.1
			h9.9C15.1,0.1,15.2,0,15,0.5z"/>
		<path class="st1" d="M46.8,0.3c-0.5,0-1,0-1.5,0c-2,0-4,0-6.1,0h-2.1h-0.6c0.1-0.2,0.3-0.3,0.4-0.2h9.4C46.5,0,46.7,0.1,46.8,0.3z
			"/>
		<path class="st1" d="M25.9,0.3c0-0.1,0.1-0.1,0.1-0.2h9.9L36,0.3c-0.1,0-0.2,0.1-0.3,0h-9.2C26.3,0.4,26.1,0.3,25.9,0.3z"/>
		<path class="st1" d="M4.1,0.1l0.2,0.2H1.3c-0.3,0-0.7,0-1,0c-0.1,0-0.2,0-0.2-0.1s0.1-0.1,0.2-0.1L4.1,0.1z"/>
		<path class="st1" d="M0.1,47c0.3-0.3,0.6-0.5,0.9-0.8c0.5-0.4,0.9-0.9,1.3-1.3c0,0,0-0.1,0.1,0s0,0.1,0,0.1l-1,1
			c-0.4,0.3-0.7,0.7-1,1C0.2,47,0.2,47.1,0,47.1L0.1,47z"/>
		<path class="st1" d="M36,0.3l-0.2-0.2h0.2c0.1,0,0.1,0,0.2,0.1c0,0.1,0,0.1,0,0.2C36.2,0.4,36.1,0.3,36,0.3z"/>
		<path class="st1" d="M9.7,37.5c0.1,0,0.2,0.1,0.2,0.1l4,4l1,1c0,0,0.1,0.1,0.1,0.1s-0.1,0-0.2,0c-1.9,0-3.8,0-5.7,0H4.8
			c-0.1,0-0.3,0.1-0.4,0s0.1-0.1,0.1-0.2c1.4-1.4,2.8-2.8,4.2-4.2C9.1,38.1,9.4,37.8,9.7,37.5z"/>
		<path class="st1" d="M4.4,32.1L4.4,32.1c0.1-0.1,0.2-0.2,0.2-0.2c1-1,2.1-2,3.1-3.1C8.4,28.2,9,27.6,9.6,27c0.1-0.1,0.2-0.1,0.3,0
			c0.7,0.7,1.4,1.4,2.2,2.2l2.6,2.6c0.1,0.1,0.2,0.2,0.3,0.2c0.1,0.2,0,0.2-0.1,0.3s0-0.1-0.1-0.1c-0.5,0-1,0-1.5,0
			c-0.3,0-0.6,0-0.9,0H12H4.7C4.6,32.2,4.5,32.2,4.4,32.1z"/>
		<path class="st2" d="M9.7,37.5c0-0.1,0-0.1,0.1-0.2c1-0.9,1.9-1.9,2.9-2.8l2.1-2.1c0,0,0.1-0.1,0.1-0.2s0.3-0.1,0.1-0.3
			c0-0.3,0-0.7,0-1c0-0.5,0-1,0-1.5s0-1.3,0-1.9c0-0.8,0-1.6,0-2.4s0-1.6,0-2.3c0-0.3,0-0.7,0-1c0,0,0-0.1,0.1-0.1s0,0,0,0.1
			c0,0.5,0,0.9,0,1.3s0,0.9,0,1.4c0,0.9,0,1.8,0,2.7c0,0.7,0,1.4,0,2.2c0,0.7,0,1.3,0,2c0,0.2-0.1,0.3,0,0.5s0.1,0.1,0.2,0.2H18h3
			h4.3c0.1,0,0.2,0,0.2,0.1l-1.9,1.9l-3.1,3.1c-0.1,0.1-0.2,0.1-0.2,0.3c-0.1,0-0.1,0-0.1,0c-0.8-0.9-1.7-1.7-2.5-2.5
			s-1.6-1.6-2.4-2.4c-0.1,0-0.1-0.2-0.2-0.1s0,0.1,0,0.2v10.1c-0.1,0.1,0,0.2,0,0.2C15,43,15,43.1,15,43.2c0,0.3,0,0.7,0,1
			c0,0.8,0,1.5,0,2.2c0,1.6,0,3.2,0,4.8h0c0-2.8,0-5.5,0-8.3c-0.1,0-0.1,0-0.1,0.1l-0.8,0.8l-3.2,3.3c-0.4,0.3-0.7,0.7-1,1.1H9.7
			c-0.3-0.3-0.6-0.6-0.8-0.8l-1.2-1.1l-1.6-1.5l-1.8-1.8c0,0,0.1,0,0.1,0s0.3,0,0.4,0h4.4c1.9,0,3.8,0,5.7,0c0,0,0.1,0.1,0.2,0
			s0-0.1-0.1-0.1l-1-1l-4-4C9.8,37.6,9.8,37.5,9.7,37.5z"/>
		<path class="st2" d="M47,21.5c0,0.1-0.1,0.2-0.2,0.3l-5,5c-0.1,0.1-0.2,0.1-0.3,0c-1.4-1.4-2.7-2.7-4.1-4.1l-1-1
			c-0.1,0-0.1-0.1,0-0.1c0.1,0,0.2,0,0.3,0c0.6-0.1,1.3,0,1.9,0h5.5c0.5,0,1,0,1.4,0c0.3,0,0.7,0,1,0c0.1,0,0.2,0.1,0.2,0
			s-0.1-0.1-0.1-0.1c-0.9-0.9-1.8-1.8-2.7-2.7c-0.7-0.7-1.4-1.5-2.2-2.1c-0.1,0-0.1-0.1-0.1-0.2c0.1,0,0.1-0.1,0.2-0.1l1.3-1.3
			l3.6-3.6c0.1-0.1,0.2-0.2,0.2-0.4c0-0.6,0-1.2,0-1.8l0,0c0-0.5,0-1,0-1.4c0-1.7,0-3.5,0-5.2c0-0.6,0-1.3,0-1.9H47
			c0,0.1,0.1,0.1,0.2,0.2C48,1.6,49,2.5,49.9,3.4c0.5,0.4,0.9,0.9,1.4,1.3v1.9C51.1,6.9,51,7,50.8,7.2c-0.5,0.5-1,0.9-1.4,1.4
			c-0.8,0.8-1.6,1.6-2.3,2.4c-0.1,0.1-0.1,0.2-0.1,0.3c0,0.4,0,0.9,0,1.3c0,0.7,0,1.4,0,2.1c0,1,0,2.1,0,3.1c0,0.7-0.1,1.5,0,2.2
			C47,20.5,47,21,47,21.5z"/>
		<path class="st2" d="M20.4,16.2c-0.4,0.4-0.9,0.9-1.3,1.3l-3.8,3.8c-0.1,0-0.1,0.1-0.1,0.2c0,0.1-0.1,0.2-0.1,0.2
			c-0.1,0,0-0.1-0.1-0.1s-0.1-0.1-0.2-0.1H8.1c-1.1,0-2.2,0-3.3,0c-0.3,0-0.3,0.1-0.3,0.3c0,2.7,0,5.4,0,8v2c0,0.1,0,0.2,0,0.3v0.1
			H4.4l-0.2-0.1c0-0.1-0.1-0.1-0.1-0.2l-3.3-3.2L0.1,28c0-0.7,0-1.4,0-2.1c0-0.1,0.1-0.2,0.1-0.2l3.9-3.9c0.1-0.1,0.3-0.2,0.2-0.4
			c0.2-0.1,0.4-0.3,0.6-0.5l4.6-4.6c0.1-0.1,0.1-0.2,0-0.2l-2-1.9C7,13.6,6.4,13,5.8,12.4c-0.4-0.4-0.9-0.9-1.3-1.3
			c-0.1-0.1-0.1-0.1-0.2,0l-0.8,0.8l-1.4,1.4l-1.2,1.1c-0.3,0.3-0.6,0.6-0.9,0.8v-0.1c0.3-0.2,0.5-0.4,0.7-0.7
			C1.2,14,1.7,13.5,2.2,13c0.7-0.7,1.4-1.4,2.1-2c0.1-0.1,0.1-0.1,0.2-0.1H7C7.1,11,7.2,11,7.2,11h0.4c0,0,0.1,0.1,0.1,0
			c0,0,0,0,0,0h1c0,0.1,0.1,0.1,0.1,0h2.7c0.1,0.1,0.3,0.1,0.4,0h0.1c0,0.1,0.1,0.1,0.1,0h0.1c0.1,0.1,0.2,0.1,0.3,0h0.2
			c0.1,0.1,0.3,0.1,0.4,0h1.8l0,0c0,0.1-0.1,0.1-0.1,0.1l-2.1,2.1l-2.9,2.9c-0.1,0.1-0.1,0.2,0,0.3l1.8,1.8l3.2,3.2
			c0,0,0.1,0.1,0.1,0.1s0-0.1,0-0.2c0-0.8,0-1.7,0-2.5V11l0,0l2.5,2.4L20.4,16.2z"/>
		<path class="st2" d="M25.7,23.4v-0.1c0-0.2,0-0.5,0-0.7c0-0.3,0-0.6,0-0.9c0-0.1-0.1-0.1-0.1,0l-0.2,0.2l-3,3l-1.3,1.3
			c-0.1,0.1-0.1,0.1-0.2,0.1l0,0c0.1-0.3,0.4-0.4,0.5-0.6c0.6-0.6,1.2-1.2,1.8-1.8s1-1,1.5-1.5c0.3-0.3,0.6-0.6,0.8-0.9
			c0.1,0,0.1-0.1,0.2-0.1c1.2,1.2,2.5,2.5,3.7,3.7l1.5,1.5c0.1,0,0.1,0.1,0.2,0.1s0.2,0.2,0.3,0.3c0.3,0.3,0.6,0.5,0.8,0.8
			c0.7,0.8,1.5,1.5,2.3,2.3c0.4,0.5,0.9,0.9,1.3,1.3c0.2,0.2,0.3,0.3,0.5,0.4c0,0.1,0,0.1-0.1,0.2l-1-1c-0.7-0.7-1.4-1.3-2-2
			s-1.4-1.3-2-2c-0.1-0.1-0.2-0.1-0.3,0l-1,1l-2.2,2.2l-1.8,1.8h-0.1c-0.2,0-0.1-0.1-0.1-0.2c0-0.6,0-1.2,0-1.8s0-1.4,0-2.1
			c0-0.4,0-0.8,0-1.2c0-0.3,0-0.6,0-0.9v-0.1c0-0.2,0-0.4,0-0.5C25.7,24.6,25.7,24,25.7,23.4z"/>
		<path class="st2" d="M31.1,37.5c0.1,0.1,0.2,0.2,0.3,0.3c0.4,0.3,0.7,0.7,1.1,1.1s0.9,0.8,1.3,1.3s1,0.9,1.5,1.5
			c0.3,0.4,0.7,0.7,1,1c0,0,0.1,0.1,0.1,0.1h-0.1c-0.4-0.4-0.7-0.8-1.2-1.2c-0.4-0.4-0.8-0.8-1.3-1.3c-0.7-0.7-1.4-1.4-2.1-2.1
			c-0.2-0.2-0.4-0.4-0.6-0.6s-0.2-0.1-0.3,0c-0.7,0.7-1.4,1.4-2.1,2.1l-2.8,2.8c-0.1,0.1-0.2,0.1-0.3,0.2h-0.1l0,0c0,0,0-0.1,0-0.1
			c0-2,0-4,0-6c0-1.5,0-2.9,0-4.4h0.1l3,3l2.1,2.1C31,37.4,31.1,37.5,31.1,37.5z"/>
		<path class="st2" d="M16.6,0.3h3c1.5,0,2.9,0,4.4,0c0.5,0,0.9,0,1.4,0c0.1,0,0.1,0,0.2,0s0,0.1-0.1,0.2c-0.8,0.8-1.6,1.5-2.3,2.3
			s-1.7,1.7-2.6,2.6c-0.1,0.1-0.2,0.1-0.3,0l-1.8-1.7l-2.5-2.5c-0.2-0.2-0.5-0.5-0.7-0.7c0,0-0.1-0.1-0.1-0.1s0.1,0,0.1,0L16.6,0.3
			L16.6,0.3z"/>
		<path class="st2" d="M31.1,5.7l1,1l1.6,1.6c0.4,0.4,0.8,0.8,1.2,1.1s0.9,0.9,1.4,1.4c0.1,0.1,0.1,0.1,0,0.2s-0.1,0-0.1-0.1
			l-1.4-1.5L31.2,6C31,5.8,31,5.8,30.8,6c-0.8,0.8-1.6,1.6-2.4,2.4c-0.5,0.5-1.1,1-1.6,1.6c-0.3,0.3-0.6,0.6-0.9,0.9
			c-0.2,0-0.1-0.2-0.1-0.3c0-0.9,0-1.8,0-2.7V0.6c0,0,0-0.1,0-0.1c0-0.4,0-0.3,0.3-0.3c0,0.1-0.1,0.1-0.1,0.2
			c-0.2,0.1-0.1,0.1,0,0.3L30,4.6l0.9,0.9C31,5.6,31,5.6,31.1,5.7z"/>
		<path class="st3" d="M2.1,51.3c0-0.1-0.1-0.2-0.1-0.2c-0.5-0.5-1.1-1.1-1.6-1.6C0.2,49.3,0,49.1,0,48.8c0-0.5,0-1.1,0-1.6
			c0.1,0,0.2-0.1,0.3-0.2c0.3-0.4,0.7-0.7,1-1l1-1c0,0,0.1-0.1,0-0.1s-0.1,0-0.1,0c-0.4,0.4-0.9,0.9-1.3,1.3
			c-0.3,0.3-0.6,0.6-0.9,0.8c0-0.1,0-0.2,0-0.3v-10c0-0.2,0.1-0.3,0.2-0.4l3-3c0.3-0.4,0.7-0.7,1.1-1.1c0,0,0-0.1,0-0.1h0.1
			c0.1,0.1,0.2,0,0.2,0H12h0.4c0.3,0,0.6,0,0.9,0c0.5-0.1,1,0,1.5,0c0,0,0,0,0.1,0.1s-0.1,0.1-0.1,0.2l-2.1,2.1
			c-1,1-1.9,1.9-2.9,2.8c0,0-0.1,0.1-0.1,0.2c-0.3,0.3-0.5,0.6-0.9,0.9c-1.4,1.4-2.8,2.8-4.2,4.3c-0.1,0-0.1,0.1-0.1,0.2
			s-0.1,0-0.1,0l1.8,1.8l1.6,1.5l1.1,1.1c0.3,0.3,0.6,0.5,0.8,0.8c0,0.1,0,0.1-0.1,0.1c-0.8,0.8-1.5,1.5-2.3,2.3
			c-0.2,0.2-0.4,0.4-0.6,0.6H2.1z"/>
		<path class="st3" d="M34.3,51.3H28c0-0.1,0.1-0.2,0.2-0.2l2.7-2.7c0.2-0.2,0.2-0.2,0-0.4l-1.4-1.4l-3.4-3.4
			c-0.1-0.1-0.2-0.2-0.2-0.3s0.2-0.2,0.3-0.2l2.8-2.8c0.7-0.7,1.4-1.4,2.1-2.1c0.1-0.1,0.2-0.1,0.3,0s0.4,0.4,0.6,0.6
			c0.7,0.7,1.3,1.4,2.1,2.1c0.4,0.4,0.8,0.9,1.3,1.3c0.4,0.4,0.8,0.7,1.2,1.2c0,0.1-0.1,0.2-0.2,0.3c-1.2,1.2-2.5,2.5-3.7,3.7
			c-0.4,0.4-0.7,0.7-1.1,1.1c-0.1,0.1-0.1,0.2,0,0.3c0.3,0.3,0.6,0.5,0.8,0.8c0.6,0.6,1.2,1.1,1.7,1.7C34,51,34.2,51.1,34.3,51.3z"
			/>
		<path class="st3" d="M15.1,51.3c0-1.6,0-3.2,0-4.8c0-0.7,0-1.5,0-2.2c0-0.3,0-0.7,0-1c0-0.1,0-0.2,0.1-0.3c0.1,0,0.1,0,0.1,0.1
			l1.3,1.3c0.6,0.6,1.1,1.1,1.7,1.7c0.4,0.3,0.7,0.7,1,1s0.6,0.6,0.9,0.9c0,0,0.1,0.1,0.2,0l1-1c0.3-0.3,0.6-0.7,1-1
			c0.7-0.6,1.3-1.3,1.9-1.9c0.4-0.4,0.8-0.8,1.2-1.2c0.1-0.1,0.1-0.1,0.1-0.2h0.1v8.5L15.1,51.3z"/>
		<path class="st3" d="M47,21.5c0-0.5,0-1,0-1.5c-0.1-0.7,0-1.5,0-2.2c0-1,0-2.1,0-3.1c0-0.7,0-1.4,0-2.1c0-0.4,0-0.9,0-1.3
			c0-0.1,0-0.1,0-0.2c0.8-0.8,1.6-1.6,2.3-2.4c0.5-0.5,1-0.9,1.4-1.4c0.2-0.1,0.3-0.3,0.5-0.5v10.5c-0.2,0.2-0.5,0.4-0.6,0.6
			c-0.6,0.6-1.2,1.2-1.8,1.8s-1.1,1.1-1.7,1.7C47.1,21.4,47.1,21.4,47,21.5z"/>
		<path class="st3" d="M47,32.2L47,32.2c0-0.3-0.1-0.4-0.1-0.6c0-0.5,0-1,0-1.5c0-1.6,0-3.3,0-4.9c0-1.1,0-2.2,0-3.3
			c0-0.1,0-0.2,0-0.2s0.1,0.1,0.2,0.1l1.8,1.8l1.5,1.5c0.3,0.2,0.5,0.5,0.7,0.7c0,0,0.1,0,0.1,0v6.2c-0.5,0-1,0-1.5,0
			c-0.8,0-1.7,0-2.5,0C47.1,32.1,47.1,32.1,47,32.2z"/>
		<path class="st3" d="M36.4,51.3v-5.4c0-1,0-1.9,0-2.9c0,0,0-0.1,0-0.1s0.1,0,0.1,0.1l1.5,1.5l1.6,1.6c0.6,0.6,1.1,1.1,1.7,1.7
			c0.1,0.1,0.2,0.3,0.3,0.4l1.7,1.7c0.5,0.5,1,0.9,1.4,1.4H36.4z"/>
		<path class="st3" d="M9.8,48.2c0.3-0.3,0.7-0.7,1-1.1l3.2-3.2l0.8-0.8c0-0.1,0.1-0.1,0.2-0.1c0,2.8,0,5.5,0,8.3h-2.1
			c0-0.1-0.1-0.1-0.1-0.2L11,49.3c-0.1-0.1-0.2-0.2-0.3-0.3C10.4,48.7,10.1,48.5,9.8,48.2z"/>
		<path class="st3" d="M25.6,32.2c0-0.1-0.1-0.1-0.2-0.1c0.1-0.1,0.1-0.2,0-0.3c-0.6-0.5-1.2-1.2-1.8-1.7c-1-1-2.1-2.1-3.1-3.1
			c-0.1-0.1-0.2-0.1-0.3,0s-0.5,0.5-0.7,0.8l-4.1,4.1c-0.1,0.1-0.1,0.1-0.2,0.2c-0.1-0.2,0-0.3,0-0.5c0-0.7,0-1.3,0-2s0-1.4,0-2.2
			c0-0.9,0-1.8,0-2.7c0-0.5,0-0.9,0-1.4s0-0.9,0-1.3v-0.1c0,0-0.1,0-0.1,0.1c0,0.3,0,0.7,0,1c0,0.8,0,1.6,0,2.3s0,1.6,0,2.4
			c0,0.6,0,1.3,0,1.9c0,0.6,0,1,0,1.5c0,0.3,0,0.7,0,1c-0.1,0-0.2-0.1-0.3-0.2l-2.6-2.6c-0.7-0.7-1.4-1.4-2.2-2.2
			c-0.1-0.1-0.2-0.1-0.3,0c-0.6,0.6-1.2,1.2-1.8,1.8c-1,1-2.1,2.1-3.1,3.1c-0.1,0.1-0.1,0.2-0.2,0.2c0-0.1,0-0.2,0-0.3v-2
			c0-2.7,0-5.4,0-8c0-0.2,0-0.3,0.3-0.3c1.1,0,2.2,0,3.3,0H15c0.1,0,0.1,0,0.2,0.1s0,0.1,0.1,0.1c0.1,0,0.1-0.1,0.1-0.2
			c0-0.1,0-0.2,0.1-0.2l3.8-3.8c0.4-0.4,0.9-0.9,1.3-1.3l0.8-0.8l4.1-4.1c0.1-0.1,0.2-0.2,0.3-0.2v10.5c-0.1,0-0.1,0.1-0.2,0.1
			c-0.3,0.3-0.5,0.6-0.8,0.9c-0.5,0.5-1,1-1.5,1.5s-1.2,1.2-1.8,1.8c-0.2,0.2-0.4,0.3-0.5,0.6c-0.2,0.1-0.3,0.3-0.5,0.5
			c0.2,0,0.5-0.2,0.5-0.5c0.1,0,0.2-0.1,0.2-0.1l1.3-1.3l3-3l0.2-0.2c0,0,0.1,0,0.1,0c0,0.3,0,0.6,0,0.9c-0.1,0.2-0.1,0.5,0,0.7v0.1
			c-0.1,0-0.1,0.1-0.1,0.1v2.1c0,0.1,0,0.1,0.1,0.1v0.1c-0.1,0.3,0,0.5-0.1,0.8c0,0,0.1,0,0.1,0c0,0.4,0,0.8,0,1.2
			c0,0.7,0,1.4,0,2.1s0,1.2,0,1.8c0,0.1,0,0.2,0.1,0.2v0.1h-0.2L25.6,32.2z"/>
		<path class="st3" d="M41.6,16.2c0,0.1,0,0.2,0.1,0.2c0.8,0.7,1.5,1.4,2.2,2.1c0.9,0.9,1.8,1.8,2.7,2.7c0,0,0.1,0.1,0.1,0.1
			s-0.1,0-0.2,0c-0.3,0-0.7,0.1-1,0c-0.5,0-0.9,0-1.4,0h-5.5c-0.6,0-1.3-0.1-1.9,0c-0.1,0-0.2,0-0.3,0c0-0.2,0-0.4,0-0.6
			c0-1,0-2,0-3c0-0.9,0-1.7,0-2.5s0-1.7,0-2.5c0-0.5,0-1,0-1.5c0-0.1,0-0.1,0-0.2s-0.1,0.1-0.2,0.1l-2.7,2.6L31.2,16
			c-0.2,0.2-0.2,0.2,0,0.4l1.8,1.7c0.6,0.6,1.2,1.2,1.8,1.8s0.9,0.9,1.4,1.4c0,0,0.1,0.1,0.1,0.1c-0.1,0.2-0.3,0-0.5,0
			c-0.2,0-0.5,0-0.7,0c-0.9,0-1.7,0-2.6,0c-0.7,0-1.3,0-2,0s-1.4,0-2.1,0c-0.5,0-1,0-1.6,0c-0.2,0-0.5,0-0.7,0c-0.1,0-0.1,0-0.2-0.1
			c0-0.1,0-0.1,0.1-0.2c0.4-0.3,0.7-0.7,1-1.1c1.2-1.2,2.5-2.5,3.7-3.7c0.2-0.2,0.2-0.3,0-0.5s-0.7-0.6-1-1c-0.5-0.5-1-1-1.5-1.5
			c-0.7-0.8-1.5-1.5-2.3-2.3c-0.1-0.1-0.1-0.1-0.1-0.2c0.3-0.3,0.6-0.7,0.9-0.9c0.5-0.5,1.1-1,1.6-1.6C29.1,7.6,30,6.8,30.8,6
			C31,5.8,31,5.8,31.2,6l3.4,3.4l1.4,1.5c0,0,0.1,0.1,0.1,0.1s0-0.1,0-0.2c-0.5-0.4-0.9-0.9-1.4-1.4s-0.8-0.8-1.2-1.1L32,6.6l-1-1
			c0-0.2,0.2-0.2,0.3-0.3c0.5-0.5,0.9-0.9,1.4-1.4s0.8-0.8,1.2-1.2s1-0.9,1.4-1.4C35.5,1,35.8,0.8,36,0.6c0.1-0.1,0.2-0.1,0.3-0.2
			l2.1,2.1l3,3c0,0,0.1,0.1,0.2,0.1c0,0,0,0.1,0.1,0.1c0.6,0.6,1.2,1.2,1.8,1.8c0.4,0.4,0.8,0.8,1.2,1.2c0.6,0.6,1.2,1.2,1.8,1.8
			c0.1,0.1,0.2,0.1,0.1,0.2s-0.2,0.1-0.3,0.1h-9.7c-0.1,0-0.2,0-0.3,0.1s0.1,0.1,0.2,0.2l2.9,2.9C40.2,14.9,40.9,15.5,41.6,16.2z"/>
		<path class="st3" d="M46.7,42.7c-1.9,0.2-3.8,0-5.7,0.1c-1.4,0-2.8,0-4.3,0c-0.1,0-0.2,0-0.4,0s0-0.1-0.1-0.1
			c-0.3-0.3-0.7-0.7-1-1c-0.5-0.5-1-1-1.5-1.5s-0.9-0.9-1.3-1.3s-0.7-0.7-1.1-1.1c-0.1-0.1-0.2-0.2-0.3-0.3c0.2-0.3,0.4-0.5,0.7-0.7
			c0.6-0.7,1.3-1.3,1.9-1.9l2.5-2.5c0.1-0.1,0.1-0.1,0.2-0.1l1.6,1.6l2.9,2.9c0.2,0.2,0.4,0.4,0.6,0.6s0.2,0.1,0.3,0l2-2l2.8-2.9
			c0.1-0.1,0.1-0.2,0.2-0.2s0,0.2,0,0.3c0.1,2.6,0,5.3,0,7.9c0,0.7,0,1.3,0,2l0,0c0,0.1,0.1,0.2,0,0.2s-0.1-0.1-0.2-0.2
			c-0.3-0.3-0.7-0.7-1-1l-2.8-2.9c-0.3-0.3-0.7-0.7-1-1c0,0-0.1-0.1-0.1,0c0,0.1,0.1,0.2,0.2,0.3l1.1,1l3.2,3.2
			C46.4,42.3,46.5,42.5,46.7,42.7z"/>
		<path class="st3" d="M0.1,15.2c0.3-0.3,0.6-0.5,0.9-0.8l1.2-1.1l1.4-1.4l0.8-0.8c0.1-0.1,0.2,0,0.2,0c0.4,0.4,0.8,0.9,1.3,1.3
			c0.6,0.6,1.2,1.2,1.8,1.8L9.5,16c0.1,0.1,0.1,0.1,0,0.2l-4.6,4.6c-0.2,0.2-0.4,0.4-0.6,0.5c-0.1,0-0.2,0-0.2-0.1
			c-0.6-0.6-1.2-1.2-1.8-1.8s-0.9-1-1.4-1.4c-0.3-0.3-0.6-0.6-0.8-0.9c0,0-0.1-0.1-0.1-0.2C0.1,16.5,0.1,15.9,0.1,15.2z"/>
		<path class="st3" d="M15.1,11L15.1,11L15.1,11L15.1,11c-0.1-0.1-0.2-0.3-0.4-0.4l-2.4-2.4L11.1,7c-0.4-0.4-0.8-0.8-1.2-1.1
			C9.8,5.8,9.8,5.7,9.8,5.6c0.6-0.6,1.1-1.1,1.7-1.7c0.7-0.7,1.4-1.4,2.1-2.1c0.4-0.5,0.9-0.9,1.4-1.3c0,0.1,0.1,0.2,0,0.3v2.5
			c0,0.7,0,1.4,0,2.1C15.1,7.2,15,9.1,15.1,11z"/>
		<path class="st3" d="M15.1,10.8c0.3-0.3,0.6-0.5,0.8-0.8c0.6-0.6,1.2-1.2,1.8-1.8s1.1-1.1,1.7-1.7c0.3-0.2,0.5-0.5,0.7-0.7
			s0.2-0.1,0.4,0c0.8,0.8,1.5,1.5,2.3,2.3c0.6,0.6,1.2,1.1,1.7,1.7c0.3,0.3,0.6,0.6,0.9,0.9c0,0,0.1,0.1,0.1,0.2s-0.1,0-0.2,0h-9.9
			L15.1,10.8L15.1,10.8z"/>
		<path class="st3" d="M36.3,32c-0.2-0.1-0.3-0.3-0.5-0.4c-0.5-0.4-0.9-0.9-1.3-1.3c-0.8-0.8-1.6-1.5-2.3-2.3
			c-0.3-0.3-0.6-0.5-0.8-0.8c-0.1-0.1-0.2-0.2-0.3-0.3c0.2-0.3,0.5-0.5,0.7-0.7c1-1,2-2,3-3c0.3-0.3,0.7-0.7,1-1
			c0.1-0.1,0.3-0.2,0.4-0.4c0,0,0.1,0,0.1,0c0,0,0,0,0,0c0,0,0,0.1,0,0.1c-0.1,1.1,0,2.3,0,3.4c0,0.7,0,1.4,0,2.1s0,1.1,0,1.7
			C36.3,30.1,36.3,31,36.3,32C36.3,31.9,36.3,32,36.3,32z"/>
		<path class="st3" d="M46.8,32c-0.1,0.1-0.2,0-0.3,0h-1.9H40c-1,0-2,0-3,0c-0.1,0-0.3,0.1-0.4,0c0-0.2,0.2-0.3,0.3-0.4
			c0.5-0.6,1.1-1.1,1.7-1.7l2.4-2.5l0.5-0.5c0.1-0.1,0.1-0.1,0.2,0c0,0,0,0,0,0c0.2,0.2,0.4,0.3,0.6,0.5c0.3,0.4,0.7,0.7,1,1
			l3.3,3.3C46.7,31.9,46.8,31.9,46.8,32z"/>
		<path class="st3" d="M25.9,32.1l1.8-1.8l2.2-2.2l1-1c0.1-0.1,0.2-0.1,0.3,0c0.7,0.7,1.4,1.3,2,2s1.4,1.3,2,2l1,1
			c-0.1,0-0.2,0-0.4,0h-8.6c-0.4,0-0.7,0-1.1,0C26,32.1,26,32.1,25.9,32.1z"/>
		<path class="st3" d="M0.1,28l0.8,0.8L4.1,32c0,0,0.1,0.1,0.1,0.2c-0.1,0-0.3,0.1-0.4,0.1H0.3c-0.1,0-0.2,0-0.2-0.2
			c0-1.3,0-2.6,0-4C0.1,28.1,0.1,28,0.1,28z"/>
		<path class="st3" d="M15.1,42.8V32.7c0-0.1,0-0.2,0-0.2s0.1,0.1,0.2,0.1c0.8,0.8,1.6,1.6,2.4,2.4s1.7,1.7,2.5,2.5
			c0,0,0.1,0.1,0.1,0l0.1,0.1l1.3,1.4l1.9,1.9c0.4,0.4,0.8,0.8,1.2,1.2c0.3,0.2,0.5,0.5,0.7,0.8H25c-0.9,0-1.9,0-2.8,0
			c-0.7,0-1.4,0-2.1,0c-0.2,0-0.5,0-0.7,0c-0.4,0-0.8,0-1.2,0c-0.4,0-0.8,0-1.1,0s-0.9,0-1.3,0C15.6,42.8,15.3,42.9,15.1,42.8z"/>
		<path class="st1" d="M25.7,42.8c-0.2-0.3-0.4-0.6-0.7-0.8c-0.4-0.4-0.8-0.8-1.2-1.2L21.9,39l-1.3-1.3l-0.1-0.1
			c0-0.1,0.1-0.2,0.2-0.3l3.1-3.1l1.9-1.9h0.1c0,1.5,0,2.9,0,4.4c0,2,0,4,0,6C25.7,42.7,25.7,42.7,25.7,42.8L25.7,42.8z"/>
		<path class="st1" d="M15.1,42.8c0.2,0.1,0.4,0,0.6,0c0.4,0,0.9,0,1.3,0s0.8,0,1.1,0c0.4,0,0.8,0,1.2,0c0.2,0,0.5,0,0.7,0
			c0.7,0,1.4,0,2.1,0c0.9,0,1.9,0,2.8,0h0.6c0,0.1-0.1,0.2-0.1,0.2c-0.4,0.4-0.8,0.8-1.2,1.2c-0.6,0.6-1.3,1.3-1.9,1.9
			c-0.3,0.3-0.6,0.7-1,1l-1,1c-0.1,0.1-0.1,0-0.2,0c-0.3-0.3-0.6-0.6-0.9-0.9s-0.7-0.7-1-1c-0.6-0.5-1.1-1.1-1.7-1.7l-1.3-1.3
			c0,0,0-0.1-0.1-0.1C15.2,42.9,15,42.9,15.1,42.8z"/>
		<path class="st1" d="M15.1,32c0.1,0,0.2-0.1,0.2-0.2l4.1-4.1c0.3-0.3,0.5-0.5,0.7-0.8s0.2-0.1,0.3,0c1,1,2.1,2.1,3.1,3.1
			c0.6,0.6,1.1,1.2,1.8,1.7c0.1,0.1,0.2,0.2,0,0.3h-4.3h-3h-2.8C15.2,32.2,15.1,32.1,15.1,32z"/>
		<path class="st1" d="M41.6,5.6L43,4.2l3.8-3.8l0,0l0,0l0,0c0,0.6,0,1.3,0,1.9c0,1.8,0,3.5,0,5.2c0,0.5,0,1,0,1.4l0,0
			c0,0.6,0,1.2,0,1.8c0,0.2-0.1,0.3-0.2,0.4l-3.6,3.6l-1.3,1.3c0,0-0.1,0.1-0.2,0.1c-0.7-0.7-1.4-1.4-2.1-2.1l-2.9-2.9
			c-0.1-0.1-0.2-0.1-0.2-0.2s0.2-0.1,0.3-0.1h9.8c0.1,0,0.2,0.1,0.3-0.1s-0.1-0.1-0.1-0.2c-0.6-0.6-1.2-1.2-1.8-1.8
			c-0.4-0.4-0.8-0.8-1.2-1.2c-0.5-0.6-1.1-1.2-1.7-1.8C41.7,5.7,41.6,5.7,41.6,5.6z"/>
		<path class="st1" d="M46.9,9L46.9,9z"/>
		<path class="st1" d="M25.7,23.4c0,0.6,0,1.2,0,1.8c0,0.2,0,0.4,0,0.5c-0.1,0-0.1-0.1-0.1-0.1v-2.1C25.6,23.5,25.6,23.5,25.7,23.4z
			"/>
		<path class="st1" d="M20.9,26.3c-0.1,0.2-0.3,0.5-0.5,0.5C20.6,26.6,20.7,26.4,20.9,26.3z"/>
		<path class="st1" d="M25.7,25.8c0,0.3,0,0.6,0,0.9h-0.1C25.7,26.4,25.6,26.1,25.7,25.8z"/>
		<path class="st1" d="M25.7,22.6c0,0.2,0,0.5,0,0.7C25.6,23.1,25.6,22.8,25.7,22.6z"/>
		<path class="st1" d="M15,11h0.1v7.8c0,0.8,0,1.7,0,2.5c0,0.1,0,0.1,0,0.2s-0.1-0.1-0.1-0.1l-3.2-3.2l-1.8-1.8
			c-0.1-0.1-0.1-0.2,0-0.3l2.9-2.9l2.1-2.1C14.9,11.1,15,11,15,11z"/>
		<path class="st1" d="M9.7,5.6L9.7,5.6c0.1,0.1,0.1,0.2,0.2,0.3c0.4,0.4,0.8,0.8,1.2,1.1l1.2,1.2l2.3,2.3c0.1,0.1,0.2,0.2,0.3,0.4
			h-1.8c-0.1-0.1-0.3-0.1-0.4,0h-0.2c-0.1-0.1-0.2-0.1-0.3,0h-0.1c0,0-0.1,0-0.1,0H12c-0.1-0.1-0.3-0.1-0.4,0H8.9c0,0,0,0-0.1,0h-1
			c0,0-0.1-0.1-0.2,0c0,0,0,0,0,0H7.3c-0.1-0.1-0.2-0.1-0.2,0c0,0,0,0,0,0H4.5c0-0.1,0-0.1,0.1-0.2C5.7,9.6,6.8,8.5,8,7.3
			C8.6,6.8,9.1,6.2,9.7,5.6z"/>
		<path class="st1" d="M11.6,10.9c0.1-0.1,0.3-0.1,0.4,0C11.8,11,11.7,11,11.6,10.9z"/>
		<path class="st1" d="M12.8,10.9c0.1-0.1,0.3-0.1,0.4,0C13.1,11,12.9,11,12.8,10.9z"/>
		<path class="st1" d="M12.3,10.9c0.1-0.1,0.2-0.1,0.3,0C12.5,11,12.4,11,12.3,10.9z"/>
		<path class="st1" d="M7,10.9c0.1-0.1,0.2-0.1,0.2,0c0,0,0,0,0,0C7.2,11,7.1,11,7,10.9z"/>
		<path class="st1" d="M7.6,10.9c0,0,0.1-0.1,0.2,0c0,0,0,0,0,0C7.8,11,7.7,11,7.6,10.9C7.6,11,7.6,10.9,7.6,10.9z"/>
		<path class="st1" d="M8.8,10.9C8.8,10.9,8.8,10.9,8.8,10.9C8.9,10.9,8.8,11,8.8,10.9z"/>
		<path class="st1" d="M12.1,10.9C12.1,10.9,12.2,10.9,12.1,10.9C12.2,10.9,12.1,11,12.1,10.9z"/>
		<path class="st1" d="M46.8,0.4L46.8,0.4z"/>
	</g>
</g>
</svg>
