<?xml version="1.0" encoding="utf-8"?>
<!-- Generator: Adobe Illustrator 22.1.0, SVG Export Plug-In . SVG Version: 6.00 Build 0)  -->
<svg version="1.1" id="Calque_1" xmlns="http://www.w3.org/2000/svg" xmlns:xlink="http://www.w3.org/1999/xlink" x="0px" y="0px"
	 viewBox="0 0 332.4 88.1" style="enable-background:new 0 0 332.4 88.1;" xml:space="preserve">
<style type="text/css">
	.st0{fill:#FFFFFF;stroke:#818180;stroke-miterlimit:10;}
	.st1{fill:none;stroke:#BEBEBE;stroke-width:3;stroke-miterlimit:10;}
</style>
<path class="st0" d="M331.4,34.6c0-13-8.6-23.6-21.6-23.6c-8,0-15.5,4.1-19.8,10.8c-2.7-3-6.5-4.7-10.6-4.7c-1.6,0-3.2,0.3-4.7,0.8
	c-0.9-10.5-10-18.2-20.5-17.4c-6.3,0.5-11.9,4.1-15,9.6c-8.6-3.7-18.6-1.9-25.4,4.6C212.5,7,205.1,1.7,197.3,3
	c-5.2,0.9-9.5,4.5-11.2,9.5c-0.3,0-0.5,0-0.8,0c-6.1,0-11.9,3-15.5,8c-3.6-4.5-9.1-7.1-14.8-7.1c-0.3,0-0.5,0-0.8,0
	c-2.6-7.5-10.7-11.5-18.2-9c-5,1.7-8.7,6-9.5,11.2c-6.8-6.4-16.8-8.3-25.4-4.6C96,1.9,84.4-1.4,75.2,3.8c-5.5,3.1-9.1,8.7-9.6,15
	c-5.4-1.9-11.4-0.3-15.2,3.9c-7-11-21.6-14.1-32.6-7.1C11.1,19.9,7,27.4,7,35.4c0,0.2,0,0.5,0,0.7c-5.7,1.9-7.6,6-5.8,12.1
	c1.3,4.5,6.4,5.4,6.1,5.4c0,0,5.6,0.5,6.3,0.4c0,0,296.3,0,296.3,0.1v14.9c0,3.5,0.8,7.3,4.3,7.3c4.8,0,4.7-4.8,4.7-7V54.2h5.1v26.4
	c0,3.5-0.5,7.1,3,7.1c3.2,0,2.7-2.7,2.7-6.8V54.2l2.1-0.1c0.4-1.9-0.7-6.7-0.7-10C331.3,39.4,331.4,34.7,331.4,34.6z"/>
<circle class="st1" cx="42.8" cy="35.9" r="2.5"/>
<circle class="st1" cx="99.4" cy="32" r="2.5"/>
<circle class="st1" cx="229.8" cy="38.3" r="2.7"/>
<circle class="st1" cx="63.2" cy="40.1" r="3.8"/>
<circle class="st1" cx="180" cy="28.2" r="3.8"/>
<circle class="st1" cx="316.1" cy="38.3" r="3.8"/>
</svg>
