<?xml version="1.0" encoding="utf-8"?>
<!-- Generator: Adobe Illustrator 22.1.0, SVG Export Plug-In . SVG Version: 6.00 Build 0)  -->
<svg version="1.1" id="Calque_1" xmlns="http://www.w3.org/2000/svg" xmlns:xlink="http://www.w3.org/1999/xlink" x="0px" y="0px"
	 viewBox="0 0 332.4 88.1" style="enable-background:new 0 0 332.4 88.1;" xml:space="preserve">
<style type="text/css">
	.st0{fill:#FFFFFF;stroke:#818180;stroke-miterlimit:10;}
	.st1{fill:none;stroke:#BEBEBE;stroke-width:3;stroke-miterlimit:10;}
</style>
<path class="st0" d="M1.3,44.1c0,3.3-1.1,8.1-0.7,10l2.1,0.1v26.7c0,4.1-0.5,6.8,2.7,6.8c3.5,0,3-3.6,3-7.1V54.2h5.1v15.1
	c0,2.2-0.1,7,4.7,7c3.5,0,4.3-3.8,4.3-7.3V54.1c0-0.1,296.3-0.1,296.3-0.1c0.7,0.1,6.3-0.4,6.3-0.4c-0.3,0,4.8-0.9,6.1-5.4
	c1.8-6.1-0.1-10.2-5.8-12.1c0-0.2,0-0.5,0-0.7c0-8-4.1-15.5-10.8-19.8c-11-7-25.6-3.9-32.6,7.1c-3.8-4.2-9.8-5.8-15.2-3.9
	c-0.5-6.3-4.1-11.9-9.6-15c-9.2-5.2-20.8-1.9-25.9,7.2c-8.6-3.7-18.6-1.8-25.4,4.6c-0.8-5.2-4.5-9.5-9.5-11.2
	c-7.5-2.5-15.6,1.5-18.2,9c-0.3,0-0.5,0-0.8,0c-5.7,0-11.2,2.6-14.8,7.1c-3.6-5-9.4-8-15.5-8c-0.3,0-0.5,0-0.8,0
	c-1.7-5-6-8.6-11.2-9.5c-7.8-1.3-15.2,4-16.5,11.7c-6.8-6.5-16.8-8.3-25.4-4.6c-3.1-5.5-8.7-9.1-15-9.6C67.7-0.3,58.6,7.4,57.7,17.9
	c-1.5-0.5-3.1-0.8-4.7-0.8c-4.1,0-7.9,1.7-10.6,4.7C38.1,15.1,30.6,11,22.6,11C9.6,11,1,21.6,1,34.6C1,34.7,1.1,39.4,1.3,44.1z"/>
<circle class="st1" cx="289.6" cy="35.9" r="2.5"/>
<circle class="st1" cx="233" cy="32" r="2.5"/>
<circle class="st1" cx="102.6" cy="38.3" r="2.7"/>
<circle class="st1" cx="269.2" cy="40.1" r="3.8"/>
<circle class="st1" cx="152.4" cy="28.2" r="3.8"/>
<circle class="st1" cx="16.3" cy="38.3" r="3.8"/>
</svg>
