<svg id="Calque_1" data-name="Calque 1" xmlns="http://www.w3.org/2000/svg" viewBox="0 0 49.98 45.52"><defs><style>.cls-1,.cls-2,.cls-3{fill:#3a33ff;}.cls-2,.cls-3{stroke:#3a33ff;stroke-miterlimit:10;}.cls-3{stroke-width:0.25px;}</style></defs><title>bouton_personnaliser_display</title><path class="cls-1" d="M22.85,0A22.76,22.76,0,1,0,45.61,22.76,22.76,22.76,0,0,0,22.85,0Zm0,39.79a17,17,0,1,1,17-17A17,17,0,0,1,22.85,39.79Z"/><rect class="cls-2" x="33.39" y="-4.76" width="4.5" height="34.34" rx="1.82" transform="translate(22.63 -23.01) rotate(50.63)"/><path class="cls-3" d="M21.39,25.59A3.5,3.5,0,0,0,17,24a3.89,3.89,0,0,0-2.36,2.27c-.4,1.31-2.63,2.44-4.8,1.19,0,0-.63-.39-.85-.12s.1.7.1.7,3,3.76,6.48,3.38A9.84,9.84,0,0,0,20.3,30,3.36,3.36,0,0,0,21.39,25.59Z"/></svg>