<?xml version="1.0" encoding="utf-8"?>
<!-- Generator: Adobe Illustrator 22.1.0, SVG Export Plug-In . SVG Version: 6.00 Build 0)  -->
<svg version="1.1" id="Calque_1" xmlns="http://www.w3.org/2000/svg" xmlns:xlink="http://www.w3.org/1999/xlink" x="0px" y="0px"
	 viewBox="0 0 556.2 138.4" style="enable-background:new 0 0 556.2 138.4;" xml:space="preserve">
<style type="text/css">
	.st0{clip-path:url(#SVGID_2_);}
	.st1{fill:#FBEA19;stroke:#FFFFFF;stroke-miterlimit:10;}
	.st2{opacity:0.64;fill:#020203;enable-background:new    ;}
	.st3{opacity:0.64;}
	.st4{fill:#020203;}
	.st5{opacity:0.3;}
</style>
<g>
	<defs>
		<polygon id="SVGID_1_" points="556.2,138.4 0,138.4 0,0 0,0 556.1,0 556.1,66.1 556.1,138.4 		"/>
	</defs>
	<clipPath id="SVGID_2_">
		<use xlink:href="#SVGID_1_"  style="overflow:visible;"/>
	</clipPath>
	<g class="st0">
		<circle class="st1" cx="19.3" cy="128.6" r="18.6"/>
		<circle class="st2" cx="9.7" cy="129.8" r="2.6"/>
		<circle class="st2" cx="25.5" cy="122" r="2.6"/>
		<g class="st3">
			<path class="st4" d="M15.4,140.5c4.8-0.4,13.9-3.2,14.1-9.2c0.1-1.6-2.4-1.6-2.5,0c-0.1,2.3-3.4,4-5.3,5c-2,1-4.2,1.5-6.4,1.7
				C13.8,138.2,13.8,140.7,15.4,140.5L15.4,140.5z"/>
		</g>
		<circle class="st1" cx="15.4" cy="88.3" r="18.1"/>
		<g class="st3">
			<path class="st4" d="M9.6,83.8c0.7,1.3,2,2,3.4,2c0.7,0,1.3-0.6,1.3-1.3s-0.6-1.3-1.3-1.3c-0.5,0.1-1-0.2-1.2-0.7
				c-0.4-0.6-1.1-0.8-1.7-0.4C9.5,82.4,9.3,83.2,9.6,83.8L9.6,83.8z"/>
		</g>
		<g class="st3">
			<path class="st4" d="M24.1,87.7L24.1,87.7l0.6,1.1c0,0.3-0.3,0.7-0.7,0.7c-0.2,0-0.2-0.1-0.4-0.2s0,0.2,0,0.1c0,0.1,0,0.3,0,0.4
				l0.6-1.1c0.2-0.1,0.6-0.1,0.7,0.2s0.1,0.6-0.2,0.7c0.6-0.4,0.8-1.1,0.5-1.7c-0.4-0.6-1.1-0.8-1.7-0.5c-0.9,0.7-1,1.9-0.3,2.8
				c0.6,0.7,1.5,1,2.3,0.6c0.4-0.2,0.6-0.6,0.6-1.1c0-1.1-0.4-2.4-1.6-2.7c-1-0.3-2,0.3-2.3,1.3c0,0.1-0.1,0.3-0.1,0.4
				c0,0.4,0.2,0.9,0.6,1.1c0.6,0.3,1.2,0.4,1.9,0.3c0.7-0.2,1-0.9,0.9-1.5c-0.2-0.7-0.9-1-1.5-0.9L24.1,87.7z"/>
		</g>
		<g class="st3">
			<path class="st4" d="M7.6,93c3,2.8,6.5,5.4,10.6,3.5c1.5-0.6,0.2-2.8-1.3-2.2c-2.9,1.3-5.6-1.3-7.6-3.1C8.2,90.2,6.5,91.9,7.6,93
				L7.6,93z"/>
		</g>
		<circle class="st1" cx="-3.3" cy="106.4" r="18.1"/>
		<g class="st3">
			<path class="st4" d="M-3.3,99l-0.9,0.4l-0.2-0.1c0-0.1-0.1-0.2-0.1-0.4c0-0.1,0-0.1,0,0s-0.1,0,0,0C-4.6,99-4.7,99-4.9,99
				c0,0-0.1,0-0.1-0.1c-0.1-0.1-0.2-0.3-0.2-0.5c0-0.3,0-0.7,0.2-1L-6.4,98l-0.4-0.4c0.2,0.7,0.9,1,1.6,0.8c0.6-0.2,1-0.8,0.8-1.5
				c-0.2-0.7-0.7-1.2-1.4-1.3c-0.5-0.1-1.1,0.1-1.4,0.6c-0.8,1.2-0.8,2.8,0,4c0.7,1.1,2.1,1.6,3.3,1.2c1.3-0.3,2.1-1.7,1.8-3
				c-0.4-1.4-2.6-2.1-3.4-0.6S-4.1,100.5-3.3,99L-3.3,99z"/>
		</g>
		<g class="st3">
			<path class="st4" d="M4.6,110c0.2-0.2,0.3-0.3,0.4-0.5l0.1-0.1c-0.3-0.2-0.4-0.2-0.4,0l-0.2-0.6c0.3-0.4,0.3-0.5,0.1-0.3
				l-0.4,0.2l-0.7,0.5h1.3c-0.6-0.3-0.8-1-0.5-1.6c0-0.1,0.1-0.1,0.1-0.2c1.1-1.2-0.6-2.9-1.8-1.8c-1.4,1.5-1.3,3.8,0.2,5.2
				c0.2,0.2,0.4,0.3,0.6,0.5c0.4,0.2,0.9,0.2,1.3,0c0.7-0.4,1.4-0.9,1.9-1.5c0.5-0.7,0.4-1.6-0.1-2.2c-1.2-1.4-2.8-0.7-3.8,0.5
				c-0.5,0.5-0.5,1.3,0,1.8C3.3,110.5,4.1,110.5,4.6,110L4.6,110z"/>
		</g>
		<g class="st3">
			<path class="st4" d="M-14.5,106.8c1.3,3.6,3.3,7.2,7.4,7.7c1.6,0.2,1.6-2.3,0-2.5c-2.9-0.4-4.2-3.5-5-5.9
				C-12.6,104.6-15,105.3-14.5,106.8L-14.5,106.8z"/>
		</g>
		<circle class="st1" cx="17.6" cy="52" r="18.1"/>
		<g class="st3">
			<path class="st4" d="M17.7,44.5l-0.9,0.4l-0.2-0.1c-0.1-0.1-0.1-0.3-0.1-0.3s0-0.1,0,0s-0.1,0,0,0c-0.1,0.1-0.3,0.2-0.5,0.1
				c0,0-0.1,0-0.1-0.1c-0.1-0.1-0.2-0.3-0.2-0.5c0-0.4,0.1-0.7,0.2-1l-1.4,0.6l-0.4-0.4c0.2,0.7,0.9,1,1.6,0.8
				c0.6-0.2,1-0.8,0.8-1.5c-0.2-0.7-0.7-1.2-1.4-1.3c-0.5-0.1-1.1,0.1-1.4,0.6c-0.8,1.2-0.8,2.8-0.1,4c0.7,1.1,2.1,1.6,3.3,1.2
				c1.3-0.3,2.1-1.6,1.8-2.9c-0.4-1.4-2.6-2.1-3.4-0.6C14.7,44.8,16.9,46,17.7,44.5L17.7,44.5z"/>
		</g>
		<g class="st3">
			<path class="st4" d="M25.6,55.5c0.2-0.2,0.3-0.3,0.4-0.5l0.1-0.1c-0.3-0.2-0.4-0.2-0.4,0l-0.2-0.6c0.3-0.4,0.3-0.5,0.1-0.3
				l-0.4,0.2l-0.7,0.5h1.3c-0.6-0.3-0.8-1.1-0.4-1.6c0-0.1,0.1-0.1,0.1-0.2c1.1-1.1-0.6-2.9-1.8-1.8c-1.4,1.5-1.3,3.9,0.2,5.3
				c0.2,0.2,0.4,0.3,0.6,0.5c0.4,0.2,0.9,0.2,1.3,0c0.7-0.4,1.4-0.9,1.9-1.5c0.5-0.7,0.4-1.6-0.1-2.2c-1.2-1.4-2.8-0.7-3.8,0.5
				c-0.5,0.5-0.4,1.3,0.1,1.8C24.4,56,25.1,56,25.6,55.5L25.6,55.5z"/>
		</g>
		<g class="st3">
			<path class="st4" d="M6.5,52.3c1.3,3.6,3.2,7.2,7.4,7.7c1.6,0.2,1.6-2.3,0-2.5c-2.9-0.4-4.2-3.5-5-5.9C8.4,50.2,6,50.8,6.5,52.3
				L6.5,52.3z"/>
		</g>
		<circle class="st1" cx="-6.5" cy="76.4" r="18.1"/>
		<g class="st3">
			<path class="st4" d="M-16,72.2c1.2-0.6,2.6-0.8,3.9-0.6c0.7,0,1.2-0.6,1.3-1.3c0-0.7-0.6-1.2-1.3-1.3c-1.8-0.2-3.6,0.1-5.2,1
				C-18.6,70.8-17.4,73-16,72.2L-16,72.2z"/>
		</g>
		<g class="st3">
			<path class="st4" d="M-1.4,72.1h4.8c0.7,0,1.3-0.6,1.3-1.3s-0.6-1.3-1.3-1.3h-4.8c-0.7,0-1.2,0.6-1.2,1.3S-2.1,72.1-1.4,72.1
				L-1.4,72.1z"/>
		</g>
		<g class="st3">
			<path class="st4" d="M-12.1,83.8l15.5-0.6c1.6-0.1,1.6-2.6,0-2.5l-15.5,0.6C-13.7,81.4-13.7,83.9-12.1,83.8z"/>
		</g>
		<circle class="st1" cx="46.5" cy="129.8" r="18.1"/>
		<g class="st3">
			<path class="st4" d="M50.4,140.2c-0.6-3.4,1.5-6.6,4.7-7.6c0.7-0.2,1.1-0.9,0.9-1.5s-0.9-1.1-1.5-0.9l0,0
				c-4.6,1.4-7.4,6-6.5,10.7C48.3,142.4,50.7,141.8,50.4,140.2L50.4,140.2z"/>
		</g>
		<g class="st3">
			<path class="st4" d="M38.4,135.4l3.2-4.6c0.9-1.3-1.3-2.6-2.2-1.3l-3.2,4.6C35.3,135.5,37.4,136.7,38.4,135.4L38.4,135.4z"/>
		</g>
		<g class="st3">
			<path class="st4" d="M47.2,123.8c-0.2-1.9,1.1-3.7,3-4.1c1.6-0.3,0.9-2.8-0.7-2.4c-3,0.7-5.1,3.5-4.9,6.5
				C44.8,125.4,47.3,125.4,47.2,123.8L47.2,123.8z"/>
		</g>
		<circle class="st1" cx="25.5" cy="110" r="18.1"/>
		<g class="st3">
			<path class="st4" d="M18.6,105.9l0.3,1.6c0.2,0.7,0.9,1.1,1.5,0.9c0.7-0.2,1-0.9,0.9-1.5l-0.3-1.6c-0.2-0.7-0.9-1-1.5-0.9
				C18.8,104.5,18.4,105.2,18.6,105.9z"/>
		</g>
		<g class="st3">
			<path class="st4" d="M30.4,103.9c-0.6,0.9-0.6,2,0,2.8c0.3,0.6,1.1,0.8,1.7,0.5c0.6-0.3,0.8-1.1,0.4-1.7l0,0
				c0-0.1-0.1-0.2-0.1-0.1s0,0.1,0-0.1c0,0.1,0,0.1,0.1-0.1c0.4-0.6,0.2-1.4-0.4-1.7S30.7,103.3,30.4,103.9L30.4,103.9L30.4,103.9z"
				/>
		</g>
		<circle class="st1" cx="10.7" cy="22.4" r="18.6"/>
		<circle class="st2" cx="16.7" cy="14.8" r="2.6"/>
		<circle class="st2" cx="11.1" cy="31.5" r="2.6"/>
		<g class="st3">
			<path class="st4" d="M5.1,11.3C2,15-2.5,23.3,1.5,27.8c1.1,1.2,2.9-0.6,1.8-1.8c-1.6-1.7-0.5-5.1,0.1-7c0.7-2.2,1.9-4.2,3.4-5.9
				C7.8,11.8,6.1,10,5.1,11.3L5.1,11.3z"/>
		</g>
		<circle class="st1" cx="52" cy="95.6" r="18.1"/>
		<g class="st3">
			<path class="st4" d="M59.3,94.7c-1.4-0.4-2.8,0-3.8,1c-0.5,0.5-0.4,1.3,0.1,1.8c0.5,0.4,1.2,0.4,1.7,0c0.3-0.4,0.9-0.5,1.4-0.4
				C60.2,97.6,60.8,95.2,59.3,94.7z"/>
		</g>
		<g class="st3">
			<path class="st4" d="M46.3,102.2C46.3,102.3,46.1,102.3,46.3,102.2l-1.2-0.3c-0.3-0.3-0.3-0.7,0-0.9c0,0,0,0,0.1-0.1
				c0.1,0,0.4-0.1,0.4,0s-0.4-0.3-0.4-0.3l0.3,1.2c-0.1,0.3-0.4,0.4-0.6,0.4c-0.3-0.1-0.4-0.4-0.4-0.6c-0.2,0.7,0.2,1.3,0.9,1.5
				c0.7,0.2,1.4-0.2,1.5-0.9c0.1-1.1-0.7-2.1-1.8-2.2c-0.9-0.1-1.7,0.4-2,1.2c-0.1,0.4,0,0.9,0.3,1.2c0.8,0.8,2,1.4,3,0.8
				c0.9-0.5,1.3-1.6,0.8-2.5c-0.1-0.1-0.2-0.3-0.3-0.4c-0.3-0.3-0.8-0.4-1.2-0.3c-0.6,0.2-1.2,0.6-1.5,1.1c-0.3,0.6-0.1,1.4,0.5,1.7
				C45.1,103.1,45.9,102.9,46.3,102.2L46.3,102.2z"/>
		</g>
		<g class="st3">
			<path class="st4" d="M54.2,86.7c-4,0.1-8.4,0.8-10,5c-0.6,1.5,1.8,2.1,2.4,0.7c1.1-3,4.9-3.1,7.6-3.2
				C55.8,89.2,55.8,86.7,54.2,86.7L54.2,86.7z"/>
		</g>
		<circle class="st1" cx="33.9" cy="71.2" r="18.1"/>
		<g class="st3">
			<path class="st4" d="M39.1,76.5v-0.4l0.3-0.5c-0.1,0.1-0.1,0.1,0.1,0c0.2-0.1,0.3,0,0.4,0.1c0,0,0.1,0.1,0,0.1
				c0-0.1,0.1-0.3,0.2-0.4c0.5-0.3,1,0.6,1.1,1L42,75h0.1l0.6,0.2l-0.2-0.1c-1.4-0.8-2.7,1.4-1.3,2.1c0.6,0.4,1.4,0.4,2,0
				c0.5-0.3,0.7-0.9,0.6-1.4c-0.3-1.4-1.4-2.5-2.8-2.8c-1.4-0.3-2.7,0.4-3.3,1.7c-0.6,1.2-0.1,2.6,1,3.2c0.1,0,0.1,0.1,0.2,0.1
				c1.3,0.4,3-0.6,2.5-2.1c-0.2-0.7-0.9-1-1.6-0.8C39.3,75.2,38.9,75.9,39.1,76.5L39.1,76.5z"/>
		</g>
		<g class="st3">
			<path class="st4" d="M25.7,74.2c0,0.3,0,0.5,0,0.8c-0.1-0.1,0.2-0.2,0.4-0.2c0.3,0,0.6,0.2,0.6,0.7l0.1-0.5l0.2-1l-0.9,0.9
				c0.6-0.2,1.3,0.2,1.4,0.8c0,0.1,0,0.2,0,0.2c0,0.7,0.6,1.3,1.3,1.3s1.3-0.6,1.3-1.3c-0.1-2.1-1.8-3.7-3.8-3.6
				c-0.3,0-0.5,0-0.8,0.1c-0.4,0.1-0.8,0.5-0.9,0.9c-0.3,0.8-0.4,1.6-0.3,2.4c0.1,0.8,0.8,1.3,1.6,1.4c1.8,0.2,2.5-1.5,2.4-3
				c0-0.7-0.6-1.2-1.3-1.3C26.3,73,25.7,73.5,25.7,74.2L25.7,74.2z"/>
		</g>
		<g class="st3">
			<path class="st4" d="M41.5,63c-3.3-1.6-7.2-2.8-10.5-0.4c-1.3,1,0,3.1,1.3,2.1c2.5-1.9,5.4-0.8,7.9,0.4
				C41.7,65.9,43,63.7,41.5,63z"/>
		</g>
		<circle class="st1" cx="70.1" cy="111.6" r="18.1"/>
		<g class="st3">
			<path class="st4" d="M79.7,107.9c-0.4,1.2-1.1,2.2-2.1,3c-0.6,0.4-0.8,1.1-0.5,1.7c0.4,0.6,1.1,0.8,1.7,0.4
				c1.5-1.1,2.6-2.7,3.2-4.5C82.6,107,80.2,106.3,79.7,107.9L79.7,107.9z"/>
		</g>
		<g class="st3">
			<path class="st4" d="M69.5,118.3l-3.4,3.4c-0.5,0.5-0.4,1.3,0.1,1.8c0.5,0.4,1.2,0.4,1.7,0l3.4-3.4c0.5-0.5,0.4-1.3-0.1-1.8
				C70.7,117.8,69.9,117.8,69.5,118.3z"/>
		</g>
		<g class="st3">
			<path class="st4" d="M68.7,102.4l-10.5,11.4c-1.1,1.2,0.7,3,1.8,1.8l10.5-11.4C71.6,103,69.8,101.2,68.7,102.4z"/>
		</g>
		<circle class="st1" cx="-9.7" cy="47.2" r="18.1"/>
		<g class="st3">
			<path class="st4" d="M-20,42.6c2.8,2,3.7,5.7,2.1,8.7c-0.8,1.4,1.4,2.7,2.2,1.3c2.3-4.2,1-9.5-3-12.2
				C-20.1,39.5-21.3,41.7-20,42.6L-20,42.6z"/>
		</g>
		<g class="st3">
			<path class="st4" d="M-8,37.5l1,5.5c0.3,1.6,2.7,0.9,2.4-0.7l-1-5.5C-5.9,35.2-8.3,35.9-8,37.5z"/>
		</g>
		<g class="st3">
			<path class="st4" d="M-6.1,51.9c1.5,1.2,1.8,3.4,0.8,5c-0.9,1.4,1.3,2.6,2.2,1.3c1.6-2.6,1.1-6-1.2-8.1
				C-5.5,49.1-7.3,50.8-6.1,51.9L-6.1,51.9z"/>
		</g>
		<circle class="st1" cx="78.9" cy="132.4" r="18.1"/>
		<g class="st3">
			<path class="st4" d="M86.7,130.4l-1.3-0.9c-0.6-0.4-1.3-0.3-1.7,0.3c-0.4,0.6-0.3,1.3,0.3,1.7c0.1,0,0.1,0.1,0.2,0.1l1.3,1
				c0.6,0.3,1.4,0.1,1.7-0.5C87.5,131.5,87.3,130.8,86.7,130.4L86.7,130.4z"/>
		</g>
		<g class="st3">
			<path class="st4" d="M79.7,140.1c-0.2-1-1-1.8-2-2c-0.7-0.2-1.3,0.2-1.5,0.9c-0.2,0.7,0.2,1.3,0.9,1.5c0.2,0,0.2,0,0.3,0.2
				c0.2,0.7,0.9,1,1.6,0.8C79.5,141.4,79.9,140.8,79.7,140.1L79.7,140.1z"/>
		</g>
		<circle class="st1" cx="100.4" cy="31.7" r="18.6"/>
		<circle class="st2" cx="110.1" cy="30.5" r="2.6"/>
		<circle class="st2" cx="94.3" cy="38.3" r="2.6"/>
		<g class="st3">
			<path class="st4" d="M104.3,19.8C99.5,20.2,90.4,23,90.2,29c-0.1,1.6,2.4,1.6,2.5,0c0.1-2.3,3.4-4,5.2-4.9c2-1,4.2-1.5,6.4-1.7
				C105.9,22.1,105.9,19.6,104.3,19.8L104.3,19.8z"/>
		</g>
		
			<ellipse transform="matrix(0.1602 -0.9871 0.9871 0.1602 117.7189 151.7049)" class="st1" cx="148" cy="6.7" rx="18.6" ry="18.7"/>
		<circle class="st2" cx="157.7" cy="5.6" r="2.6"/>
		<circle class="st2" cx="141.9" cy="13.3" r="2.6"/>
		<g class="st3">
			<path class="st4" d="M151.9-5.2C147.1-4.8,138-2,137.8,4c-0.1,1.6,2.4,1.6,2.5,0c0.1-2.3,3.4-4,5.3-4.9c2-1,4.2-1.6,6.4-1.7
				C153.5-2.8,153.5-5.3,151.9-5.2z"/>
		</g>
		<circle class="st1" cx="104.3" cy="72" r="18.1"/>
		<g class="st3">
			<path class="st4" d="M110.1,76.5c-0.6-1.3-2-2-3.4-2c-0.7,0-1.2,0.6-1.3,1.3c0,0.7,0.6,1.2,1.3,1.3c0.5,0,1,0.2,1.2,0.7
				c0.4,0.6,1.1,0.8,1.7,0.5C110.3,77.9,110.5,77.1,110.1,76.5L110.1,76.5z"/>
		</g>
		<g class="st3">
			<path class="st4" d="M95.7,72.7L95.7,72.7L95,71.6c0-0.4,0.3-0.7,0.7-0.7c0.2,0,0.2,0.1,0.4,0.2s0-0.2,0-0.1c0-0.1,0-0.3,0-0.5
				l-0.6,1.1c-0.2,0.1-0.6,0.1-0.7-0.2s-0.1-0.6,0.2-0.7l0,0c-0.6,0.4-0.8,1.1-0.5,1.7c0.4,0.6,1.1,0.8,1.7,0.5
				c0.9-0.7,1-1.9,0.3-2.8c-0.6-0.7-1.5-1-2.3-0.6c-0.4,0.2-0.6,0.6-0.6,1.1c0,1.1,0.4,2.4,1.6,2.7c1,0.3,2-0.3,2.3-1.3
				c0-0.1,0.1-0.3,0.1-0.4c0-0.4-0.2-0.9-0.6-1.1c-0.6-0.3-1.2-0.4-1.9-0.3c-0.7,0.2-1.1,0.9-0.9,1.5c0.2,0.7,0.9,1,1.5,0.9
				L95.7,72.7z"/>
		</g>
		<g class="st3">
			<path class="st4" d="M112.1,67.3c-3-2.8-6.5-5.4-10.6-3.5c-1.5,0.6-0.2,2.8,1.3,2.2c2.9-1.3,5.6,1.3,7.6,3.1
				C111.5,70.1,113.3,68.4,112.1,67.3L112.1,67.3z"/>
		</g>
		<circle class="st1" cx="123.1" cy="53.9" r="18.1"/>
		<g class="st3">
			<path class="st4" d="M123,61.3l0.9-0.4l0.2,0.1c0.1,0.1,0.1,0.3,0.1,0.3s0,0.1,0,0s0.1,0,0,0c0.1-0.1,0.3-0.2,0.5-0.1
				c0,0,0.1,0,0.1,0.1c0.1,0.1,0.2,0.3,0.2,0.5c0,0.4-0.1,0.7-0.2,1l1.4-0.6l0.4,0.4c-0.2-0.7-0.9-1-1.6-0.8c-0.6,0.2-1,0.8-0.8,1.5
				c0.2,0.7,0.7,1.2,1.4,1.3c0.5,0.1,1.1-0.1,1.4-0.6c0.7-1.2,0.7-2.8,0-4c-0.7-1.1-2.1-1.6-3.3-1.2c-1.3,0.3-2.1,1.6-1.8,2.9
				c0.5,1.4,2.6,2.1,3.4,0.6S123.8,59.9,123,61.3L123,61.3z"/>
		</g>
		<g class="st3">
			<path class="st4" d="M115.2,50.3c-0.2,0.2-0.3,0.3-0.4,0.5l-0.1,0.1c0.3,0.2,0.4,0.2,0.4,0l0.2,0.6c-0.3,0.4-0.3,0.5-0.1,0.3
				l0.4-0.2l0.7-0.5H115c0.6,0.3,0.8,1.1,0.4,1.6c0,0.1-0.1,0.1-0.1,0.2c-1.1,1.1,0.6,2.9,1.8,1.8c1.4-1.5,1.3-3.8-0.2-5.2
				c-0.2-0.2-0.4-0.3-0.6-0.5c-0.4-0.2-0.9-0.2-1.3,0c-0.7,0.4-1.4,0.9-1.9,1.5c-0.5,0.7-0.4,1.6,0.1,2.2c1.2,1.4,2.8,0.7,3.8-0.5
				c0.5-0.5,0.5-1.3,0-1.8C116.5,49.8,115.7,49.8,115.2,50.3L115.2,50.3z"/>
		</g>
		<g class="st3">
			<path class="st4" d="M134.3,53.5c-1.3-3.6-3.3-7.2-7.4-7.7c-1.6-0.2-1.6,2.3,0,2.5c2.9,0.4,4.2,3.5,5,5.9
				C132.4,55.7,134.8,55,134.3,53.5L134.3,53.5z"/>
		</g>
		<circle class="st1" cx="109.3" cy="129.6" r="18.1"/>
		<g class="st3">
			<path class="st4" d="M109.3,137.1l0.9-0.4l0.2,0.1c0.1,0.1,0.1,0.3,0.1,0.4s0,0.1,0,0s0.1,0,0,0c0.1-0.1,0.3-0.2,0.5-0.1
				c0,0,0.1,0,0.1,0.1c0.1,0.1,0.2,0.3,0.2,0.5c0,0.3,0,0.7-0.2,1l1.4-0.6l0.4,0.4c-0.2-0.7-0.9-1.1-1.5-0.9s-1.1,0.9-0.9,1.5
				c0.2,0.7,0.7,1.2,1.4,1.3c0.5,0.1,1.1-0.1,1.4-0.6c0.8-1.2,0.8-2.8,0-4c-0.7-1.1-2.1-1.6-3.3-1.2c-1.3,0.3-2.1,1.6-1.8,3
				c0.4,1.4,2.6,2.1,3.4,0.6S110.1,135.5,109.3,137.1L109.3,137.1z"/>
		</g>
		<g class="st3">
			<path class="st4" d="M101.4,126c-0.2,0.2-0.3,0.3-0.5,0.5l-0.1,0.1c0.3,0.2,0.4,0.2,0.4,0l0.2,0.6c-0.3,0.4-0.3,0.5-0.1,0.3
				l0.4-0.3l0.7-0.5h-1.3c0.6,0.3,0.8,1.1,0.4,1.6c0,0.1-0.1,0.1-0.1,0.2c-1.1,1.2,0.6,2.9,1.8,1.8c1.4-1.5,1.3-3.9-0.2-5.3
				c-0.2-0.2-0.4-0.3-0.6-0.5c-0.4-0.2-0.9-0.2-1.3,0c-0.7,0.4-1.4,0.9-1.9,1.5c-0.5,0.7-0.4,1.6,0.1,2.2c1.2,1.4,2.8,0.7,3.8-0.5
				c0.5-0.5,0.5-1.3,0-1.8C102.7,125.5,101.9,125.5,101.4,126L101.4,126z"/>
		</g>
		<g class="st3">
			<path class="st4" d="M120.5,129.2c-1.3-3.6-3.3-7.2-7.4-7.7c-1.6-0.2-1.6,2.3,0,2.5c2.9,0.4,4.2,3.5,5,5.9
				C118.6,131.4,121,130.7,120.5,129.2L120.5,129.2z"/>
		</g>
		
			<ellipse transform="matrix(0.1602 -0.9871 0.9871 0.1602 23.2187 195.1132)" class="st1" cx="126.3" cy="83.9" rx="18.1" ry="18.1"/>
		<g class="st3">
			<path class="st4" d="M135.7,88.1c-1.2,0.6-2.6,0.8-3.9,0.6c-0.7,0-1.2,0.5-1.3,1.2c0,0,0,0,0,0c0,0.7,0.6,1.2,1.3,1.3
				c1.8,0.2,3.6-0.1,5.2-1C138.4,89.5,137.1,87.3,135.7,88.1L135.7,88.1z"/>
		</g>
		<g class="st3">
			<path class="st4" d="M121.2,88.1h-4.8c-0.7,0-1.3,0.6-1.3,1.3s0.6,1.3,1.3,1.3h4.8c0.7,0,1.3-0.6,1.3-1.3S121.9,88.1,121.2,88.1z
				"/>
		</g>
		<g class="st3">
			<path class="st4" d="M131.8,76.5l-15.5,0.7c-1.6,0.1-1.6,2.6,0,2.5l15.5-0.7C133.4,78.9,133.4,76.4,131.8,76.5z"/>
		</g>
		<circle class="st1" cx="73.3" cy="30.5" r="18.1"/>
		<g class="st3">
			<path class="st4" d="M69.3,20.1c0.6,3.4-1.5,6.6-4.7,7.6c-0.7,0.2-1.1,0.9-0.9,1.5s0.9,1.1,1.5,0.9l0,0c4.6-1.4,7.4-6,6.5-10.7
				C71.4,17.9,69,18.6,69.3,20.1L69.3,20.1z"/>
		</g>
		<g class="st3">
			<path class="st4" d="M81.4,24.9l-3.2,4.6c-0.9,1.3,1.2,2.6,2.2,1.3l3.2-4.6C84.5,24.8,82.3,23.6,81.4,24.9L81.4,24.9z"/>
		</g>
		<g class="st3">
			<path class="st4" d="M72.5,36.5c0.2,1.9-1.1,3.7-3,4.1c-1.6,0.3-0.9,2.8,0.7,2.4c3-0.7,5.1-3.4,4.9-6.5
				C75,34.9,72.5,34.9,72.5,36.5L72.5,36.5z"/>
		</g>
		<circle class="st1" cx="88.5" cy="53.8" r="18.1"/>
		<g class="st3">
			<path class="st4" d="M95.4,57.9l-0.3-1.6c-0.2-0.7-0.9-1-1.5-0.9c-0.7,0.2-1,0.9-0.9,1.5l0.3,1.6c0.2,0.7,0.9,1,1.5,0.9
				C95.2,59.3,95.6,58.6,95.4,57.9z"/>
		</g>
		<g class="st3">
			<path class="st4" d="M83.6,60c0.6-0.9,0.6-2,0-2.8c-0.3-0.6-1.1-0.8-1.7-0.5c-0.6,0.3-0.8,1.1-0.4,1.7c0,0.1,0.1,0.2,0.1,0.1
				s0-0.1,0,0.1c0-0.1,0-0.1-0.1,0.1c-0.4,0.6-0.2,1.4,0.4,1.7S83.3,60.5,83.6,60L83.6,60z"/>
		</g>
		<circle class="st1" cx="33.9" cy="10.2" r="18.6"/>
		<circle class="st2" cx="27.8" cy="17.8" r="2.6"/>
		<circle class="st2" cx="33.5" cy="1.2" r="2.6"/>
		<g class="st3">
			<path class="st4" d="M39.5,21.4c3.1-3.7,7.6-12,3.5-16.5c-1.1-1.2-2.9,0.6-1.8,1.8c1.6,1.7,0.5,5.1-0.1,7
				c-0.7,2.2-1.9,4.2-3.4,5.9C36.7,20.8,38.5,22.6,39.5,21.4L39.5,21.4z"/>
		</g>
		<circle class="st1" cx="80.1" cy="83.3" r="18.1"/>
		<g class="st3">
			<path class="st4" d="M72.7,84.2c1.4,0.4,2.8,0,3.8-1c0.5-0.5,0.5-1.3,0-1.8c-0.5-0.5-1.3-0.5-1.8,0c-0.3,0.4-0.9,0.5-1.4,0.4
				C71.9,81.3,71.2,83.7,72.7,84.2z"/>
		</g>
		<g class="st3">
			<path class="st4" d="M85.8,76.7C85.8,76.6,86,76.6,85.8,76.7L87,77c0.3,0.2,0.3,0.7,0.1,1c0,0-0.1,0.1-0.1,0.1
				c-0.1,0-0.4,0.1-0.4,0s0.4,0.3,0.4,0.3l-0.3-1.2c0.1-0.3,0.4-0.4,0.6-0.4c0.3,0.1,0.4,0.4,0.4,0.6c0.2-0.7-0.2-1.3-0.9-1.5
				c-0.7-0.2-1.3,0.2-1.5,0.9c-0.1,1.1,0.7,2.1,1.8,2.2c0.9,0.1,1.7-0.4,2-1.2c0.1-0.4,0-0.9-0.3-1.2c-0.8-0.8-2-1.4-3-0.8
				c-0.9,0.5-1.3,1.6-0.8,2.5c0.1,0.1,0.2,0.3,0.3,0.4c0.3,0.3,0.8,0.4,1.2,0.3c0.6-0.2,1.2-0.6,1.5-1.1c0.3-0.6,0.1-1.4-0.5-1.7
				c-0.6-0.3-1.4-0.1-1.7,0.4L85.8,76.7z"/>
		</g>
		<g class="st3">
			<path class="st4" d="M77.9,92.1c4-0.1,8.4-0.8,10-5c0.6-1.5-1.8-2.1-2.4-0.7c-1.1,3-4.9,3.1-7.6,3.2
				C76.3,89.7,76.3,92.2,77.9,92.1L77.9,92.1z"/>
		</g>
		<circle class="st1" cx="100.2" cy="101.4" r="18.1"/>
		<g class="st3">
			<path class="st4" d="M94.9,96.1v0.3L94.6,97c0.1-0.1,0.1-0.1-0.1,0c-0.2,0.1-0.3,0-0.4-0.1c0,0-0.1-0.1,0-0.1
				c0,0.1-0.1,0.3-0.2,0.4c-0.5,0.3-1-0.6-1.1-1l-0.6,1.4h-0.1l-0.6-0.2l0.2,0.1c1.4,0.8,2.7-1.4,1.3-2.2c-0.6-0.4-1.4-0.4-2,0
				c-0.5,0.3-0.7,0.9-0.6,1.4c0.3,1.4,1.4,2.5,2.8,2.8c1.4,0.3,2.7-0.4,3.3-1.7c0.6-1.2,0.1-2.6-1.1-3.2c-0.1,0-0.1-0.1-0.2-0.1
				c-1.3-0.4-3,0.6-2.5,2.1c0.2,0.7,0.9,1,1.6,0.8C94.7,97.4,95.1,96.7,94.9,96.1L94.9,96.1z"/>
		</g>
		<g class="st3">
			<path class="st4" d="M108.3,98.4c0-0.3,0-0.5,0-0.8c0.1,0.1-0.2,0.2-0.3,0.2c-0.4,0-0.6-0.2-0.6-0.7l-0.1,0.5l-0.2,1l0.9-0.9
				c-0.6,0.2-1.3-0.2-1.4-0.8c0-0.1,0-0.1,0-0.2c0-0.7-0.6-1.3-1.3-1.3s-1.3,0.6-1.3,1.3c0.1,2.1,1.8,3.7,3.9,3.6
				c0.3,0,0.5,0,0.8-0.1c0.4-0.1,0.8-0.5,0.9-0.9c0.3-0.8,0.4-1.6,0.3-2.4c-0.1-0.8-0.8-1.3-1.6-1.4c-1.8-0.2-2.5,1.5-2.4,3
				c0,0.7,0.6,1.2,1.3,1.3C107.8,99.6,108.3,99,108.3,98.4L108.3,98.4z"/>
		</g>
		<g class="st3">
			<path class="st4" d="M92.5,109.6c3.3,1.6,7.2,2.8,10.5,0.4c1.3-1,0-3.1-1.3-2.2c-2.5,1.9-5.4,0.8-7.9-0.4
				C92.3,106.7,91.1,108.9,92.5,109.6z"/>
		</g>
		<circle class="st1" cx="59" cy="59.3" r="18.1"/>
		<g class="st3">
			<path class="st4" d="M49.4,63.1c0.4-1.2,1.1-2.2,2.1-3c0.6-0.4,0.8-1.1,0.5-1.7c-0.4-0.6-1.1-0.8-1.7-0.4
				c-1.5,1.1-2.6,2.7-3.2,4.5C46.5,64,48.9,64.6,49.4,63.1L49.4,63.1z"/>
		</g>
		<g class="st3">
			<path class="st4" d="M59.6,52.7l3.4-3.4c0.5-0.5,0.4-1.3-0.1-1.8c-0.5-0.4-1.2-0.4-1.7,0l-3.4,3.4c-0.5,0.5-0.4,1.3,0.1,1.8
				C58.4,53.1,59.1,53.1,59.6,52.7z"/>
		</g>
		<g class="st3">
			<path class="st4" d="M60.3,68.5l10.5-11.4c1.1-1.2-0.7-3-1.8-1.8L58.6,66.8C57.5,67.9,59.3,69.8,60.3,68.5L60.3,68.5z"/>
		</g>
		<circle class="st1" cx="129.5" cy="113.1" r="18.1"/>
		<g class="st3">
			<path class="st4" d="M139.7,117.7c-2.8-2-3.7-5.7-2.1-8.7c0.8-1.4-1.4-2.7-2.2-1.3c-2.3,4.2-1,9.5,3,12.1
				C139.8,120.8,141.1,118.6,139.7,117.7L139.7,117.7z"/>
		</g>
		<g class="st3">
			<path class="st4" d="M127.8,122.8l-1-5.5c-0.3-1.6-2.7-0.9-2.4,0.7l1,5.5C125.6,125.1,128,124.4,127.8,122.8L127.8,122.8z"/>
		</g>
		<g class="st3">
			<path class="st4" d="M125.8,108.4c-1.5-1.2-1.8-3.4-0.8-5c0.9-1.4-1.3-2.6-2.2-1.3c-1.6,2.6-1.1,6,1.2,8.1
				C125.3,111.3,127.1,109.5,125.8,108.4L125.8,108.4z"/>
		</g>
		<circle class="st1" cx="43.5" cy="31.7" r="18.1"/>
		<g class="st3">
			<path class="st4" d="M35.7,33.6l1.3,0.9c0.6,0.3,1.4,0.1,1.7-0.4c0.3-0.6,0.1-1.4-0.5-1.7l-1.3-1c-0.6-0.3-1.4-0.1-1.7,0.4
				C34.9,32.5,35.1,33.2,35.7,33.6L35.7,33.6z"/>
		</g>
		<g class="st3">
			<path class="st4" d="M42.6,23.9c0.2,1,1,1.8,2,2c0.7,0.2,1.3-0.2,1.5-0.9c0.2-0.7-0.2-1.3-0.9-1.5c-0.2,0-0.2,0-0.3-0.2
				c-0.2-0.7-0.9-1-1.6-0.8C42.9,22.6,42.5,23.2,42.6,23.9L42.6,23.9z"/>
		</g>
		<circle class="st1" cx="255.2" cy="10.5" r="18.7"/>
		<circle class="st2" cx="264.9" cy="9.4" r="2.6"/>
		<circle class="st2" cx="249.1" cy="17.2" r="2.6"/>
		<g class="st3">
			<path class="st4" d="M259.1-1.4c-4.8,0.4-13.9,3.2-14.2,9.2c-0.1,1.6,2.4,1.6,2.5,0c0.1-2.4,3.4-4,5.2-5c2-1,4.2-1.5,6.4-1.7
				C260.7,1,260.7-1.5,259.1-1.4L259.1-1.4z"/>
		</g>
		<circle class="st1" cx="259.1" cy="50.8" r="18.1"/>
		<g class="st3">
			<path class="st4" d="M265,55.4c-0.6-1.3-2-2-3.4-2c-0.7,0-1.3,0.6-1.3,1.3s0.6,1.3,1.3,1.3c0.5-0.1,1,0.2,1.2,0.7
				c0.4,0.6,1.1,0.8,1.7,0.5C265.1,56.7,265.3,55.9,265,55.4L265,55.4z"/>
		</g>
		<g class="st3">
			<path class="st4" d="M250.4,51.5L250.4,51.5l-0.6-1.1c0-0.4,0.3-0.7,0.7-0.7c0.2,0,0.2,0.1,0.4,0.2s-0.1-0.2,0-0.1
				c0-0.1,0-0.3,0-0.5l-0.6,1.1c-0.3,0.1-0.6,0-0.7-0.2c-0.1-0.2,0-0.5,0.2-0.6c-0.6,0.4-0.8,1.1-0.5,1.7c0.4,0.6,1.1,0.8,1.7,0.4
				c0.9-0.7,1-1.9,0.3-2.8c-0.6-0.7-1.5-1-2.3-0.6c-0.4,0.2-0.6,0.6-0.6,1.1c0,1.1,0.4,2.4,1.6,2.7c1,0.3,2-0.3,2.3-1.3
				c0-0.1,0.1-0.3,0.1-0.4c0-0.4-0.2-0.9-0.6-1.1c-0.6-0.3-1.2-0.4-1.9-0.3c-0.7,0.2-1,0.9-0.8,1.6
				C249.2,51.2,249.9,51.6,250.4,51.5L250.4,51.5z"/>
		</g>
		<g class="st3">
			<path class="st4" d="M266.9,46.1c-3-2.8-6.5-5.3-10.6-3.5c-1.5,0.6-0.2,2.8,1.3,2.2c2.9-1.3,5.7,1.3,7.6,3.1
				C266.3,49,268.2,47.2,266.9,46.1L266.9,46.1z"/>
		</g>
		<circle class="st1" cx="277.9" cy="32.7" r="18.1"/>
		<g class="st3">
			<path class="st4" d="M277.9,40.2l0.9-0.4l0.2,0.1c0.1,0.1,0.1,0.3,0.1,0.4s0,0.1,0,0s0.1,0,0,0c0.1-0.1,0.3-0.2,0.5-0.1
				c0,0,0.1,0,0.1,0.1c0.1,0.1,0.2,0.3,0.2,0.5c0,0.3,0,0.7-0.2,1l1.4-0.6l0.4,0.4c-0.2-0.7-0.9-1.1-1.5-0.9
				c-0.7,0.2-1.1,0.9-0.9,1.5c0.2,0.7,0.7,1.2,1.4,1.3c0.5,0.1,1.1-0.1,1.4-0.6c0.7-1.2,0.7-2.8,0-4c-0.7-1.1-2.1-1.6-3.3-1.2
				c-1.3,0.3-2.1,1.7-1.8,3c0,0,0,0,0,0c0.4,1.4,2.6,2.1,3.4,0.6S278.6,38.8,277.9,40.2L277.9,40.2z"/>
		</g>
		<g class="st3">
			<path class="st4" d="M270,29.1c-0.2,0.2-0.3,0.3-0.5,0.5l-0.1,0.1c0.3,0.2,0.4,0.2,0.4,0l0.2,0.6c-0.3,0.4-0.3,0.5-0.1,0.3
				l0.4-0.3l0.7-0.5h-1.3c0.6,0.3,0.8,1,0.5,1.6c0,0.1-0.1,0.1-0.1,0.2c-1.1,1.2,0.7,2.9,1.8,1.8c1.4-1.5,1.3-3.9-0.2-5.3
				c-0.2-0.2-0.4-0.3-0.6-0.5c-0.4-0.2-0.9-0.2-1.3,0c-0.7,0.4-1.4,0.9-1.9,1.5c-0.5,0.7-0.4,1.6,0.1,2.2c1.2,1.4,2.8,0.7,3.8-0.5
				c0.5-0.5,0.5-1.3,0-1.8C271.3,28.6,270.5,28.6,270,29.1L270,29.1z"/>
		</g>
		<g class="st3">
			<path class="st4" d="M289.1,32.4c-1.3-3.6-3.3-7.2-7.4-7.7c-1.6-0.2-1.6,2.3,0,2.5c2.9,0.4,4.2,3.5,5,5.9
				C287.2,34.5,289.6,33.9,289.1,32.4L289.1,32.4z"/>
		</g>
		<circle class="st1" cx="256.9" cy="87.2" r="18.1"/>
		<g class="st3">
			<path class="st4" d="M256.9,94.7l0.9-0.4l0.2,0.1c0,0.1,0.1,0.2,0.1,0.4c0,0.1,0,0.1,0,0s0.1,0,0,0c0.1-0.1,0.3-0.2,0.5-0.1
				c0,0,0.1,0,0.1,0.1c0.1,0.1,0.2,0.3,0.2,0.5c0,0.3,0,0.7-0.2,1l1.4-0.6l0.4,0.4c-0.2-0.7-0.9-1-1.6-0.8c-0.6,0.2-1,0.8-0.8,1.5
				c0.2,0.7,0.7,1.2,1.4,1.3c0.5,0.1,1.1-0.1,1.4-0.6c0.7-1.2,0.7-2.8,0-4c-0.7-1.1-2.1-1.6-3.3-1.2c-1.3,0.3-2.1,1.7-1.8,3
				c0.4,1.4,2.6,2.1,3.4,0.6S257.6,93.2,256.9,94.7L256.9,94.7z"/>
		</g>
		<g class="st3">
			<path class="st4" d="M249,83.6c-0.2,0.2-0.3,0.3-0.4,0.5l-0.1,0.1c0.3,0.2,0.4,0.2,0.4,0l0.2,0.6c-0.3,0.4-0.3,0.5-0.1,0.3
				l0.4-0.2l0.7-0.5h-1.3c0.6,0.3,0.8,1,0.5,1.6c0,0.1-0.1,0.1-0.1,0.2c-1.1,1.2,0.7,2.9,1.8,1.8c1.4-1.5,1.3-3.8-0.2-5.2
				c-0.2-0.2-0.4-0.3-0.6-0.5c-0.4-0.2-0.9-0.2-1.3,0c-0.7,0.4-1.4,0.9-1.9,1.5c-0.5,0.7-0.4,1.6,0.1,2.2c1.2,1.4,2.8,0.7,3.8-0.5
				c0.5-0.5,0.5-1.3,0-1.8C250.3,83.1,249.5,83.1,249,83.6L249,83.6z"/>
		</g>
		<g class="st3">
			<path class="st4" d="M268.1,86.8c-1.3-3.6-3.3-7.2-7.4-7.7c-1.6-0.2-1.6,2.3,0,2.5c2.9,0.4,4.2,3.5,5,5.9
				C266.2,89,268.6,88.4,268.1,86.8L268.1,86.8z"/>
		</g>
		<circle class="st1" cx="281.1" cy="62.8" r="18.1"/>
		<g class="st3">
			<path class="st4" d="M290.5,66.9c-1.2,0.6-2.6,0.8-3.9,0.6c-0.7-0.1-1.2,0.6-1.3,1.3c0,0.7,0.6,1.2,1.3,1.3
				c1.8,0.2,3.6-0.1,5.2-1C293.2,68.4,292,66.2,290.5,66.9L290.5,66.9z"/>
		</g>
		<g class="st3">
			<path class="st4" d="M276,67h-4.8c-0.7,0-1.3,0.6-1.3,1.3s0.6,1.3,1.3,1.3h4.8c0.7,0,1.3-0.6,1.3-1.3S276.7,67,276,67z"/>
		</g>
		<g class="st3">
			<path class="st4" d="M286.6,55.3L271.2,56c-1.6,0.1-1.6,2.6,0,2.5l15.5-0.6C288.2,57.7,288.2,55.2,286.6,55.3z"/>
		</g>
		<circle class="st1" cx="228.1" cy="9.4" r="18.1"/>
		<g class="st3">
			<path class="st4" d="M224.1-1c0.6,3.4-1.5,6.6-4.7,7.6c-0.7,0.2-1,0.9-0.8,1.6c0.2,0.6,0.8,1,1.5,0.8c4.6-1.4,7.4-6,6.5-10.7
				C226.2-3.3,223.8-2.6,224.1-1z"/>
		</g>
		<g class="st3">
			<path class="st4" d="M236.2,3.8L233,8.3c-0.9,1.3,1.2,2.6,2.2,1.3l3.2-4.6C239.3,3.7,237.1,2.4,236.2,3.8z"/>
		</g>
		<g class="st3">
			<path class="st4" d="M227.4,15.3c0.2,1.9-1.1,3.7-3,4.1c-1.6,0.3-0.9,2.8,0.7,2.4c3-0.7,5.1-3.5,4.9-6.5
				C229.8,13.7,227.3,13.7,227.4,15.3L227.4,15.3z"/>
		</g>
		<circle class="st1" cx="249.1" cy="29.2" r="18.1"/>
		<g class="st3">
			<path class="st4" d="M256,33.3l-0.3-1.6c-0.2-0.7-0.9-1-1.5-0.9c-0.7,0.2-1,0.9-0.9,1.5l0.3,1.6c0.2,0.7,0.9,1,1.5,0.9
				C255.8,34.6,256.2,33.9,256,33.3z"/>
		</g>
		<g class="st3">
			<path class="st4" d="M244.2,35.3c0.6-0.9,0.6-2,0-2.8c-0.3-0.6-1.1-0.8-1.7-0.4c-0.6,0.3-0.8,1.1-0.5,1.7l0,0
				c0,0.1,0.1,0.2,0.1,0.1s0-0.1,0,0.1c0-0.1,0-0.1-0.1,0.1c-0.3,0.6-0.1,1.4,0.5,1.7C243.1,36.1,243.9,35.9,244.2,35.3L244.2,35.3z
				"/>
		</g>
		<circle class="st1" cx="263.9" cy="116.7" r="18.7"/>
		<circle class="st2" cx="257.8" cy="124.3" r="2.6"/>
		<circle class="st2" cx="263.5" cy="107.7" r="2.6"/>
		<g class="st3">
			<path class="st4" d="M269.5,127.9c3.1-3.7,7.6-12,3.5-16.5c-1.1-1.2-2.9,0.6-1.8,1.8c1.6,1.7,0.5,5.1-0.2,7
				c-0.7,2.2-1.9,4.2-3.4,6C266.7,127.3,268.5,129.1,269.5,127.9L269.5,127.9z"/>
		</g>
		<circle class="st1" cx="222.6" cy="43.6" r="18.1"/>
		<g class="st3">
			<path class="st4" d="M215.3,44.5c1.4,0.4,2.8,0,3.8-1c0.5-0.5,0.5-1.3,0-1.8c-0.5-0.5-1.3-0.5-1.8,0c-0.3,0.4-0.9,0.6-1.4,0.4
				C214.4,41.6,213.7,44,215.3,44.5z"/>
		</g>
		<g class="st3">
			<path class="st4" d="M228.3,37C228.3,36.9,228.5,36.9,228.3,37l1.2,0.3c0.3,0.2,0.3,0.7,0.1,1c0,0-0.1,0.1-0.1,0.1
				c-0.1,0-0.4,0.1-0.4,0s0.4,0.3,0.4,0.3l-0.3-1.2c0.1-0.3,0.4-0.4,0.6-0.4c0.3,0.1,0.4,0.4,0.4,0.6c0.2-0.7-0.2-1.3-0.9-1.5
				c-0.7-0.2-1.4,0.2-1.5,0.9c-0.2,1,0.4,2.1,1.4,2.4c1,0.3,2.1-0.3,2.4-1.4c0.1-0.4,0-0.9-0.3-1.2c-0.8-0.8-2-1.4-3-0.8
				c-0.9,0.5-1.3,1.6-0.8,2.5c0.1,0.1,0.2,0.3,0.3,0.4c0.3,0.3,0.8,0.4,1.2,0.3c0.6-0.2,1.2-0.6,1.5-1.1c0.3-0.6,0.1-1.4-0.5-1.7
				c-0.6-0.3-1.4-0.1-1.7,0.4L228.3,37z"/>
		</g>
		<g class="st3">
			<path class="st4" d="M220.4,52.4c4-0.1,8.4-0.8,10-5c0.6-1.5-1.8-2.2-2.4-0.7c-1.2,3-4.9,3.1-7.6,3.2
				C218.8,50,218.8,52.5,220.4,52.4L220.4,52.4z"/>
		</g>
		<circle class="st1" cx="240.7" cy="68" r="18.1"/>
		<g class="st3">
			<path class="st4" d="M235.5,62.7V63l-0.3,0.5c0.1-0.1,0.1-0.1-0.1,0c-0.2,0.1-0.3,0-0.4-0.1c0,0-0.1-0.1,0-0.1
				c0,0.1-0.1,0.3-0.2,0.4c-0.5,0.3-1-0.6-1.1-1l-0.6,1.4l-0.1,0l-0.6-0.2l0.2,0.1c1.4,0.8,2.7-1.4,1.3-2.2c-0.6-0.4-1.4-0.4-2,0
				c-0.5,0.3-0.7,0.9-0.6,1.4c0.3,1.4,1.4,2.5,2.8,2.8c1.4,0.3,2.7-0.4,3.3-1.7c0.6-1.2,0.1-2.6-1.1-3.2c-0.1,0-0.1,0-0.2-0.1
				c-1.3-0.4-3,0.6-2.5,2.1c0.2,0.7,0.9,1.1,1.5,0.9C235.3,64,235.6,63.3,235.5,62.7L235.5,62.7z"/>
		</g>
		<g class="st3">
			<path class="st4" d="M248.8,64.9c0-0.3,0-0.5,0-0.8c0.1,0.1-0.2,0.2-0.3,0.2c-0.3,0-0.6-0.2-0.7-0.7l-0.1,0.5l-0.2,1l0.9-0.9
				c-0.6,0.2-1.3-0.2-1.4-0.8c0-0.1,0-0.1,0-0.2c0-0.7-0.6-1.3-1.3-1.3s-1.3,0.6-1.3,1.3c0.1,2,1.8,3.7,3.8,3.6c0.3,0,0.5,0,0.8-0.1
				c0.4-0.1,0.8-0.4,0.9-0.9c0.3-0.8,0.4-1.6,0.3-2.4c-0.1-0.8-0.8-1.4-1.6-1.4c-1.8-0.2-2.5,1.5-2.4,3c0,0.7,0.6,1.2,1.3,1.3
				C248.3,66.1,248.9,65.6,248.8,64.9L248.8,64.9z"/>
		</g>
		<g class="st3">
			<path class="st4" d="M233.1,76.1c3.3,1.6,7.2,2.8,10.5,0.4c1.3-1,0-3.1-1.3-2.2c-2.5,1.9-5.4,0.8-7.9-0.4
				C232.9,73.3,231.6,75.4,233.1,76.1z"/>
		</g>
		<circle class="st1" cx="204.5" cy="27.5" r="18.1"/>
		<g class="st3">
			<path class="st4" d="M194.9,31.3c0.4-1.2,1.1-2.2,2.1-3c0.6-0.4,0.8-1.1,0.5-1.7c-0.4-0.6-1.1-0.8-1.7-0.5
				c-1.5,1.1-2.6,2.7-3.2,4.5C192,32.2,194.4,32.8,194.9,31.3L194.9,31.3z"/>
		</g>
		<g class="st3">
			<path class="st4" d="M205.1,20.9l3.4-3.4c0.5-0.5,0.4-1.3-0.1-1.8c-0.5-0.4-1.2-0.4-1.7,0l-3.4,3.4c-0.5,0.5-0.5,1.3,0,1.8
				C203.8,21.4,204.6,21.4,205.1,20.9L205.1,20.9z"/>
		</g>
		<g class="st3">
			<path class="st4" d="M205.8,36.7l10.5-11.4c1.1-1.2-0.7-3-1.8-1.8l-10.5,11.4C203,36.1,204.7,37.9,205.8,36.7z"/>
		</g>
		<circle class="st1" cx="284.3" cy="92" r="18.1"/>
		<g class="st3">
			<path class="st4" d="M294.5,96.6c-2.8-2-3.7-5.7-2.1-8.7c0.8-1.4-1.4-2.7-2.2-1.3c-2.3,4.2-1,9.5,3,12.2
				C294.6,99.6,295.9,97.5,294.5,96.6L294.5,96.6z"/>
		</g>
		<g class="st3">
			<path class="st4" d="M282.6,101.7l-1-5.5c-0.3-1.6-2.7-0.9-2.4,0.7l1,5.5C280.4,103.9,282.9,103.3,282.6,101.7L282.6,101.7z"/>
		</g>
		<g class="st3">
			<path class="st4" d="M280.7,87.3c-1.5-1.2-1.8-3.4-0.8-5c0.9-1.4-1.3-2.6-2.2-1.3c-1.6,2.6-1.1,6,1.2,8.1
				C280.1,90.1,281.9,88.4,280.7,87.3L280.7,87.3z"/>
		</g>
		<circle class="st1" cx="195.7" cy="6.8" r="18.1"/>
		<g class="st3">
			<path class="st4" d="M187.9,8.8l1.3,0.9c0.6,0.3,1.4,0.1,1.7-0.5c0.3-0.6,0.1-1.4-0.5-1.7l-1.3-0.9c-0.6-0.3-1.4-0.1-1.7,0.5
				C187.1,7.7,187.3,8.4,187.9,8.8z"/>
		</g>
		<g class="st3">
			<path class="st4" d="M194.8-1c0.2,1,1,1.8,2,2c0.7,0.2,1.4-0.2,1.6-0.8c0.2-0.7-0.2-1.4-0.8-1.6c0,0-0.1,0-0.1,0
				c-0.2,0-0.2,0-0.3-0.2c-0.2-0.7-0.8-1.1-1.5-0.9C195.1-2.4,194.7-1.7,194.8-1C194.8-1,194.8-1,194.8-1L194.8-1z"/>
		</g>
		<circle class="st1" cx="174.2" cy="107.5" r="18.7"/>
		<circle class="st2" cx="164.5" cy="108.6" r="2.6"/>
		<circle class="st2" cx="180.3" cy="100.9" r="2.6"/>
		<g class="st3">
			<path class="st4" d="M170.2,119.4c4.8-0.4,13.9-3.2,14.2-9.2c0.1-1.6-2.4-1.6-2.5,0c-0.1,2.4-3.4,4-5.2,5c-2,1-4.2,1.5-6.4,1.7
				C168.7,117,168.6,119.5,170.2,119.4L170.2,119.4z"/>
		</g>
		
			<ellipse transform="matrix(0.1602 -0.9871 0.9871 0.1602 73.8083 147.8342)" class="st1" cx="123.8" cy="30.5" rx="18.6" ry="18.7"/>
		<circle class="st2" cx="114.1" cy="31.7" r="2.6"/>
		
			<ellipse transform="matrix(0.1602 -0.9871 0.9871 0.1602 85.5022 148.2988)" class="st2" cx="129.9" cy="23.9" rx="2.6" ry="2.6"/>
		<g class="st3">
			<path class="st4" d="M119.9,42.4c4.8-0.4,13.9-3.2,14.2-9.2c0.1-1.6-2.4-1.6-2.5,0c-0.1,2.4-3.4,4-5.2,5c-2,1-4.2,1.5-6.4,1.7
				C118.3,40.1,118.3,42.6,119.9,42.4L119.9,42.4z"/>
		</g>
		<circle class="st1" cx="170.2" cy="67.2" r="18.1"/>
		<g class="st3">
			<path class="st4" d="M164.4,62.6c0.6,1.3,2,2,3.4,2c0.7,0,1.3-0.6,1.3-1.3s-0.6-1.3-1.3-1.3c-0.5,0.1-1-0.2-1.2-0.7
				c-0.3-0.6-1.1-0.8-1.7-0.4C164.3,61.3,164.1,62.1,164.4,62.6L164.4,62.6L164.4,62.6z"/>
		</g>
		<g class="st3">
			<path class="st4" d="M178.9,66.5L178.9,66.5l0.6,1.1c0,0.4-0.3,0.7-0.7,0.7c-0.2,0-0.2-0.1-0.4-0.2s0.1,0.2,0,0.1
				c0,0.1,0,0.3,0,0.5l0.6-1.1c0.2-0.1,0.6-0.1,0.7,0.2c0.1,0.2,0.1,0.6-0.2,0.7l0,0c0.6-0.4,0.8-1.1,0.5-1.7
				c-0.3-0.6-1.1-0.8-1.7-0.5c0,0,0,0,0,0c-0.9,0.7-1,1.9-0.3,2.8c0.6,0.7,1.5,1,2.3,0.6c0.4-0.2,0.6-0.6,0.6-1.1
				c0-1.1-0.4-2.4-1.6-2.7c-1-0.3-2,0.3-2.3,1.3c0,0.1-0.1,0.3-0.1,0.4c0,0.4,0.2,0.9,0.6,1.1c0.6,0.3,1.2,0.4,1.9,0.3
				c0.7-0.2,1.1-0.9,0.9-1.5c0,0,0,0,0,0C180.2,66.8,179.5,66.4,178.9,66.5L178.9,66.5z"/>
		</g>
		<g class="st3">
			<path class="st4" d="M162.4,71.9c3,2.8,6.5,5.3,10.6,3.5c1.5-0.6,0.2-2.8-1.3-2.2c-2.9,1.3-5.7-1.3-7.6-3.1
				C163,69,161.3,70.8,162.4,71.9L162.4,71.9z"/>
		</g>
		<circle class="st1" cx="151.5" cy="85.3" r="18.1"/>
		<g class="st3">
			<path class="st4" d="M151.5,77.8l-0.9,0.4l-0.2-0.1c-0.1-0.1-0.1-0.3-0.1-0.4s0-0.1,0,0s-0.1,0,0,0c-0.1,0.1-0.3,0.2-0.5,0.1
				c0,0-0.1,0-0.1-0.1c-0.1-0.1-0.2-0.3-0.2-0.5c0-0.3,0-0.7,0.2-1l-1.4,0.6l-0.4-0.4c0.2,0.7,0.9,1.1,1.5,0.9
				c0.7-0.2,1.1-0.9,0.9-1.5l0,0c-0.2-0.7-0.7-1.2-1.4-1.3c-0.5-0.1-1.1,0.1-1.4,0.6c-0.7,1.2-0.7,2.8,0,4c0.7,1.1,2.1,1.6,3.3,1.2
				c1.3-0.3,2.1-1.6,1.8-3c-0.4-1.4-2.6-2.1-3.4-0.6S150.8,79.3,151.5,77.8L151.5,77.8z"/>
		</g>
		<g class="st3">
			<path class="st4" d="M159.4,88.8c0.2-0.2,0.3-0.3,0.5-0.5l0.1-0.1c-0.3-0.2-0.4-0.2-0.4,0l-0.2-0.6c0.3-0.4,0.3-0.5,0.1-0.3
				l-0.4,0.3l-0.7,0.5h1.3c-0.6-0.3-0.8-1.1-0.4-1.6c0-0.1,0.1-0.1,0.1-0.2c1.1-1.2-0.7-2.9-1.8-1.8c-1.4,1.5-1.3,3.9,0.2,5.3
				c0.2,0.2,0.4,0.3,0.6,0.5c0.4,0.2,0.9,0.2,1.3,0c0.7-0.4,1.4-0.9,1.9-1.5c0.5-0.7,0.4-1.6-0.1-2.2c-1.2-1.4-2.8-0.7-3.8,0.5
				c-0.5,0.5-0.5,1.3,0,1.8C158.2,89.4,158.9,89.4,159.4,88.8L159.4,88.8z"/>
		</g>
		<g class="st3">
			<path class="st4" d="M140.3,85.6c1.3,3.6,3.3,7.2,7.4,7.7c1.6,0.2,1.6-2.3,0-2.5c-2.9-0.4-4.2-3.5-5-5.9
				C142.2,83.5,139.8,84.1,140.3,85.6L140.3,85.6z"/>
		</g>
		<circle class="st1" cx="165.3" cy="9.6" r="18.1"/>
		<g class="st3">
			<path class="st4" d="M165.3,2.1l-0.9,0.4l-0.2-0.1c-0.1-0.1-0.1-0.3-0.1-0.4s0-0.1,0,0s-0.1,0,0,0c-0.1,0.1-0.3,0.1-0.5,0.1
				c0,0-0.1,0-0.1-0.1c-0.1-0.1-0.2-0.3-0.2-0.5c0-0.3,0-0.7,0.2-1l-1.4,0.6l-0.4-0.4c0.2,0.7,0.9,1.1,1.5,0.9
				c0.7-0.2,1.1-0.9,0.9-1.5c-0.2-0.7-0.7-1.2-1.4-1.3c-0.5-0.1-1.1,0.1-1.4,0.6c-0.8,1.2-0.8,2.8,0,4c0.7,1.1,2.1,1.6,3.3,1.2
				c1.3-0.3,2.1-1.7,1.8-3c-0.4-1.4-2.6-2.1-3.4-0.6S164.5,3.6,165.3,2.1L165.3,2.1z"/>
		</g>
		<g class="st3">
			<path class="st4" d="M173.2,13.1c0.2-0.2,0.3-0.3,0.5-0.5l0.1-0.1c-0.3-0.2-0.4-0.2-0.4,0l-0.2-0.6c0.3-0.4,0.3-0.5,0.1-0.3
				l-0.4,0.2l-0.7,0.5h1.3c-0.6-0.3-0.8-1-0.5-1.6c0-0.1,0.1-0.1,0.1-0.2c1.1-1.2-0.7-2.9-1.8-1.8c-1.4,1.5-1.3,3.8,0.2,5.2
				c0.2,0.2,0.4,0.3,0.6,0.5c0.4,0.2,0.9,0.2,1.3,0c0.7-0.4,1.4-0.9,1.9-1.5c0.5-0.7,0.4-1.6-0.1-2.2c-1.2-1.4-2.8-0.7-3.8,0.5
				c-0.5,0.5-0.5,1.3,0,1.8C171.9,13.7,172.7,13.7,173.2,13.1L173.2,13.1z"/>
		</g>
		<g class="st3">
			<path class="st4" d="M154.1,9.9c1.3,3.6,3.3,7.2,7.4,7.7c1.6,0.2,1.6-2.3,0-2.5c-2.9-0.4-4.2-3.5-5-5.9
				C156,7.8,153.6,8.4,154.1,9.9L154.1,9.9z"/>
		</g>
		<circle class="st1" cx="148.3" cy="55.2" r="18.1"/>
		<g class="st3">
			<path class="st4" d="M138.9,51.1c1.2-0.6,2.6-0.8,3.9-0.6c0.7,0.1,1.2-0.6,1.3-1.3c0-0.7-0.6-1.2-1.3-1.3c-1.8-0.2-3.6,0.2-5.2,1
				C136.2,49.8,137.4,51.9,138.9,51.1L138.9,51.1z"/>
		</g>
		<g class="st3">
			<path class="st4" d="M153.4,51h4.8c0.7,0,1.3-0.6,1.3-1.3s-0.6-1.3-1.3-1.3h-4.8c-0.7,0-1.3,0.6-1.3,1.3S152.7,51,153.4,51z"/>
		</g>
		<g class="st3">
			<path class="st4" d="M142.8,62.7l15.5-0.6c1.6-0.1,1.6-2.6,0-2.5l-15.5,0.6C141.2,60.3,141.1,62.8,142.8,62.7z"/>
		</g>
		<circle class="st1" cx="201.3" cy="108.6" r="18.1"/>
		<g class="st3">
			<path class="st4" d="M205.3,119.1c-0.6-3.4,1.5-6.6,4.7-7.6c0.7-0.2,1-0.9,0.8-1.6c-0.2-0.6-0.8-1-1.5-0.8
				c-4.6,1.4-7.4,6-6.5,10.7C203.2,121.3,205.6,120.6,205.3,119.1z"/>
		</g>
		<g class="st3">
			<path class="st4" d="M193.2,114.3l3.2-4.6c0.9-1.3-1.2-2.6-2.2-1.3L191,113C190.1,114.3,192.3,115.6,193.2,114.3z"/>
		</g>
		<g class="st3">
			<path class="st4" d="M202,102.7c-0.2-1.9,1.1-3.7,3-4.1c1.6-0.3,0.9-2.8-0.7-2.4c-3,0.7-5.1,3.5-4.9,6.5
				C199.6,104.3,202.1,104.3,202,102.7L202,102.7z"/>
		</g>
		<circle class="st1" cx="186" cy="85.3" r="18.1"/>
		<g class="st3">
			<path class="st4" d="M179.1,81.2l0.3,1.6c0.2,0.7,0.8,1.1,1.5,0.9c0.7-0.2,1.1-0.8,0.9-1.5c0,0,0-0.1,0-0.1l-0.3-1.6
				c-0.2-0.7-0.9-1-1.6-0.8C179.4,79.9,179,80.6,179.1,81.2z"/>
		</g>
		<g class="st3">
			<path class="st4" d="M191,79.2c-0.6,0.9-0.6,2,0,2.8c0.4,0.6,1.1,0.8,1.7,0.5c0.6-0.4,0.8-1.1,0.4-1.7c0-0.1-0.1-0.2-0.1-0.2
				s0,0.1,0-0.1c0,0.1,0,0.1,0.1-0.1c0.3-0.6,0.1-1.4-0.4-1.7C192.1,78.4,191.3,78.6,191,79.2L191,79.2z"/>
		</g>
		<circle class="st1" cx="240.7" cy="129" r="18.7"/>
		<circle class="st2" cx="246.8" cy="121.3" r="2.6"/>
		<circle class="st2" cx="241.1" cy="138" r="2.6"/>
		<g class="st3">
			<path class="st4" d="M235.1,117.8c-3.1,3.7-7.6,12.1-3.5,16.5c1.1,1.2,2.8-0.6,1.8-1.8c-1.6-1.7-0.5-5.1,0.2-7
				c0.7-2.2,1.9-4.2,3.4-6C237.9,118.3,236.1,116.6,235.1,117.8L235.1,117.8z"/>
		</g>
		
			<ellipse transform="matrix(0.1602 -0.9871 0.9871 0.1602 -6.812 251.4964)" class="st1" cx="144.4" cy="129.8" rx="18.6" ry="18.7"/>
		<circle class="st2" cx="150.4" cy="122.1" r="2.6"/>
		<circle class="st2" cx="144.8" cy="138.8" r="2.6"/>
		<g class="st3">
			<path class="st4" d="M138.8,118.6c-3.1,3.7-7.6,12.1-3.5,16.5c1.1,1.2,2.9-0.6,1.8-1.8c-1.6-1.7-0.5-5.1,0.2-7
				c0.7-2.2,1.9-4.2,3.4-5.9C141.5,119.1,139.8,117.4,138.8,118.6L138.8,118.6z"/>
		</g>
		<circle class="st1" cx="194.5" cy="55.8" r="18.1"/>
		<g class="st3">
			<path class="st4" d="M201.8,55c-1.4-0.4-2.8,0-3.8,1c-0.5,0.5-0.5,1.3,0,1.8c0.5,0.5,1.3,0.5,1.8,0c0.3-0.4,0.9-0.6,1.4-0.4
				C202.7,57.9,203.4,55.5,201.8,55z"/>
		</g>
		<g class="st3">
			<path class="st4" d="M188.8,62.5C188.8,62.5,188.6,62.6,188.8,62.5l-1.2-0.3c-0.3-0.3-0.3-0.7,0-1c0,0,0.1-0.1,0.1-0.1
				c0.1,0,0.2,0,0.4,0c0,0-0.4-0.3-0.4-0.3l0.3,1.2c-0.1,0.3-0.4,0.4-0.6,0.4c-0.3-0.1-0.4-0.4-0.4-0.6c-0.2,0.7,0.2,1.3,0.9,1.5
				c0.7,0.2,1.4-0.2,1.5-0.9c0.1-1.1-0.7-2.1-1.8-2.2c-0.9-0.1-1.7,0.4-2,1.2c-0.1,0.4,0,0.9,0.3,1.2c0.8,0.8,2,1.4,3,0.8
				c0.9-0.5,1.3-1.6,0.8-2.5c-0.1-0.1-0.2-0.3-0.3-0.4c-0.3-0.3-0.8-0.4-1.2-0.3c-0.6,0.2-1.2,0.6-1.5,1.1c-0.4,0.6-0.3,1.3,0.3,1.7
				c0.6,0.4,1.3,0.3,1.7-0.3C188.7,62.6,188.7,62.6,188.8,62.5L188.8,62.5z"/>
		</g>
		<g class="st3">
			<path class="st4" d="M196.7,47c-4,0.1-8.4,0.8-10,5c-0.6,1.5,1.8,2.2,2.4,0.7c1.1-3,4.9-3.1,7.6-3.2
				C198.3,49.4,198.3,46.9,196.7,47L196.7,47z"/>
		</g>
		<circle class="st1" cx="174.4" cy="37.7" r="18.1"/>
		<g class="st3">
			<path class="st4" d="M179.6,43.1v-0.3l0.3-0.5c-0.1,0.1-0.1,0.1,0.1-0.1c0.2,0,0.3,0,0.4,0.1c0,0,0.1,0.1,0,0.1
				c0-0.1,0.1-0.3,0.2-0.4c0.5-0.3,1,0.6,1.1,1l0.6-1.4h0.1l0.6,0.2l-0.2-0.1c-1.4-0.8-2.7,1.4-1.3,2.2c0.6,0.4,1.4,0.4,2,0
				c0.5-0.3,0.7-0.9,0.6-1.4c-0.3-1.4-1.4-2.5-2.8-2.8c-1.4-0.3-2.7,0.4-3.3,1.7c-0.6,1.2-0.1,2.6,1,3.2c0.1,0,0.1,0.1,0.2,0.1
				c1.3,0.4,3-0.6,2.5-2.1c-0.2-0.7-0.9-1-1.6-0.8C179.9,41.8,179.5,42.5,179.6,43.1L179.6,43.1z"/>
		</g>
		<g class="st3">
			<path class="st4" d="M166.3,40.8c0,0.3,0,0.5,0,0.8c-0.1-0.1,0.2-0.2,0.3-0.2c0.3,0,0.6,0.2,0.7,0.7l0.1-0.5l0.2-1l-0.9,0.9
				c0.6-0.2,1.3,0.2,1.4,0.8c0,0.1,0,0.1,0,0.2c0,0.7,0.6,1.3,1.3,1.3s1.3-0.6,1.3-1.3c-0.1-2.1-1.8-3.7-3.8-3.6
				c-0.3,0-0.5,0-0.8,0.1c-0.4,0.1-0.8,0.4-0.9,0.9c-0.3,0.8-0.4,1.6-0.3,2.4c0.1,0.8,0.8,1.3,1.6,1.4c1.8,0.2,2.5-1.5,2.4-3
				c0-0.7-0.6-1.2-1.3-1.3C166.8,39.5,166.3,40.1,166.3,40.8L166.3,40.8z"/>
		</g>
		<g class="st3">
			<path class="st4" d="M182.1,29.6c-3.3-1.6-7.2-2.8-10.5-0.4c-1.3,1,0,3.1,1.3,2.2c2.5-1.9,5.4-0.8,7.9,0.4
				C182.2,32.4,183.5,30.3,182.1,29.6z"/>
		</g>
		<circle class="st1" cx="215.6" cy="79.8" r="18.1"/>
		<g class="st3">
			<path class="st4" d="M225.2,76.1c-0.4,1.2-1.1,2.2-2.1,3c-0.6,0.4-0.8,1.1-0.4,1.7c0.4,0.6,1.1,0.8,1.7,0.5
				c1.5-1.1,2.6-2.7,3.2-4.5C228.1,75.3,225.7,74.6,225.2,76.1z"/>
		</g>
		<g class="st3">
			<path class="st4" d="M215,86.5l-3.4,3.4c-0.5,0.5-0.5,1.3,0,1.8c0.5,0.5,1.3,0.5,1.8,0l3.4-3.4c0.5-0.5,0.5-1.3,0-1.8
				C216.3,86,215.5,86,215,86.5L215,86.5z"/>
		</g>
		<g class="st3">
			<path class="st4" d="M214.2,70.6L203.8,82c-1.1,1.2,0.7,3,1.8,1.8L216,72.4C217.1,71.2,215.3,69.4,214.2,70.6L214.2,70.6z"/>
		</g>
		<circle class="st1" cx="145.1" cy="26" r="18.1"/>
		<g class="st3">
			<path class="st4" d="M134.9,21.5c2.8,2,3.7,5.7,2.1,8.7c-0.8,1.4,1.4,2.7,2.2,1.3c2.3-4.2,1-9.5-3-12.1
				C134.7,18.4,133.5,20.6,134.9,21.5L134.9,21.5z"/>
		</g>
		<g class="st3">
			<path class="st4" d="M146.8,16.3l1,5.5c0.3,1.6,2.7,0.9,2.4-0.7l-1-5.5C148.9,14.1,146.5,14.7,146.8,16.3L146.8,16.3z"/>
		</g>
		<g class="st3">
			<path class="st4" d="M148.7,30.7c1.5,1.2,1.8,3.4,0.8,5c-0.9,1.4,1.3,2.6,2.2,1.3c1.6-2.6,1.1-6-1.2-8.1
				C149.3,27.9,147.5,29.6,148.7,30.7L148.7,30.7z"/>
		</g>
		<circle class="st1" cx="231.1" cy="107.5" r="18.1"/>
		<g class="st3">
			<path class="st4" d="M238.9,105.5l-1.3-0.9c-0.6-0.3-1.4-0.1-1.7,0.4c-0.3,0.6-0.1,1.4,0.5,1.7l0,0l1.3,0.9
				c0.6,0.3,1.4,0.1,1.7-0.4c0,0,0,0,0,0C239.7,106.6,239.5,105.9,238.9,105.5z"/>
		</g>
		<g class="st3">
			<path class="st4" d="M231.9,115.3c-0.2-1-1-1.8-2-2c-0.7-0.2-1.3,0.2-1.5,0.9c-0.2,0.7,0.2,1.4,0.9,1.5c0.3,0,0.2,0,0.3,0.2
				c0.2,0.7,0.9,1,1.5,0.9C231.7,116.6,232.1,115.9,231.9,115.3L231.9,115.3z"/>
		</g>
		<circle class="st1" cx="273.6" cy="130.1" r="18.1"/>
		<g class="st3">
			<path class="st4" d="M281.4,128.1l-1.3-0.9c-0.6-0.3-1.4-0.1-1.7,0.5c-0.3,0.6-0.1,1.4,0.5,1.7l1.3,0.9c0.6,0.3,1.4,0.1,1.7-0.5
				C282.2,129.2,282,128.5,281.4,128.1z"/>
		</g>
		<g class="st3">
			<path class="st4" d="M274.4,137.9c-0.2-1-1-1.8-2-2c-0.7-0.2-1.3,0.2-1.5,0.9c-0.2,0.7,0.2,1.4,0.9,1.5c0,0,0,0,0,0
				c0.2,0,0.2,0,0.3,0.2c0.2,0.7,0.9,1.1,1.5,0.9C274.2,139.2,274.6,138.5,274.4,137.9L274.4,137.9L274.4,137.9z"/>
		</g>
		<circle class="st1" cx="201.5" cy="131.5" r="18.1"/>
		<g class="st3">
			<path class="st4" d="M209.3,129.5l-1.3-0.9c-0.6-0.3-1.4-0.1-1.7,0.5c-0.3,0.6-0.1,1.3,0.5,1.7l1.3,0.9c0.6,0.3,1.4,0.1,1.7-0.5
				C210.1,130.6,209.9,129.8,209.3,129.5z"/>
		</g>
		<g class="st3">
			<path class="st4" d="M202.3,139.3c-0.2-1-1-1.8-2-2c-0.7-0.2-1.3,0.2-1.5,0.9c-0.2,0.7,0.2,1.4,0.9,1.5c0.2,0,0.2,0,0.3,0.2
				c0.2,0.7,0.8,1.1,1.5,0.9C202.1,140.7,202.5,140,202.3,139.3C202.4,139.3,202.4,139.3,202.3,139.3L202.3,139.3z"/>
		</g>
		<circle class="st1" cx="172.4" cy="131.6" r="18.1"/>
		<g class="st3">
			<path class="st4" d="M180.3,129.7l-1.3-0.9c-0.6-0.3-1.4-0.1-1.7,0.4c-0.3,0.6-0.1,1.4,0.5,1.7l0,0l1.3,0.9
				c0.6,0.3,1.4,0.1,1.7-0.5C181,130.8,180.8,130,180.3,129.7z"/>
		</g>
		<g class="st3">
			<path class="st4" d="M173.3,139.4c-0.2-1-1-1.8-2-2c-0.7-0.2-1.3,0.2-1.5,0.9c-0.2,0.7,0.2,1.4,0.9,1.5c0,0,0,0,0,0
				c0.2,0,0.2,0,0.3,0.2c0.2,0.7,0.9,1,1.5,0.9C173.1,140.7,173.5,140.1,173.3,139.4L173.3,139.4z"/>
		</g>
		<circle class="st1" cx="157.4" cy="115.7" r="18.1"/>
		<g class="st3">
			<path class="st4" d="M165.2,113.8l-1.3-0.9c-0.6-0.3-1.4-0.1-1.7,0.5c-0.3,0.6-0.1,1.3,0.4,1.7l1.3,0.9c0.6,0.4,1.4,0.2,1.7-0.4
				C166,114.9,165.8,114.1,165.2,113.8L165.2,113.8z"/>
		</g>
		<g class="st3">
			<path class="st4" d="M158.3,123.5c-0.2-1-1-1.8-2-2c-0.7-0.2-1.3,0.2-1.5,0.9c-0.2,0.7,0.2,1.4,0.9,1.5c0.2,0,0.2,0,0.3,0.2
				c0.2,0.7,0.9,1.1,1.5,0.9C158,124.8,158.4,124.2,158.3,123.5L158.3,123.5z"/>
		</g>
		<circle class="st1" cx="60.3" cy="5.9" r="18.6"/>
		<circle class="st2" cx="50.7" cy="7" r="2.6"/>
		<circle class="st2" cx="66.5" cy="-0.8" r="2.6"/>
		<g class="st3">
			<path class="st4" d="M56.4,17.7c4.8-0.4,13.9-3.2,14.1-9.2c0.1-1.6-2.4-1.6-2.5,0c-0.1,2.4-3.4,4-5.2,5c-2,1-4.2,1.5-6.4,1.7
				C54.8,15.4,54.8,17.9,56.4,17.7z"/>
		</g>
		<circle class="st1" cx="87.5" cy="7" r="18.1"/>
		<g class="st3">
			<path class="st4" d="M91.4,17.4c-0.6-3.4,1.5-6.6,4.7-7.6c0.7-0.2,1-0.9,0.8-1.6c-0.2-0.6-0.8-1-1.5-0.8c-4.6,1.4-7.4,6-6.5,10.7
				C89.3,19.7,91.7,19,91.4,17.4z"/>
		</g>
		<g class="st3">
			<path class="st4" d="M79.4,12.6L82.6,8c0.9-1.3-1.2-2.6-2.2-1.3l-3.2,4.6C76.3,12.7,78.4,13.9,79.4,12.6L79.4,12.6z"/>
		</g>
		<g class="st3">
			<path class="st4" d="M88.2,1.1c-0.2-1.9,1.1-3.7,3-4.1c1.6-0.3,0.9-2.8-0.7-2.4c-3,0.7-5.1,3.5-4.9,6.5
				C85.8,2.7,88.3,2.7,88.2,1.1L88.2,1.1z"/>
		</g>
		<ellipse transform="matrix(0.1602 -0.9871 0.9871 0.1602 92.6926 120.69)" class="st1" cx="117.3" cy="5.9" rx="18.1" ry="18.1"/>
		<g class="st3">
			<path class="st4" d="M125.1,3.9L123.8,3c-0.6-0.3-1.4-0.1-1.7,0.5c-0.3,0.6-0.1,1.4,0.5,1.7l1.3,0.9c0.6,0.3,1.4,0.1,1.7-0.5
				C125.9,5,125.7,4.2,125.1,3.9z"/>
		</g>
		<g class="st3">
			<path class="st4" d="M118.1,13.7c-0.2-1-1-1.8-2-2c-0.7-0.2-1.3,0.2-1.5,0.9c-0.2,0.7,0.2,1.4,0.8,1.6c0,0,0,0,0,0
				c0.2,0,0.2,0,0.3,0.2c0.2,0.7,0.9,1,1.5,0.9C117.9,15,118.3,14.4,118.1,13.7L118.1,13.7z"/>
		</g>
		<circle class="st1" cx="304.8" cy="127.8" r="18.7"/>
		<circle class="st2" cx="295.1" cy="128.9" r="2.6"/>
		<circle class="st2" cx="310.9" cy="121.2" r="2.6"/>
		<g class="st3">
			<path class="st4" d="M300.9,139.7c4.8-0.4,13.9-3.2,14.2-9.2c0.1-1.6-2.4-1.6-2.5,0c-0.1,2.3-3.4,4-5.3,4.9c-2,1-4.2,1.5-6.4,1.7
				C299.3,137.3,299.3,139.8,300.9,139.7z"/>
		</g>
		<circle class="st1" cx="300.9" cy="87.5" r="18.1"/>
		<g class="st3">
			<path class="st4" d="M295.1,82.9c0.7,1.3,2,2,3.4,2c0.7,0,1.2-0.6,1.3-1.3c0-0.7-0.6-1.2-1.3-1.3c-0.5,0.1-1-0.2-1.2-0.7
				c-0.4-0.6-1.1-0.8-1.7-0.5C294.9,81.6,294.7,82.3,295.1,82.9L295.1,82.9z"/>
		</g>
		<g class="st3">
			<path class="st4" d="M309.6,86.8L309.6,86.8l0.6,1.1c0,0.4-0.3,0.7-0.7,0.7c-0.2,0-0.2-0.1-0.4-0.2s0,0.2,0,0.1
				c0,0.1,0,0.3,0,0.5l0.6-1.1c0.2-0.1,0.6-0.1,0.7,0.2c0.1,0.2,0.1,0.6-0.2,0.7c0.6-0.4,0.8-1.1,0.4-1.7c-0.4-0.6-1.1-0.8-1.7-0.5
				c-0.9,0.7-1,1.9-0.3,2.8c0.6,0.7,1.5,1,2.3,0.6c0.4-0.2,0.6-0.6,0.6-1.1c0-1.1-0.4-2.4-1.6-2.7c-1-0.3-2,0.3-2.3,1.3
				c0,0.1-0.1,0.3-0.1,0.4c0,0.4,0.2,0.9,0.6,1.1c0.6,0.3,1.2,0.4,1.9,0.3c0.7-0.2,1-0.9,0.9-1.5C310.8,87.1,310.1,86.7,309.6,86.8
				L309.6,86.8z"/>
		</g>
		<g class="st3">
			<path class="st4" d="M293.1,92.2c3,2.8,6.5,5.4,10.6,3.5c1.5-0.6,0.2-2.8-1.3-2.2c-2.9,1.3-5.7-1.3-7.6-3.1
				C293.7,89.3,291.9,91.1,293.1,92.2L293.1,92.2z"/>
		</g>
		<circle class="st1" cx="282.1" cy="105.6" r="18.1"/>
		<g class="st3">
			<path class="st4" d="M282.2,98.1l-0.9,0.4l-0.2-0.1c-0.1-0.1,0-0.3-0.1-0.4s0-0.1,0,0s-0.1,0,0,0c-0.1,0.1-0.3,0.2-0.5,0.1
				c0,0-0.1,0-0.1-0.1c-0.1-0.1-0.2-0.3-0.2-0.5c0-0.3,0-0.7,0.2-1l-1.4,0.6l-0.4-0.4c0.2,0.7,0.9,1,1.6,0.8c0.6-0.2,1-0.8,0.8-1.5
				c-0.2-0.7-0.7-1.2-1.4-1.3c-0.5-0.1-1.1,0.1-1.4,0.6c-0.7,1.2-0.8,2.8,0,4c0.7,1.1,2.1,1.6,3.3,1.2c1.3-0.3,2.1-1.6,1.8-2.9
				c-0.4-1.4-2.6-2.1-3.4-0.6S281.4,99.6,282.2,98.1L282.2,98.1z"/>
		</g>
		<g class="st3">
			<path class="st4" d="M290,109.1c0.2-0.2,0.3-0.3,0.4-0.5l0.1-0.1c-0.3-0.2-0.4-0.2-0.4,0l-0.2-0.6c0.3-0.4,0.3-0.5,0.1-0.3
				l-0.4,0.2l-0.7,0.5h1.3c-0.6-0.3-0.8-1-0.5-1.6c0-0.1,0.1-0.1,0.1-0.2c1.1-1.1-0.7-2.9-1.8-1.8c-1.4,1.5-1.3,3.8,0.2,5.2
				c0.2,0.2,0.4,0.3,0.6,0.5c0.4,0.2,0.9,0.2,1.3,0c0.7-0.4,1.4-0.9,1.9-1.5c0.5-0.7,0.4-1.6-0.1-2.2c-1.2-1.4-2.8-0.7-3.8,0.5
				c-0.5,0.5-0.5,1.3,0,1.8C288.7,109.7,289.5,109.7,290,109.1L290,109.1z"/>
		</g>
		<g class="st3">
			<path class="st4" d="M271,105.9c1.3,3.6,3.3,7.2,7.4,7.7c1.6,0.2,1.6-2.3,0-2.5c-2.9-0.4-4.2-3.5-5-5.9
				C272.8,103.8,270.4,104.4,271,105.9L271,105.9z"/>
		</g>
		<circle class="st1" cx="285" cy="6.6" r="18.1"/>
		<g class="st3">
			<path class="st4" d="M285-0.9l-0.9,0.4l-0.2-0.1c-0.1-0.1,0-0.3-0.1-0.4s0-0.1,0,0s-0.1,0,0,0c-0.1,0.1-0.3,0.2-0.5,0.1
				c0,0-0.1,0-0.1-0.1c-0.1-0.1-0.2-0.3-0.2-0.5c0-0.4,0.1-0.7,0.2-1l-1.4,0.6l-0.4-0.4c0.2,0.7,1,1,1.6,0.7
				c0.6-0.2,0.9-0.8,0.8-1.4c-0.2-0.7-0.7-1.2-1.4-1.3c-0.5-0.1-1.1,0.1-1.4,0.6c-0.7,1.2-0.7,2.8,0,4c0.7,1.1,2.1,1.6,3.3,1.2
				c1.3-0.3,2.1-1.6,1.8-2.9c-0.4-1.4-2.6-2.1-3.4-0.6S284.3,0.7,285-0.9L285-0.9z"/>
		</g>
		<g class="st3">
			<path class="st4" d="M292.9,10.1c0.2-0.2,0.3-0.3,0.4-0.5l0.1-0.1c-0.3-0.2-0.4-0.2-0.4,0l-0.2-0.6c0.3-0.4,0.3-0.5,0.1-0.3
				l-0.4,0.2l-0.7,0.5h1.3c-0.6-0.3-0.8-1-0.5-1.6c0-0.1,0.1-0.1,0.1-0.2c1.1-1.2-0.6-2.9-1.8-1.8c-1.4,1.5-1.3,3.8,0.2,5.2
				c0.2,0.2,0.4,0.3,0.6,0.5c0.4,0.2,0.9,0.2,1.3,0c0.7-0.4,1.4-0.9,1.9-1.5c0.5-0.7,0.4-1.6-0.1-2.2c-1.2-1.4-2.8-0.7-3.8,0.5
				c-0.5,0.5-0.5,1.3,0,1.8C291.6,10.6,292.4,10.6,292.9,10.1L292.9,10.1z"/>
		</g>
		<g class="st3">
			<path class="st4" d="M273.8,6.9c1.3,3.6,3.3,7.2,7.4,7.7c1.6,0.2,1.6-2.3,0-2.5c-2.9-0.4-4.2-3.5-5-5.9
				C275.7,4.8,273.3,5.4,273.8,6.9L273.8,6.9z"/>
		</g>
		<circle class="st1" cx="303.1" cy="51.1" r="18.1"/>
		<g class="st3">
			<path class="st4" d="M303.1,43.7l-0.9,0.4l-0.2-0.1c-0.1-0.1-0.1-0.2-0.1-0.4c0-0.1,0-0.1,0,0s-0.1,0,0,0
				c-0.1,0.1-0.3,0.1-0.5,0.1c0,0-0.1,0-0.1-0.1c-0.1-0.1-0.2-0.3-0.2-0.5c0-0.3,0.1-0.7,0.2-1l-1.4,0.6l-0.4-0.4
				c0.2,0.7,0.9,1.1,1.5,0.9c0.7-0.2,1.1-0.9,0.9-1.5c-0.2-0.7-0.7-1.2-1.4-1.3c-0.5-0.1-1.1,0.1-1.4,0.6c-0.8,1.2-0.8,2.8-0.1,4
				c0.7,1.1,2.1,1.6,3.3,1.2c1.3-0.3,2.1-1.7,1.8-3c-0.4-1.4-2.6-2.1-3.4-0.6S302.4,45.2,303.1,43.7L303.1,43.7z"/>
		</g>
		<g class="st3">
			<path class="st4" d="M311,54.7c0.2-0.2,0.3-0.4,0.4-0.5l0.1-0.1c-0.3-0.2-0.4-0.2-0.4,0l-0.2-0.6c0.3-0.4,0.3-0.5,0.1-0.3
				l-0.4,0.2l-0.7,0.5h1.3c-0.6-0.3-0.8-1.1-0.4-1.6c0-0.1,0.1-0.1,0.1-0.2c1.1-1.2-0.7-2.9-1.8-1.8c-1.4,1.5-1.3,3.9,0.2,5.3
				c0.2,0.2,0.4,0.3,0.6,0.5c0.4,0.2,0.9,0.2,1.3,0c0.7-0.4,1.4-0.9,1.9-1.5c0.5-0.7,0.4-1.6-0.1-2.2c-1.2-1.4-2.8-0.7-3.8,0.5
				c-0.5,0.5-0.5,1.3,0,1.8C309.7,55.2,310.5,55.2,311,54.7L311,54.7z"/>
		</g>
		<g class="st3">
			<path class="st4" d="M291.9,51.5c1.3,3.6,3.3,7.2,7.4,7.7c1.6,0.2,1.6-2.3,0-2.5c-2.9-0.4-4.2-3.5-5-5.9
				C293.8,49.3,291.4,50,291.9,51.5L291.9,51.5z"/>
		</g>
		<circle class="st1" cx="278.9" cy="75.5" r="18.1"/>
		<g class="st3">
			<path class="st4" d="M269.5,71.4c1.2-0.6,2.6-0.8,3.9-0.6c0.7,0.1,1.2-0.6,1.3-1.3c0-0.7-0.6-1.2-1.3-1.3c-1.8-0.2-3.6,0.1-5.2,1
				C266.8,70,268.1,72.2,269.5,71.4L269.5,71.4z"/>
		</g>
		<g class="st3">
			<path class="st4" d="M284.1,71.3h4.8c0.7,0,1.3-0.6,1.3-1.3s-0.6-1.3-1.3-1.3h-4.8c-0.7,0-1.3,0.6-1.3,1.3S283.4,71.3,284.1,71.3
				z"/>
		</g>
		<g class="st3">
			<path class="st4" d="M273.4,83l15.5-0.6c1.6-0.1,1.6-2.6,0-2.5l-15.5,0.6C271.8,80.6,271.8,83.1,273.4,83z"/>
		</g>
		<circle class="st1" cx="331.9" cy="128.9" r="18.1"/>
		<g class="st3">
			<path class="st4" d="M335.9,139.4c-0.6-3.4,1.5-6.6,4.7-7.6c0.7-0.2,1.1-0.9,0.9-1.5c-0.2-0.7-0.9-1.1-1.5-0.9
				c-4.6,1.4-7.4,6-6.5,10.7C333.8,141.6,336.2,140.9,335.9,139.4z"/>
		</g>
		<g class="st3">
			<path class="st4" d="M323.8,134.6l3.2-4.6c0.9-1.3-1.3-2.6-2.2-1.3l-3.2,4.6C320.7,134.6,322.9,135.9,323.8,134.6L323.8,134.6z"
				/>
		</g>
		<g class="st3">
			<path class="st4" d="M332.7,123c-0.2-1.9,1.1-3.7,3-4.1c1.6-0.3,0.9-2.8-0.7-2.4c-3,0.7-5.1,3.4-4.9,6.5
				C330.3,124.6,332.8,124.6,332.7,123L332.7,123z"/>
		</g>
		<circle class="st1" cx="310.9" cy="109.1" r="18.1"/>
		<g class="st3">
			<path class="st4" d="M304,105l0.3,1.6c0.2,0.7,0.9,1.1,1.5,0.9c0,0,0,0,0,0c0.7-0.2,1-0.9,0.9-1.5l-0.3-1.6
				c-0.2-0.7-0.8-1.1-1.5-0.9C304.2,103.6,303.8,104.3,304,105C304,105,304,105,304,105L304,105z"/>
		</g>
		<g class="st3">
			<path class="st4" d="M315.8,103c-0.6,0.9-0.6,2,0,2.8c0.4,0.6,1.1,0.8,1.7,0.4c0.6-0.4,0.8-1.1,0.5-1.7c0-0.1-0.1-0.2-0.1-0.1
				s0,0.1,0-0.1c0,0.1,0,0.1,0.1-0.1c0.3-0.6,0.1-1.4-0.5-1.7C316.9,102.2,316.2,102.4,315.8,103L315.8,103z"/>
		</g>
		<circle class="st1" cx="296.1" cy="21.6" r="18.7"/>
		<circle class="st2" cx="302.2" cy="14" r="2.6"/>
		<circle class="st2" cx="296.5" cy="30.6" r="2.6"/>
		<g class="st3">
			<path class="st4" d="M290.5,10.4c-3.1,3.7-7.6,12-3.5,16.5c1.1,1.2,2.9-0.6,1.8-1.8c-1.6-1.7-0.5-5.1,0.2-7
				c0.7-2.2,1.9-4.2,3.4-5.9C293.3,11,291.5,9.2,290.5,10.4L290.5,10.4z"/>
		</g>
		<circle class="st1" cx="337.4" cy="94.7" r="18.1"/>
		<g class="st3">
			<path class="st4" d="M344.8,93.8c-1.4-0.4-2.8,0-3.8,1c-0.5,0.5-0.5,1.3,0,1.8c0.5,0.5,1.3,0.5,1.8,0c0.3-0.4,0.9-0.5,1.4-0.4
				C345.6,96.8,346.3,94.3,344.8,93.8z"/>
		</g>
		<g class="st3">
			<path class="st4" d="M331.8,101.3C331.7,101.4,331.5,101.5,331.8,101.3l-1.2-0.3c-0.3-0.2-0.3-0.7-0.1-1c0,0,0.1-0.1,0.1-0.1
				c0.1,0,0.3,0,0.4,0c0,0-0.4-0.3-0.4-0.3l0.3,1.2c-0.1,0.3-0.4,0.4-0.6,0.4c-0.3-0.1-0.4-0.4-0.4-0.6l0,0
				c-0.2,0.7,0.2,1.3,0.9,1.5c0.7,0.2,1.4-0.2,1.5-0.9c0.1-1.1-0.7-2.1-1.8-2.2c-0.9-0.1-1.7,0.4-2,1.2c-0.1,0.4,0,0.9,0.3,1.2
				c0.8,0.8,2,1.4,3,0.8c0.9-0.5,1.3-1.6,0.8-2.5c-0.1-0.1-0.2-0.3-0.3-0.4c-0.3-0.3-0.8-0.4-1.2-0.3c-0.6,0.2-1.2,0.6-1.5,1.1
				c-0.3,0.6-0.1,1.4,0.5,1.7C330.6,102.2,331.3,102,331.8,101.3L331.8,101.3z"/>
		</g>
		<g class="st3">
			<path class="st4" d="M339.6,85.9c-4,0.1-8.4,0.8-10,5c-0.6,1.5,1.8,2.2,2.4,0.7c1.1-3,4.9-3.1,7.6-3.2
				C341.2,88.3,341.2,85.8,339.6,85.9L339.6,85.9z"/>
		</g>
		<circle class="st1" cx="319.3" cy="70.3" r="18.1"/>
		<g class="st3">
			<path class="st4" d="M324.5,75.7v-0.3l0.3-0.6c-0.1,0.1-0.1,0.1,0.1,0c0.2,0,0.3,0,0.4,0.1c0,0,0.1,0.1,0,0.1
				c0-0.1,0.1-0.3,0.2-0.3c0.5-0.3,1,0.6,1.1,1l0.6-1.4h0.1l0.6,0.2l-0.2-0.1c-1.4-0.8-2.7,1.4-1.3,2.2c0.6,0.4,1.3,0.4,1.9,0
				c0.5-0.3,0.7-0.9,0.6-1.4c-0.3-1.4-1.4-2.5-2.8-2.8c-1.4-0.3-2.7,0.4-3.3,1.7c-0.6,1.2-0.1,2.6,1.1,3.2c0,0,0.1,0,0.1,0.1
				c1.3,0.4,3-0.6,2.5-2.1c-0.2-0.7-0.9-1.1-1.5-0.9C324.7,74.3,324.3,75,324.5,75.7L324.5,75.7z"/>
		</g>
		<g class="st3">
			<path class="st4" d="M311.2,73.4c0,0.3,0,0.5,0,0.8c-0.1-0.1,0.2-0.2,0.3-0.2c0.3,0,0.6,0.2,0.6,0.7l0.1-0.5l0.2-0.9l-0.9,0.9
				c0.6-0.2,1.3,0.2,1.4,0.8c0,0.1,0,0.1,0,0.2c0,0.7,0.6,1.3,1.3,1.3s1.3-0.6,1.3-1.3c-0.1-2.1-1.8-3.7-3.8-3.6
				c-0.3,0-0.5,0-0.8,0.1c-0.4,0.1-0.8,0.4-0.9,0.9c-0.3,0.8-0.4,1.6-0.3,2.4c0.1,0.8,0.8,1.3,1.6,1.4c1.8,0.2,2.5-1.5,2.3-3
				c0-0.7-0.5-1.2-1.2-1.3C311.7,72.1,311.2,72.7,311.2,73.4L311.2,73.4z"/>
		</g>
		<g class="st3">
			<path class="st4" d="M327,62.1c-3.3-1.6-7.2-2.8-10.5-0.4c-1.3,1,0,3.1,1.3,2.2c2.5-1.9,5.4-0.8,7.9,0.4
				C327.1,65,328.4,62.8,327,62.1z"/>
		</g>
		<circle class="st1" cx="355.5" cy="110.8" r="18.1"/>
		<g class="st3">
			<path class="st4" d="M365.2,107c-0.4,1.2-1.1,2.2-2.1,3c-0.6,0.4-0.8,1.1-0.5,1.7c0.4,0.6,1.1,0.8,1.7,0.5
				c1.5-1.1,2.6-2.7,3.2-4.5C368.1,106.2,365.6,105.5,365.2,107z"/>
		</g>
		<g class="st3">
			<path class="st4" d="M354.9,117.4l-3.4,3.4c-0.5,0.5-0.5,1.3,0,1.8c0.5,0.5,1.3,0.5,1.8,0l3.4-3.4c0.5-0.5,0.5-1.3,0-1.8
				C356.2,116.9,355.4,116.9,354.9,117.4z"/>
		</g>
		<g class="st3">
			<path class="st4" d="M354.2,101.6L343.7,113c-1.1,1.2,0.7,3,1.8,1.8l10.5-11.4C357,102.2,355.3,100.4,354.2,101.6z"/>
		</g>
		<circle class="st1" cx="275.7" cy="46.3" r="18.1"/>
		<g class="st3">
			<path class="st4" d="M265.5,41.8c2.8,2,3.7,5.7,2.1,8.7c-0.8,1.4,1.4,2.7,2.2,1.3c2.3-4.2,1-9.5-3-12.1
				C265.4,38.7,264.1,40.9,265.5,41.8L265.5,41.8z"/>
		</g>
		<g class="st3">
			<path class="st4" d="M277.4,36.6l1,5.5c0.3,1.6,2.7,0.9,2.4-0.7l-1-5.5C279.6,34.4,277.1,35,277.4,36.6L277.4,36.6z"/>
		</g>
		<g class="st3">
			<path class="st4" d="M279.4,51c1.5,1.2,1.8,3.4,0.8,5c-0.9,1.4,1.3,2.6,2.2,1.3c1.6-2.6,1.1-6-1.2-8.1
				C279.9,48.2,278.1,50,279.4,51z"/>
		</g>
		<circle class="st1" cx="364.3" cy="131.5" r="18.1"/>
		<g class="st3">
			<path class="st4" d="M372.1,129.5l-1.3-0.9c-0.6-0.3-1.4-0.1-1.7,0.4c-0.3,0.6-0.1,1.4,0.5,1.7l0,0l1.3,0.9
				c0.6,0.3,1.4,0.1,1.7-0.5C372.9,130.6,372.7,129.9,372.1,129.5L372.1,129.5z"/>
		</g>
		<g class="st3">
			<path class="st4" d="M365.2,139.3c-0.2-1-1-1.8-2-2c-0.7-0.2-1.3,0.2-1.5,0.9c-0.2,0.7,0.2,1.4,0.9,1.5c0.2,0,0.2,0,0.3,0.2
				c0.2,0.7,0.9,1,1.5,0.9C365,140.6,365.4,139.9,365.2,139.3L365.2,139.3z"/>
		</g>
		<circle class="st1" cx="385.9" cy="30.8" r="18.7"/>
		<circle class="st2" cx="395.5" cy="29.7" r="2.6"/>
		<circle class="st2" cx="379.7" cy="37.5" r="2.6"/>
		<g class="st3">
			<path class="st4" d="M389.8,18.9c-4.8,0.4-13.9,3.2-14.1,9.2c-0.1,1.6,2.4,1.6,2.5,0c0.1-2.3,3.4-4,5.2-5c2-1,4.2-1.5,6.4-1.7
				C391.4,21.2,391.4,18.7,389.8,18.9L389.8,18.9z"/>
		</g>
		<circle class="st1" cx="433.5" cy="5.8" r="18.7"/>
		<circle class="st2" cx="443.1" cy="4.7" r="2.6"/>
		<circle class="st2" cx="427.3" cy="12.5" r="2.6"/>
		<g class="st3">
			<path class="st4" d="M437.4-6c-4.8,0.4-13.9,3.2-14.2,9.2c-0.1,1.6,2.4,1.6,2.5,0c0.1-2.3,3.4-4,5.3-4.9c2-1,4.2-1.5,6.4-1.7
				C439-3.7,439-6.2,437.4-6z"/>
		</g>
		<circle class="st1" cx="389.8" cy="71.1" r="18.1"/>
		<g class="st3">
			<path class="st4" d="M395.6,75.7c-0.6-1.3-2-2-3.4-2c-0.7,0-1.3,0.6-1.3,1.3s0.6,1.3,1.3,1.3c0.5,0,1,0.2,1.2,0.7
				c0.4,0.6,1.1,0.8,1.7,0.4C395.7,77,395.9,76.3,395.6,75.7L395.6,75.7z"/>
		</g>
		<g class="st3">
			<path class="st4" d="M381.1,71.8L381.1,71.8l-0.6-1.1c0-0.3,0.3-0.7,0.7-0.7s0.2,0.1,0.4,0.2s0-0.2,0-0.1c0-0.1,0-0.3,0-0.4
				l-0.6,1.1c-0.2,0.2-0.6,0.1-0.7-0.1c-0.2-0.2-0.1-0.6,0.1-0.7c0,0,0.1,0,0.1,0c-0.6,0.4-0.8,1.1-0.5,1.7c0.4,0.6,1.1,0.8,1.7,0.5
				c0.9-0.7,1-1.9,0.3-2.8c-0.6-0.7-1.5-1-2.3-0.6c-0.4,0.2-0.6,0.6-0.6,1.1c0,1.1,0.4,2.4,1.6,2.7c1,0.3,2-0.3,2.3-1.2
				c0-0.1,0.1-0.3,0.1-0.5c0-0.4-0.2-0.9-0.6-1.1c-0.6-0.3-1.2-0.4-1.9-0.3c-0.7,0.2-1.1,0.8-0.9,1.5
				C379.8,71.5,380.5,71.9,381.1,71.8C381.2,71.8,381.2,71.8,381.1,71.8L381.1,71.8z"/>
		</g>
		<g class="st3">
			<path class="st4" d="M397.6,66.4c-3-2.8-6.5-5.4-10.6-3.5c-1.5,0.6-0.2,2.8,1.3,2.2c2.9-1.3,5.7,1.3,7.6,3.1
				C397,69.3,398.8,67.5,397.6,66.4z"/>
		</g>
		<circle class="st1" cx="408.6" cy="53" r="18.1"/>
		<g class="st3">
			<path class="st4" d="M408.5,60.5l0.9-0.4l0.2,0.1c0.1,0.1,0.1,0.2,0.1,0.4c0,0.1,0,0.1,0,0s0.1,0,0,0c0.1-0.1,0.3-0.2,0.5-0.1
				c0,0,0.1,0,0.1,0.1c0.1,0.1,0.2,0.3,0.2,0.5c0,0.4-0.1,0.7-0.2,1l1.4-0.6l0.4,0.4c-0.2-0.7-0.9-1-1.6-0.8c-0.6,0.2-1,0.8-0.8,1.5
				c0.2,0.7,0.7,1.2,1.4,1.3c0.5,0.1,1.1-0.1,1.4-0.6c0.7-1.2,0.7-2.8,0-4c-0.7-1.1-2.1-1.6-3.3-1.2c-1.3,0.3-2.1,1.7-1.8,3
				c0.5,1.4,2.6,2.1,3.4,0.6S409.2,59,408.5,60.5L408.5,60.5z"/>
		</g>
		<g class="st3">
			<path class="st4" d="M400.6,49.5c-0.2,0.2-0.3,0.3-0.4,0.5l-0.1,0.1c0.3,0.2,0.4,0.2,0.4,0l0.2,0.6c-0.3,0.4-0.3,0.5-0.1,0.3
				l0.4-0.2l0.7-0.5h-1.3c0.6,0.3,0.8,1.1,0.4,1.6c0,0.1-0.1,0.1-0.1,0.2c-1.1,1.2,0.6,2.9,1.8,1.8c1.4-1.5,1.3-3.8-0.2-5.2
				c-0.2-0.2-0.4-0.3-0.6-0.5c-0.4-0.2-0.9-0.2-1.3,0c-0.7,0.4-1.4,0.9-1.9,1.5c-0.5,0.7-0.4,1.6,0.1,2.2c1.2,1.4,2.8,0.7,3.8-0.5
				c0.5-0.5,0.5-1.3,0-1.8C401.9,48.9,401.1,48.9,400.6,49.5L400.6,49.5z"/>
		</g>
		<g class="st3">
			<path class="st4" d="M419.7,52.7c-1.3-3.6-3.3-7.2-7.4-7.7c-1.6-0.2-1.6,2.3,0,2.5c2.9,0.4,4.2,3.5,5,5.9
				C417.8,54.8,420.2,54.2,419.7,52.7L419.7,52.7z"/>
		</g>
		<circle class="st1" cx="394.8" cy="128.7" r="18.1"/>
		<g class="st3">
			<path class="st4" d="M394.7,136.2l0.9-0.4l0.2,0.1c0.1,0.1,0.1,0.3,0.1,0.3s0,0.1,0,0s0.1,0,0,0c0.1-0.1,0.3-0.2,0.5-0.1
				c0,0,0.1,0,0.1,0.1c0.1,0.1,0.2,0.3,0.2,0.5c0,0.3,0,0.7-0.2,1l1.4-0.6l0.4,0.4c-0.2-0.7-0.9-1-1.6-0.8c-0.6,0.2-1,0.8-0.8,1.5
				c0.2,0.7,0.7,1.2,1.4,1.3c0.5,0.1,1.1-0.1,1.4-0.6c0.7-1.2,0.7-2.8,0-4c-0.7-1.1-2.1-1.6-3.3-1.2c-1.3,0.3-2.1,1.6-1.8,3
				c0.4,1.4,2.6,2.1,3.4,0.6S395.5,134.7,394.7,136.2L394.7,136.2z"/>
		</g>
		<g class="st3">
			<path class="st4" d="M386.9,125.2c-0.2,0.1-0.3,0.3-0.5,0.5l-0.1,0.1c0.3,0.2,0.4,0.2,0.4,0l0.2,0.6c-0.3,0.4-0.3,0.5-0.1,0.3
				l0.4-0.2l0.7-0.5h-1.3c0.6,0.3,0.8,1,0.4,1.6c0,0.1-0.1,0.1-0.1,0.2c-1.1,1.2,0.7,2.9,1.8,1.8c1.4-1.5,1.3-3.8-0.2-5.2
				c-0.2-0.2-0.4-0.3-0.6-0.5c-0.4-0.2-0.9-0.2-1.3,0c-0.7,0.4-1.4,0.9-1.9,1.5c-0.5,0.7-0.4,1.6,0.1,2.2c1.2,1.4,2.8,0.7,3.8-0.5
				c0.5-0.5,0.5-1.3,0-1.8C388.1,124.7,387.3,124.7,386.9,125.2L386.9,125.2z"/>
		</g>
		<g class="st3">
			<path class="st4" d="M405.9,128.4c-1.3-3.6-3.3-7.2-7.4-7.7c-1.6-0.2-1.6,2.3,0,2.5c2.9,0.4,4.2,3.5,5,5.9
				C404,130.6,406.4,129.9,405.9,128.4L405.9,128.4z"/>
		</g>
		<circle class="st1" cx="411.7" cy="83.1" r="18.1"/>
		<g class="st3">
			<path class="st4" d="M421.2,87.2c-1.2,0.6-2.6,0.8-3.9,0.6c-0.7,0-1.3,0.6-1.3,1.3c0,0,0,0,0,0c0,0.7,0.6,1.2,1.3,1.3
				c1.8,0.2,3.6-0.1,5.2-1C423.9,88.7,422.6,86.5,421.2,87.2L421.2,87.2z"/>
		</g>
		<g class="st3">
			<path class="st4" d="M406.6,87.3h-4.8c-0.7,0-1.3,0.6-1.3,1.3s0.6,1.3,1.3,1.3h4.8c0.7,0,1.3-0.6,1.3-1.3S407.3,87.3,406.6,87.3z
				"/>
		</g>
		<g class="st3">
			<path class="st4" d="M417.3,75.6l-15.5,0.6c-1.6,0.1-1.6,2.6,0,2.5l15.5-0.6C418.9,78,418.9,75.5,417.3,75.6z"/>
		</g>
		<circle class="st1" cx="440.5" cy="111.2" r="18.1"/>
		<g class="st3">
			<path class="st4" d="M450,115.4c-1.2,0.6-2.6,0.8-3.9,0.6c-0.7-0.1-1.2,0.6-1.3,1.3c0,0.7,0.6,1.2,1.3,1.3c1.8,0.2,3.6-0.1,5.2-1
				C452.7,116.8,451.4,114.6,450,115.4L450,115.4z"/>
		</g>
		<g class="st3">
			<path class="st4" d="M435.4,115.5h-4.8c-0.7,0-1.3,0.6-1.3,1.3s0.6,1.3,1.3,1.3h4.8c0.7,0,1.3-0.6,1.3-1.3
				S436.1,115.5,435.4,115.5z"/>
		</g>
		<g class="st3">
			<path class="st4" d="M446.1,103.8l-15.5,0.6c-1.6,0.1-1.6,2.6,0,2.5l15.5-0.6C447.7,106.2,447.7,103.7,446.1,103.8z"/>
		</g>
		<circle class="st1" cx="358.7" cy="29.7" r="18.1"/>
		<g class="st3">
			<path class="st4" d="M354.8,19.3c0.6,3.4-1.5,6.6-4.7,7.6c-0.7,0.2-1.1,0.9-0.9,1.5c0.2,0.7,0.9,1.1,1.5,0.9
				c4.6-1.4,7.4-6,6.5-10.7C356.9,17,354.5,17.7,354.8,19.3z"/>
		</g>
		<g class="st3">
			<path class="st4" d="M366.8,24.1l-3.2,4.6c-0.9,1.3,1.2,2.6,2.2,1.3l3.2-4.6C369.9,24,367.8,22.7,366.8,24.1z"/>
		</g>
		<g class="st3">
			<path class="st4" d="M358,35.6c0.2,1.9-1.1,3.7-3,4.1c-1.6,0.3-0.9,2.8,0.7,2.4c3-0.7,5.1-3.5,4.9-6.5
				C360.4,34,357.9,34,358,35.6L358,35.6z"/>
		</g>
		<circle class="st1" cx="374" cy="53" r="18.1"/>
		<g class="st3">
			<path class="st4" d="M380.9,57.1l-0.3-1.6c-0.2-0.7-0.9-1.1-1.5-0.9c0,0,0,0,0,0c-0.7,0.2-1,0.9-0.9,1.5l0.3,1.6
				c0.2,0.7,0.9,1.1,1.5,0.9C380.7,58.5,381.1,57.8,380.9,57.1L380.9,57.1z"/>
		</g>
		<g class="st3">
			<path class="st4" d="M369.1,59.1c0.6-0.9,0.6-2,0-2.8c-0.3-0.6-1.1-0.8-1.7-0.4c-0.6,0.3-0.8,1.1-0.5,1.7l0,0
				c0,0.1,0.1,0.2,0.1,0.1s0-0.1,0,0.1c0-0.1,0-0.1-0.1,0.1c-0.3,0.6-0.1,1.4,0.5,1.7C368,59.9,368.7,59.7,369.1,59.1L369.1,59.1z"
				/>
		</g>
		<circle class="st1" cx="319.3" cy="9.4" r="18.7"/>
		<circle class="st2" cx="313.3" cy="17" r="2.6"/>
		<circle class="st2" cx="318.9" cy="0.3" r="2.6"/>
		<g class="st3">
			<path class="st4" d="M324.9,20.5c3.1-3.7,7.6-12.1,3.5-16.5c-1.1-1.2-2.9,0.6-1.8,1.8c1.6,1.7,0.5,5.1-0.2,7
				c-0.7,2.2-1.9,4.2-3.4,5.9C322.2,20,323.9,21.7,324.9,20.5L324.9,20.5z"/>
		</g>
		<circle class="st1" cx="365.5" cy="82.5" r="18.1"/>
		<g class="st3">
			<path class="st4" d="M358.2,83.4c1.4,0.4,2.8,0,3.8-1c0.5-0.5,0.5-1.3,0-1.8c-0.5-0.5-1.3-0.5-1.8,0c-0.3,0.4-0.9,0.6-1.4,0.4
				C357.3,80.4,356.7,82.9,358.2,83.4z"/>
		</g>
		<g class="st3">
			<path class="st4" d="M371.2,75.9C371.3,75.8,371.4,75.8,371.2,75.9l1.2,0.3c0.3,0.2,0.3,0.7,0.1,1c0,0-0.1,0.1-0.1,0.1
				c-0.1,0-0.4,0.1-0.4,0s0.4,0.3,0.4,0.3l-0.3-1.2c0.1-0.3,0.4-0.4,0.6-0.4c0.3,0.1,0.4,0.4,0.4,0.6c0.2-0.7-0.2-1.3-0.9-1.5
				c-0.7-0.2-1.3,0.2-1.5,0.9c-0.1,1.1,0.7,2.1,1.8,2.2c0.9,0.1,1.7-0.4,2-1.2c0.1-0.4,0-0.9-0.3-1.2c-0.8-0.8-2-1.4-3-0.8
				c-0.9,0.5-1.3,1.6-0.8,2.5c0.1,0.1,0.2,0.3,0.3,0.4c0.3,0.3,0.8,0.4,1.2,0.3c0.6-0.2,1.2-0.6,1.5-1.1c0.3-0.6,0.1-1.4-0.5-1.7
				C372.4,75,371.6,75.2,371.2,75.9L371.2,75.9z"/>
		</g>
		<g class="st3">
			<path class="st4" d="M363.4,91.3c4-0.1,8.4-0.8,10-5c0.6-1.5-1.8-2.2-2.4-0.7c-1.2,3-4.9,3.1-7.6,3.2
				C361.7,88.9,361.7,91.4,363.4,91.3L363.4,91.3z"/>
		</g>
		<circle class="st1" cx="385.6" cy="100.6" r="18.1"/>
		<g class="st3">
			<path class="st4" d="M380.4,95.2v0.3l-0.3,0.5c0.1-0.1,0.1-0.1-0.1,0c-0.2,0-0.3,0-0.4-0.1c0,0-0.1-0.1,0-0.1
				c0,0.1-0.1,0.3-0.2,0.4c-0.5,0.3-1-0.6-1.1-1l-0.6,1.4h-0.1l-0.6-0.2l0.2,0.1c1.4,0.8,2.7-1.4,1.3-2.2c-0.6-0.4-1.4-0.4-2,0
				c-0.5,0.3-0.7,0.9-0.6,1.4c0.3,1.4,1.4,2.5,2.8,2.8c1.4,0.3,2.7-0.4,3.3-1.7c0.6-1.2,0.1-2.6-1.1-3.2c-0.1,0-0.1,0-0.2-0.1
				c-1.3-0.4-3,0.6-2.5,2.1c0.2,0.7,0.9,1.1,1.5,0.9C380.2,96.6,380.6,95.9,380.4,95.2L380.4,95.2z"/>
		</g>
		<g class="st3">
			<path class="st4" d="M393.7,97.5c0-0.3,0-0.5,0-0.8c0.1,0.1-0.2,0.2-0.3,0.2c-0.3,0-0.6-0.2-0.7-0.7l-0.1,0.5l-0.2,1l0.9-0.9
				c-0.6,0.2-1.3-0.2-1.4-0.8c0-0.1,0-0.1,0-0.2c0-0.7-0.6-1.3-1.3-1.3s-1.3,0.6-1.3,1.3c0.1,2,1.8,3.7,3.8,3.6c0.3,0,0.5,0,0.8-0.1
				c0.4-0.1,0.8-0.4,0.9-0.9c0.3-0.8,0.4-1.6,0.3-2.4c-0.1-0.8-0.8-1.4-1.6-1.4c-1.8-0.2-2.5,1.5-2.4,3c0,0.7,0.6,1.2,1.3,1.3
				C393.2,98.7,393.8,98.1,393.7,97.5L393.7,97.5z"/>
		</g>
		<g class="st3">
			<path class="st4" d="M378,108.7c3.3,1.6,7.2,2.8,10.5,0.4c1.3-1,0-3.1-1.3-2.2c-2.5,1.9-5.4,0.8-7.9-0.4
				C377.8,105.9,376.5,108,378,108.7z"/>
		</g>
		<circle class="st1" cx="344.4" cy="58.5" r="18.1"/>
		<g class="st3">
			<path class="st4" d="M334.8,62.2c0.4-1.2,1.1-2.2,2.1-3c0.6-0.4,0.8-1.1,0.5-1.7c-0.4-0.6-1.1-0.8-1.7-0.5
				c-1.5,1.1-2.6,2.7-3.2,4.5C331.9,63.1,334.3,63.8,334.8,62.2L334.8,62.2z"/>
		</g>
		<g class="st3">
			<path class="st4" d="M345.1,51.9l3.4-3.4c0.5-0.5,0.5-1.3,0-1.8c-0.5-0.5-1.3-0.5-1.8,0l-3.4,3.4c-0.5,0.5-0.5,1.3,0,1.8
				C343.8,52.4,344.6,52.4,345.1,51.9L345.1,51.9z"/>
		</g>
		<g class="st3">
			<path class="st4" d="M345.8,67.7l10.5-11.4c1.1-1.2-0.7-3-1.8-1.8L344,65.9C342.9,67.1,344.7,68.9,345.8,67.7L345.8,67.7z"/>
		</g>
		<circle class="st1" cx="415" cy="112.3" r="18.1"/>
		<g class="st3">
			<path class="st4" d="M425.2,116.9c-2.8-2-3.7-5.7-2.1-8.7c0.8-1.4-1.4-2.7-2.2-1.3c-2.3,4.2-1,9.5,3,12.2
				C425.3,119.9,426.5,117.8,425.2,116.9L425.2,116.9z"/>
		</g>
		<g class="st3">
			<path class="st4" d="M413.2,122l-1-5.5c-0.3-1.6-2.7-0.9-2.4,0.7l1,5.5C411.1,124.2,413.5,123.6,413.2,122L413.2,122z"/>
		</g>
		<g class="st3">
			<path class="st4" d="M411.3,107.6c-1.5-1.2-1.8-3.4-0.8-5c0.9-1.4-1.3-2.6-2.2-1.3c-1.6,2.6-1.1,6,1.2,8.1
				C410.7,110.4,412.5,108.7,411.3,107.6L411.3,107.6z"/>
		</g>
		<circle class="st1" cx="328.9" cy="30.8" r="18.1"/>
		<g class="st3">
			<path class="st4" d="M321.1,32.8l1.3,0.9c0.6,0.3,1.4,0.1,1.7-0.5c0.3-0.6,0.1-1.4-0.5-1.7l-1.3-0.9c-0.6-0.3-1.4-0.1-1.7,0.5
				C320.4,31.7,320.6,32.4,321.1,32.8L321.1,32.8z"/>
		</g>
		<g class="st3">
			<path class="st4" d="M328.1,23c0.2,1,1,1.8,2,2c0.7,0.2,1.3-0.2,1.5-0.9c0.2-0.7-0.2-1.4-0.9-1.5c0,0,0,0,0,0
				c-0.2,0-0.2,0-0.3-0.2c-0.2-0.7-0.9-1.1-1.5-0.9C328.3,21.7,327.9,22.4,328.1,23L328.1,23z"/>
		</g>
		<circle class="st1" cx="540.7" cy="9.7" r="18.7"/>
		<circle class="st2" cx="550.3" cy="8.6" r="2.6"/>
		<circle class="st2" cx="534.6" cy="16.3" r="2.6"/>
		<g class="st3">
			<path class="st4" d="M544.6-2.2C539.8-1.8,530.7,1,530.4,7c-0.1,1.6,2.4,1.6,2.5,0c0.1-2.3,3.4-4,5.2-4.9c2-1,4.2-1.5,6.4-1.7
				C546.2,0.2,546.2-2.3,544.6-2.2L544.6-2.2z"/>
		</g>
		<circle class="st1" cx="544.6" cy="50" r="18.1"/>
		<g class="st3">
			<path class="st4" d="M550.4,54.6c-0.6-1.3-2-2-3.4-2c-0.7,0-1.2,0.6-1.3,1.3c0,0.7,0.5,1.3,1.2,1.3c0,0,0,0,0,0
				c0.5-0.1,1,0.2,1.2,0.7c0.3,0.6,1.1,0.8,1.7,0.4C550.5,56,550.8,55.2,550.4,54.6L550.4,54.6z"/>
		</g>
		<g class="st3">
			<path class="st4" d="M535.9,50.7L535.9,50.7l-0.6-1.1c0-0.4,0.3-0.7,0.7-0.7c0.2,0,0.2,0.1,0.4,0.2s-0.1-0.2,0-0.1
				c0-0.1,0-0.3,0-0.5l-0.6,1.1c-0.2,0.1-0.6,0.1-0.7-0.2c-0.1-0.2-0.1-0.6,0.2-0.7l0,0c-0.6,0.4-0.8,1.1-0.5,1.7
				c0.4,0.6,1.1,0.8,1.7,0.5c0.9-0.7,1-1.9,0.3-2.8c-0.6-0.7-1.5-1-2.3-0.6c-0.4,0.2-0.6,0.6-0.6,1.1c0,1.1,0.4,2.4,1.6,2.7
				c1,0.3,2-0.3,2.3-1.2c0-0.2,0.1-0.3,0.1-0.5c0-0.4-0.2-0.9-0.6-1.1c-0.6-0.3-1.2-0.4-1.9-0.3c-0.7,0.2-1,0.9-0.9,1.5
				C534.7,50.4,535.3,50.8,535.9,50.7L535.9,50.7z"/>
		</g>
		<g class="st3">
			<path class="st4" d="M552.4,45.3c-3-2.8-6.5-5.4-10.6-3.5c-1.5,0.6-0.2,2.8,1.3,2.1c2.9-1.3,5.7,1.3,7.6,3.1
				C551.8,48.1,553.6,46.4,552.4,45.3L552.4,45.3z"/>
		</g>
		<circle class="st1" cx="564.9" cy="47.8" r="18.1"/>
		<g class="st3">
			<path class="st4" d="M561.6,54.5c0.6-0.2,1-0.1,1,0.3c0,0.1,0,0.2,0,0.3c0,0,0,0.1-0.1,0.1c-0.1,0-0.1,0,0.1,0
				c-0.1,0-0.1,0,0.1,0h0.1c0.1,0,0.1,0,0.2,0.1c0.3,0.3-0.1,1.1-0.5,1.4h1.3l0.3,0.5v0.2c0.2-0.7-0.2-1.3-0.9-1.5
				c-0.7-0.2-1.4,0.2-1.5,0.9c-0.2,0.8,0.1,1.6,0.8,2c0.4,0.2,0.9,0.2,1.3,0c1.2-0.7,1.9-2.1,1.9-3.5c-0.1-1.3-1.1-2.4-2.4-2.6
				c-1.3-0.3-2.6,0.4-3,1.7c-0.3,1.5,1.3,3.2,2.7,2.2c0.6-0.4,0.8-1.1,0.5-1.7C563,54.2,562.2,54,561.6,54.5L561.6,54.5z"/>
		</g>
		<g class="st3">
			<path class="st4" d="M559.2,41.2c-0.1,0.1-0.2,0.1-0.3,0.1c-0.2,0-0.2,0-0.1,0.1l0.1,0.1c-0.5,0.7-0.6,1-0.3,0.9
				c0.4,0,0.8,0,1.2-0.2l-1.1-0.6c0.4,0.5,0.3,1.3-0.2,1.7c-0.1,0-0.1,0.1-0.2,0.1c-1.5,0.5-0.9,3,0.7,2.4c1.9-0.7,2.9-2.8,2.3-4.7
				c-0.1-0.3-0.2-0.5-0.4-0.7c-0.2-0.4-0.6-0.6-1.1-0.6c-1.4,0.2-3.6,0.2-3.3,2.3c0.1,0.7,0.5,1.3,1.2,1.6c0.9,0.3,1.9,0.2,2.8-0.3
				c0.6-0.4,0.8-1.1,0.4-1.7C560.5,41.1,559.8,40.9,559.2,41.2z"/>
		</g>
		<g class="st3">
			<path class="st4" d="M575.1,52.2c0.5-3.7,0.2-7.6-3.2-9.9c-1.3-0.9-2.6,1.3-1.3,2.2c2.5,1.7,2.3,5.1,1.9,7.8
				C572.4,53.8,574.9,53.8,575.1,52.2z"/>
		</g>
		<circle class="st1" cx="542.4" cy="86.3" r="18.1"/>
		<g class="st3">
			<path class="st4" d="M542.3,93.8l0.9-0.4l0.2,0.1c0.1,0.1,0,0.3,0.1,0.4s0,0.1,0,0s0.1,0,0,0c0.1-0.1,0.3-0.1,0.5-0.1
				c0,0,0.1,0,0.1,0.1c0.1,0.1,0.2,0.3,0.2,0.5c0,0.3,0,0.7-0.2,1l1.4-0.6l0.4,0.4c-0.2-0.7-0.9-1.1-1.5-0.9
				c-0.7,0.2-1.1,0.9-0.9,1.5l0,0c0.2,0.7,0.7,1.2,1.4,1.3c0.5,0.1,1.1-0.1,1.4-0.6c0.7-1.2,0.7-2.8,0-4c-0.7-1.1-2.1-1.6-3.3-1.2
				c-1.3,0.3-2.1,1.7-1.8,3c0.4,1.4,2.6,2.1,3.4,0.6S543.1,92.4,542.3,93.8L542.3,93.8z"/>
		</g>
		<g class="st3">
			<path class="st4" d="M534.5,82.8c-0.2,0.2-0.3,0.3-0.4,0.5l-0.1,0.1c0.3,0.2,0.4,0.2,0.4,0l0.2,0.6c-0.3,0.4-0.3,0.5-0.1,0.3
				l0.4-0.3l0.7-0.5h-1.3c0.6,0.3,0.8,1,0.5,1.6c0,0.1-0.1,0.1-0.1,0.2c-1.1,1.2,0.7,2.9,1.8,1.8c1.4-1.5,1.3-3.9-0.2-5.3
				c-0.2-0.2-0.4-0.3-0.6-0.5c-0.4-0.2-0.9-0.2-1.3,0c-0.7,0.4-1.4,0.9-1.9,1.5c-0.5,0.7-0.4,1.6,0.1,2.2c1.2,1.4,2.8,0.7,3.8-0.5
				c0.5-0.5,0.5-1.3,0-1.8C535.8,82.3,535,82.3,534.5,82.8L534.5,82.8z"/>
		</g>
		<g class="st3">
			<path class="st4" d="M553.5,86c-1.3-3.6-3.3-7.2-7.4-7.7c-1.6-0.2-1.6,2.3,0,2.5c2.9,0.4,4.2,3.5,5,5.9
				C551.7,88.2,554.1,87.5,553.5,86L553.5,86z"/>
		</g>
		<circle class="st1" cx="566.5" cy="80" r="18.1"/>
		<g class="st3">
			<path class="st4" d="M576,84.2c-1.2,0.6-2.6,0.8-3.9,0.6c-0.7,0-1.3,0.6-1.3,1.3s0.6,1.3,1.3,1.3c1.8,0.2,3.6-0.1,5.2-1
				C578.7,85.6,577.4,83.5,576,84.2L576,84.2z"/>
		</g>
		<g class="st3">
			<path class="st4" d="M561.4,84.3h-4.8c-0.7,0-1.3,0.6-1.3,1.3s0.6,1.3,1.3,1.3h4.8c0.7,0,1.3-0.6,1.3-1.3S562.1,84.3,561.4,84.3z
				"/>
		</g>
		<g class="st3">
			<path class="st4" d="M572.1,72.6l-15.5,0.6c-1.6,0.1-1.6,2.6,0,2.5l15.5-0.6C573.7,75,573.7,72.5,572.1,72.6z"/>
		</g>
		<circle class="st1" cx="513.6" cy="8.6" r="18.1"/>
		<g class="st3">
			<path class="st4" d="M509.6-1.9c0.6,3.4-1.5,6.6-4.7,7.6c-0.7,0.2-1,0.9-0.8,1.6c0.2,0.6,0.8,1,1.5,0.8c4.6-1.4,7.4-6,6.5-10.7
				C511.7-4.1,509.3-3.4,509.6-1.9L509.6-1.9z"/>
		</g>
		<g class="st3">
			<path class="st4" d="M521.7,2.9l-3.2,4.6c-0.9,1.3,1.2,2.6,2.2,1.3l3.2-4.6C524.7,2.8,522.5,1.6,521.7,2.9L521.7,2.9z"/>
		</g>
		<g class="st3">
			<path class="st4" d="M512.8,14.5c0.2,1.9-1.1,3.7-3,4.1c-1.6,0.3-0.9,2.8,0.7,2.4c3-0.7,5.1-3.4,4.9-6.5
				C515.2,12.9,512.7,12.9,512.8,14.5L512.8,14.5z"/>
		</g>
		<circle class="st1" cx="534.6" cy="28.3" r="18.1"/>
		<g class="st3">
			<path class="st4" d="M541.5,32.4l-0.3-1.6c-0.2-0.7-0.9-1.1-1.5-0.9c0,0,0,0,0,0c-0.7,0.2-1,0.9-0.9,1.5l0.3,1.6
				c0.2,0.7,0.9,1.1,1.5,0.9c0,0,0,0,0,0C541.3,33.8,541.6,33.1,541.5,32.4z"/>
		</g>
		<g class="st3">
			<path class="st4" d="M529.6,34.5c0.6-0.9,0.6-2,0-2.8c-0.4-0.6-1.1-0.8-1.7-0.5c-0.6,0.4-0.8,1.1-0.5,1.7c0,0.1,0.1,0.2,0.1,0.2
				s0-0.1,0,0.1c0-0.1,0-0.1-0.1,0.1c-0.3,0.6-0.1,1.4,0.5,1.7C528.6,35.2,529.3,35,529.6,34.5L529.6,34.5z"/>
		</g>
		<circle class="st1" cx="549.3" cy="115.9" r="18.7"/>
		<circle class="st2" cx="543.3" cy="123.5" r="2.6"/>
		<circle class="st2" cx="549" cy="106.9" r="2.6"/>
		<g class="st3">
			<path class="st4" d="M555,127c3.1-3.7,7.6-12,3.5-16.5c-1.1-1.2-2.9,0.6-1.8,1.8c1.6,1.7,0.5,5.1-0.2,7c-0.7,2.2-1.9,4.2-3.4,5.9
				C552.2,126.5,553.9,128.3,555,127L555,127z"/>
		</g>
		<circle class="st1" cx="508.1" cy="42.7" r="18.1"/>
		<g class="st3">
			<path class="st4" d="M500.7,43.6c1.4,0.4,2.8,0,3.8-1c0.5-0.5,0.5-1.3,0-1.8c-0.5-0.5-1.3-0.5-1.8,0c-0.3,0.4-0.9,0.5-1.4,0.4
				C499.8,40.7,499.2,43.1,500.7,43.6z"/>
		</g>
		<g class="st3">
			<path class="st4" d="M513.7,36.1C513.8,36.1,514,36,513.7,36.1l1.2,0.3c0.3,0.2,0.3,0.7,0.1,1c0,0-0.1,0.1-0.1,0.1
				c-0.1,0-0.3,0-0.4,0c0,0,0.4,0.3,0.4,0.3l-0.3-1.2c0.1-0.3,0.4-0.4,0.6-0.4c0.3,0.1,0.4,0.4,0.4,0.6l0,0c0.2-0.7-0.2-1.3-0.9-1.5
				c-0.7-0.2-1.3,0.2-1.5,0.9c-0.1,1.1,0.7,2.1,1.8,2.2c0.9,0.1,1.7-0.4,2-1.2c0.1-0.4,0-0.9-0.3-1.2c-0.8-0.8-2-1.4-3-0.8
				c-0.9,0.5-1.2,1.6-0.8,2.5c0.1,0.1,0.2,0.3,0.3,0.4c0.3,0.3,0.8,0.4,1.2,0.3c0.6-0.2,1.2-0.6,1.5-1.1c0.3-0.6,0.1-1.4-0.5-1.8
				S514.1,35.5,513.7,36.1L513.7,36.1z"/>
		</g>
		<g class="st3">
			<path class="st4" d="M505.9,51.6c4-0.1,8.4-0.8,10-5c0.6-1.5-1.8-2.1-2.4-0.7c-1.2,3-4.9,3.1-7.6,3.2
				C504.3,49.2,504.3,51.7,505.9,51.6L505.9,51.6z"/>
		</g>
		<circle class="st1" cx="526.2" cy="67.2" r="18.1"/>
		<g class="st3">
			<path class="st4" d="M520.9,61.8v0.3l-0.3,0.5c0.1-0.1,0.1-0.1-0.1,0.1c-0.2,0-0.3,0-0.4-0.1c0,0-0.1-0.1,0-0.1
				c0,0.1-0.1,0.3-0.2,0.4c-0.5,0.3-1-0.6-1.1-1l-0.6,1.4H518l-0.6-0.2l0.2,0.1c1.4,0.8,2.7-1.4,1.3-2.2c-0.6-0.4-1.4-0.4-2,0
				c-0.5,0.3-0.7,0.9-0.6,1.4c0.3,1.4,1.4,2.5,2.8,2.8c1.4,0.3,2.7-0.4,3.3-1.7c0.6-1.2,0.1-2.6-1.1-3.2c-0.1,0-0.1-0.1-0.2-0.1
				c-1.3-0.4-3,0.6-2.5,2.1c0.2,0.7,0.9,1,1.6,0.8C520.7,63.1,521.1,62.4,520.9,61.8L520.9,61.8z"/>
		</g>
		<g class="st3">
			<path class="st4" d="M534.3,64.1c0-0.3,0-0.5,0-0.8c0.1,0.1-0.2,0.2-0.3,0.2c-0.3,0-0.6-0.2-0.7-0.7l-0.1,0.5l-0.2,1l0.9-0.9
				c-0.6,0.2-1.3-0.2-1.4-0.8c0-0.1,0-0.1,0-0.2c0-0.7-0.6-1.3-1.3-1.3s-1.3,0.6-1.3,1.3c0.1,2,1.8,3.7,3.8,3.6c0.3,0,0.5,0,0.8-0.1
				c0.4-0.1,0.8-0.4,0.9-0.9c0.3-0.8,0.4-1.6,0.3-2.4c-0.1-0.8-0.8-1.3-1.6-1.4c-1.8-0.2-2.5,1.5-2.4,3c0,0.7,0.6,1.2,1.3,1.3
				C533.8,65.3,534.3,64.8,534.3,64.1L534.3,64.1z"/>
		</g>
		<g class="st3">
			<path class="st4" d="M518.5,75.3c3.3,1.6,7.2,2.8,10.5,0.4c1.3-1,0-3.1-1.3-2.2c-2.5,1.9-5.4,0.8-7.9-0.4
				C518.3,72.4,517.1,74.6,518.5,75.3z"/>
		</g>
		<circle class="st1" cx="489.9" cy="26.7" r="18.1"/>
		<g class="st3">
			<path class="st4" d="M480.3,30.4c0.4-1.2,1.1-2.2,2.1-3c0.6-0.4,0.8-1.1,0.5-1.7c-0.4-0.6-1.1-0.8-1.7-0.5
				c-1.5,1.1-2.6,2.7-3.2,4.5C477.4,31.3,479.8,32,480.3,30.4z"/>
		</g>
		<g class="st3">
			<path class="st4" d="M490.5,20.1l3.4-3.4c0.5-0.5,0.4-1.3-0.1-1.8c-0.5-0.4-1.2-0.4-1.7,0l-3.4,3.4c-0.5,0.5-0.5,1.3,0,1.8
				C489.3,20.5,490.1,20.5,490.5,20.1z"/>
		</g>
		<g class="st3">
			<path class="st4" d="M491.3,35.9l10.5-11.4c1.1-1.2-0.7-3-1.8-1.8l-10.5,11.4C488.4,35.3,490.2,37.1,491.3,35.9L491.3,35.9z"/>
		</g>
		<circle class="st1" cx="564.8" cy="109.3" r="18.1"/>
		<g class="st3">
			<path class="st4" d="M575,113.9c-2.8-2-3.7-5.7-2.1-8.7c0.8-1.4-1.4-2.7-2.2-1.3c-2.3,4.2-1,9.5,3,12.2
				C575.1,116.9,576.4,114.8,575,113.9L575,113.9z"/>
		</g>
		<g class="st3">
			<path class="st4" d="M563.1,119l-1-5.5c-0.3-1.6-2.7-0.9-2.4,0.7l1,5.5C561,121.3,563.4,120.6,563.1,119L563.1,119z"/>
		</g>
		<g class="st3">
			<path class="st4" d="M561.2,104.6c-1.5-1.2-1.8-3.4-0.8-5c0.9-1.4-1.3-2.6-2.2-1.3c-1.6,2.6-1.1,6,1.2,8.1
				C560.6,107.4,562.4,105.7,561.2,104.6L561.2,104.6z"/>
		</g>
		<circle class="st1" cx="481.1" cy="6" r="18.1"/>
		<g class="st3">
			<path class="st4" d="M473.3,7.9l1.3,0.9c0.6,0.3,1.4,0.1,1.7-0.4c0.3-0.6,0.1-1.4-0.5-1.7l-1.3-0.9c-0.6-0.3-1.4-0.1-1.7,0.4
				c0,0,0,0,0,0C472.6,6.8,472.8,7.6,473.3,7.9z"/>
		</g>
		<g class="st3">
			<path class="st4" d="M480.3-1.9c0.2,1,1,1.8,2,2c0.7,0.2,1.3-0.2,1.5-0.9c0.2-0.7-0.2-1.4-0.9-1.5c-0.2,0-0.2,0-0.3-0.2
				c-0.2-0.7-0.9-1.1-1.5-0.9C480.5-3.2,480.1-2.5,480.3-1.9L480.3-1.9z"/>
		</g>
		<circle class="st1" cx="459.6" cy="106.7" r="18.7"/>
		<circle class="st2" cx="450" cy="107.8" r="2.6"/>
		<circle class="st2" cx="465.7" cy="100" r="2.6"/>
		<g class="st3">
			<path class="st4" d="M455.7,118.5c4.8-0.4,13.9-3.2,14.2-9.2c0.1-1.6-2.4-1.6-2.5,0c-0.1,2.3-3.4,4-5.2,4.9c-2,1-4.2,1.6-6.4,1.7
				C454.1,116.2,454.1,118.7,455.7,118.5L455.7,118.5z"/>
		</g>
		<circle class="st1" cx="409.2" cy="29.7" r="18.7"/>
		<circle class="st2" cx="399.6" cy="30.8" r="2.6"/>
		<circle class="st2" cx="415.4" cy="23.1" r="2.6"/>
		<g class="st3">
			<path class="st4" d="M405.3,41.6c4.8-0.4,13.9-3.2,14.2-9.2c0.1-1.6-2.4-1.6-2.5,0c-0.1,2.3-3.4,4-5.2,4.9c-2,1-4.2,1.6-6.4,1.7
				C403.7,39.2,403.7,41.7,405.3,41.6L405.3,41.6z"/>
		</g>
		<circle class="st1" cx="455.7" cy="66.3" r="18.1"/>
		<g class="st3">
			<path class="st4" d="M449.9,61.8c0.6,1.3,2,2,3.4,2c0.7,0,1.2-0.6,1.3-1.3c0-0.7-0.6-1.2-1.3-1.3c-0.5,0.1-1-0.2-1.2-0.7
				c-0.3-0.6-1.1-0.8-1.7-0.4C449.7,60.4,449.5,61.2,449.9,61.8L449.9,61.8L449.9,61.8z"/>
		</g>
		<g class="st3">
			<path class="st4" d="M464.4,65.7L464.4,65.7l0.6,1.1c0,0.4-0.3,0.7-0.7,0.7c-0.2,0-0.2-0.1-0.4-0.2s0.1,0.2,0,0.1
				c0,0.1,0,0.3,0,0.5l0.6-1.1c0.2-0.1,0.6-0.1,0.7,0.2c0.1,0.2,0.1,0.6-0.2,0.7c0.6-0.4,0.8-1.1,0.5-1.7c-0.4-0.6-1.1-0.8-1.7-0.5
				c-0.9,0.7-1,1.9-0.3,2.8c0.6,0.7,1.5,1,2.3,0.6c0.4-0.2,0.6-0.6,0.6-1.1c0-1.1-0.4-2.4-1.6-2.7c-1-0.3-2,0.3-2.3,1.3
				c0,0.1-0.1,0.3-0.1,0.4c0,0.4,0.2,0.9,0.6,1.1c0.6,0.3,1.2,0.4,1.9,0.3c0.7-0.2,1.1-0.9,0.9-1.5c0,0,0,0,0,0
				C465.7,65.9,465,65.5,464.4,65.7L464.4,65.7z"/>
		</g>
		<g class="st3">
			<path class="st4" d="M447.9,71c3,2.8,6.5,5.4,10.6,3.5c1.5-0.6,0.2-2.8-1.3-2.2c-2.9,1.3-5.7-1.3-7.6-3.1
				C448.5,68.2,446.7,69.9,447.9,71L447.9,71z"/>
		</g>
		<circle class="st1" cx="436.9" cy="84.4" r="18.1"/>
		<g class="st3">
			<path class="st4" d="M437,77l-0.9,0.4l-0.2-0.1c-0.1-0.1-0.1-0.3-0.1-0.4s0-0.1,0,0s-0.1,0,0,0c-0.1,0.1-0.3,0.2-0.5,0.1
				c0,0-0.1,0-0.1-0.1c-0.1-0.1-0.2-0.3-0.2-0.5c0-0.3,0-0.7,0.2-1l-1.4,0.6l-0.4-0.4c0.2,0.7,0.9,1,1.6,0.8c0.6-0.2,1-0.8,0.8-1.5
				c-0.2-0.7-0.7-1.2-1.4-1.3c-0.5-0.1-1.1,0.1-1.4,0.6c-0.7,1.2-0.7,2.8,0,4c0.7,1.1,2.1,1.6,3.3,1.2c1.3-0.3,2.1-1.6,1.8-3
				c-0.4-1.4-2.6-2.1-3.4-0.6S436.2,78.4,437,77L437,77z"/>
		</g>
		<g class="st3">
			<path class="st4" d="M444.8,88c0.2-0.2,0.3-0.3,0.5-0.5l0.1-0.1c-0.3-0.2-0.4-0.2-0.4,0l-0.2-0.6c0.3-0.4,0.3-0.5,0.1-0.3
				l-0.4,0.2l-0.7,0.5h1.3c-0.6-0.3-0.8-1-0.4-1.6c0-0.1,0.1-0.1,0.1-0.2c1.1-1.2-0.7-2.9-1.8-1.8c-1.4,1.5-1.3,3.8,0.2,5.2
				c0.2,0.2,0.4,0.3,0.6,0.5c0.4,0.2,0.9,0.2,1.3,0c0.7-0.4,1.4-0.9,1.9-1.5c0.5-0.7,0.4-1.6-0.1-2.2c-1.2-1.4-2.8-0.7-3.8,0.5
				c-0.5,0.5-0.4,1.3,0.1,1.8C443.6,88.5,444.4,88.5,444.8,88L444.8,88z"/>
		</g>
		<g class="st3">
			<path class="st4" d="M425.8,84.8c1.3,3.6,3.3,7.2,7.4,7.7c1.6,0.2,1.6-2.3,0-2.5c-2.9-0.4-4.2-3.5-5-5.9
				C427.7,82.6,425.3,83.3,425.8,84.8L425.8,84.8z"/>
		</g>
		<circle class="st1" cx="450.7" cy="8.7" r="18.1"/>
		<g class="st3">
			<path class="st4" d="M450.8,1.3l-0.9,0.4l-0.2-0.1c-0.1-0.1-0.1-0.3-0.1-0.3s0-0.1,0,0s-0.1,0,0,0c-0.1,0.1-0.3,0.2-0.5,0.1
				c0,0-0.1,0-0.1-0.1c-0.1-0.1-0.2-0.3-0.2-0.5c0-0.3,0-0.7,0.2-1l-1.4,0.6l-0.4-0.4c0.2,0.7,0.9,1,1.6,0.8c0.6-0.2,1-0.8,0.8-1.5
				c-0.2-0.7-0.7-1.2-1.4-1.3c-0.5-0.1-1.1,0.1-1.4,0.6c-0.7,1.2-0.7,2.8,0,4c0.7,1.1,2.1,1.6,3.3,1.2c1.3-0.3,2.1-1.6,1.8-2.9
				c-0.4-1.4-2.6-2.1-3.4-0.6S450,2.7,450.8,1.3L450.8,1.3z"/>
		</g>
		<g class="st3">
			<path class="st4" d="M458.6,12.3c0.2-0.2,0.3-0.3,0.5-0.5l0.1-0.1c-0.3-0.2-0.4-0.2-0.4,0l-0.2-0.6c0.3-0.4,0.3-0.5,0.1-0.3
				l-0.4,0.2l-0.7,0.5h1.3c-0.6-0.3-0.8-1-0.5-1.6c0-0.1,0.1-0.1,0.1-0.2c1.1-1.1-0.7-2.9-1.8-1.8c-1.4,1.5-1.3,3.8,0.2,5.2
				c0.2,0.2,0.4,0.3,0.6,0.5c0.4,0.2,0.9,0.2,1.3,0c0.7-0.4,1.4-0.9,1.9-1.5c0.5-0.7,0.4-1.6-0.1-2.2c-1.2-1.4-2.8-0.7-3.8,0.5
				c-0.5,0.5-0.5,1.3,0,1.8C457.3,12.8,458.1,12.8,458.6,12.3L458.6,12.3z"/>
		</g>
		<g class="st3">
			<path class="st4" d="M439.6,9.1c1.3,3.6,3.3,7.2,7.4,7.7c1.6,0.2,1.6-2.3,0-2.5c-2.9-0.4-4.2-3.5-5-5.9
				C441.4,7,439,7.6,439.6,9.1L439.6,9.1z"/>
		</g>
		<circle class="st1" cx="433.8" cy="54.4" r="18.1"/>
		<g class="st3">
			<path class="st4" d="M424.3,50.2c1.2-0.6,2.6-0.8,3.9-0.6c0.7,0,1.3-0.6,1.3-1.3s-0.6-1.3-1.3-1.3c-1.8-0.2-3.6,0.1-5.2,1
				C421.6,48.8,422.9,51,424.3,50.2L424.3,50.2z"/>
		</g>
		<g class="st3">
			<path class="st4" d="M438.9,50.1h4.8c0.7,0,1.3-0.6,1.3-1.3s-0.6-1.3-1.3-1.3h-4.8c-0.7,0-1.3,0.6-1.3,1.3S438.2,50.1,438.9,50.1
				z"/>
		</g>
		<g class="st3">
			<path class="st4" d="M428.2,61.9l15.5-0.6c1.6-0.1,1.6-2.6,0-2.5l-15.5,0.6C426.6,59.4,426.6,61.9,428.2,61.9z"/>
		</g>
		<circle class="st1" cx="422.8" cy="135.9" r="18.1"/>
		<g class="st3">
			<path class="st4" d="M413.3,131.7c1.2-0.6,2.6-0.8,3.9-0.6c0.7,0,1.2-0.6,1.3-1.3c0-0.7-0.6-1.2-1.3-1.3c-1.8-0.2-3.6,0.1-5.2,1
				C410.7,130.3,411.9,132.5,413.3,131.7L413.3,131.7z"/>
		</g>
		<g class="st3">
			<path class="st4" d="M427.9,131.6h4.8c0.7,0,1.3-0.6,1.3-1.3s-0.6-1.3-1.3-1.3h-4.8c-0.7,0-1.3,0.6-1.3,1.3
				S427.2,131.6,427.9,131.6z"/>
		</g>
		<g class="st3">
			<path class="st4" d="M417.2,143.3l15.5-0.6c1.6-0.1,1.6-2.6,0-2.5l-15.5,0.6C415.6,140.9,415.6,143.4,417.2,143.3z"/>
		</g>
		<circle class="st1" cx="486.7" cy="107.8" r="18.1"/>
		<g class="st3">
			<path class="st4" d="M490.7,118.2c-0.6-3.4,1.5-6.6,4.7-7.6c0.7-0.2,1-1,0.7-1.6c-0.2-0.6-0.8-0.9-1.4-0.8
				c-4.6,1.4-7.4,6-6.5,10.7C488.6,120.5,491,119.8,490.7,118.2L490.7,118.2z"/>
		</g>
		<g class="st3">
			<path class="st4" d="M478.6,113.4l3.2-4.6c0.9-1.3-1.2-2.6-2.2-1.3l-3.3,4.6C475.5,113.5,477.7,114.7,478.6,113.4L478.6,113.4z"
				/>
		</g>
		<g class="st3">
			<path class="st4" d="M487.5,101.9c-0.2-1.9,1.1-3.7,3-4.1c1.6-0.3,0.9-2.8-0.7-2.4c-3,0.7-5.1,3.5-4.9,6.5
				C485.1,103.4,487.6,103.5,487.5,101.9L487.5,101.9z"/>
		</g>
		<circle class="st1" cx="471.5" cy="84.5" r="18.1"/>
		<g class="st3">
			<path class="st4" d="M464.6,80.4l0.3,1.6c0.2,0.7,0.9,1,1.5,0.9c0.7-0.2,1-0.9,0.9-1.5l-0.3-1.6c-0.2-0.7-0.8-1.1-1.5-0.9
				C464.8,79,464.4,79.6,464.6,80.4C464.6,80.3,464.6,80.4,464.6,80.4z"/>
		</g>
		<g class="st3">
			<path class="st4" d="M476.4,78.4c-0.6,0.9-0.6,2,0,2.8c0.4,0.6,1.1,0.8,1.7,0.5c0.6-0.4,0.8-1.1,0.4-1.7c0-0.1-0.1-0.2-0.1-0.1
				s0,0.1,0-0.1c0,0.1,0,0,0.1-0.1c0.4-0.6,0.3-1.3-0.3-1.7c-0.6-0.4-1.3-0.3-1.7,0.3C476.5,78.2,476.4,78.3,476.4,78.4L476.4,78.4z
				"/>
		</g>
		<circle class="st1" cx="484.4" cy="130.6" r="18.1"/>
		<g class="st3">
			<path class="st4" d="M477.4,126.5l0.3,1.6c0.2,0.7,0.9,1,1.5,0.9c0.7-0.2,1-0.9,0.9-1.5l-0.3-1.6c-0.2-0.7-0.9-1-1.5-0.9
				C477.6,125.2,477.3,125.8,477.4,126.5L477.4,126.5z"/>
		</g>
		<g class="st3">
			<path class="st4" d="M489.3,124.5c-0.6,0.9-0.6,2,0,2.8c0.4,0.6,1.1,0.8,1.7,0.5c0.6-0.4,0.8-1.1,0.5-1.7c0-0.1-0.1-0.2-0.1-0.1
				s0,0.1,0-0.1c0,0.1,0,0.1,0.1-0.1c0.3-0.6,0.1-1.4-0.5-1.7C490.4,123.7,489.6,123.9,489.3,124.5L489.3,124.5z"/>
		</g>
		<circle class="st1" cx="452.1" cy="130.1" r="18.1"/>
		<g class="st3">
			<path class="st4" d="M445.2,126l0.3,1.6c0.2,0.7,0.9,1,1.5,0.9c0.7-0.2,1-0.9,0.9-1.5l-0.3-1.6c-0.2-0.7-0.9-1-1.5-0.9
				C445.4,124.7,445,125.4,445.2,126L445.2,126z"/>
		</g>
		<g class="st3">
			<path class="st4" d="M457,124c-0.6,0.9-0.6,2,0,2.8c0.3,0.6,1.1,0.8,1.7,0.4c0.6-0.3,0.8-1.1,0.5-1.7c0-0.1-0.1-0.2-0.1-0.1
				s0,0.1,0-0.1c0,0.1,0,0.1,0.1-0.1c0.3-0.6,0.1-1.4-0.5-1.7C458.1,123.2,457.4,123.4,457,124L457,124z"/>
		</g>
		<circle class="st1" cx="516.8" cy="131.6" r="18.7"/>
		<circle class="st2" cx="522.8" cy="124" r="2.6"/>
		<circle class="st2" cx="517.2" cy="140.7" r="2.6"/>
		<g class="st3">
			<path class="st4" d="M511.2,120.5c-3.1,3.7-7.6,12-3.5,16.5c1.1,1.2,2.9-0.6,1.8-1.8c-1.6-1.7-0.5-5.1,0.2-7
				c0.7-2.2,1.9-4.2,3.4-5.9C513.9,121,512.2,119.3,511.2,120.5L511.2,120.5z"/>
		</g>
		<circle class="st1" cx="479.9" cy="55" r="18.1"/>
		<g class="st3">
			<path class="st4" d="M487.3,54.1c-1.4-0.4-2.8,0-3.8,1c-0.5,0.5-0.4,1.3,0.1,1.8c0.5,0.4,1.2,0.4,1.7,0c0.3-0.4,0.9-0.5,1.4-0.4
				C488.2,57,488.8,54.6,487.3,54.1z"/>
		</g>
		<g class="st3">
			<path class="st4" d="M474.3,61.6C474.2,61.7,474,61.7,474.3,61.6l-1.2-0.3c-0.3-0.3-0.3-0.7,0-1c0,0,0.1-0.1,0.1-0.1
				c0.1,0,0.4-0.1,0.4,0s-0.4-0.3-0.4-0.3l0.4,1.2c-0.1,0.3-0.4,0.4-0.6,0.4c-0.3-0.1-0.4-0.4-0.4-0.6c-0.2,0.7,0.2,1.3,0.9,1.5
				c0.7,0.2,1.4-0.2,1.5-0.9c0.1-1.1-0.7-2.1-1.8-2.2c-0.9-0.1-1.7,0.4-2,1.2c-0.1,0.4,0,0.9,0.3,1.2c0.8,0.8,2,1.4,3,0.8
				c0.9-0.5,1.3-1.6,0.8-2.5c-0.1-0.1-0.2-0.3-0.3-0.4c-0.3-0.3-0.8-0.4-1.2-0.3c-0.6,0.2-1.2,0.6-1.5,1.1c-0.4,0.6-0.3,1.3,0.3,1.7
				c0.6,0.4,1.3,0.3,1.7-0.3C474.2,61.8,474.2,61.7,474.3,61.6L474.3,61.6z"/>
		</g>
		<g class="st3">
			<path class="st4" d="M482.1,46.1c-4,0.1-8.4,0.8-10,5c-0.6,1.5,1.8,2.1,2.4,0.7c1.1-3,4.9-3.1,7.6-3.2
				C483.7,48.6,483.7,46.1,482.1,46.1L482.1,46.1z"/>
		</g>
		<circle class="st1" cx="459.9" cy="36.9" r="18.1"/>
		<g class="st3">
			<path class="st4" d="M465.1,42.2v-0.3l0.3-0.5c-0.1,0.1-0.1,0.1,0.1,0s0.3,0,0.4,0.1c0,0,0.1,0.1,0,0.1c0-0.1,0.1-0.3,0.2-0.4
				c0.5-0.3,1,0.6,1.1,1l0.6-1.4h0.1l0.6,0.2l-0.2-0.1c-1.4-0.8-2.7,1.4-1.3,2.2c0.6,0.4,1.4,0.3,2,0c0.5-0.3,0.7-0.9,0.6-1.4
				c-0.3-1.4-1.4-2.5-2.8-2.8c-1.4-0.3-2.7,0.4-3.3,1.7c-0.6,1.2-0.1,2.6,1.1,3.2c0,0,0.1,0,0.2,0.1c1.3,0.4,3-0.6,2.5-2.1
				c-0.2-0.7-0.9-1.1-1.5-0.9C465.3,40.9,464.9,41.6,465.1,42.2L465.1,42.2z"/>
		</g>
		<g class="st3">
			<path class="st4" d="M451.7,40c0,0.3,0,0.5,0,0.8c-0.1-0.1,0.2-0.2,0.3-0.2c0.3,0,0.6,0.2,0.7,0.7l0.1-0.5l0.2-1l-0.9,0.9
				c0.6-0.2,1.3,0.2,1.4,0.8c0,0.1,0,0.1,0,0.2c0,0.7,0.6,1.3,1.3,1.3s1.3-0.6,1.3-1.3c-0.1-2.1-1.8-3.7-3.9-3.6
				c-0.3,0-0.5,0-0.8,0.1c-0.4,0.1-0.8,0.5-0.9,0.9c-0.3,0.8-0.4,1.6-0.3,2.4c0.1,0.8,0.8,1.4,1.6,1.4c1.8,0.2,2.5-1.5,2.4-3
				c0-0.7-0.6-1.2-1.3-1.3C452.3,38.7,451.7,39.3,451.7,40L451.7,40z"/>
		</g>
		<g class="st3">
			<path class="st4" d="M467.5,28.7c-3.3-1.6-7.2-2.8-10.5-0.4c-1.3,1,0,3.1,1.3,2.2c2.5-1.9,5.4-0.8,7.9,0.4
				C467.7,31.6,469,29.4,467.5,28.7z"/>
		</g>
		<circle class="st1" cx="501" cy="79" r="18.1"/>
		<g class="st3">
			<path class="st4" d="M510.7,75.2c-0.4,1.2-1.1,2.2-2.1,3c-0.6,0.4-0.8,1.1-0.4,1.7c0.4,0.6,1.1,0.8,1.7,0.5
				c1.5-1.1,2.6-2.7,3.2-4.5C513.6,74.4,511.1,73.7,510.7,75.2L510.7,75.2z"/>
		</g>
		<g class="st3">
			<path class="st4" d="M500.4,85.6L497,89c-0.5,0.5-0.5,1.3,0,1.8c0.5,0.5,1.3,0.5,1.8,0l0,0l3.4-3.4c0.5-0.5,0.5-1.3,0-1.8
				C501.7,85.1,500.9,85.1,500.4,85.6z"/>
		</g>
		<g class="st3">
			<path class="st4" d="M499.7,69.8l-10.5,11.4c-1.1,1.2,0.7,3,1.8,1.8l10.4-11.4C502.5,70.4,500.7,68.6,499.7,69.8L499.7,69.8z"/>
		</g>
		<circle class="st1" cx="562.7" cy="22.4" r="18.1"/>
		<g class="st3">
			<path class="st4" d="M572.3,18.7c-0.4,1.2-1.1,2.2-2.1,3c-0.6,0.4-0.8,1.1-0.5,1.7c0.4,0.6,1.1,0.8,1.7,0.5
				c1.5-1.1,2.6-2.7,3.2-4.5C575.2,17.8,572.8,17.1,572.3,18.7z"/>
		</g>
		<g class="st3">
			<path class="st4" d="M562.1,29l-3.4,3.4c-0.5,0.5-0.5,1.3,0,1.8c0.5,0.5,1.3,0.5,1.8,0l0,0l3.4-3.4c0.5-0.5,0.5-1.3,0-1.8
				C563.4,28.6,562.6,28.6,562.1,29L562.1,29z"/>
		</g>
		<g class="st3">
			<path class="st4" d="M561.4,13.2l-10.5,11.4c-1.1,1.2,0.7,3,1.8,1.8L563.1,15C564.2,13.8,562.5,12,561.4,13.2z"/>
		</g>
		<circle class="st1" cx="430.5" cy="25.2" r="18.1"/>
		<g class="st3">
			<path class="st4" d="M420.3,20.6c2.8,2,3.7,5.7,2.1,8.7c-0.8,1.4,1.4,2.7,2.2,1.3c2.3-4.2,1-9.5-3-12.2
				C420.2,17.5,418.9,19.7,420.3,20.6L420.3,20.6z"/>
		</g>
		<g class="st3">
			<path class="st4" d="M432.3,15.5l1,5.5c0.3,1.6,2.7,0.9,2.4-0.7l-1-5.5C434.4,13.2,432,13.9,432.3,15.5L432.3,15.5z"/>
		</g>
		<g class="st3">
			<path class="st4" d="M434.2,29.9c1.5,1.2,1.8,3.4,0.8,5c-0.9,1.4,1.3,2.6,2.2,1.3c1.6-2.6,1.1-6-1.2-8.1
				C434.7,27,432.9,28.8,434.2,29.9L434.2,29.9z"/>
		</g>
		<circle class="st1" cx="516.5" cy="106.7" r="18.1"/>
		<g class="st3">
			<path class="st4" d="M524.3,104.7l-1.3-0.9c-0.6-0.3-1.4-0.1-1.7,0.5c-0.3,0.6-0.1,1.4,0.5,1.7l1.3,0.9c0.6,0.3,1.4,0.1,1.7-0.5
				C525.1,105.8,524.9,105,524.3,104.7z"/>
		</g>
		<g class="st3">
			<path class="st4" d="M517.4,114.5c-0.2-1-1-1.8-2-2c-0.7-0.2-1.3,0.2-1.5,0.9c-0.2,0.7,0.2,1.3,0.9,1.5c0.3,0,0.2,0,0.3,0.2
				c0.2,0.7,0.8,1.1,1.5,0.9C517.2,115.8,517.6,115.2,517.4,114.5C517.4,114.5,517.4,114.4,517.4,114.5L517.4,114.5z"/>
		</g>
		<circle class="st1" cx="540.7" cy="131.2" r="18.1"/>
		<g class="st3">
			<path class="st4" d="M548.5,129.3l-1.3-0.9c-0.6-0.3-1.4-0.1-1.7,0.4c0,0,0,0,0,0c-0.3,0.6-0.1,1.4,0.5,1.7l1.3,0.9
				c0.6,0.3,1.4,0.1,1.7-0.5C549.3,130.4,549.1,129.6,548.5,129.3z"/>
		</g>
		<g class="st3">
			<path class="st4" d="M541.5,139.1c-0.2-1-1-1.8-2-2c-0.7-0.2-1.3,0.2-1.5,0.9c-0.2,0.7,0.2,1.3,0.9,1.5c0.2,0,0.2,0,0.3,0.2
				c0.2,0.7,0.9,1,1.6,0.8C541.3,140.3,541.7,139.7,541.5,139.1L541.5,139.1z"/>
		</g>
		<circle class="st1" cx="345.8" cy="5" r="18.7"/>
		<circle class="st2" cx="336.1" cy="6.1" r="2.6"/>
		<circle class="st2" cx="351.9" cy="-1.6" r="2.6"/>
		<g class="st3">
			<path class="st4" d="M341.9,16.9c4.8-0.4,13.9-3.2,14.2-9.2c0.1-1.6-2.4-1.6-2.5,0c-0.1,2.3-3.4,4-5.2,4.9c-2,1-4.2,1.5-6.4,1.7
				C340.3,14.5,340.3,17,341.9,16.9L341.9,16.9z"/>
		</g>
		<circle class="st1" cx="568.8" cy="136.7" r="18.7"/>
		<circle class="st2" cx="559.2" cy="137.9" r="2.6"/>
		<circle class="st2" cx="575" cy="130.1" r="2.6"/>
		<g class="st3">
			<path class="st4" d="M564.9,148.6c4.8-0.4,13.9-3.2,14.2-9.2c0.1-1.6-2.4-1.6-2.5,0c-0.1,2.4-3.4,4-5.2,5c-2,1-4.2,1.6-6.4,1.8
				C563.3,146.3,563.3,148.8,564.9,148.6L564.9,148.6z"/>
		</g>
		<circle class="st1" cx="372.9" cy="6.1" r="18.1"/>
		<g class="st3">
			<path class="st4" d="M376.9,16.6c-0.6-3.4,1.5-6.6,4.7-7.6c0.7-0.2,1-0.9,0.8-1.6c-0.2-0.6-0.8-1-1.5-0.8
				c-4.6,1.4-7.4,6-6.5,10.7C374.8,18.8,377.2,18.2,376.9,16.6L376.9,16.6z"/>
		</g>
		<g class="st3">
			<path class="st4" d="M364.8,11.8l3.2-4.6c0.9-1.3-1.2-2.6-2.2-1.3l-3.2,4.6C361.7,11.9,363.9,13.1,364.8,11.8L364.8,11.8z"/>
		</g>
		<g class="st3">
			<path class="st4" d="M373.7,0.2c-0.2-1.9,1.1-3.7,3-4.1c1.6-0.3,0.9-2.8-0.7-2.4c-3,0.7-5.1,3.5-4.9,6.5
				C371.2,1.8,373.7,1.8,373.7,0.2L373.7,0.2z"/>
		</g>
		<circle class="st1" cx="402.7" cy="5" r="18.1"/>
		<g class="st3">
			<path class="st4" d="M410.5,3.1l-1.3-0.9c-0.6-0.3-1.4-0.1-1.7,0.4c0,0,0,0,0,0c-0.3,0.6-0.1,1.4,0.5,1.7l1.3,0.9
				c0.6,0.3,1.4,0.1,1.7-0.4C411.3,4.2,411.1,3.4,410.5,3.1z"/>
		</g>
		<g class="st3">
			<path class="st4" d="M403.6,12.8c-0.2-1-1-1.8-2-2c-0.7-0.2-1.4,0.2-1.6,0.8c-0.2,0.7,0.2,1.4,0.8,1.6c0,0,0.1,0,0.1,0
				c0.2,0,0.2,0,0.3,0.2c0.2,0.7,0.9,1,1.6,0.8C403.3,14.1,403.7,13.4,403.6,12.8L403.6,12.8z"/>
		</g>
	</g>
</g>
<polygon class="st5" points="556.2,138.4 0,138.4 0,0 0,0 556.1,0 556.1,66.1 556.1,138.4 "/>
</svg>
