<?xml version="1.0" encoding="utf-8"?>
<!-- Generator: Adobe Illustrator 22.1.0, SVG Export Plug-In . SVG Version: 6.00 Build 0)  -->
<svg version="1.1" id="Calque_1" xmlns="http://www.w3.org/2000/svg" xmlns:xlink="http://www.w3.org/1999/xlink" x="0px" y="0px"
	 viewBox="0 0 160.1 56.1" style="enable-background:new 0 0 160.1 56.1;" xml:space="preserve">
<style type="text/css">
	.st0{opacity:0.8;fill:#E5291E;enable-background:new    ;}
</style>
<path class="st0" d="M144.5,33.6L144.5,33.6c0.4,0.9,1.1,1.7,2,2.2c2.4,1.4,5.5,0.6,6.9-1.8c0.6-1.1,0.9-2.4,0.6-3.6
	c2.7,0.6,5.4-1.2,6-4c0.5-2.3-0.7-4.6-2.8-5.6c-0.6-0.3-1.2-0.5-1.8-0.6c-1.9-0.4-11.6,0.8-11.6,0.8s-0.4,7.2,0.2,10.8
	C144.1,32.6,144.3,33.1,144.5,33.6L144.5,33.6z"/>
<path class="st0" d="M137.7,37.8L137.7,37.8c-1-0.4-2-0.4-3-0.2c-2.1,0.5-3.6,2.3-3.8,4.5c-0.2,1.9,0.7,3.7,2.3,4.7
	c-2.3,1.6-3,4.7-1.4,7c1.3,1.9,3.7,2.7,5.9,2c0.6-0.2,1.1-0.5,1.7-0.8c1.6-1.1,7.6-8.8,7.6-8.8s-4.8-5.4-7.8-7.5
	C138.7,38.3,138.2,38,137.7,37.8L137.7,37.8z"/>
<path class="st0" d="M133.6,9.2L133.6,9.2c-0.4,1-0.4,2-0.2,3c0.7,2.7,3.4,4.4,6.2,3.7c1.2-0.3,2.3-1.1,3-2.1c1.5,2.3,4.7,3,7,1.4
	c1.3-0.8,2.1-2.2,2.2-3.7c0.1-0.8,0-1.5-0.3-2.2c-0.2-0.6-0.5-1.2-0.8-1.7c-1-1.6-8.8-7.6-8.8-7.6s-5.4,4.8-7.5,7.8
	C134.1,8.3,133.8,8.7,133.6,9.2L133.6,9.2z"/>
<path class="st0" d="M65,20.1L65,20.1c-0.4-0.9-1.1-1.7-2-2.2c-2.4-1.4-5.5-0.6-6.9,1.8c-0.6,1.1-0.9,2.4-0.6,3.6
	c-2.7-0.6-5.4,1.2-6,4c-0.5,2.3,0.7,4.6,2.8,5.6c0.6,0.3,1.2,0.5,1.8,0.6c1.9,0.4,11.6-0.8,11.6-0.8s0.4-7.2-0.2-10.8
	C65.3,21.2,65.2,20.7,65,20.1L65,20.1z"/>
<path class="st0" d="M40.8,20.3L40.8,20.3c1,0.4,2,0.4,3,0.2c2.7-0.7,4.4-3.4,3.7-6.2c-0.3-1.2-1.1-2.3-2.1-3
	c2.3-1.6,2.9-4.7,1.3-7.1c-1.3-1.9-3.7-2.7-5.8-1.9c-0.6,0.2-1.1,0.5-1.7,0.8c-1.6,1-7.6,8.8-7.6,8.8s4.8,5.4,7.8,7.5
	C39.8,19.8,40.2,20,40.8,20.3L40.8,20.3z"/>
<path class="st0" d="M132.9,24.1L132.9,24.1c0.4-1,0.4-2,0.2-3c-0.5-2.1-2.3-3.6-4.5-3.8c-1.9-0.2-3.7,0.7-4.7,2.3
	c-1.6-2.3-4.7-3-7-1.4c-1.9,1.3-2.7,3.7-2,5.9c0.2,0.6,0.5,1.1,0.8,1.7c1.1,1.6,8.8,7.6,8.8,7.6s5.4-4.8,7.5-7.8
	C132.4,25.1,132.7,24.7,132.9,24.1L132.9,24.1z"/>
<path class="st0" d="M87.6,10.1L87.6,10.1c1-2.6-0.3-5.5-2.9-6.6c-2.2-0.9-4.8,0-6.1,2c-1.5-2.3-4.7-3-7-1.4
	c-1.3,0.8-2.1,2.2-2.2,3.7c-0.1,0.8,0,1.5,0.3,2.2c0.2,0.6,0.5,1.2,0.8,1.7c1.1,1.6,8.8,7.6,8.8,7.6s5.4-4.8,7.5-7.8
	C87.1,11,87.3,10.6,87.6,10.1L87.6,10.1z"/>
<path class="st0" d="M121.3,42.6L121.3,42.6c-0.4-0.9-1.1-1.7-2-2.2c-2.4-1.4-5.5-0.7-7,1.8c-0.6,1.1-0.9,2.4-0.6,3.6
	c-1.9-0.4-3.8,0.3-5,1.8c-1.4,1.9-1.4,4.5,0.1,6.3c0.5,0.6,1.1,1.1,1.8,1.4c0.6,0.3,1.2,0.5,1.8,0.6c1.9,0.4,11.6-0.8,11.6-0.8
	s0.4-7.2-0.2-10.9C121.6,43.6,121.5,43.1,121.3,42.6L121.3,42.6z"/>
<path class="st0" d="M3,7.8L3,7.8C2,8.2,1.2,8.9,0.7,9.8c-1.4,2.4-0.7,5.5,1.8,7c1.1,0.6,2.4,0.9,3.6,0.6c-0.6,2.7,1.2,5.4,4,6
	c2.3,0.5,4.6-0.7,5.6-2.8c0.3-0.6,0.5-1.2,0.6-1.8c0.4-1.9-0.8-11.6-0.8-11.6S8.2,6.7,4.5,7.4C4,7.5,3.5,7.6,3,7.8L3,7.8z"/>
<path class="st0" d="M84.6,25.2L84.6,25.2c-2.5,1.2-3.6,4.2-2.5,6.7c1,2.1,3.3,3.3,5.6,2.8c-0.6,2.7,1.2,5.4,3.9,6
	c2.3,0.5,4.6-0.7,5.6-2.8c0.3-0.6,0.5-1.2,0.6-1.8c0.4-1.9-0.8-11.6-0.8-11.6s-7.2-0.5-10.9,0.2C85.6,24.9,85.1,25.1,84.6,25.2
	L84.6,25.2z"/>
<path class="st0" d="M7,38.5L7,38.5c-0.9,0.4-1.7,1.1-2.2,2c-1.4,2.4-0.7,5.5,1.7,6.9c1.1,0.7,2.4,0.9,3.6,0.6
	c-0.6,2.7,1.1,5.4,3.9,6c1.5,0.3,3.1-0.1,4.3-1c0.6-0.5,1.1-1.1,1.4-1.8c0.3-0.6,0.5-1.2,0.6-1.8c0.4-1.9-0.8-11.6-0.8-11.6
	s-7.2-0.5-10.8,0.2C8,38.2,7.5,38.4,7,38.5L7,38.5z"/>
<path class="st0" d="M51.8,46.6L51.8,46.6c1-2.6-0.3-5.5-2.9-6.6c-2.2-0.9-4.8,0-6.1,2c-1.5-2.3-4.7-3-7-1.4
	c-1.3,0.8-2.1,2.2-2.2,3.7c-0.1,0.8,0,1.5,0.3,2.2c0.2,0.6,0.5,1.1,0.8,1.7c1,1.6,8.8,7.6,8.8,7.6S48.9,51,51,48
	C51.3,47.5,51.6,47.1,51.8,46.6L51.8,46.6z"/>
<path class="st0" d="M65.6,47.1L65.6,47.1c-0.4,1-0.4,2-0.2,3c0.7,2.7,3.5,4.4,6.2,3.7c1.2-0.3,2.3-1.1,3-2.1c1,1.6,2.9,2.5,4.8,2.3
	c2.8-0.3,4.8-2.9,4.4-5.6c0-0.4-0.1-0.7-0.3-1.1c-0.2-0.6-0.5-1.1-0.8-1.7c-1.1-1.6-8.8-7.6-8.8-7.6s-5.4,4.8-7.5,7.8
	C66.1,46.2,65.9,46.6,65.6,47.1L65.6,47.1z"/>
<path class="st0" d="M16.6,26.5L16.6,26.5c-0.4,1-0.4,2-0.2,3c0.7,2.7,3.4,4.4,6.2,3.7c1.2-0.3,2.3-1.1,3-2.1c1.5,2.3,4.7,3,7,1.4
	c1.3-0.8,2.1-2.2,2.2-3.7c0.1-0.8,0-1.5-0.3-2.2c-0.2-0.6-0.5-1.2-0.8-1.7c-1-1.6-8.8-7.6-8.8-7.6s-5.4,4.8-7.5,7.8
	C17.1,25.6,16.9,26,16.6,26.5L16.6,26.5z"/>
<path class="st0" d="M95,10.5L95,10.5c-0.4,1-0.4,2-0.2,3c0.7,2.7,3.4,4.4,6.2,3.7c1.2-0.3,2.3-1.1,3-2.1c1.5,2.3,4.7,3,7,1.4
	c1.3-0.8,2.1-2.2,2.2-3.7c0.1-0.8,0-1.5-0.3-2.2c-0.2-0.6-0.5-1.1-0.8-1.7c-1-1.6-8.8-7.6-8.8-7.6S97.9,6,95.8,9.1
	C95.5,9.5,95.2,10,95,10.5L95,10.5z"/>
</svg>
