<?xml version="1.0" encoding="utf-8"?>
<!-- Generator: Adobe Illustrator 22.1.0, SVG Export Plug-In . SVG Version: 6.00 Build 0)  -->
<svg version="1.1" id="Calque_1" xmlns="http://www.w3.org/2000/svg" xmlns:xlink="http://www.w3.org/1999/xlink" x="0px" y="0px"
	 viewBox="0 0 233.3 31" style="enable-background:new 0 0 233.3 31;" xml:space="preserve">
<style type="text/css">
	.st0{fill:#FFFFFF;}
	.st1{fill:#BFBEBE;}
	.st2{fill:#E0E0E0;}
	.st3{fill:#F0F0F0;}
	.st4{fill:#272725;}
</style>
<g>
	<path class="st0" d="M0,3.5c1.6-0.3,3.9-0.5,6.1-0.5c3.4,0,5.6,0.6,7.1,2c1.2,1.1,1.9,2.8,1.9,4.7c0,3.3-2,5.4-4.6,6.3V16
		c1.9,0.7,3,2.4,3.6,5c0.8,3.4,1.4,5.8,1.9,6.8h-3.3c-0.4-0.7-1-2.8-1.6-5.9c-0.7-3.4-2-4.7-4.9-4.8h-3v10.7H0V3.5z M3.2,14.7h3.3
		c3.4,0,5.6-1.9,5.6-4.7c0-3.2-2.3-4.6-5.7-4.6c-1.5,0-2.6,0.1-3.1,0.3V14.7z"/>
	<path class="st0" d="M36.5,18.8c0,6.5-4.5,9.4-8.8,9.4c-4.8,0-8.5-3.5-8.5-9.1c0-5.9,3.9-9.4,8.8-9.4C33,9.7,36.5,13.4,36.5,18.8z
		 M22.4,19c0,3.9,2.2,6.8,5.4,6.8c3.1,0,5.4-2.9,5.4-6.9c0-3-1.5-6.8-5.3-6.8S22.4,15.6,22.4,19z"/>
	<path class="st0" d="M41.1,27.8c0.1-1.2,0.1-3,0.1-4.6V1.8h3.2v11.1h0.1c1.1-2,3.2-3.3,6-3.3c4.4,0,7.5,3.7,7.5,9
		c0,6.3-4,9.5-7.9,9.5c-2.6,0-4.6-1-5.9-3.3H44l-0.1,2.9H41.1z M44.4,20.7c0,0.4,0.1,0.8,0.1,1.2c0.6,2.2,2.5,3.8,4.8,3.8
		c3.4,0,5.4-2.7,5.4-6.8c0-3.5-1.8-6.6-5.3-6.6c-2.2,0-4.2,1.5-4.9,4c-0.1,0.4-0.2,0.8-0.2,1.3V20.7z"/>
	<path class="st0" d="M78.8,18.8c0,6.5-4.5,9.4-8.8,9.4c-4.8,0-8.5-3.5-8.5-9.1c0-5.9,3.9-9.4,8.8-9.4C75.4,9.7,78.8,13.4,78.8,18.8
		z M64.8,19c0,3.9,2.2,6.8,5.4,6.8c3.1,0,5.4-2.9,5.4-6.9c0-3-1.5-6.8-5.3-6.8C66.4,12.1,64.8,15.6,64.8,19z"/>
	<path class="st0" d="M87.5,5v5.1h4.6v2.5h-4.6v9.5c0,2.2,0.6,3.4,2.4,3.4c0.8,0,1.5-0.1,1.9-0.2l0.1,2.4c-0.6,0.3-1.6,0.4-2.9,0.4
		c-1.5,0-2.7-0.5-3.5-1.4c-0.9-1-1.2-2.5-1.2-4.6v-9.7h-2.7v-2.5h2.7V5.8L87.5,5z"/>
	<path class="st0" d="M159.7,5v5.1h4.6v2.5h-4.6v9.5c0,2.2,0.6,3.4,2.4,3.4c0.8,0,1.5-0.1,1.9-0.2l0.1,2.4c-0.6,0.3-1.6,0.4-2.9,0.4
		c-1.5,0-2.7-0.5-3.5-1.4c-0.9-1-1.2-2.5-1.2-4.6v-9.7h-2.7v-2.5h2.7V5.8L159.7,5z"/>
	<path class="st0" d="M181.1,27.1c-0.8,0.4-2.7,1-5.1,1c-5.3,0-8.8-3.6-8.8-9c0-5.5,3.7-9.4,9.5-9.4c1.9,0,3.6,0.5,4.5,0.9l-0.7,2.5
		c-0.8-0.4-2-0.8-3.7-0.8c-4.1,0-6.3,3-6.3,6.7c0,4.1,2.6,6.6,6.1,6.6c1.8,0,3-0.5,4-0.9L181.1,27.1z"/>
	<path class="st0" d="M185.6,1.8h3.2v11h0.1c0.5-0.9,1.3-1.7,2.3-2.3c1-0.5,2.1-0.9,3.3-0.9c2.4,0,6.2,1.5,6.2,7.6v10.5h-3.2V17.6
		c0-2.9-1.1-5.3-4.1-5.3c-2.1,0-3.7,1.5-4.3,3.2c-0.2,0.4-0.2,0.9-0.2,1.5v10.7h-3.2V1.8z"/>
	<path class="st0" d="M216.4,27.8l-0.3-2.2h-0.1c-1,1.4-2.9,2.6-5.4,2.6c-3.6,0-5.4-2.5-5.4-5.1c0-4.3,3.8-6.6,10.6-6.6v-0.4
		c0-1.5-0.4-4.1-4-4.1c-1.6,0-3.4,0.5-4.6,1.3l-0.7-2.1c1.5-1,3.6-1.6,5.8-1.6c5.4,0,6.7,3.7,6.7,7.2v6.6c0,1.5,0.1,3,0.3,4.2H216.4
		z M216,18.7c-3.5-0.1-7.5,0.5-7.5,4c0,2.1,1.4,3.1,3,3.1c2.3,0,3.8-1.5,4.3-3c0.1-0.3,0.2-0.7,0.2-1V18.7z"/>
	<path class="st0" d="M228.7,5v5.1h4.6v2.5h-4.6v9.5c0,2.2,0.6,3.4,2.4,3.4c0.8,0,1.5-0.1,1.9-0.2l0.1,2.4c-0.6,0.3-1.6,0.4-2.9,0.4
		c-1.5,0-2.7-0.5-3.5-1.4c-0.9-1-1.2-2.5-1.2-4.6v-9.7h-2.7v-2.5h2.7V5.8L228.7,5z"/>
</g>
<path class="st1" d="M143.4,22.3h-1.3c-2.2,0-4-1.8-4-4V14c0-2.2,1.8-4,4-4h1.3c2.2,0,4,1.8,4,4v4.3
	C147.4,20.5,145.6,22.3,143.4,22.3z"/>
<path class="st1" d="M109.8,23h-1.3c-2.2,0-4-1.8-4-4v-4.3c0-2.2,1.8-4,4-4h1.3c2.2,0,4,1.8,4,4V19C113.7,21.2,111.9,23,109.8,23z"
	/>
<g>
	<ellipse class="st1" cx="124.9" cy="15.5" rx="16.3" ry="15.3"/>
</g>
<ellipse transform="matrix(0.6305 -0.7762 0.7762 0.6305 34.5139 95.6195)" class="st2" cx="117.7" cy="11.6" rx="6.8" ry="5.5"/>
<path class="st3" d="M119.8,22.9c0,0-3-0.6-3.8-2.6c-0.8-2-1.7-6.9-1.7-6.9s-0.4-3.8,3.5-4.5c3.8-0.6,16.5,0.2,16.5,0.2
	s3.7,1.7,2.8,5c-0.9,3.3-1.8,6.6-1.8,6.6s-0.5,2.2-3.4,2.2S119.8,22.9,119.8,22.9z"/>
<path class="st2" d="M112.5,25.1c-0.2-0.2,28.7,7.8,27.9-14.7c0,0,4.1,8.3-5.4,16.7S113.7,26.6,112.5,25.1z"/>
<g>
	<g>
		<g>
			<path class="st4" d="M140.8,22.4c3.1,0.6,6.6-0.6,7.2-4c0.5-3.1,0.3-8-3.6-8.7c-0.8-0.1-1.1,1.1-0.3,1.2c3,0.5,2.9,4.1,2.8,6.5
				c-0.2,3.1-2.9,4.3-5.7,3.7C140.4,21.1,140,22.3,140.8,22.4L140.8,22.4z"/>
		</g>
	</g>
	<g>
		<g>
			<g>
				<path class="st4" d="M109.5,10.3c-2.2-0.6-4.4,0.4-5.2,2.5c-0.3,0.8,0.9,1.1,1.2,0.3c0.6-1.5,2.2-2.1,3.7-1.7
					C109.9,11.7,110.2,10.5,109.5,10.3L109.5,10.3z"/>
			</g>
		</g>
		<g>
			<g>
				<path class="st4" d="M105,16c0-0.4,0-0.9,0-1.3c0-0.8-1.3-0.8-1.3,0c0,0.4,0,0.9,0,1.3C103.7,16.8,105,16.8,105,16L105,16z"/>
			</g>
		</g>
		<g>
			<g>
				<path class="st4" d="M110.1,22.3c-0.7,0.2-1.5,0.1-2.2-0.1c-2-0.6-2.7-2.6-2.9-4.5c-0.1-0.8-1.3-0.8-1.3,0
					c0.2,2.3,1,4.7,3.3,5.6c1,0.4,2.3,0.5,3.4,0.3C111.2,23.3,110.9,22.1,110.1,22.3L110.1,22.3z"/>
			</g>
		</g>
	</g>
	<g>
		<g>
			<path class="st4" d="M140.6,15.5c-0.9,19-31.4,19.1-31.4,0C109.2-3.6,139.7-3.5,140.6,15.5c0,0.8,1.3,0.8,1.3,0
				c-0.9-20.6-33.8-20.7-33.9,0c-0.1,20.7,33,20.6,33.9,0C141.9,14.7,140.6,14.7,140.6,15.5z"/>
		</g>
	</g>
	<g>
		<g>
			<path class="st4" d="M132.7,9.6c1.5,0.2,3.6,3.8,3.5,5.2c0,0.4-0.2,0.8-0.3,1.2c-0.3,1-0.5,2.2-0.9,3.2c-0.8,2.1-2.4,3.1-4.5,3.3
				c-3.9,0.4-12.4,1.1-14.3-2.9c-0.3-0.7-1.4-0.1-1.1,0.6c1.7,3.5,4.6,3.5,8.1,3.5c2.9,0,8,1,10.7-0.5c2.2-1.2,2.5-4.4,3.1-6.5
				c1-3.7,0.4-7.6-4-8.2C132.3,8.2,131.9,9.4,132.7,9.6L132.7,9.6z"/>
		</g>
	</g>
	<g>
		<g>
			<path class="st4" d="M115.1,14.6c0-0.2-0.1-0.5-0.1-0.7c-0.2-1.3,2-3.9,3.2-4.3c0.2-0.1,0.4,0,0.6,0c1.3-0.2,2.8,0,4.1,0
				c2.4,0,4.8,0,7.2,0c0.8,0,0.8-1.3,0-1.3c-3.6,0-7.2-0.1-10.8,0c-4.1,0.1-6.2,2.4-5.4,6.6C114.1,15.7,115.3,15.3,115.1,14.6
				L115.1,14.6z"/>
		</g>
	</g>
	<g>
		<g>
			<path class="st4" d="M115.6,17.6c0-0.3-0.1-0.6-0.1-1c-0.1-0.8-1.3-0.8-1.3,0c0,0.3,0.1,0.6,0.1,1
				C114.5,18.4,115.7,18.4,115.6,17.6L115.6,17.6z"/>
		</g>
	</g>
	<g>
		<g>
			<path class="st4" d="M128.2,16.2c0.1-1.3,2.2-1.3,2.3,0c0,0.8,1.3,0.8,1.3,0c-0.1-2.9-4.6-2.9-4.8,0
				C126.9,17.1,128.2,17.1,128.2,16.2L128.2,16.2z"/>
		</g>
	</g>
	<g>
		<g>
			<path class="st4" d="M120.4,16.2c0.1-1.3,2.2-1.3,2.3,0c0,0.8,1.3,0.8,1.3,0c-0.1-2.9-4.6-2.9-4.8,0
				C119.1,17.1,120.3,17.1,120.4,16.2L120.4,16.2z"/>
		</g>
	</g>
</g>
</svg>
