<?xml version="1.0" encoding="utf-8"?>
<!-- Generator: Adobe Illustrator 22.1.0, SVG Export Plug-In . SVG Version: 6.00 Build 0)  -->
<svg version="1.1" id="Calque_1" xmlns="http://www.w3.org/2000/svg" xmlns:xlink="http://www.w3.org/1999/xlink" x="0px" y="0px"
	 viewBox="0 0 55 55" style="enable-background:new 0 0 55 55;" xml:space="preserve">
<style type="text/css">
	.st0{clip-path:url(#SVGID_2_);}
	.st1{opacity:0.2;enable-background:new    ;}
	.st2{opacity:0.4;}
	.st3{opacity:0.25;}
</style>
<title>fond_theme_generique</title>
<g>
	<defs>
		<circle id="SVGID_1_" cx="27.5" cy="27.5" r="27.5"/>
	</defs>
	<clipPath id="SVGID_2_">
		<use xlink:href="#SVGID_1_"  style="overflow:visible;"/>
	</clipPath>
	<g class="st0">
		<path class="st1" d="M44-3h5.2c1.2,0.2,2.3,0.9,3.1,1.8C52.8-0.7,53,0,53,0.7C53-1,54.3-2.2,56.8-3h2.6v2.9
			c-0.4,1.9-1.8,3.4-3.7,3.9c2-0.2,3.1,1,3.7,3.6v5.4c-0.4,1.9-1.8,3.4-3.7,3.9c2-0.2,3.1,1,3.7,3.6v5.4c-0.4,1.9-1.8,3.4-3.7,3.9
			c2-0.2,3.1,1,3.7,3.6v5.4c-0.8,2.3-1.2,2.7-3.4,3.8c1.6-0.2,2.8,1.1,3.4,3.6v5.4c-0.8,2.3-1.2,2.7-3.4,3.8
			c1.6-0.2,2.8,1.1,3.4,3.6v2.6c-2.6,0.5-4.8,0-6.2-2.4c-0.2-0.1-0.3-0.1-0.3,0c-1.2,1.8-3.3,2.8-5.4,2.5c-0.8-0.1-1.6,0-2.4,0
			c-1.7,0.1-3.3-0.6-4.3-2c-0.4-0.6-0.7-0.7-1.1,0c-1,1.4-2.7,2.2-4.4,2.1c-1,0-2,0-3,0c-1.7,0.1-3.3-0.6-4.3-2
			c-0.3-0.4-0.5-0.9-1-0.2c-1.1,1.6-2.9,2.4-4.8,2.2c-0.7,0-1.4,0-2.1,0c-2.3,0.1-4.2-0.5-5.2-2.5c-0.2-0.1-0.3-0.1-0.4-0.1
			c-1.1,1.8-3.2,2.8-5.4,2.6c-0.9-0.1-1.8,0-2.7,0c-2,0-3.8-1.1-4.7-2.9c-1.2,2.4-3.2,3-5.6,2.9c-0.8,0-1-0.3-1-1.1
			c-0.2-1.8,0.5-3.7,2-4.8c0.7-0.5,0.8-0.9,0-1.5c-1.5-1-2.2-2.8-2-4.6c0.1-0.7,0.1-1.3,0-2c-0.3-1.8,0.5-3.7,2-4.8
			c0.7-0.5,0.8-1,0-1.5c-1.5-1-2.3-2.8-2-4.6c0-0.3,0-0.6,0-0.8c-0.3-2.7,0.2-5.1,3-6.6c-2.7-1.5-3.1-3.8-3.1-6.4s0.4-4.9,2.9-6.4
			c-1.2-1.2-2.6-2-2.8-3.8c-0.1-1.8-0.1-3.6,0-5.4c0.1-1,0.7-2,1.5-2.7C-3,4.3-2.6,3.9-2.3,3.4C-4.6,2.2-5.7-0.5-4.9-3h2.6
			C-1.1-2.8,0-2.2,0.8-1.2C1.3-0.7,1.6,0,1.5,0.7C1.6-1,2.8-2.2,5.4-3h5.1c1.4,0.3,2.6,1,3.3,2.2c0.3,0.5,0.7,0.9,0.3,1.5
			c0.5-1.9,2.1-3.3,4-3.7h5.2c1.2,0.2,2.3,0.9,3.1,1.8C27-0.7,27.3,0,27.3,0.7C27.3-1,28.5-2.2,31.1-3h5.1c1.4,0.3,2.6,1,3.4,2.2
			c0.4,0.4,0.6,1.1,0.3,1.6C40.4-1.2,42-2.7,44-3z"/>
		<g class="st2">
			<path d="M-4.9-3C-5.3,0.1-3.4,1.9-1,3.4c-3.6,1.8-5,6.1-3.2,9.7c0.7,1.4,1.8,2.5,3.2,3.2C-3.4,17.8-5,19.6-5,22.7s1.6,4.9,4,6.4
				c-3.6,1.8-5,6.1-3.2,9.7c0.7,1.4,1.8,2.5,3.2,3.2c-2.4,1.5-3.9,3.3-3.9,6.4s1.5,4.9,4,6.4c-1.1,0.6-2,1.4-2.8,2.4
				c-0.9,1.1-1.4,3.2-0.9,3.8s2.6,0.2,3.9-0.7c1-0.8,1.9-1.8,2.4-3c1.4,2.7,3.3,4,6.4,4c2.8,0.2,5.3-1.5,6.4-4
				c1.4,2.7,3.3,4.1,6.4,4.1c2.7,0.2,5.3-1.4,6.4-3.9c4.4,5.6,9,5.6,13,0.1c4.2,5.5,8.9,5.5,13-0.1c1.3,2.6,3.3,4.2,6.4,3.8
				c0,0.6-0.4,0.3-0.6,0.3H-4.3c-0.7,0-0.8-0.1-0.8-0.8c0-21.1,0-42.2,0-63.3C-5.2-2.6-5.5-3-4.9-3z"/>
			<path d="M44-3c-1.6,0.9-2.9,2.3-3.8,3.9c-0.9-1.6-2.3-3-3.9-3.9H44z"/>
			<path d="M18.3-3c-1.6,0.9-3,2.3-3.8,4c-0.9-1.7-2.3-3-3.9-4H18.3z"/>
			<path d="M31.1-3c-1.6,0.9-2.9,2.3-3.8,3.9c-0.9-1.6-2.3-3-3.9-3.9H31.1z"/>
			<path d="M5.4-3c-1.6,0.9-3,2.3-3.9,3.9C0.6-0.7-0.7-2.1-2.3-3H5.4z"/>
			<path d="M56.8-3c-1.6,0.9-3,2.3-3.8,4c-0.9-1.7-2.3-3-3.9-4H56.8z"/>
			<path d="M59.4,33c-0.8-1.8-2.3-3.2-4.1-3.9c1.7-0.7,3.1-2,4.1-3.5V33z"/>
			<path d="M59.4,58.8c-0.8-1.8-2.3-3.1-4.1-3.9c1.7-0.7,3.1-2,4.1-3.6V58.8z"/>
			<path d="M59.4,20.2c-0.8-1.8-2.3-3.1-4.1-3.9c1.7-0.8,3.1-2,4.1-3.6V20.2z"/>
			<path d="M59.4,45.9c-0.8-1.8-2.3-3.1-4.1-3.9c1.7-0.8,3.1-2,4.1-3.6V45.9z"/>
			<path d="M59.4,7.3c-0.8-1.8-2.3-3.2-4.1-3.8c1.7-0.7,3.2-2,4.1-3.6V7.3z"/>
			<path d="M16.8,42c1.8-0.8,3.2-2.2,4.1-3.9c0.9,1.7,2.3,3,3.9,3.8c-1.7,1-3.1,2.4-3.9,4.2C20.2,44.3,18.7,42.8,16.8,42z"/>
			<path d="M57,9.9c-1.7,0.9-3.1,2.2-4,3.9c-0.9-1.7-2.3-3-4-3.9c1.6-1,3.1-2,3.8-4.2C53.7,7.6,55.1,9,57,9.9z"/>
			<path d="M-2.5,9.9c1.8-0.8,3.2-2.3,4-4.1c0.8,1.7,2.2,3.2,3.9,4c-1.6,0.9-3,2.2-3.9,3.9C0.6,12.1-0.8,10.8-2.5,9.9z"/>
			<path d="M10.4,48.4c1.8-0.7,3.2-2.1,4-3.9c0.8,1.7,2.2,3.1,3.9,3.9c-1.6,1.2-3,2.2-3.8,4.1C13.5,50.7,12.1,49.4,10.4,48.4z"/>
			<path d="M52.9,31.5c0.8,1.8,2.2,3.2,3.9,4.1c-1.6,0.9-2.9,2.3-3.8,3.9c-1-1.6-2.3-3-4-3.8C50.8,34.8,52.2,33.3,52.9,31.5z"/>
			<path d="M16.7,16.3c1.8-0.7,3.3-2.1,4.1-3.9c1.1,1.5,2.1,3,4,3.8c-1.7,0.9-3.1,2.4-3.9,4.1C20.1,18.5,18.6,17,16.7,16.3z"/>
			<path d="M31.2,35.7c-1.7,0.9-3,2.2-3.9,3.9c-0.9-1.7-2.3-3-4-3.9c1.8-0.8,3.2-2.3,3.9-4.1C28,33.3,29.4,34.8,31.2,35.7z"/>
			<path d="M42.6,16.3c1.8-0.8,3.2-2.2,4-4c0.9,1.7,2.3,3.1,3.9,4c-1.7,0.9-3.1,2.4-3.9,4.2C45.9,18.6,44.5,17.1,42.6,16.3z"/>
			<path d="M46.7,46.1C45.4,44,45.4,44,42.7,42c1.7-0.8,3.1-2.2,3.8-3.9c0.9,1.7,2.3,3.1,4,3.9C48.8,42.9,47.5,44.3,46.7,46.1z"/>
			<path d="M18.4,22.7c-1.7,0.9-3.1,2.2-4,3.9c-1-1.7-2.4-3-4.2-3.9c1.9-0.7,3.3-2.2,4.1-4C15.1,20.5,16.6,22,18.4,22.7z"/>
			<path d="M23.2,22.8c1.8-0.8,3.2-2.3,4-4.1c0.8,1.8,2.2,3.2,4,4c-1.6,0.9-3,2.3-3.9,4C26.4,25,25,23.6,23.2,22.8z"/>
			<path d="M36.1,22.7c1.8-0.7,3.3-2.1,4-4c0.8,1.8,2.2,3.2,4,3.9c-1.7,0.9-3,2.3-3.9,4C39.2,25,37.8,23.6,36.1,22.7z"/>
			<path d="M57,22.7c-1.7,0.9-3.1,2.2-4,3.8c-1-1.6-2.3-2.9-4-3.8c1.8-0.8,3.2-2.3,3.9-4.1C53.7,20.5,55.2,21.9,57,22.7z"/>
			<path d="M5.5,35.6c-1.7,0.9-3.1,2.2-4,3.8c-0.9-1.6-2.2-3-3.9-3.8c1.6-1,3.1-2,3.8-4.2C2.3,33.3,3.7,34.8,5.5,35.6z"/>
			<path d="M27.3,13.8c-0.9-1.7-2.3-3.1-4-3.9c1.8-0.8,3.2-2.3,4-4.1c0.8,1.8,2.2,3.2,3.9,4.1C29.5,10.8,28.2,12.1,27.3,13.8z"/>
			<path d="M53,44.3c0.8,1.8,2.1,3.3,3.9,4.1c-1.6,0.9-3,2.2-3.9,3.9c-0.9-1.6-2.3-3-4-3.8C50.8,47.7,52.2,46.2,53,44.3z"/>
			<path d="M36.1,48.4c1.8-0.7,3.2-2.1,4-3.9c0.8,1.8,2.2,3.2,3.9,4c-1.6,0.9-3,2.3-3.9,3.9C39.2,50.7,37.8,49.3,36.1,48.4z"/>
			<path d="M27.3,52.4c-0.9-1.7-2.3-3.1-3.9-4c1.8-0.8,3.2-2.2,3.9-4c0.8,1.8,2.2,3.2,4,4C29.6,49.3,28.2,50.7,27.3,52.4z"/>
			<path d="M46.6,50.9c0.9,1.7,2.2,3.1,3.9,4c-1.7,0.9-3.1,2.3-3.9,4.1c-0.8-1.8-2.2-3.3-4.1-4C44.3,54.2,45.8,52.7,46.6,50.9z"/>
			<path d="M5.5,22.7c-1.6,0.9-3,2.3-3.9,3.9c-1-1.6-2.4-3-4.1-3.9c1.8-0.8,3.2-2.3,4-4.1C2.3,20.5,3.7,21.9,5.5,22.7z"/>
			<path d="M46.6-0.5c0.9,1.6,2.3,3,3.9,3.9c-1.7,0.9-3,2.4-3.8,4.2c-0.7-1.9-2.2-3.4-4.1-4.1C44.3,2.7,45.8,1.3,46.6-0.5z"/>
			<path d="M1.5,52.4c-0.9-1.6-2.3-3-4-3.9c1.7-0.8,3.1-2.3,3.9-4.1c0.8,1.8,2.2,3.2,4,3.9C3.8,49.3,2.5,50.7,1.5,52.4z"/>
			<path d="M40.1,39.6c-0.8-1.7-2.3-3.2-4-4c1.8-0.8,3.2-2.2,4-4c0.8,1.8,2.2,3.2,4,4C42.4,36.5,41,37.9,40.1,39.6z"/>
			<path d="M16.7,29.2c1.8-0.7,3.3-2.1,4.2-3.9c0.9,1.7,2.3,3,4,3.8c-1.7,0.9-3,2.3-3.9,4C20.1,31.3,18.5,29.9,16.7,29.2z"/>
			<path d="M46.6,25.1c0.9,1.7,2.2,3.1,3.9,4c-1.7,1-3,2.4-3.9,4.1c-0.8-1.8-2.2-3.2-4-4C44.4,28.4,45.8,26.9,46.6,25.1z"/>
			<path d="M14.4,13.8c-0.8-1.7-2.2-3.1-3.9-3.9c1.6-1,3.1-2,3.8-4.2c0.7,1.6,1.9,3,3.4,3.9c0.4,0.3,0.3,0.5-0.1,0.7
				C16.3,11.1,15.2,12.4,14.4,13.8z"/>
			<path d="M18.4,35.6c-1.7,0.9-3.1,2.2-4,3.9c-0.8-1.7-2.2-3.1-3.9-3.9c1.6-1,3.1-2.1,3.9-4.1C15.1,33.3,16.6,34.8,18.4,35.6z"/>
			<path d="M40.1,13.8c-0.9-1.7-2.3-3.1-4-3.9c1.8-0.9,3.2-2.3,3.9-4.1c0.7,1.6,1.9,2.9,3.4,3.8c0.4,0.2,0.3,0.5-0.1,0.7
				C42,11.1,40.9,12.4,40.1,13.8z"/>
			<path d="M8,7.4C7.2,5.6,5.8,4.2,3.9,3.5c1.8-0.8,3.2-2.2,4.1-4c1.1,1.7,2.2,3.1,4,3.8C10.3,4.3,8.9,5.7,8,7.4z"/>
			<path d="M20.8-0.6c0.9,1.7,2.3,3.1,4,4c-1.7,0.9-3,2.3-3.9,4c-0.8-1.8-2.3-3.2-4.1-4C18.6,2.7,20.1,1.2,20.8-0.6z"/>
			<path d="M33.7,7.4c-0.8-1.8-2.3-3.2-4.1-3.9c1.8-0.8,3.2-2.2,4-4c0.9,1.7,2.3,3.1,4,4C36,4.4,34.6,5.7,33.7,7.4z"/>
			<path d="M8,20.3c-0.8-1.8-2.2-3.2-4-4c1.8-0.8,3.2-2.2,4-4c0.9,1.6,2.3,3,3.9,3.9C10.2,17.2,8.9,18.6,8,20.3z"/>
			<path d="M33.7,50.9c0.9,1.7,2.2,3.1,3.9,4c-1.6,1-3,2.3-3.9,4c-0.8-1.8-2.2-3.1-4-3.9C31.5,54.2,32.9,52.7,33.7,50.9z"/>
			<path d="M24.9,54.9c-1.7,0.9-3.1,2.3-4,4c-0.8-1.8-2.2-3.2-4-3.9c1.8-0.8,3.2-2.2,3.9-4C21.7,52.6,23.2,54,24.9,54.9z"/>
			<path d="M3.9,54.9C5.7,54.2,7.2,52.8,8,51c0.9,1.7,2.3,3,4,3.8c-1.6,0.9-3,2.3-3.9,4C7.2,57,5.7,55.6,3.9,54.9z"/>
			<path d="M37.7,16.3c-1.7,0.9-3.1,2.3-3.9,4c-0.8-1.8-2.2-3.2-4-4c1.8-0.8,3.2-2.2,4-4C34.6,14,36,15.4,37.7,16.3z"/>
			<path d="M8,38.1c0.9,1.7,2.2,3,3.9,3.9C10.2,43,8.9,44.3,8,46c-0.8-1.8-2.3-3.2-4.1-3.9C5.7,41.3,7.2,39.9,8,38.1z"/>
			<path d="M3.9,29.2c1.8-0.8,3.2-2.2,4-3.9c0.9,1.7,2.3,3,4,3.9c-1.7,0.9-3.1,2.3-4,4C7.2,31.4,5.7,29.9,3.9,29.2z"/>
			<path d="M33.8,46.1c-0.8-1.8-2.3-3.2-4.1-4c1.8-0.8,3.2-2.2,4-4c0.9,1.6,2.3,3,3.9,3.9C35.9,42.9,34.6,44.4,33.8,46.1z"/>
			<path d="M33.8,33.2c-0.8-1.8-2.3-3.2-4.1-4c1.8-0.8,3.2-2.2,4-3.9c0.9,1.7,2.3,3,4,3.9C36,30,34.6,31.5,33.8,33.2z"/>
		</g>
		<g class="st3">
			<path d="M15.4,2.9c-0.5,0-0.5-0.3-0.5-0.7c0.2-1.9,2.8-4.6,4.7-4.7c0.4,0,0.7,0,0.7,0.6C20.3,0.1,17.2,3,15.4,2.9z"/>
			<path d="M46-1.8c0,1.9-3.1,4.9-4.9,4.8c-0.5,0-0.5-0.3-0.5-0.7c0.6-2.3,2.3-4,4.6-4.7C45.7-2.4,46.1-2.5,46-1.8z"/>
			<path d="M28.6,4c2.3,0.6,4.1,2.4,4.6,4.8c0,0.5,0,0.6-0.6,0.6c-2-0.2-4.7-2.8-4.8-4.8C27.7,3.9,28.1,3.9,28.6,4z"/>
			<path d="M33.1,47.1c0.1,0.8-0.4,0.8-1,0.7c-2.2-0.7-3.8-2.4-4.3-4.7c-0.1-0.5,0.1-0.7,0.6-0.7C30.2,42.6,33.1,45.3,33.1,47.1z"/>
			<path d="M58.8,47.1c0.1,0.8-0.4,0.8-1,0.8c-1.8-0.3-4.1-2.8-4.3-4.7c0-0.5,0.1-0.7,0.6-0.7C55.9,42.6,58.8,45.3,58.8,47.1z"/>
			<path d="M20.3,8.5c0.1,0.7-0.4,0.8-0.9,0.7c-1.8-0.2-4.3-2.9-4.4-4.7c0-0.4,0-0.6,0.5-0.6C17.3,3.9,20.3,6.7,20.3,8.5z"/>
			<path d="M46,8.5c0.1,0.8-0.4,0.8-1,0.8c-2.2-0.7-3.8-2.5-4.3-4.7c0-0.4,0-0.6,0.5-0.7C42.9,3.8,45.9,6.7,46,8.5z"/>
			<path d="M15.8,42.6c2.1,0.6,3.8,2.2,4.4,4.3c0.2,0.9-0.2,1.1-1,0.9c-2.1-0.7-3.7-2.4-4.3-4.5C14.8,42.5,15.1,42.4,15.8,42.6z"/>
			<path d="M35.1,9.3c-0.5,0.1-0.8-0.1-0.8-0.7c0.1-1.8,3-4.6,4.8-4.6c0.4,0,0.6,0.1,0.6,0.6C39.6,6.3,36.8,9.2,35.1,9.3z"/>
			<path d="M13.9,4.5c0,1.8-2.8,4.7-4.6,4.8c-0.7,0-0.8-0.2-0.8-0.8c0.2-1.8,2.9-4.4,4.7-4.5C13.8,4,13.9,4.1,13.9,4.5z"/>
			<path d="M58.9,36.9c-0.6,2.3-2.4,4.1-4.7,4.6c-0.6,0.1-0.8-0.1-0.7-0.7c0.3-1.9,2.7-4.4,4.6-4.6C58.8,36.1,59.1,36.3,58.9,36.9z"
				/>
			<path d="M46,49.7c0,1.9-3.1,4.8-4.9,4.8c-0.5,0-0.5-0.3-0.5-0.7c0.2-1.9,2.9-4.6,4.7-4.7C46,49,46,49.1,46,49.7z"/>
			<path d="M33.2,36.8c0,1.9-3.1,4.9-4.9,4.8c-0.5,0-0.5-0.3-0.5-0.7c0.2-1.9,2.8-4.6,4.7-4.7C33.1,36.2,33.2,36.2,33.2,36.8z"/>
			<path d="M28.4,2.9c-0.6,0.1-0.6-0.2-0.6-0.7c0.3-1.9,2.8-4.4,4.6-4.6c0.5,0,0.8,0,0.8,0.6C33.1,0.1,30.3,2.9,28.4,2.9z"/>
			<path d="M26.7,4.8c-0.5,2.2-2.1,3.9-4.3,4.5c-0.9,0.2-1.2-0.2-0.9-1C22.2,6.1,23.8,4.5,26,4C26.7,3.8,26.9,4.1,26.7,4.8z"/>
			<path d="M47.8,47.9c-0.7,0-0.7-0.4-0.6-1c0.7-2.1,2.4-3.7,4.5-4.3c0.4-0.1,0.7-0.1,0.8,0.5C52.5,45,49.6,48,47.8,47.9z"/>
			<path d="M13.9,43.1c0,1.8-2.7,4.7-4.5,4.8c-0.6,0-0.8-0.2-0.8-0.8c0.2-1.8,2.9-4.4,4.7-4.5C13.7,42.5,13.9,42.7,13.9,43.1z"/>
			<path d="M33.2,49.6c0,1.9-3.1,4.9-4.9,4.8c-0.6,0-0.5-0.4-0.4-0.8c0.6-2.2,2.3-3.9,4.5-4.5C33,49,33.2,49.1,33.2,49.6z"/>
			<path d="M15.5,41.5c-0.7,0-0.7-0.3-0.6-0.8c0.6-2.2,2.3-3.9,4.5-4.5c0.5-0.1,0.9-0.1,0.9,0.7C20.1,38.8,17.3,41.6,15.5,41.5z"/>
			<path d="M22.2,47.9c-0.7,0.1-0.8-0.3-0.7-0.9c0.3-1.8,2.8-4.2,4.6-4.4c0.5-0.1,0.7,0,0.7,0.6C26.7,45.1,24,47.8,22.2,47.9z"/>
			<path d="M35,49.1c1.7,0,4.8,3.3,4.6,4.9c-0.1,0.5-0.4,0.4-0.7,0.4c-2.2-0.6-3.9-2.3-4.6-4.5C34.3,49.3,34.4,49,35,49.1z"/>
			<path d="M15.4,54.4c-0.5,0-0.5-0.3-0.5-0.7c0.2-1.9,2.8-4.6,4.7-4.7c0.4,0,0.7,0,0.7,0.6C20.3,51.5,17.2,54.5,15.4,54.4z"/>
			<path d="M9.3,49.1c1.7,0,4.6,3.1,4.6,4.8c0,0.6-0.3,0.5-0.8,0.5C11,53.8,9.3,52.1,8.6,50C8.5,49.4,8.6,49,9.3,49.1z"/>
			<path d="M13.9,2.3c0,0.7-0.4,0.6-0.8,0.6C11,2.3,9.3,0.6,8.6-1.5c-0.1-0.6,0-0.9,0.7-0.9C11-2.4,13.9,0.7,13.9,2.3z"/>
			<path d="M39.6,2.4c0,0.5-0.3,0.5-0.7,0.5c-1.8-0.2-4.5-2.8-4.6-4.6c-0.1-0.6,0.2-0.8,0.8-0.7C36.8-2.3,39.7,0.8,39.6,2.4z"/>
			<path d="M46,34.3c0.1,0.7-0.3,0.8-0.9,0.7c-1.8-0.2-4.3-2.9-4.4-4.7c0-0.4,0-0.6,0.5-0.6C43,29.6,46,32.5,46,34.3z"/>
			<path d="M39.6,30.2c0,1.8-2.9,4.8-4.7,4.8c-0.6,0-0.7-0.4-0.6-0.8c0.2-1.8,2.9-4.4,4.7-4.5C39.5,29.7,39.7,29.8,39.6,30.2z"/>
			<path d="M45.4,23.3c0.6-0.1,0.7,0.2,0.6,0.7c-0.2,1.9-2.8,4.4-4.8,4.6c-0.5,0-0.7-0.2-0.6-0.6C40.9,26.1,43.5,23.4,45.4,23.3z"/>
			<path d="M35,23.3c1.7,0,4.8,3.3,4.6,4.9c-0.1,0.5-0.4,0.4-0.7,0.4c-2.2-0.6-3.9-2.3-4.6-4.5C34.3,23.6,34.4,23.3,35,23.3z"/>
			<path d="M15.6,29.7c1.6,0,4.5,2.7,4.6,4.5c0.1,0.7-0.3,0.9-0.9,0.8c-1.8-0.2-4.3-3-4.4-4.8C14.9,29.8,15,29.6,15.6,29.7z"/>
			<path d="M13.3,29.7c0.6-0.1,0.6,0.3,0.6,0.7c-0.6,2.2-2.3,4-4.5,4.6c-0.7,0.1-1-0.1-0.9-0.8C8.8,32.3,11.6,29.8,13.3,29.7z"/>
			<path d="M15.5,28.7c-0.7,0-0.6-0.3-0.6-0.8c0.6-2.2,2.3-3.9,4.5-4.5c0.5-0.1,0.9-0.1,0.9,0.7C20.1,25.9,17.3,28.7,15.5,28.7z"/>
			<path d="M9.3,23.3c1.7,0,4.8,3.3,4.6,4.9c-0.1,0.5-0.4,0.4-0.7,0.4C11,28,9.2,26.3,8.6,24.1C8.5,23.6,8.7,23.3,9.3,23.3z"/>
			<path d="M32.5,35.1c-2.3-0.5-4.1-2.3-4.7-4.6c-0.1-0.6,0-0.9,0.7-0.8c2.4,0.6,4.2,2.4,4.7,4.8C33.3,35.2,33,35.2,32.5,35.1z"/>
			<path d="M26.2,29.7c0.7,0,0.6,0.4,0.6,0.8c-0.5,2.2-2.2,3.9-4.3,4.5c-0.5,0.1-1,0.1-1-0.6C21.4,32.6,24.5,29.6,26.2,29.7z"/>
			<path d="M33.2,23.9c0,1.9-3.1,4.9-4.9,4.7c-0.5,0-0.5-0.3-0.5-0.7c0.2-1.9,2.9-4.6,4.7-4.7C32.9,23.3,33.3,23.3,33.2,23.9z"/>
			<path d="M26.7,28.1c0.1,0.6-0.2,0.6-0.7,0.5c-2.2-0.6-3.9-2.3-4.6-4.5c-0.1-0.7,0.2-0.9,0.8-0.8C24,23.5,26.7,26.3,26.7,28.1z"/>
			<path d="M41.3,42.5c1.8,0.1,4.5,2.7,4.7,4.5c0.1,0.7-0.2,0.9-0.9,0.9c-1.8-0.2-4.3-2.9-4.4-4.7C40.6,42.6,40.8,42.5,41.3,42.5z"
				/>
			<path d="M46,36.8c0,1.9-3.1,4.9-4.9,4.8c-0.6,0-0.5-0.4-0.4-0.8c0.6-2.2,2.3-3.9,4.5-4.5C45.6,36.2,46.1,36.1,46,36.8z"/>
			<path d="M35,47.9c-0.6,0-0.7-0.3-0.6-0.8c0.2-1.8,2.9-4.3,4.7-4.5c0.4,0,0.6,0.1,0.6,0.5C39.6,44.9,36.7,48,35,47.9z"/>
			<path d="M39.6,40.9c0.1,0.7-0.3,0.7-0.8,0.6c-2.1-0.6-3.8-2.3-4.4-4.4c-0.2-0.8,0.2-0.9,0.9-0.8C37,36.5,39.5,39.2,39.6,40.9z"/>
			<path d="M46,21.4c0.1,0.5-0.1,0.8-0.7,0.8c-1.8,0-4.7-3-4.7-4.8c0-0.5,0.2-0.5,0.6-0.5C43,16.8,45.9,19.6,46,21.4z"/>
			<path d="M39.6,17.4c0.1,1.7-2.7,4.7-4.5,4.8c-0.6,0-0.9-0.2-0.8-0.8c0.2-1.8,2.9-4.4,4.7-4.5C39.4,16.8,39.7,16.9,39.6,17.4z"/>
			<path d="M41.2,15.8c-0.6,0.1-0.6-0.2-0.6-0.7c0.2-1.9,2.7-4.4,4.6-4.6c0.6-0.1,0.8,0.1,0.8,0.8C45.8,13.2,43.1,15.7,41.2,15.8z"
				/>
			<path d="M39.6,15.2c0,0.7-0.4,0.6-0.8,0.5c-2.1-0.6-3.8-2.3-4.5-4.4c-0.1-0.5-0.1-0.8,0.6-0.9C36.6,10.4,39.7,13.6,39.6,15.2z"/>
			<path d="M22.1,36.2c1.7-0.1,4.8,3.1,4.7,4.8c0,0.5-0.3,0.5-0.7,0.5c-1.8-0.2-4.5-2.8-4.6-4.6C21.4,36.4,21.5,36.2,22.1,36.2z"/>
			<path d="M28.4,16.8c1.8,0.1,4.5,2.7,4.7,4.5c0.1,0.7-0.2,1-0.9,0.9c-1.8-0.2-4.3-2.9-4.4-4.7C27.8,16.9,27.8,16.8,28.4,16.8z"/>
			<path d="M33.2,11.1c0,1.9-2.9,4.6-4.8,4.7c-0.6,0-0.6-0.2-0.6-0.7c0.6-2.3,2.4-4,4.6-4.6C32.8,10.4,33.3,10.4,33.2,11.1z"/>
			<path d="M26.8,17.4c0,1.9-2.7,4.7-4.6,4.8c-0.7,0-0.8-0.2-0.8-0.9c0.2-1.8,2.9-4.3,4.7-4.4C26.7,16.8,26.8,17,26.8,17.4z"/>
			<path d="M22.1,10.5c1.7,0,4.6,3,4.6,4.8c0,0.6-0.3,0.6-0.7,0.5c-2.2-0.6-3.9-2.3-4.6-4.5C21.4,10.7,21.6,10.4,22.1,10.5z"/>
			<path d="M7.4,49.7c0.1,1.8-3,4.8-4.9,4.7c-0.6,0-0.5-0.3-0.5-0.8c0.6-2.2,2.3-3.9,4.5-4.5C7,49,7.5,48.9,7.4,49.7z"/>
			<path d="M-3.6,49.1c1.7,0,4.5,2.9,4.6,4.8c0,0.6-0.3,0.6-0.7,0.5c-2.2-0.6-3.9-2.3-4.6-4.5C-4.4,49.2-4.2,49.1-3.6,49.1z"/>
			<path d="M9.3,36.2c1.7,0,4.6,3,4.6,4.8c0,0.6-0.3,0.6-0.7,0.5C11,40.9,9.2,39.2,8.6,37C8.5,36.4,8.7,36.2,9.3,36.2z"/>
			<path d="M22.1,49.1c1.7-0.1,4.8,3.1,4.7,4.8c0,0.4-0.2,0.5-0.5,0.5c-1.7,0-4.6-2.8-4.8-4.6C21.4,49.3,21.6,49.1,22.1,49.1z"/>
			<path d="M7.4,47.1c0.1,0.8-0.4,0.9-1,0.8c-1.8-0.3-4.1-2.8-4.3-4.7c0-0.5,0-0.7,0.6-0.7C4.4,42.5,7.3,45.3,7.4,47.1z"/>
			<path d="M7.4,36.8c0,1.9-3.1,4.9-4.9,4.8C2,41.5,2,41.3,2,40.9c0.2-1.9,2.8-4.6,4.7-4.7C7.4,36.2,7.4,36.2,7.4,36.8z"/>
			<path d="M-3.6,47.9c-0.6,0-0.7-0.3-0.7-0.8c0.2-1.8,2.8-4.3,4.7-4.5c0.4,0,0.6,0,0.6,0.5C1.1,44.9-1.8,47.9-3.6,47.9z"/>
			<path d="M-3.6,36.2c1.7,0,4.5,2.9,4.6,4.8c0,0.6-0.3,0.6-0.7,0.5c-2.2-0.6-4-2.3-4.6-4.5C-4.3,36.5-4.2,36.2-3.6,36.2z"/>
			<path d="M47.8,36.2c1.7-0.1,4.8,3.1,4.7,4.8c0,0.5-0.3,0.5-0.7,0.5c-1.8-0.2-4.5-2.8-4.6-4.6C47.2,36.4,47.3,36.2,47.8,36.2z"/>
			<path d="M7.5,34.6c0.1,0.5-0.2,0.5-0.6,0.5c-2-0.2-4.7-2.8-4.9-4.8c0-0.5,0.1-0.7,0.6-0.7C4.6,29.7,7.5,32.7,7.5,34.6z"/>
			<path d="M0.4,29.7c0.7,0,0.6,0.4,0.6,0.8c-0.5,2.2-2.2,3.9-4.3,4.5c-0.5,0.1-1,0.1-1-0.6C-4.4,32.7-1.2,29.6,0.4,29.7z"/>
			<path d="M2.6,28.6c-0.6,0.1-0.6-0.2-0.5-0.7c0.2-1.9,2.7-4.4,4.6-4.6c0.4,0,0.8-0.1,0.8,0.6C7.3,25.8,4.5,28.6,2.6,28.6z"/>
			<path d="M-3.6,23.3c1.7,0,4.5,2.9,4.6,4.8c0,0.6-0.3,0.6-0.7,0.5c-2.2-0.6-3.9-2.3-4.6-4.5C-4.3,23.6-4.2,23.3-3.6,23.3z"/>
			<path d="M54.1,54.4c-0.7,0-0.6-0.3-0.6-0.8c0.6-2.2,2.3-3.9,4.5-4.5c0.5-0.1,0.9-0.1,0.9,0.7C58.7,51.7,55.9,54.4,54.1,54.4z"/>
			<path d="M47.9,49.1c1.7,0,4.6,3,4.6,4.8c0,0.6-0.3,0.6-0.7,0.5c-2.2-0.6-3.9-2.3-4.6-4.5C47.1,49.3,47.3,49,47.9,49.1z"/>
			<path d="M20.3,21.4c0.1,0.8-0.4,0.9-1,0.8c-1.8-0.3-4.1-2.8-4.3-4.6c-0.1-0.5,0-0.7,0.6-0.7C17.3,16.8,20.2,19.5,20.3,21.4z"/>
			<path d="M13.9,17.4c-0.1,1.9-2.6,4.5-4.5,4.7c-0.7,0.1-1-0.2-0.8-0.9c0.7-2.2,2.4-3.8,4.6-4.4C13.8,16.8,13.9,16.9,13.9,17.4z"/>
			<path d="M20.3,11.2c-0.3,2-2.7,4.3-4.7,4.6c-0.6,0.1-0.8-0.1-0.7-0.7c0.3-1.9,2.8-4.4,4.6-4.6C20.2,10.4,20.4,10.6,20.3,11.2z"/>
			<path d="M13.9,15.2c0,0.7-0.4,0.6-0.8,0.5c-2.1-0.6-3.8-2.3-4.5-4.4c-0.1-0.6,0-0.9,0.7-0.9C11.1,10.6,13.9,13.6,13.9,15.2z"/>
			<path d="M7.4,21.4c0.1,0.7-0.4,0.8-0.9,0.7c-1.8-0.2-4.3-2.9-4.4-4.7c0-0.4,0.1-0.6,0.5-0.6C4.3,16.7,7.4,19.6,7.4,21.4z"/>
			<path d="M7.4,11.3c-0.6,2.3-2.4,4-4.7,4.5c-0.6,0.1-0.8-0.1-0.7-0.7c0.3-1.9,2.8-4.4,4.6-4.6C7.4,10.4,7.5,10.5,7.4,11.3z"/>
			<path d="M-3.5,22.1c-0.7,0.1-0.8-0.2-0.8-0.8c0.2-1.8,3-4.4,4.7-4.5c0.4,0,0.6,0.1,0.6,0.5C1,19.2-1.7,22-3.5,22.1z"/>
			<path d="M1,15.3c0,0.5-0.3,0.5-0.6,0.5c-1.8-0.2-4.5-2.8-4.7-4.6c-0.1-0.6,0.2-0.8,0.7-0.7C-1.8,10.6,1.1,13.6,1,15.3z"/>
			<path d="M58.9,34.6c0.1,0.6-0.2,0.6-0.7,0.5c-2.4-0.5-4.2-2.4-4.8-4.7c-0.1-0.6,0.1-0.8,0.7-0.7C56.3,29.9,58.9,32.6,58.9,34.6z"
				/>
			<path d="M52.4,30.5c-0.5,2.2-2.1,3.9-4.3,4.5c-0.9,0.2-1.2-0.2-0.9-1c0.7-2.1,2.3-3.7,4.5-4.2C52.4,29.6,52.6,29.8,52.4,30.5z"/>
			<path d="M58.9,24c0,1.9-2.8,4.6-4.8,4.7c-0.6,0-0.6-0.2-0.6-0.7c0.6-2.3,2.3-4,4.6-4.6C58.6,23.3,59,23.2,58.9,24z"/>
			<path d="M47.8,23.3c1.7,0,4.6,2.9,4.6,4.8c0,0.6-0.3,0.6-0.7,0.5c-2.2-0.6-3.9-2.3-4.6-4.5C47.1,23.6,47.3,23.3,47.8,23.3z"/>
			<path d="M58.8,21.4c0,0.6-0.3,0.7-0.8,0.7c-1.8-0.1-4.5-2.9-4.6-4.8c0-0.4,0.1-0.6,0.6-0.6C55.8,16.7,58.9,19.7,58.8,21.4z"/>
			<path d="M58.9,11.2c-0.5,2.3-2.3,4.1-4.6,4.6c-0.6,0.1-0.8,0-0.7-0.7c0.2-1.9,2.7-4.4,4.6-4.6C58.7,10.4,59.1,10.5,58.9,11.2z"/>
			<path d="M52.5,17.5c0,1.7-2.7,4.5-4.5,4.6c-0.6,0-0.9-0.2-0.8-0.8c0.2-1.8,2.9-4.4,4.7-4.5C52.3,16.8,52.5,17,52.5,17.5z"/>
			<path d="M47.9,10.5c1.7,0,4.6,2.9,4.6,4.8c0,0.6-0.3,0.6-0.7,0.5c-2.2-0.6-3.9-2.3-4.6-4.5C47.1,10.7,47.3,10.4,47.9,10.5z"/>
			<path d="M58.9,8.9c0.1,0.5-0.2,0.5-0.6,0.5c-2-0.2-4.7-2.8-4.8-4.8c0-0.5,0.1-0.7,0.6-0.6C56.2,4,59,7,58.9,8.9z"/>
			<path d="M47.9,9.3c-0.7,0.1-0.8-0.3-0.7-0.9C47.5,6.6,50,4.2,51.8,4c0.4,0,0.6-0.1,0.7,0.4C52.6,6.2,49.7,9.3,47.9,9.3z"/>
			<path d="M54.1,2.9c-0.6,0.1-0.6-0.2-0.6-0.7c0.2-1.9,2.7-4.4,4.6-4.6c0.4,0,0.8-0.1,0.8,0.6C58.8,0.1,56,2.9,54.1,2.9z"/>
			<path d="M52.5,2.4c0,0.5-0.2,0.6-0.6,0.5c-1.8-0.1-4.4-2.7-4.7-4.6c-0.1-0.6,0.1-0.8,0.7-0.8C49.6-2.3,52.4,0.6,52.5,2.4z"/>
			<path d="M22.1-2.4c1.7,0,4.6,3,4.6,4.8c0,0.6-0.3,0.6-0.7,0.5c-2.2-0.6-3.9-2.3-4.6-4.5C21.4-2.2,21.5-2.4,22.1-2.4z"/>
			<path d="M6.8,9.3C4.5,8.8,2.6,7,2.1,4.6C2,4,2.2,3.9,2.8,4C5.1,4.5,7,6.4,7.5,8.7C7.5,9.4,7.4,9.5,6.8,9.3z"/>
			<path d="M-3.5,9.3c-0.8,0.1-0.8-0.3-0.7-1C-3.5,6.2-1.8,4.5,0.3,4C0.8,3.9,1,4,1,4.5C1.1,6.3-1.7,9.2-3.5,9.3z"/>
			<path d="M7.4-1.7C6.8,0.6,5,2.4,2.7,2.9C2.1,3,2,2.8,2.1,2.2c0.3-1.9,2.8-4.4,4.6-4.6C7.3-2.5,7.6-2.2,7.4-1.7z"/>
			<path d="M-3.6-2.4c1.7,0,4.6,3,4.6,4.8C1,3,0.8,2.9,0.3,2.9c-2.2-0.6-3.9-2.3-4.6-4.5C-4.3-2.2-4.2-2.5-3.6-2.4z"/>
		</g>
	</g>
</g>
</svg>
