<?xml version="1.0" encoding="utf-8"?>
<!-- Generator: Adobe Illustrator 22.1.0, SVG Export Plug-In . SVG Version: 6.00 Build 0)  -->
<svg version="1.1" id="Calque_1" xmlns="http://www.w3.org/2000/svg" xmlns:xlink="http://www.w3.org/1999/xlink" x="0px" y="0px"
	 viewBox="0 0 55 55" style="enable-background:new 0 0 55 55;" xml:space="preserve">
<style type="text/css">
	.st0{clip-path:url(#SVGID_2_);}
	.st1{fill:none;}
	.st2{opacity:0.35;}
	.st3{fill:#030303;}
	.st4{opacity:0.25;}
	.st5{opacity:0.1;}
</style>
<title>fond_theme_generique</title>
<g>
	<defs>
		<circle id="SVGID_1_" cx="27.5" cy="27.5" r="27.5"/>
	</defs>
	<clipPath id="SVGID_2_">
		<use xlink:href="#SVGID_1_"  style="overflow:visible;"/>
	</clipPath>
	<g class="st0">
		<circle class="st1" cx="27.2" cy="27.2" r="27.5"/>
		<g class="st2">
			<path class="st3" d="M55,7.9v1.4l-0.4,0.4l-1.2,1.2l1.6,1.7V14l-0.5,0.5l-4.3,4.3l-1.4,1.4l1.6,1.5l0.1-0.1
				c1.5-1.5,2.9-2.9,4.4-4.4l0.2-0.2v1.4l-0.2,0.1l-3.1,3.1c-0.3,0.3-0.5,0.5-0.8,0.7l1.7,1.6l0,0c0.6-0.6,1.2-1.2,1.8-1.8l0.5-0.5
				v1.4l-1,1l-0.6,0.6l1.6,1.7V28l-0.2,0.2l-5.4,5.4c-0.2,0.2-0.4,0.3-0.5,0.5l1.6,1.6l0.2-0.2l1-1l3-3c0.2-0.2,0.3-0.3,0.5-0.5v1.4
				l-0.2,0.1L51.3,36L51,36.3l1.6,1.7c0,0,0.1-0.1,0.1-0.1l2-2c0.1-0.1,0.1-0.1,0.2-0.2v1.4l-1.1,1.1l-0.5,0.4l1.6,1.7v1.5l-0.5,0.5
				l-5.3,5.3c-0.1,0.1-0.3,0.3-0.4,0.4l1.6,1.5l1.9-1.9l2.8-2.8v1.4l-0.1,0.1l-3.4,3.4l-0.5,0.5l1.7,1.6c0,0,0.1-0.1,0.1-0.1
				l1.7-1.7c0.2-0.2,0.4-0.3,0.5-0.5V51l-0.2,0.1l-1.2,1.2c-0.1,0.1-0.2,0.1-0.2,0.2l1.6,1.7V55h-0.7c0,0,0-0.1-0.1-0.1l-4.4-4.5
				l-1.7-1.7l-0.2,0.2L42.8,54l-1,1h-1.4c0,0,0-0.1-0.1-0.1l-5-5l-1.1-1.1L33.9,49l-4.6,4.6L27.9,55h-1.4l-1.2-1.3l-3.1-3.1
				l-1.8-1.9l-1.4,1.4l-3.2,3.2c-0.6,0.5-1.1,1.1-1.6,1.7h-1.5l-0.2-0.3l-5.6-5.6c-0.1-0.1-0.2-0.3-0.4-0.5l-2,2l-2.7,2.7
				c-0.5,0.5-1,1-1.5,1.6h-0.7c0-0.1,0-0.3,0-0.5c0-0.2,0.1-0.4,0.2-0.5c0.4-0.4,0.9-0.9,1.3-1.3c0,0,0.1-0.1,0.1-0.1
				c-0.5-0.5-0.9-0.9-1.4-1.4c-0.2-0.1-0.3-0.4-0.3-0.6c0-0.3,0-0.7,0-1h0.1l2.3,2.2l1.7-1.6l-0.7-0.7l-3.2-3.2c0,0-0.1-0.1-0.1-0.2
				c0-0.4,0-0.9,0-1.3h0.1l4.6,4.6L5.7,48l-1.3-1.3c-1.6-1.6-3.2-3.2-4.8-4.8c-0.1-0.1-0.1-0.2-0.1-0.2c0-0.4,0-0.8,0-1.1
				c0-0.1,0-0.2,0.1-0.3c0.2-0.3,0.5-0.5,0.8-0.8l0.8-0.8v-0.1c-0.3-0.3-0.6-0.6-0.9-0.9s-0.5-0.4-0.6-0.7c-0.1-0.3-0.1-0.6,0-0.9
				v-0.4c0-0.1,0-0.1,0-0.2L1.8,38l1.6-1.6l-0.2-0.2C2,35,0.8,33.8-0.4,32.5c-0.1-0.1-0.2-0.2-0.2-0.2c0-0.4,0-0.9,0-1.3h0.1
				l4.7,4.6l1.5-1.5c-0.5-0.4-0.9-0.9-1.4-1.3L-0.4,28c-0.1-0.1-0.1-0.2-0.1-0.3c0-0.4,0-0.7,0-1c0-0.1,0.1-0.2,0.1-0.3
				C0,26,0.4,25.5,0.9,25.1C0.9,25.1,1,25,1.1,24.9l-1.5-1.6c0,0-0.1-0.1-0.1-0.2c0-0.4,0-0.9,0-1.4l2.3,2.3l1.7-1.6l-0.2-0.2
				l-3.7-3.6c0,0-0.1-0.1-0.1-0.1c0-0.4,0-0.9,0-1.4l4.7,4.7l1.6-1.5c-0.3-0.2-0.5-0.5-0.8-0.7l-1.9-1.8c-1-1-2-2.1-3.1-3
				c-0.4-0.4-0.6-0.9-0.6-1.5c0-0.4,0.1-0.7,0.4-1c0.4-0.4,0.8-0.8,1.3-1.2c-0.4-0.4-0.8-0.8-1.2-1.1c-0.4-0.3-0.6-0.7-0.5-1.2
				c0-0.2,0-0.4,0-0.6h0.1l2.3,2.2l1.7-1.6C3.3,8.5,3.2,8.4,3.1,8.3l-3.5-3.5c-0.1-0.1-0.1-0.1-0.1-0.2c0-0.4,0-0.9,0-1.3l4.6,4.7
				l1.6-1.5L5.6,6.3C4.8,5.4,3.9,4.6,3.1,3.7C1.9,2.6,0.7,1.4-0.5,0.2c0,0-0.1-0.1-0.1-0.1c0-0.2,0-0.4,0-0.6c0.1,0,0.3,0,0.5,0
				c0.2,0,0.3,0.1,0.4,0.2C0.7,0,1.1,0.3,1.4,0.7C1.5,0.8,1.6,0.9,1.7,1l1.4-1.4c0.1,0,0.1-0.1,0.2-0.1c0.4,0,0.9,0,1.4,0L2.4,1.7
				L4,3.3L6.4,1l2.3,2.3l1.7-1.6L8.2-0.6c0.4,0,0.8,0,1.2,0c0.1,0,0.2,0.1,0.3,0.1C10.2,0,10.6,0.5,11.1,1L12,0
				c0.2-0.2,0.4-0.5,0.6-0.6s0.6,0,0.9,0c0.3,0,0.7,0.1,0.9,0.4c0.4,0.4,0.7,0.8,1.1,1.2c0.4-0.4,0.8-0.7,1.1-1.1
				c0.2-0.3,0.6-0.5,1-0.4c0.3,0,0.5,0,0.8,0v0.1l-2.2,2.2L18,3.3L20.3,1l2.3,2.3l1.7-1.7l-2.2-2.2h1.3c0.1,0,0.1,0,0.1,0.1l0.9,0.9
				C24.6,0.6,24.8,0.8,25,1l1.4-1.4c0.1-0.1,0.2-0.1,0.3-0.1c0.3,0,0.5,0,0.8,0c0.3,0,0.5,0.1,0.7,0.3C28.6,0.2,29,0.6,29.4,1
				l1.4-1.4c0,0,0.1-0.1,0.2-0.1c0.4,0,0.9,0,1.4,0l-2.2,2.2l1.6,1.7L34.2,1l2.3,2.3l1.6-1.6l-2.2-2.3c0.3,0,0.7,0,0.9,0
				c0.3,0,0.6,0.1,0.8,0.4c0.4,0.4,0.8,0.8,1.2,1.2c0.4-0.4,0.8-0.8,1.1-1.2c0.2-0.3,0.5-0.4,0.9-0.4c0.1,0,0.2,0,0.4,0
				c0.4-0.1,0.8,0.1,1,0.4C42.6,0.3,43,0.6,43.3,1c0.4-0.4,0.8-0.8,1.2-1.2c0.2-0.3,0.5-0.4,0.8-0.4c0.2,0,0.5,0,0.7,0h0.2v0.1
				l-2.2,2.2l1.6,1.6L48,1l2.3,2.3L52,1.6l-2.2-2.2c0.4,0,0.8,0,1.2,0c0.1,0,0.2,0.1,0.3,0.1c0.5,0.4,0.9,0.8,1.3,1.3L52.8,1
				c0.4-0.3,0.7-0.6,1-1c0.3-0.4,0.7-0.6,1.2-0.5v0.6c0,0-0.1,0.1-0.1,0.1l-4.5,4.4l-1.6,1.6l1.5,1.6c0.4-0.4,0.8-0.8,1.2-1.2
				c1-1,2-2,3-3c0.2-0.2,0.3-0.3,0.5-0.4v1.4c-0.1,0-0.1,0.1-0.2,0.2L52,7.6l-1,1l1.6,1.6l0.1-0.1l1.8-1.7L55,7.9z M54.2,41
				l-6.2-6.2l-6.2,6.2l1.5,1.5l4.7-4.7l4.7,4.7L54.2,41z M20.2,10.1l4.7,4.7l1.5-1.5l-6.1-6.2l-6.2,6.2l1.5,1.5L20.2,10.1z
				 M19.5,6.4l-6.1-6.2L7.2,6.4l1.5,1.6l4.7-4.7l4.7,4.7L19.5,6.4z M41.1,41.8L34.9,48l1.5,1.5l4.7-4.7l4.7,4.7l1.5-1.5L41.1,41.8z
				 M47.3,6.4l-6.2-6.2l-6.2,6.2l1.5,1.6l4.7-4.7l4.7,4.7L47.3,6.4z M33.4,6.4l-6.2-6.2L21,6.4l1.5,1.5l4.7-4.7l4.7,4.7L33.4,6.4z
				 M22.6,21.8l4.7-4.7l4.7,4.7l1.5-1.5l-6.2-6.2L21,20.3L22.6,21.8z M13.3,17.1l4.7,4.7l1.5-1.5l-6.2-6.2l-6.2,6.2l1.5,1.5
				L13.3,17.1z M41.1,28l-6.2,6.2l1.5,1.6l4.7-4.7l4.7,4.6l1.5-1.5L41.1,28z M48.1,7.2l-6.3,6.1l1.5,1.5l4.7-4.7l4.7,4.7l1.5-1.5
				L48.1,7.2z M34.2,21L28,27.2l1.5,1.5l4.7-4.7l4.6,4.7l1.5-1.5L34.2,21z M6.4,7.1l-6.2,6.2l1.5,1.5l4.7-4.7l4.7,4.7l1.5-1.5
				L6.4,7.1z M40.4,13.3l-6.2-6.2L28,13.3l1.5,1.5l4.7-4.7l4.7,4.7L40.4,13.3z M26.4,27.2L20.3,21l-6.2,6.2l1.5,1.5l4.7-4.7l4.7,4.7
				L26.4,27.2z M41.8,27.2l1.5,1.5L48,24l4.7,4.7l1.5-1.5L48,21L41.8,27.2z M47.3,20.3L41,14l-6.2,6.3l1.5,1.5l4.7-4.8l4.7,4.7
				L47.3,20.3z M6.4,21l-6.2,6.2l1.6,1.5L6.4,24l4.7,4.7l1.5-1.5L6.4,21z M38.8,42.6l1.5-1.5l-6.2-6.2L28,41.1l1.5,1.5l4.7-4.7
				L38.8,42.6z M22.5,35.7l4.7-4.7l4.6,4.7l1.5-1.4L27.2,28L21,34.2L22.5,35.7z M19.5,34.1l-6.2-6.2l-6.2,6.2l1.5,1.6l4.7-4.7
				l4.7,4.7L19.5,34.1z M1.7,42.6l4.7-4.7l4.7,4.7l1.5-1.5l-6.2-6.2l-6.2,6.2L1.7,42.6z M13.4,44.8l4.7,4.7l1.5-1.5l-6.2-6.2L7.1,48
				l1.5,1.5L13.4,44.8z M31.9,49.5l1.5-1.5l-6.2-6.2L21,48l1.6,1.5l4.7-4.7L31.9,49.5z M20.3,37.9l4.7,4.7l1.5-1.5l-6.2-6.2
				l-6.2,6.2l1.5,1.5L20.3,37.9z M31.2,50.3l-3.9-4l-3.9,3.9l1.6,1.6l2.3-2.3l2.3,2.3L31.2,50.3z M6.4,14.8l2.4,2.3l1.6-1.6l-4-4
				l-4,4l1.6,1.6L6.4,14.8z M27.2,7.9l2.3,2.3l1.6-1.6l-3.9-3.9l-4,3.9l1.6,1.6L27.2,7.9z M52,29.4l-3.9-4l-4,3.9l1.7,1.6l2.3-2.3
				l2.3,2.3L52,29.4z M13.4,4.7L9.4,8.6l1.6,1.7l2.3-2.4l2.3,2.4l1.6-1.7L13.4,4.7z M38.8,10.3l2.3-2.4l2.3,2.4L45,8.6l-3.9-3.9
				l-4,3.9L38.8,10.3z M24.2,29.4l-3.9-4l-4,4l1.6,1.6l2.4-2.4l2.4,2.3L24.2,29.4z M38.1,15.6l-4-4l-3.9,3.9l1.6,1.7l2.4-2.4
				l2.3,2.4L38.1,15.6z M24.9,24.1l2.3-2.4l2.3,2.3l1.6-1.6l-3.9-3.9l-4,4L24.9,24.1z M15.6,24.1l1.6-1.6l-4-4l-3.9,4l1.6,1.7
				l2.3-2.4L15.6,24.1z M17.9,17.2l2.4-2.4l2.3,2.4l1.6-1.6l-3.9-4l-4,4L17.9,17.2z M17.3,36.4l-3.9-3.9l-3.9,3.9L11,38l2.4-2.4
				l2.3,2.3L17.3,36.4z M6.4,39.4l-3.9,3.9L4.1,45l2.3-2.4L8.7,45l1.6-1.6L6.4,39.4z M4.1,31.1l2.4-2.4L8.7,31l1.6-1.6l-4-4l-3.9,4
				L4.1,31.1z M31.8,45l2.3-2.4l2.3,2.3l1.7-1.6l-4-4l-4,4L31.8,45z M45,36.4l-3.9-3.9l-4,3.9l1.7,1.6l2.3-2.4l2.3,2.4L45,36.4z
				 M37.1,22.5l1.7,1.7l2.3-2.4l2.3,2.4l1.6-1.6l-4-4L37.1,22.5z M45,50.3l-4-4l-3.9,4l1.7,1.7l2.3-2.4l2.3,2.3L45,50.3z M50.4,17.2
				l1.6-1.6l-3.9-4l-4,4l1.6,1.6l2.3-2.4L50.4,17.2z M27.2,32.4l-4,3.9l1.7,1.6l2.4-2.4l2.3,2.4l1.6-1.6L27.2,32.4z M20.3,39.3l-4,4
				l1.6,1.7l2.4-2.4l2.4,2.4l1.6-1.6L20.3,39.3z M31.8,31.1l2.3-2.3l2.3,2.2l1.6-1.6l-3.9-3.9l-4,4L31.8,31.1z M48,39.3l-4,4
				l1.7,1.6l2.3-2.4l2.4,2.4l1.6-1.6L48,39.3z M11,51.9l2.3-2.4l2.3,2.3l1.6-1.6l-4-4l-3.9,4L11,51.9z M20.3,2.4L18.6,4l1.6,1.7
				L21.9,4L20.3,2.4z M35.8,4l-1.6-1.6L32.6,4l1.6,1.6L35.8,4z M18.6,17.9l1.6,1.6l1.6-1.6l-1.6-1.6L18.6,17.9z M13.4,23.2l-1.6,1.6
				l1.6,1.6l1.6-1.6L13.4,23.2z M27.2,12.6l1.6-1.6l-1.6-1.6L25.6,11L27.2,12.6z M32.5,17.9l1.6,1.6l1.7-1.6l-1.6-1.6L32.5,17.9z
				 M6.4,19.5L8,17.9l-1.7-1.6l-1.6,1.6L6.4,19.5z M18.6,31.8l1.6,1.6l1.6-1.6l-1.6-1.6L18.6,31.8z M48.1,16.3l-1.7,1.6l1.6,1.6
				l1.6-1.6L48.1,16.3z M27.2,40.3l1.6-1.6l-1.6-1.6l-1.6,1.6L27.2,40.3z M28.8,24.9l-1.6-1.6l-1.6,1.6l1.6,1.6L28.8,24.9z
				 M13.3,40.3l1.6-1.6l-1.6-1.6l-1.6,1.6L13.3,40.3z M20.3,47.3l1.6-1.6l-1.6-1.6l-1.6,1.6L20.3,47.3z M13.3,12.6L15,11l-1.6-1.6
				L11.7,11L13.3,12.6z M39.5,24.8l1.6,1.6l1.6-1.6l-1.6-1.6L39.5,24.8z M6.4,44l-1.6,1.6l1.6,1.6L8,45.7L6.4,44z M14.9,52.6
				L13.3,51l-1.6,1.6l1.6,1.6L14.9,52.6z M8,4L6.4,2.4L4.8,4l1.6,1.6L8,4z M42.7,52.6L41.1,51l-1.6,1.6l1.6,1.6L42.7,52.6z
				 M39.5,10.9l1.6,1.7l1.6-1.6l-1.6-1.6L39.5,10.9z M4.8,31.8l1.6,1.6L8,31.8l-1.6-1.6L4.8,31.8z M25.6,52.6l1.6,1.6l1.6-1.6
				L27.2,51L25.6,52.6z M34.1,30.2l-1.6,1.6l1.6,1.6l1.6-1.6L34.1,30.2z M35.8,45.7L34.1,44l-1.6,1.6l1.6,1.6L35.8,45.7z M48.1,2.4
				L46.4,4L48,5.6L49.6,4L48.1,2.4z M46.4,45.7l1.6,1.6l1.6-1.6L48,44L46.4,45.7z M48.1,30.2l-1.7,1.6l1.6,1.6l1.6-1.6L48.1,30.2z
				 M42.7,38.7l-1.6-1.6l-1.6,1.6l1.6,1.7L42.7,38.7z"/>
			<path class="st3" d="M3.3,55c0.1-0.1,0.1-0.2,0.2-0.2l2.8-2.9c0-0.1,0.1-0.1,0.2-0.2c0.2,0.2,0.3,0.4,0.5,0.6l2.5,2.5
				c0,0,0.1,0.1,0.1,0.1H8.1c0,0,0,0,0-0.1l-1.6-1.6l-0.2-0.1l-1.7,1.7l0,0L3.3,55z"/>
			<path class="st3" d="M17.1,55l3.2-3.2l0.5,0.5c0.8,0.8,1.6,1.6,2.4,2.4c0.1,0.1,0.1,0.2,0.2,0.3H22c0-0.1-0.1-0.1-0.1-0.2
				l-1.1-1.2c-0.2-0.2-0.3-0.3-0.5-0.5l-1.1,1.1c-0.2,0.2-0.4,0.5-0.6,0.7L17.1,55z"/>
			<path class="st3" d="M44.8,55l2.8-2.8l0.4-0.4l0.9,1l2,2c0.1,0.1,0.2,0.2,0.2,0.3h-1.4c-0.4-0.4-0.8-0.8-1.1-1.2l-0.6-0.6
				l-1.4,1.4c-0.1,0.1-0.2,0.3-0.3,0.4L44.8,55z"/>
			<path class="st3" d="M31,55c0.1-0.1,0.2-0.2,0.3-0.3l2.3-2.3c0.2-0.2,0.3-0.4,0.5-0.6l0.9,0.9l2.1,2.1c0.1,0.1,0.1,0.1,0.2,0.2
				h-1.4l-0.1-0.1l-1.5-1.6l-0.2-0.1c-0.6,0.6-1.1,1.1-1.7,1.7c0,0,0,0,0,0.1L31,55z"/>
		</g>
		<g class="st4">
			<path d="M55-0.6c-0.4-0.1-0.9,0.1-1.2,0.5c-0.3,0.4-0.6,0.7-1,1.1l-0.2-0.2c-0.4-0.4-0.8-0.8-1.3-1.3c-0.1-0.1-0.2-0.1-0.3-0.1
				c-0.4,0-0.8,0-1.2,0L52,1.6l-1.7,1.6L48,1l-2.3,2.3l-1.6-1.6l2.2-2.2v-0.1H46c-0.2,0-0.5,0-0.7,0c-0.3,0-0.6,0.1-0.8,0.4
				c-0.4,0.4-0.8,0.8-1.2,1.2c-0.4-0.4-0.8-0.7-1.1-1.1c-0.2-0.3-0.6-0.5-1-0.4c-0.1,0-0.2,0-0.4,0c-0.3,0-0.7,0.1-0.9,0.4
				c-0.4,0.4-0.8,0.8-1.1,1.2c-0.4-0.4-0.8-0.8-1.2-1.2c-0.2-0.3-0.5-0.4-0.8-0.4c-0.3,0-0.6,0-0.9,0l2.2,2.2l-1.7,1.6L34.2,1
				l-2.4,2.3l-1.6-1.7l2.2-2.2c-0.5,0-0.9,0-1.4,0c-0.1,0-0.1,0.1-0.2,0.1L29.4,1c-0.4-0.4-0.8-0.8-1.2-1.2
				c-0.2-0.2-0.4-0.3-0.7-0.3c-0.3,0-0.5,0-0.8,0c-0.1,0-0.2,0.1-0.3,0.1L25,1c-0.2-0.2-0.3-0.4-0.5-0.5l-0.9-0.9
				c0,0-0.1-0.1-0.1-0.1h-1.3l2.2,2.2l-1.7,1.7L20.3,1L18,3.3l-1.7-1.6l2.2-2.2v-0.1c-0.3,0-0.5,0-0.8,0c-0.4,0-0.8,0.1-1,0.4
				C16.4,0.3,16,0.6,15.6,1c-0.5-0.4-0.9-0.8-1.2-1.2c-0.2-0.3-0.6-0.4-0.9-0.4c-0.3,0-0.6-0.1-0.9,0S12.2-0.2,12,0l-0.9,1
				c-0.5-0.5-0.9-1-1.4-1.4C9.6-0.5,9.5-0.5,9.4-0.6c-0.4,0-0.8,0-1.2,0l2.2,2.2L8.7,3.3L6.4,1L4,3.3L2.4,1.7l2.2-2.2
				c-0.5,0-0.9,0-1.3,0c-0.1,0-0.1,0.1-0.2,0.1L1.7,1C1.6,0.9,1.5,0.8,1.4,0.7C1.1,0.3,0.7,0,0.4-0.4C0.3-0.5,0.1-0.6-0.1-0.6
				c-0.1,0-0.3,0-0.4,0c0,0.2,0,0.4,0,0.6c0,0.1,0,0.1,0.1,0.2c1.2,1.2,2.3,2.3,3.5,3.5c0.9,0.8,1.7,1.7,2.5,2.5l0.1,0.1L4.1,7.9
				l-4.7-4.7c0,0.5,0,0.9,0,1.3c0,0.1,0.1,0.2,0.1,0.2l3.5,3.5c0.1,0.1,0.2,0.2,0.3,0.3l-1.7,1.6l-2.3-2.3L-0.5,8c0,0.2,0,0.5,0,0.7
				c-0.1,0.4,0.1,0.9,0.5,1.1c0.4,0.4,0.8,0.8,1.2,1.1c-0.4,0.4-0.8,0.9-1.3,1.2c-0.3,0.3-0.4,0.6-0.4,1c0,0.6,0.2,1.1,0.6,1.5
				c1,1,2,2,3.1,3l1.8,1.8c0.3,0.3,0.5,0.5,0.8,0.7l-1.6,1.5l-4.7-4.7c0,0.5,0,1,0,1.4c0,0,0.1,0.1,0.1,0.1l3.7,3.6l0.2,0.2
				l-1.6,1.6l-2.3-2.3c0,0.5,0,1,0,1.4c0,0.1,0.1,0.1,0.1,0.2l1.5,1.6C1.1,25,0.9,25,0.9,25.1c-0.4,0.4-0.9,0.8-1.3,1.3
				c-0.1,0.1-0.1,0.2-0.1,0.3c0,0.4,0,0.7,0,1c0,0.1,0,0.2,0.1,0.3l4.7,4.7c0.4,0.4,0.9,0.9,1.4,1.3l-1.6,1.6L-0.5,31h-0.1
				c0,0.4,0,0.9,0,1.3c0,0.1,0.1,0.2,0.2,0.2c1.2,1.2,2.4,2.4,3.6,3.6l0.2,0.2L1.8,38l-2.3-2.3c0,0.1,0,0.1,0,0.2v0.4
				c-0.1,0.3-0.1,0.6,0,0.9c0.1,0.3,0.4,0.5,0.6,0.7s0.6,0.6,0.9,0.9v0.1l-0.8,0.8C0,39.7-0.2,40-0.5,40.3c-0.1,0.1-0.1,0.2-0.1,0.3
				c0,0.4,0,0.8,0,1.1c0,0.1,0,0.2,0.1,0.2c1.6,1.6,3.2,3.2,4.8,4.8L5.7,48l-1.5,1.5l-4.6-4.6h-0.1c0,0.4,0,0.9,0,1.3
				c0,0.1,0,0.1,0.1,0.2l3.3,3.2l0.7,0.7l-1.7,1.6l-2.3-2.3h-0.1c0,0.3,0,0.7,0,1c0,0.2,0.1,0.5,0.3,0.6c0.5,0.5,0.9,0.9,1.4,1.4
				c0,0-0.1,0.1-0.1,0.1c-0.4,0.5-0.9,0.9-1.3,1.3c-0.1,0.1-0.2,0.3-0.2,0.5c0,0.1,0,0.3,0,0.5l0,0V-0.6h55.3
				C54.9-0.6,54.9-0.6,55-0.6z"/>
			<path d="M27.9,55l1.4-1.4l4.6-4.6l0.3-0.2l1.1,1.1l5,5c0,0,0.1,0,0.1,0.1h-3c0-0.1-0.1-0.1-0.2-0.2L35,52.6l-0.9-0.9
				c-0.2,0.2-0.4,0.4-0.5,0.6l-2.3,2.3c-0.1,0.1-0.2,0.2-0.3,0.3L27.9,55z"/>
			<path d="M41.8,55l1-1l5-5.1l0.2-0.2l1.8,1.7l4.4,4.4c0,0,0.1,0,0.1,0.1h-3.1c-0.1-0.1-0.1-0.2-0.2-0.3l-2-2l-0.9-1l-0.4,0.4
				L44.8,55H41.8z"/>
			<path d="M14.1,55c0.5-0.5,1.1-1.1,1.6-1.7l3.2-3.2l1.4-1.4l1.8,1.9l3.1,3.1l1.2,1.3h-3.1c-0.1-0.1-0.1-0.2-0.2-0.3
				c-0.8-0.8-1.6-1.6-2.4-2.4l-0.5-0.5L17.1,55H14.1z"/>
			<path d="M0.2,55c0.5-0.5,1-1.1,1.5-1.6l2.7-2.7l2-2c0.2,0.2,0.3,0.3,0.4,0.5l5.6,5.6l0.2,0.3H9.5c0-0.1-0.1-0.1-0.1-0.1l-2.5-2.6
				c-0.2-0.2-0.3-0.4-0.5-0.6c-0.1,0-0.1,0.1-0.2,0.2l-2.9,2.8c-0.1,0.1-0.1,0.2-0.2,0.2L0.2,55z"/>
			<path d="M55,31c-0.2,0.2-0.3,0.3-0.5,0.5l-3,3l-1,1l-0.2,0.2l-1.6-1.6c0.2-0.1,0.4-0.3,0.5-0.5l5.6-5.5l0.2-0.2L55,31z"/>
			<path d="M55,17.1l-0.2,0.2c-1.5,1.5-2.9,2.9-4.4,4.4l-0.1,0.1l-1.6-1.5l1.4-1.4l4.3-4.3L55,14V17.1z"/>
			<path d="M55,3.2c-0.2,0.1-0.3,0.3-0.5,0.4c-1,1-2,2-3,3c-0.4,0.4-0.8,0.8-1.2,1.2l-1.5-1.6l1.7-1.6l4.4-4.4c0,0,0.1-0.1,0.1-0.1
				V3.2z"/>
			<path d="M55,44.8l-2.8,2.8l-1.9,1.9L48.7,48c0.2-0.1,0.3-0.3,0.4-0.4l5.3-5.3l0.5-0.4V44.8z"/>
			<path d="M55,49.6c-0.2,0.2-0.4,0.3-0.5,0.5l-1.7,1.7c0,0-0.1,0.1-0.1,0.1L51,50.2l0.5-0.5l3.4-3.4l0.1-0.1L55,49.6z"/>
			<path d="M55,21.8l-0.5,0.5c-0.6,0.6-1.2,1.2-1.8,1.8l0,0L51,22.4c0.3-0.2,0.5-0.5,0.8-0.7l3-3.1l0.2-0.1L55,21.8z"/>
			<path d="M55,7.9l-0.5,0.5l-1.7,1.7l-0.1,0.1L51,8.6l1-1l2.8-2.8c0.1-0.1,0.1-0.1,0.2-0.2L55,7.9z"/>
			<path d="M55,35.7c-0.1,0-0.1,0.1-0.2,0.2l-2,2c-0.1,0-0.1,0.1-0.1,0.1L51,36.3l0.3-0.3l3.5-3.5l0.1-0.1L55,35.7z"/>
			<path d="M46.3,55c0.1-0.1,0.2-0.3,0.3-0.4l1.4-1.4l0.6,0.6c0.4,0.4,0.8,0.8,1.1,1.2H46.3z"/>
			<path d="M32.4,55C32.4,55,32.4,54.9,32.4,55c0.5-0.6,1.1-1.2,1.7-1.8l0.2,0.1l1.5,1.5l0,0.1L32.4,55z"/>
			<path d="M18.5,55c0.2-0.2,0.4-0.5,0.6-0.7l1.1-1.1c0.2,0.2,0.3,0.4,0.5,0.5l1.1,1.1c0.1,0,0.1,0.1,0.1,0.2H18.5z"/>
			<path d="M4.7,55L4.7,55l1.7-1.7l0.2,0.1l1.6,1.5c0,0,0,0,0,0.1L4.7,55z"/>
			<path d="M55,54.2l-1.6-1.7c0.1-0.1,0.2-0.1,0.2-0.2l1.2-1.2L55,51L55,54.2z"/>
			<path d="M55,26.5l-1.6-1.7l0.6-0.6l1-1V26.5z"/>
			<path d="M55,40.3l-1.6-1.7l0.5-0.4l1.1-1.1V40.3z"/>
			<path d="M55,12.6l-1.6-1.7l1.2-1.2L55,9.3V12.6z"/>
			<path d="M54.3,41.1l-1.5,1.5l-4.7-4.7l-4.7,4.7l-1.5-1.5l6.2-6.2L54.3,41.1z"/>
			<path d="M20.3,10.1l-4.7,4.7l-1.5-1.5l6.2-6.2l6.2,6.2L25,14.8L20.3,10.1z"/>
			<path d="M19.5,6.4l-1.5,1.5l-4.7-4.7L8.7,7.9L7.2,6.4l6.2-6.2L19.5,6.4z"/>
			<path d="M41.1,41.8l6.2,6.2l-1.5,1.5l-4.7-4.7l-4.7,4.7L34.9,48L41.1,41.8z"/>
			<path d="M47.3,6.4l-1.5,1.5l-4.7-4.7l-4.7,4.7l-1.5-1.6l6.2-6.2L47.3,6.4z"/>
			<path d="M33.4,6.4l-1.5,1.5l-4.7-4.7l-4.7,4.7L21,6.4l6.2-6.2L33.4,6.4z"/>
			<path d="M22.6,21.8L21,20.3l6.2-6.2l6.2,6.2l-1.5,1.5l-4.7-4.7L22.6,21.8z"/>
			<path d="M13.3,17l-4.7,4.7l-1.5-1.5l6.2-6.2l6.2,6.2L18,21.7L13.3,17z"/>
			<path d="M41.1,28l6.2,6.2l-1.5,1.5L41.1,31l-4.7,4.7l-1.5-1.6L41.1,28z"/>
			<path d="M48,7.1l6.2,6.2l-1.5,1.5L48,10.1l-4.7,4.7l-1.6-1.5L48,7.1z"/>
			<path d="M34.2,21l6.2,6.2l-1.6,1.5L34.2,24l-4.7,4.7L28,27.1L34.2,21z"/>
			<path d="M6.4,7.1l6.2,6.2l-1.5,1.5l-4.7-4.7l-4.7,4.7l-1.5-1.5L6.4,7.1z"/>
			<path d="M40.4,13.3l-1.5,1.5l-4.7-4.7l-4.7,4.7L28,13.3l6.2-6.2L40.4,13.3z"/>
			<path d="M26.4,27.2L25,28.7L20.3,24l-4.7,4.7l-1.5-1.5l6.2-6.2L26.4,27.2z"/>
			<path d="M41.8,27.2L48,21l6.2,6.2l-1.5,1.5L48,24l-4.7,4.7L41.8,27.2z"/>
			<path d="M47.3,20.3l-1.5,1.5l-4.7-4.7l-4.7,4.8l-1.5-1.5l6.2-6.3L47.3,20.3z"/>
			<path d="M6.4,21l6.2,6.2l-1.5,1.5L6.4,24l-4.6,4.7l-1.6-1.5L6.4,21z"/>
			<path d="M38.8,42.6l-4.7-4.7l-4.7,4.7L28,41.1l6.2-6.2l6.2,6.2L38.8,42.6z"/>
			<path d="M22.5,35.7L21,34.2l6.2-6.2l6.2,6.2l-1.5,1.4l-4.6-4.7L22.5,35.7z"/>
			<path d="M19.5,34.1l-1.5,1.5L13.3,31l-4.7,4.7l-1.5-1.6l6.2-6.2L19.5,34.1z"/>
			<path d="M1.7,42.6l-1.5-1.5l6.2-6.2l6.2,6.2l-1.5,1.5l-4.6-4.7L1.7,42.6z"/>
			<path d="M13.4,44.8l-4.7,4.7L7.1,48l6.2-6.2l6.2,6.2L18,49.5L13.4,44.8z"/>
			<path d="M31.9,49.5l-4.6-4.7l-4.7,4.7L21,48l6.2-6.2l6.2,6.2L31.9,49.5z"/>
			<path d="M20.3,37.9l-4.7,4.7l-1.5-1.5l6.2-6.2l6.2,6.2L25,42.6L20.3,37.9z"/>
			<path d="M31.2,50.3l-1.6,1.6l-2.3-2.3l-2.3,2.3l-1.6-1.6l3.9-3.9L31.2,50.3z"/>
			<path d="M6.4,14.8l-2.4,2.4l-1.6-1.6l4-4l4,4l-1.6,1.6L6.4,14.8z"/>
			<path d="M27.2,7.9l-2.4,2.4l-1.6-1.6l4-3.9l3.9,3.9l-1.6,1.6L27.2,7.9z"/>
			<path d="M52,29.4l-1.6,1.6L48,28.7l-2.3,2.3l-1.7-1.6l4-3.9L52,29.4z"/>
			<path d="M13.4,4.7l3.9,3.9l-1.6,1.7l-2.3-2.4L11,10.3L9.4,8.6L13.4,4.7z"/>
			<path d="M38.8,10.3l-1.7-1.7l4-3.9L45,8.6l-1.6,1.7l-2.3-2.4L38.8,10.3z"/>
			<path d="M24.2,29.4L22.6,31l-2.3-2.3L17.9,31l-1.6-1.6l4-4L24.2,29.4z"/>
			<path d="M38.1,15.6l-1.6,1.6l-2.3-2.4l-2.4,2.4l-1.6-1.7l3.9-3.9L38.1,15.6z"/>
			<path d="M24.9,24.1l-1.6-1.6l4-4l3.9,3.9L29.6,24l-2.3-2.2L24.9,24.1z"/>
			<path d="M15.6,24.1l-2.3-2.4L11,24.1l-1.6-1.7l3.9-4l4,4L15.6,24.1z"/>
			<path d="M17.9,17.2l-1.6-1.6l4-4l3.9,4l-1.6,1.6l-2.3-2.4L17.9,17.2z"/>
			<path d="M17.3,36.4L15.7,38l-2.3-2.4L11,38l-1.6-1.7l3.9-3.9L17.3,36.4z"/>
			<path d="M6.4,39.3l4,4l-1.6,1.6l-2.3-2.3L4.1,45l-1.6-1.7L6.4,39.3z"/>
			<path d="M4.1,31.1l-1.6-1.6l3.9-3.9l4,4L8.7,31l-2.3-2.3L4.1,31.1z"/>
			<path d="M31.8,45l-1.6-1.7l3.9-4l4,4l-1.7,1.6l-2.3-2.3L31.8,45z"/>
			<path d="M45,36.3L43.5,38l-2.3-2.4L38.8,38l-1.6-1.7l4-3.9L45,36.3z"/>
			<path d="M37.1,22.5l3.9-3.9l4,4l-1.6,1.6l-2.3-2.4l-2.3,2.4L37.1,22.5z"/>
			<path d="M45,50.3l-1.6,1.6l-2.3-2.3l-2.3,2.4l-1.7-1.7l3.9-4L45,50.3z"/>
			<path d="M50.4,17.2L48,14.8l-2.3,2.4L44,15.6l4-4l3.9,4L50.4,17.2z"/>
			<path d="M27.2,32.4l3.9,3.9L29.5,38l-2.3-2.3L24.9,38l-1.6-1.7L27.2,32.4z"/>
			<path d="M20.3,39.3l4,4L22.7,45l-2.4-2.4L17.9,45l-1.6-1.7L20.3,39.3z"/>
			<path d="M31.8,31.1l-1.6-1.7l4-4l3.9,3.9L36.5,31l-2.3-2.2L31.8,31.1z"/>
			<path d="M48,39.3l4,4L50.4,45L48,42.6L45.7,45L44,43.4L48,39.3z"/>
			<path d="M11,51.9l-1.7-1.7l3.9-4l4,4l-1.6,1.6l-2.3-2.3L11,51.9z"/>
		</g>
		<g class="st5">
			<path d="M20.3,2.4L21.9,4l-1.6,1.6L18.6,4L20.3,2.4z"/>
			<path d="M35.8,4l-1.6,1.7L32.6,4l1.6-1.6L35.8,4z"/>
			<path d="M18.6,17.9l1.7-1.6l1.6,1.6l-1.6,1.6L18.6,17.9z"/>
			<path d="M13.4,23.2l1.6,1.6l-1.6,1.6l-1.6-1.6L13.4,23.2z"/>
			<path d="M27.2,12.6L25.6,11l1.6-1.6l1.6,1.6L27.2,12.6z"/>
			<path d="M32.5,17.9l1.6-1.7l1.7,1.6l-1.7,1.6L32.5,17.9z"/>
			<path d="M6.4,19.5l-1.6-1.6l1.6-1.6l1.7,1.6L6.4,19.5z"/>
			<path d="M18.6,31.8l1.7-1.6l1.6,1.6l-1.6,1.6L18.6,31.8z"/>
			<path d="M48.1,16.3l1.6,1.6L48,19.5l-1.6-1.6L48.1,16.3z"/>
			<path d="M27.2,40.3l-1.6-1.6l1.6-1.6l1.6,1.6L27.2,40.3z"/>
			<path d="M28.8,24.9l-1.6,1.5l-1.6-1.6l1.6-1.6L28.8,24.9z"/>
			<path d="M13.3,40.3l-1.6-1.6l1.6-1.6l1.6,1.6L13.3,40.3z"/>
			<path d="M20.3,47.3l-1.6-1.6l1.6-1.6l1.6,1.6L20.3,47.3z"/>
			<path d="M13.3,12.6L11.7,11l1.6-1.6L15,11L13.3,12.6z"/>
			<path d="M39.5,24.8l1.6-1.6l1.6,1.6l-1.6,1.6L39.5,24.8z"/>
			<path d="M6.4,44L8,45.7l-1.6,1.6l-1.6-1.6L6.4,44z"/>
			<path d="M14.9,52.6l-1.6,1.6l-1.6-1.6l1.6-1.6L14.9,52.6z"/>
			<path d="M8,4L6.4,5.6L4.8,4l1.6-1.5L8,4z"/>
			<path d="M42.7,52.6l-1.6,1.6l-1.6-1.6l1.6-1.6L42.7,52.6z"/>
			<path d="M39.5,10.9l1.6-1.6l1.6,1.6l-1.6,1.6L39.5,10.9z"/>
			<path d="M4.8,31.8l1.6-1.6L8,31.8l-1.6,1.6L4.8,31.8z"/>
			<path d="M25.6,52.6l1.6-1.6l1.6,1.6l-1.6,1.6L25.6,52.6z"/>
			<path d="M34.1,30.2l1.7,1.6l-1.6,1.6l-1.6-1.6L34.1,30.2z"/>
			<path d="M35.8,45.7l-1.6,1.6l-1.6-1.6l1.5-1.7L35.8,45.7z"/>
			<path d="M48.1,2.4L49.6,4L48,5.6L46.4,4L48.1,2.4z"/>
			<path d="M46.4,45.7L48,44l1.6,1.6L48,47.2L46.4,45.7z"/>
			<path d="M48.1,30.2l1.6,1.6L48,33.4l-1.6-1.6L48.1,30.2z"/>
			<path d="M42.7,38.7l-1.6,1.6l-1.6-1.7l1.6-1.6L42.7,38.7z"/>
		</g>
	</g>
</g>
</svg>
