<?xml version="1.0" encoding="utf-8"?>
<!-- Generator: Adobe Illustrator 22.1.0, SVG Export Plug-In . SVG Version: 6.00 Build 0)  -->
<svg version="1.1" id="Calque_1" xmlns="http://www.w3.org/2000/svg" xmlns:xlink="http://www.w3.org/1999/xlink" x="0px" y="0px"
	 viewBox="0 0 55 55" style="enable-background:new 0 0 55 55;" xml:space="preserve">
<style type="text/css">
	.st0{clip-path:url(#SVGID_2_);}
	.st1{fill:#030303;}
	.st2{opacity:0.1;}
	.st3{opacity:0.2;}
	.st4{opacity:0.5;}
</style>
<title>fond_theme_generique</title>
<g>
	<defs>
		<circle id="SVGID_1_" cx="27.5" cy="27.5" r="27.5"/>
	</defs>
	<clipPath id="SVGID_2_">
		<use xlink:href="#SVGID_1_"  style="overflow:visible;"/>
	</clipPath>
	<g class="st0">
		<path class="st1" d="M15.9,0l-1.5,1.4c-0.8,0.8-1.5,1.5-2.3,2.3c-0.6,0.6-1.2,1.2-1.8,1.8h-0.1c0.1-0.2,0.3-0.4,0.5-0.5
			c0.7-0.7,1.4-1.4,2.1-2.1s1.4-1.5,2.2-2.2c0.2-0.2,0.5-0.4,0.6-0.6c0,0,0.2-0.1,0.1-0.1s-0.1,0-0.1,0c-0.3,0-0.7,0-1,0
			c-0.7,0-1.4,0-2.1,0h-8c0-0.1-0.1-0.1-0.2-0.1L4.2-0.3c0.1,0,0.3-0.1,0.3,0.1s0.1,0,0.1,0C4.7-0.3,4.9-0.3,5-0.3h10.7
			C16.1-0.4,16.1-0.5,15.9,0z"/>
		<g class="st2">
			<path d="M10.2,40c0-0.1,0-0.1,0.1-0.2c1.1-1,2.1-2,3.1-3.1l2.3-2.3c0.1-0.1,0.1-0.1,0.1-0.2c0-0.1,0.3-0.1,0.1-0.3
				c0-0.3,0-0.7,0-1c0-0.5,0-1.1,0-1.6s0-1.4,0-2c0-0.9,0-1.7,0-2.5s0-1.7,0-2.5c0-0.4,0-0.7,0-1.1c0,0,0-0.1,0.1-0.1s0.1,0,0.1,0.1
				c-0.1,0.5,0,1,0,1.4s0,1,0,1.5c0,1,0,2,0,2.9c0,0.8,0,1.6,0,2.3s0,1.5,0,2.2c0,0.2-0.1,0.3,0,0.5c0.1,0.2,0.1,0.2,0.2,0.2
				c1,0,2,0,3,0s2.2,0,3.3,0h4.7c0.1,0,0.2,0,0.2,0.1l-2.1,2.1L22,39.8c-0.1,0.1-0.2,0.2-0.2,0.3c-0.1,0-0.1,0-0.1-0.1
				c-0.8-1-1.8-1.9-2.7-2.8c-0.9-0.9-1.7-1.7-2.6-2.6c-0.1-0.1-0.1-0.2-0.2-0.1s-0.1,0.2-0.1,0.2v10.9c-0.1,0.1,0,0.2,0.1,0.2
				c-0.1,0.1-0.1,0.2-0.1,0.3c0,0.4,0,0.8,0,1.1c0,0.8,0,1.6,0,2.4c0,1.7,0,3.4,0,5.1h-0.1c0-3-0.1-5.9,0-8.9c-0.1,0-0.1,0-0.1,0.1
				L15,46.8l-3.5,3.5c-0.4,0.4-0.7,0.8-1.1,1.1h-0.2c-0.3-0.3-0.6-0.6-0.9-0.9l-1.2-1.2l-1.7-1.6l-2-2c0.1-0.1,0.1,0,0.1,0
				s0.3,0,0.4,0h4.7c2,0,4.1,0,6.1,0c0.1,0,0.1,0.1,0.2,0c0-0.1,0-0.1-0.1-0.2l-1-1.1l-4.3-4.3C10.4,40,10.3,40,10.2,40z"/>
			<path d="M50.4,22.6c0,0.1-0.1,0.2-0.3,0.3c-1.8,1.8-3.6,3.6-5.3,5.4c-0.1,0.1-0.2,0.1-0.3,0l-4.4-4.4L39,22.8c0,0-0.1-0.1,0-0.2
				c0.1,0,0.2,0,0.3,0c0.7-0.1,1.4,0,2,0h6c0.5,0,1,0,1.5,0c0.4,0,0.7,0,1.1-0.1c0.1,0,0.2,0.1,0.2,0S50,22.4,50,22.4
				c-1-1-2-1.9-2.9-2.9c-0.8-0.8-1.5-1.6-2.4-2.3c-0.1,0-0.1-0.1-0.1-0.2c0.1,0,0.1-0.1,0.2-0.1l1.4-1.4c1.3-1.3,2.6-2.6,3.9-3.9
				c0.1-0.1,0.3-0.2,0.3-0.4c0-0.6,0-1.3,0-1.9l0,0c0-0.5,0-1,0-1.6c0-1.9,0-3.8,0-5.7c0-0.7,0-1.4,0-2h0.1c0.1,0.1,0.1,0.1,0.2,0.2
				l3,3c0.5,0.5,1,1,1.5,1.5v2.1l-0.5,0.5L53,8.8c-0.9,0.9-1.7,1.7-2.5,2.6c-0.1,0.1-0.1,0.2-0.1,0.3c0,0.5,0,1,0,1.4
				c0,0.8,0,1.5,0,2.3c0,1.1,0,2.2,0,3.4c0,0.8-0.1,1.6,0,2.4C50.4,21.6,50.4,22.1,50.4,22.6z"/>
			<path d="M21.7,17l-1.4,1.4l-4.1,4.1c-0.1,0.1-0.1,0.1-0.1,0.2c0,0.1-0.1,0.2-0.1,0.2c-0.1,0-0.1-0.1-0.1-0.1s-0.1-0.1-0.2-0.1
				H8.5c-1.2,0-2.4,0-3.6,0c-0.3,0-0.3,0.1-0.3,0.3c0,2.9,0,5.8,0,8.7v2.1c0,0.1,0,0.2,0,0.3v0.1l-0.1,0.1l-0.2-0.1
				c0-0.1-0.1-0.1-0.1-0.2l-3.5-3.5l-0.8-0.8c0-0.7,0-1.5,0-2.2c0-0.1,0.1-0.2,0.2-0.2L4.2,23c0.1-0.1,0.3-0.2,0.2-0.4
				c0.2-0.1,0.4-0.3,0.6-0.5c1.7-1.6,3.3-3.3,5-4.9c0.1-0.1,0.1-0.2,0-0.3L8,14.8c-0.7-0.6-1.3-1.3-2-1.9c-0.5-0.4-0.9-0.9-1.4-1.4
				c-0.1-0.1-0.1-0.2-0.2,0c-0.3,0.3-0.6,0.6-0.8,0.9L2,13.8L0.8,15c-0.3,0.3-0.6,0.6-0.9,0.9v-0.2c0.3-0.2,0.5-0.5,0.7-0.7
				c0.5-0.5,1-1,1.5-1.5c0.8-0.7,1.5-1.5,2.2-2.2c0.1-0.1,0.2-0.1,0.2-0.1c0,0,0,0,0,0h2.8c0.1,0.1,0.2,0.1,0.2,0H8
				c0,0.1,0.1,0.1,0.2,0c0,0,0,0,0,0h1.1c0,0,0.1,0.1,0.1,0h2.9c0.1,0.1,0.3,0.1,0.4,0h0.1c0,0,0.1,0.1,0.1,0h0.1
				c0.1,0.1,0.2,0.1,0.3,0h0.2c0.1,0.1,0.3,0.1,0.4,0h1.9l0,0c0,0.1-0.1,0.1-0.1,0.1l-2.2,2.2l-3.2,3.1c-0.1,0.1-0.2,0.2,0,0.3
				l1.9,1.9l3.5,3.6c0,0,0.1,0.1,0.2,0.1s0-0.1,0-0.2V11.3l2.6,2.6L21.7,17z"/>
			<path d="M27.5,24.8v-0.1c0-0.3,0-0.5,0-0.8c0-0.3,0-0.6,0-0.9c0-0.1-0.1-0.1-0.1,0s-0.1,0.1-0.2,0.2L24,26.3
				c-0.5,0.5-0.9,0.9-1.4,1.4c-0.1,0.1-0.2,0.1-0.3,0.1l0,0c0.1-0.3,0.4-0.4,0.6-0.6c0.6-0.7,1.3-1.3,1.9-1.9s1-1,1.6-1.6
				c0.3-0.3,0.6-0.6,0.9-0.9c0.1-0.1,0.1-0.1,0.2-0.1l4,4l1.6,1.6c0.1,0.1,0.1,0.1,0.2,0.1l0.3,0.3c0.3,0.3,0.6,0.6,0.9,0.9
				c0.8,0.9,1.7,1.7,2.5,2.5l1.4,1.4c0.2,0.2,0.3,0.4,0.5,0.4c0,0.1,0,0.2-0.1,0.2l-1-1c-0.7-0.7-1.5-1.4-2.2-2.2s-1.5-1.5-2.2-2.2
				c-0.1-0.1-0.2-0.1-0.4,0l-1,1l-2.4,2.4l-1.9,1.9h-0.1c-0.2,0-0.1-0.1-0.1-0.2c0-0.7,0-1.3,0-2c0-0.7,0-1.5,0-2.3
				c0-0.5,0-0.9,0-1.3c0-0.3,0-0.6,0-0.9v-0.1c0-0.2,0-0.4,0-0.6C27.5,26,27.5,25.4,27.5,24.8z"/>
			<path d="M33.3,39.9c0.1,0.2,0.2,0.2,0.3,0.3c0.4,0.4,0.8,0.8,1.2,1.2s1,0.9,1.4,1.4c0.4,0.5,1.1,1,1.6,1.6
				c0.4,0.4,0.8,0.8,1.1,1.1c0.1,0,0.1,0.1,0.1,0.1h-0.1c-0.4-0.4-0.8-0.9-1.2-1.3c-0.5-0.4-0.9-0.9-1.4-1.4
				c-0.8-0.7-1.5-1.5-2.2-2.2c-0.2-0.2-0.4-0.4-0.6-0.6s-0.2-0.2-0.4,0c-0.7,0.7-1.5,1.5-2.2,2.2l-3,3c-0.1,0.1-0.2,0.1-0.3,0.3
				h-0.1l0,0c0,0,0-0.1,0-0.1c0-2.2,0-4.3,0-6.5c0-1.6,0-3.2,0-4.7h0.1l3.2,3.2l2.3,2.3C33.2,39.8,33.2,39.9,33.3,39.9z"/>
			<path d="M17.7-0.1h3.2c1.6,0,3.2,0,4.7,0c0.5,0,1,0,1.5,0c0.1,0,0.1,0,0.2,0S27.2,0,27.2,0c-0.8,0.8-1.7,1.6-2.5,2.5
				s-1.9,1.9-2.8,2.8c-0.1,0.1-0.2,0.1-0.3,0c-0.6-0.6-1.3-1.2-1.9-1.9c-0.9-0.9-1.9-1.8-2.7-2.7L16.2,0c-0.1,0-0.1-0.1-0.1-0.2
				s0.1,0,0.1,0C16.7-0.1,17.2-0.1,17.7-0.1L17.7-0.1z"/>
			<path d="M33.3,5.6l1,1.1L36,8.4c0.4,0.4,0.8,0.8,1.3,1.2s1,1,1.5,1.4c0.1,0.1,0.1,0.1,0.1,0.2s-0.1,0-0.1-0.1l-1.6-1.6L33.5,6
				c-0.3-0.3-0.3-0.3-0.5,0c-0.9,0.9-1.8,1.7-2.6,2.6c-0.6,0.6-1.2,1.1-1.7,1.7c-0.4,0.3-0.7,0.6-1,1c-0.2,0-0.1-0.2-0.1-0.3
				c0-1,0-1.9,0-2.9v-8c0,0,0-0.1,0-0.2c0-0.5,0-0.4,0.4-0.4c0,0.1-0.1,0.1-0.1,0.2c-0.2,0.1-0.2,0.2,0,0.3l4.4,4.4l1,1
				C33.1,5.5,33.2,5.6,33.3,5.6z"/>
		</g>
		<g class="st3">
			<path d="M2.1,54.8c0-0.1-0.1-0.2-0.2-0.2l-1.7-1.7c-0.2-0.2-0.4-0.5-0.3-0.8c0-0.6,0-1.2,0-1.8c0.1,0,0.2-0.1,0.3-0.2
				c0.4-0.4,0.8-0.8,1.1-1.1s0.7-0.7,1-1c0,0,0.1-0.1,0-0.1c-0.1-0.1-0.1,0-0.1,0c-0.5,0.5-0.9,1-1.4,1.4c-0.3,0.3-0.6,0.6-0.9,0.9
				c0-0.1,0-0.2,0-0.3c0-3.6,0-7.2,0-10.7c0-0.2,0.1-0.4,0.2-0.5c1.1-1.1,2.2-2.2,3.3-3.3l1.2-1.2c0,0,0,0,0-0.1l0.1,0
				c0.1,0.1,0.2,0,0.3,0h7.8h0.5c0.3,0,0.6,0,0.9,0c0.6-0.1,1.1,0,1.6,0c0.1,0,0.1,0.1,0.1,0.1s-0.1,0.1-0.1,0.2l-2.3,2.3
				c-1,1-2,2.1-3.1,3.1c0,0-0.1,0.1-0.1,0.2c-0.3,0.4-0.6,0.7-0.9,1c-1.5,1.5-3,3-4.5,4.6c-0.1,0.1-0.2,0.1-0.2,0.2s-0.1,0-0.1,0
				l2,2L8,49.4l1.2,1.2c0.3,0.3,0.6,0.6,0.9,0.9c0,0.1,0,0.1-0.1,0.1c-0.8,0.8-1.7,1.7-2.5,2.5c-0.2,0.2-0.5,0.4-0.7,0.7L2.1,54.8z"
				/>
			<path d="M36.7,54.8H30c0-0.1,0.1-0.2,0.2-0.3l2.9-2.9c0.2-0.2,0.2-0.2,0-0.5l-1.5-1.5L27.9,46c-0.1-0.1-0.2-0.2-0.3-0.3
				c0-0.1,0.2-0.2,0.3-0.3l3-3c0.7-0.7,1.5-1.5,2.2-2.2c0.1-0.1,0.2-0.1,0.4,0s0.4,0.4,0.6,0.6c0.7,0.8,1.5,1.5,2.2,2.2
				c0.5,0.4,0.9,0.9,1.4,1.4c0.4,0.4,0.9,0.8,1.2,1.3c0,0.1-0.1,0.2-0.2,0.3c-1.3,1.3-2.7,2.7-4,4c-0.4,0.4-0.8,0.8-1.2,1.2
				c-0.1,0.1-0.1,0.2,0,0.4c0.3,0.3,0.6,0.6,0.9,0.9c0.6,0.6,1.3,1.2,1.9,1.8C36.4,54.4,36.6,54.6,36.7,54.8z"/>
			<path d="M16.1,54.8c0-1.7,0-3.4,0-5.1c0-0.8,0-1.6,0-2.4c0-0.4,0-0.8,0-1.1c0-0.1,0-0.2,0.1-0.3c0.1,0,0.1,0,0.1,0.1l1.4,1.4
				c0.6,0.6,1.2,1.2,1.8,1.8c0.4,0.3,0.8,0.7,1.1,1.1s0.7,0.6,1,1c0,0.1,0.1,0.1,0.2,0c0.4-0.3,0.7-0.7,1-1s0.7-0.7,1-1.1
				c0.7-0.7,1.4-1.4,2.1-2.1c0.4-0.4,0.8-0.9,1.3-1.3c0.1-0.1,0.1-0.1,0.1-0.2h0.1v9.1H16.1z"/>
			<path d="M50.4,22.6c0-0.5,0-1,0-1.6c-0.1-0.8,0-1.6,0-2.4c0-1.1,0-2.2,0-3.4c0-0.8,0-1.5,0-2.3c0-0.5,0-1,0-1.4
				c0-0.1,0-0.2,0.1-0.3c0.9-0.8,1.7-1.7,2.5-2.6l1.6-1.5l0.5-0.5v11.3c-0.3,0.2-0.5,0.4-0.7,0.6l-1.9,1.9c-0.6,0.6-1.2,1.2-1.8,1.8
				C50.6,22.5,50.5,22.6,50.4,22.6z"/>
			<path d="M50.5,34.2l-0.1-0.1c0.1-0.2,0-0.3,0-0.5c0-0.6,0-1.1,0-1.7c0-1.8,0-3.5,0-5.3c0-1.2,0-2.3,0-3.5c0-0.1,0-0.2,0.1-0.2
				s0.1,0.1,0.2,0.1l1.9,1.9l1.6,1.6c0.3,0.2,0.5,0.5,0.8,0.8c0,0,0.1,0,0.1,0.1v6.7c-0.5,0-1.1,0-1.6,0c-0.9,0-1.8,0-2.7,0
				C50.6,34.1,50.5,34.1,50.5,34.2z"/>
			<path d="M39,54.8c0-0.9,0-1.8,0-2.7s0-2.1,0-3.1s0-2.1,0-3.1c0,0,0-0.1,0.1-0.1c0.1,0,0.1,0,0.1,0.1l1.6,1.6l1.7,1.7l1.8,1.8
				c0.1,0.1,0.2,0.3,0.3,0.4c0.6,0.6,1.2,1.2,1.9,1.8c0.6,0.6,1.1,1,1.5,1.6L39,54.8z"/>
			<path d="M10.4,51.4c0.4-0.4,0.7-0.8,1.1-1.1l3.5-3.5l0.9-0.8c0,0,0.1-0.1,0.1-0.1c-0.1,3,0,5.9,0,8.9h-2.3c0-0.1-0.1-0.1-0.1-0.2
				l-2-1.9c-0.1-0.1-0.2-0.2-0.3-0.3C11,52.1,10.7,51.8,10.4,51.4z"/>
			<path d="M27.4,34.3c0-0.1-0.1-0.1-0.2-0.1c0.1-0.1,0.1-0.2,0-0.3c-0.7-0.6-1.3-1.2-1.9-1.9c-1.1-1.1-2.2-2.2-3.3-3.3
				c-0.1-0.1-0.2-0.1-0.3,0s-0.5,0.5-0.8,0.8l-4.4,4.4c-0.1,0.1-0.1,0.2-0.3,0.2c-0.1-0.2,0-0.3,0-0.5c0-0.7,0-1.4,0-2.2
				c0-0.7,0-1.5,0-2.3c0-1,0-2,0-2.9c0-0.5,0-1,0-1.5s-0.1-1,0-1.4c0,0,0-0.1-0.1-0.1S16,23.1,16,23.2c0,0.4,0,0.7,0,1.1
				c0,0.8,0,1.7,0,2.5s0,1.7,0,2.5c0,0.7,0,1.4,0,2s0,1.1,0,1.6c0,0.3,0,0.7,0,1c-0.1,0-0.2-0.1-0.3-0.2L12.8,31l-2.3-2.3
				c-0.1-0.1-0.2-0.1-0.4,0c-0.7,0.6-1.3,1.3-2,2c-1.1,1.1-2.2,2.2-3.3,3.3c-0.1,0.1-0.1,0.2-0.3,0.2c0-0.1,0-0.2,0-0.3v-2.1
				c0-2.9,0-5.8,0-8.7c0-0.2,0-0.3,0.3-0.3c1.2,0,2.4,0,3.6,0h7.2c0.1,0,0.1,0,0.2,0.1s0,0.2,0.1,0.1c0.1,0,0.2-0.1,0.1-0.2
				c0-0.1,0-0.2,0.1-0.2l4.1-4.1l1.4-1.4l0.9-0.9l4.5-4.5c0.1-0.1,0.2-0.2,0.3-0.3v11.3c-0.1,0-0.1,0.1-0.2,0.1
				c-0.3,0.3-0.6,0.6-0.9,0.9c-0.5,0.5-1,1-1.6,1.6s-1.3,1.3-1.9,1.9c-0.2,0.2-0.5,0.4-0.6,0.6c-0.3,0.1-0.3,0.4-0.6,0.5
				c0.2,0,0.5-0.2,0.6-0.5c0.1,0,0.2-0.1,0.3-0.1c0.5-0.5,0.9-0.9,1.4-1.4l3.2-3.3c0.1,0,0.1-0.1,0.2-0.2s0.1,0,0.1,0
				c0,0.3,0,0.6,0,0.9c-0.1,0.2-0.1,0.5,0,0.8v0.1c-0.1,0-0.1,0.1-0.1,0.1v2.2c0,0.1,0,0.1,0.1,0.1v0.1c-0.1,0.3,0,0.6-0.1,0.9
				c0,0,0.1,0,0.1,0c0,0.4,0,0.9,0,1.3c0,0.8,0,1.5,0,2.3s0,1.3,0,2c0,0.1,0,0.2,0.1,0.2v0.1L27.4,34.3L27.4,34.3z"/>
			<path d="M44.6,17c0,0.1,0,0.2,0.1,0.2c0.8,0.8,1.6,1.5,2.4,2.3c1,1,2,2,2.9,2.9c0,0,0.1,0.1,0.1,0.2s-0.1,0-0.2,0
				c-0.4,0.1-0.7,0.1-1.1,0.1c-0.5,0-1,0-1.5,0h-6c-0.7,0-1.4-0.1-2,0c-0.1,0-0.2,0-0.3,0c0-0.2,0-0.4,0-0.6c0-1.1,0-2.1,0-3.2
				c0-0.9,0-1.8,0-2.7s0-1.8,0-2.7c0-0.6,0-1.1,0-1.6c0-0.1,0-0.1,0-0.2s-0.1,0-0.2,0.1l-3,2.8c-0.8,0.8-1.6,1.6-2.4,2.4
				c-0.2,0.2-0.2,0.2,0,0.4l1.8,1.8c0.6,0.6,1.3,1.3,1.9,2s1,1,1.5,1.5c0,0,0.1,0.1,0.1,0.1c-0.1,0.2-0.3,0-0.5,0
				c-0.2,0-0.5,0-0.7,0c-0.9,0.1-1.9,0-2.8,0c-0.7,0-1.4,0-2.1,0s-1.5,0-2.3,0c-0.6,0-1.1,0-1.7,0H28c-0.1,0-0.1,0-0.2-0.1
				c0-0.1,0-0.1,0.1-0.2c0.4-0.4,0.7-0.8,1.1-1.2c1.3-1.3,2.7-2.6,4-4c0.3-0.3,0.3-0.3,0-0.6s-0.7-0.7-1.1-1
				c-0.5-0.6-1.1-1.1-1.6-1.6c-0.8-0.8-1.6-1.6-2.4-2.5c-0.1-0.1-0.2-0.1-0.1-0.3c0.3-0.4,0.6-0.7,1-1c0.6-0.6,1.1-1.1,1.7-1.7
				c0.9-0.9,1.8-1.7,2.6-2.6c0.2-0.2,0.3-0.2,0.5,0l3.7,3.7l1.6,1.6c0,0,0.1,0.1,0.1,0.1s0-0.1-0.1-0.2c-0.5-0.5-1-1-1.5-1.4
				s-0.8-0.8-1.3-1.2l-1.8-1.8l-1-1.1c0.1-0.2,0.2-0.3,0.3-0.4c0.5-0.5,1-1,1.5-1.5s0.9-0.9,1.3-1.3s1-1,1.6-1.5
				c0.2-0.3,0.5-0.5,0.7-0.8C38.8,0,39-0.1,39.1-0.1l2.3,2.3l3.2,3.2c0,0,0.1,0.1,0.2,0.1s0,0.1,0.1,0.2c0.7,0.6,1.3,1.3,2,2
				c0.4,0.4,0.9,0.9,1.3,1.3c0.6,0.7,1.3,1.3,1.9,2c0.1,0.1,0.2,0.1,0.1,0.2s-0.2,0.1-0.3,0.1H39.3c-0.1,0-0.3,0-0.3,0.1
				s0.1,0.1,0.2,0.2l3.2,3.2L44.6,17z"/>
			<path d="M50.2,45.5c-2.1,0.2-4.1,0-6.2,0.1c-1.5,0-3.1,0-4.6,0H39c0-0.1,0-0.1-0.1-0.1c-0.4-0.4-0.8-0.7-1.1-1.1
				c-0.5-0.6-1.1-1-1.6-1.6s-1-0.9-1.4-1.4s-0.8-0.8-1.2-1.2c-0.1-0.1-0.3-0.2-0.3-0.3c0.2-0.3,0.4-0.5,0.7-0.8c0.6-0.7,1.3-1.4,2-2
				l2.8-2.7c0.1-0.1,0.1-0.1,0.2-0.2l1.8,1.8l3.1,3.1c0.2,0.2,0.5,0.4,0.7,0.7c0.1,0.2,0.2,0.1,0.3,0l2.1-2.2c1-1,2.1-2,3.1-3.1
				c0.1-0.1,0.1-0.3,0.2-0.2c0.1,0.1,0,0.2,0,0.3c0.1,2.8,0,5.7,0,8.5c0,0.7,0,1.4,0,2.1l0,0c0,0.1,0.1,0.2,0,0.2
				c-0.1,0.1-0.1-0.1-0.2-0.2c-0.4-0.4-0.7-0.8-1.1-1.1c-1-1-2-2.1-3.1-3.1L44.9,40c0,0-0.1-0.1-0.1,0c-0.1,0.1,0.1,0.2,0.2,0.3
				c0.4,0.4,0.8,0.8,1.2,1.2l3.5,3.5L50.2,45.5z"/>
			<path d="M-0.2,15.9c0.4-0.3,0.7-0.6,1-0.9l1.3-1.2l1.5-1.5c0.3-0.3,0.6-0.6,0.8-0.9c0.1-0.1,0.2,0,0.2,0c0.5,0.4,0.9,0.9,1.4,1.4
				c0.7,0.6,1.3,1.3,2,1.9l2.1,2.1c0.1,0.1,0.2,0.1,0,0.3c-1.7,1.6-3.3,3.3-5,4.9c-0.2,0.2-0.4,0.4-0.6,0.5c-0.1,0-0.2,0-0.2-0.1
				c-0.6-0.6-1.3-1.3-1.9-1.9s-1-1-1.5-1.5c-0.3-0.3-0.6-0.6-0.9-0.9c0,0-0.1,0-0.1-0.1C-0.2,17.3-0.2,16.6-0.2,15.9z"/>
			<path d="M16,11.3L16,11.3h-0.1l0,0c-0.1-0.2-0.2-0.3-0.3-0.4l-2.5-2.5l-1.3-1.3c-0.4-0.4-0.8-0.8-1.3-1.2
				c-0.1-0.1-0.1-0.2-0.1-0.3c0.6-0.6,1.2-1.2,1.8-1.8C13,3,13.7,2.2,14.5,1.5L15.9,0C16,0.1,16,0.2,16,0.3V3c0,0.7,0,1.5,0,2.2
				C16,7.3,16,9.3,16,11.3z"/>
			<path d="M16.1,11.2c0.3-0.3,0.6-0.6,0.9-0.9c0.6-0.6,1.3-1.3,1.9-1.9s1.2-1.2,1.8-1.8c0.3-0.3,0.6-0.5,0.8-0.8s0.2-0.2,0.4,0
				c0.8,0.8,1.6,1.7,2.5,2.5c0.6,0.6,1.3,1.2,1.9,1.8c0.3,0.3,0.6,0.6,0.9,0.9c0.1,0.1,0.1,0.1,0.1,0.2s-0.1,0.1-0.2,0.1H16.5
				C16.4,11.3,16.3,11.3,16.1,11.2L16.1,11.2z"/>
			<path d="M38.9,34c-0.2-0.1-0.4-0.3-0.5-0.4L37,32.1c-0.8-0.8-1.7-1.6-2.5-2.5c-0.3-0.3-0.6-0.6-0.9-0.9l-0.3-0.3
				c0.2-0.3,0.5-0.5,0.7-0.8c1-1.1,2.1-2.2,3.2-3.3l1.1-1.1c0.2-0.1,0.3-0.2,0.4-0.4c0,0,0.1,0,0.1,0c0,0,0,0,0,0c0.1,0,0,0.1,0,0.1
				c-0.1,1.2,0,2.5,0,3.7c0,0.8,0,1.5,0,2.3c0,0.6,0,1.2,0,1.8c0,1,0,2,0,3C39,33.8,39,33.9,38.9,34z"/>
			<path d="M50.2,34.1c-0.1,0-0.2,0-0.3,0h-2c-1,0-2,0-3,0H43h-3.3c-0.1,0-0.3,0.1-0.4,0c0-0.2,0.2-0.3,0.4-0.5
				c0.6-0.6,1.2-1.2,1.8-1.8l2.6-2.6c0.2-0.2,0.4-0.4,0.6-0.5s0.1-0.1,0.2,0c0.2,0.2,0.4,0.4,0.6,0.6c0.4,0.4,0.7,0.7,1.1,1.1
				l3.6,3.6C50.2,33.9,50.2,34,50.2,34.1z"/>
			<path d="M27.7,34.1l1.9-1.9l2.4-2.4l1-1c0.1-0.1,0.2-0.1,0.4,0c0.7,0.7,1.5,1.4,2.2,2.2s1.5,1.4,2.2,2.1l1,1c-0.1,0-0.3,0-0.4,0
				H29c-0.4,0-0.8,0-1.2,0C27.8,34.1,27.8,34.1,27.7,34.1z"/>
			<path d="M-0.2,29.7l0.8,0.8L4.2,34c0.1,0,0.1,0.1,0.1,0.2c-0.1,0.1-0.3,0.1-0.4,0.1H0.1c-0.1,0-0.3,0-0.3-0.2
				C-0.2,32.6-0.2,31.2-0.2,29.7C-0.2,29.7-0.2,29.7-0.2,29.7z"/>
			<path d="M16.1,45.6V34.7c0-0.1,0-0.2,0.1-0.2s0.1,0.1,0.2,0.1c0.9,0.8,1.7,1.7,2.6,2.6s1.9,1.8,2.7,2.7c0,0.1,0.1,0.1,0.2,0.1
				l0.2,0.1l1.4,1.4l2,2c0.4,0.4,0.9,0.9,1.3,1.3c0.3,0.2,0.5,0.5,0.8,0.8h-0.6c-1,0-2,0-3,0c-0.8,0-1.5,0-2.3,0
				c-0.3,0-0.5,0.1-0.8,0c-0.4,0-0.9,0-1.3,0c-0.4,0-0.8,0-1.2,0s-0.9,0-1.4,0C16.6,45.7,16.3,45.7,16.1,45.6z"/>
		</g>
		<path class="st1" d="M50.3,9.3L50.3,9.3L50.3,9.3z"/>
		<path class="st1" d="M27.5,24.8c0,0.6,0,1.3,0,1.9c0,0.2,0,0.4,0,0.6c-0.1,0-0.1-0.1-0.1-0.1v-2.2C27.4,24.8,27.4,24.8,27.5,24.8z
			"/>
		<path class="st1" d="M22.3,27.9c-0.1,0.3-0.4,0.5-0.6,0.5C22,28.2,22.1,28,22.3,27.9L22.3,27.9z"/>
		<path class="st1" d="M27.5,27.4c0,0.3,0,0.6,0,0.9c0,0-0.1,0-0.1,0C27.5,28,27.3,27.6,27.5,27.4z"/>
		<path class="st1" d="M27.5,23.9c0,0.3,0,0.5,0,0.8C27.4,24.4,27.4,24.1,27.5,23.9z"/>
		<g class="st4">
			<path class="st1" d="M55,18.1v9.3c0,0-0.1,0-0.1-0.1c-0.2-0.3-0.5-0.5-0.8-0.8l-1.6-1.6L50.6,23c-0.1,0-0.1-0.1-0.2-0.1
				s-0.1,0.1-0.1,0.2c0,1.2,0,2.3,0,3.5c0,1.8,0,3.5,0,5.3c0,0.6,0,1.1,0,1.7c0,0.2,0.1,0.3,0,0.5L50.2,34c0-0.1,0-0.2-0.1-0.2
				l-3.6-3.5c-0.4-0.4-0.8-0.7-1.1-1.1c-0.2-0.2-0.4-0.4-0.6-0.6c-0.1-0.1-0.1-0.1-0.2,0s-0.4,0.3-0.6,0.5l-2.6,2.6
				c-0.6,0.6-1.2,1.2-1.8,1.8c-0.1,0.1-0.3,0.2-0.4,0.5c-0.1,0-0.2,0-0.2,0.2s-0.1,0.1-0.2,0.2L36.1,37c-0.7,0.7-1.4,1.3-2,2
				c-0.3,0.2-0.5,0.5-0.7,0.8c-0.1,0-0.2-0.1-0.3-0.2l-2.3-2.2l-3.2-3.2v-0.1h0.1c0.1,0,0.1,0,0.2,0c0.4,0,0.8,0,1.2,0h9.3
				c0.1,0,0.3,0,0.4,0c0.1,0,0.1-0.1,0.1-0.2c0-0.1,0.1-0.1,0.1-0.2c0-1,0-2,0-3c0-0.6,0-1.2,0-1.8c0-0.8,0-1.5,0-2.3
				c0-1.2-0.1-2.5,0-3.7c0,0,0-0.1,0-0.1c0,0-0.1,0-0.1,0c0,0,0,0,0,0c-0.1,0.2-0.3,0.3-0.4,0.4l-1.1,1.1c-1.1,1.1-2.2,2.1-3.2,3.3
				c-0.2,0.3-0.5,0.5-0.7,0.8c-0.1,0-0.2-0.1-0.2-0.1l-1.6-1.6l-4-4V11.4c-0.1,0.1-0.2,0.2-0.3,0.3l-4.5,4.5L21.8,17l-3.1-3.1
				l-2.6-2.6c0-2,0-4.1,0-6.1c0-0.7,0-1.5,0-2.2V0.3c0-0.1,0-0.2-0.1-0.3c0.2-0.4,0.2-0.4-0.2-0.4H5c-0.1,0-0.3,0-0.4,0.1
				c0,0-0.1,0.1-0.1,0S4.3-0.4,4.2-0.4H0c-0.1,0-0.2,0-0.2,0.1S0-0.2,0.1-0.2h1.1h3.2c0.1,0,0.1,0,0.2,0.1C4.4,0,4.4,0,4.3,0
				L1.9,2.5C1.3,3.1,0.7,3.7,0.1,4.3c-0.1,0.1-0.2,0.3-0.2,0.5c0,3.2,0,6.4,0,9.7c0,0.4,0,0.9,0,1.3v0.2c0,0.7,0,1.4,0,2.1
				c0,0.1,0,0.1,0.1,0.2c0.3,0.3,0.6,0.6,0.9,0.9c0.5,0.5,1,1,1.5,1.5s1.3,1.3,1.9,1.9c0.1,0.1,0.1,0.1,0.2,0.1
				c0,0.2-0.1,0.3-0.2,0.4L0,27.2c-0.1,0.1-0.2,0.1-0.2,0.2c0,0.7,0,1.5,0,2.2c0,0,0,0,0,0.1c0,1.4,0,2.8,0,4.3
				c0,0.2,0.1,0.2,0.3,0.2h3.8c0.1,0,0.3,0,0.4-0.1l0.2,0.1c0,0,0,0.1,0,0.1l-1.2,1.2c-1.1,1.1-2.2,2.2-3.3,3.3
				c-0.1,0.1-0.2,0.3-0.2,0.5c0,3.6,0,7.2,0,10.7c0,0.1,0,0.2,0,0.3v0.1c0,0.6,0,1.2,0,1.8c0,0.3,0.1,0.6,0.3,0.8L2,54.6
				c0.1,0,0.1,0.1,0.2,0.2H0c-0.1,0-0.2,0-0.2-0.2s0,0,0-0.1V-0.3c0-0.2,0-0.2,0.2-0.2h54.8c0.1,0,0.2-0.1,0.2,0c-1.4,0-2.9,0-4.3,0
				c-0.2,0-0.4,0-0.4,0.3h-0.1c-0.1-0.2-0.3-0.3-0.5-0.3H39.5c-0.2,0-0.4,0.1-0.5,0.3c-0.1,0-0.1,0-0.1,0.1c-0.1,0-0.2,0.1-0.3,0.2
				c-0.2,0.3-0.5,0.5-0.7,0.8c-0.5,0.5-1,1-1.6,1.6s-0.9,0.9-1.3,1.3s-1,1-1.5,1.5c-0.1,0.1-0.3,0.2-0.3,0.4c-0.1,0-0.2-0.1-0.2-0.1
				l-1-1l-4.4-4.4c-0.1-0.1-0.2-0.2,0-0.3c0.2,0,0.5,0,0.7,0h9.9c0.1,0,0.2,0,0.3-0.1c0.1,0,0.1,0.1,0.2,0c0-0.1,0-0.1,0-0.2
				c0-0.1-0.1-0.1-0.2-0.1H27.8c-0.4,0-0.4-0.1-0.4,0.4c0,0,0,0.1,0,0.2v8c0,1,0,1.9,0,2.9c0,0.1-0.1,0.3,0.1,0.3
				c0,0.1,0.1,0.2,0.1,0.3c0.8,0.8,1.6,1.6,2.4,2.5c0.5,0.6,1.1,1.1,1.6,1.6c0.3,0.4,0.7,0.7,1.1,1s0.3,0.3,0,0.6
				c-1.3,1.3-2.6,2.6-4,4c-0.4,0.4-0.7,0.8-1.1,1.2c-0.1,0-0.1,0.1-0.1,0.2c0,0.1,0.1,0.1,0.2,0.1h0.7c0.6,0,1.1,0,1.7,0
				c0.8,0,1.5,0,2.3,0s1.4,0,2.1,0c0.9,0,1.9,0,2.8,0c0.2,0,0.5,0,0.7,0c0.1,0,0.3,0.1,0.5,0c0-0.1-0.1-0.1-0.1-0.1
				c-0.5-0.5-1-1-1.5-1.5s-1.3-1.3-1.9-2l-1.8-1.8c-0.2-0.2-0.2-0.2,0-0.4c0.8-0.8,1.6-1.6,2.4-2.4l2.9-2.9c0.1,0,0.1-0.1,0.2-0.1
				s0,0.1,0,0.2c0,0.6,0,1.1,0,1.6c0,0.9,0,1.8,0,2.7c0,0.9,0,1.8,0,2.7c0,1.1,0,2.1,0,3.2c0,0.2,0,0.4,0,0.6s0,0.1,0,0.2l1.1,1.1
				l4.4,4.4c0.1,0.1,0.2,0.1,0.3,0c1.8-1.8,3.6-3.6,5.3-5.4c0.1-0.1,0.2-0.2,0.3-0.3s0.2-0.1,0.2-0.2c0.6-0.6,1.2-1.2,1.8-1.8
				l1.9-1.9C54.4,18.4,54.7,18.2,55,18.1z M16,11.2L16,11.2c0.2,0.1,0.3,0.1,0.4,0.1h10.6c0.1,0,0.2,0,0.2-0.1s0-0.1-0.1-0.2
				c-0.3-0.3-0.6-0.6-0.9-0.9c-0.6-0.6-1.2-1.2-1.9-1.8c-0.8-0.8-1.7-1.7-2.5-2.5c-0.1-0.2-0.3-0.2-0.4,0S21,6.3,20.7,6.6
				c-0.6,0.6-1.2,1.2-1.8,1.8s-1.3,1.3-1.9,1.9C16.7,10.6,16.4,10.9,16,11.2L16,11.2z M17.7-0.1L17.7-0.1c-0.5,0-1,0-1.4,0
				c-0.1,0-0.1,0-0.1,0s0,0.1,0.1,0.2l0.8,0.7c0.9,0.9,1.8,1.8,2.7,2.7c0.6,0.6,1.3,1.3,1.9,1.9c0.1,0.1,0.2,0.1,0.3,0
				c0.9-0.9,1.9-1.8,2.8-2.8s1.7-1.6,2.6-2.5c0,0,0.1-0.1,0.1-0.2s-0.1,0-0.2,0c-0.5,0-1,0-1.5,0c-1.6,0-3.2,0-4.7,0L17.7-0.1z"/>
			<path class="st1" d="M50.2,45.5c0,0.1,0.2,0,0.2,0.2l0,0c-0.1,0-0.1,0.1-0.1,0.1l-4.5,4.5l-1,1.1c-0.1-0.1-0.2-0.3-0.3-0.4
				l-1.8-1.8l-1.8-1.7l-1.6-1.6c0,0-0.1-0.1-0.1-0.1S39,45.8,39,45.9c0,1,0,2.1,0,3.1s0,2.1,0,3.1s0,1.8,0,2.7h-2.3
				c-0.1-0.2-0.3-0.3-0.4-0.5c-0.6-0.6-1.3-1.2-1.9-1.8c-0.3-0.3-0.6-0.6-0.9-0.9c-0.1-0.1-0.1-0.2,0-0.4c0.4-0.4,0.8-0.8,1.2-1.2
				c1.3-1.4,2.7-2.7,4-4c0.1-0.1,0.2-0.2,0.2-0.3h0.1h0.4c1.5,0,3.1,0,4.6,0C46,45.5,48.1,45.7,50.2,45.5z"/>
			<path class="st1" d="M50.4,45.7c0.3-0.2,0.6-0.5,0.9-0.8l3.7-3.7l0.1-0.1v11.3c0,0,0,0-0.1,0l-2.1,2.1c-0.1,0-0.1,0.1-0.1,0.2
				h-2.3c0-2.2,0-4.3,0-6.4C50.5,47.4,50.5,46.5,50.4,45.7L50.4,45.7z"/>
			<path class="st1" d="M48,54.8c-0.5-0.6-1-1-1.5-1.6c-0.5-0.5-1.2-1.2-1.9-1.8l1-1.1l4.5-4.5c0,0,0.1-0.1,0.1-0.1
				c0,0.9,0,1.8,0,2.7c0,2.1,0,4.3,0,6.4H48z"/>
			<path class="st1" d="M27.5,54.8c0-3.1,0-6.1,0-9.2h0.1c0,0.1,0.2,0.2,0.3,0.3l3.7,3.7l1.5,1.5c0.2,0.2,0.2,0.2,0,0.5l-2.9,2.9
				c-0.1,0.1-0.2,0.1-0.2,0.3L27.5,54.8z"/>
			<path class="st1" d="M10.4,51.4c0.3,0.3,0.6,0.6,0.9,0.9c0.1,0.1,0.2,0.2,0.3,0.3l2,1.9c0.1,0,0.1,0.1,0.1,0.2H7
				c0.2-0.3,0.4-0.5,0.7-0.7c0.8-0.8,1.6-1.7,2.5-2.5c0,0,0.1-0.1,0.1-0.1L10.4,51.4z"/>
			<path class="st1" d="M55,4.7c-0.5-0.5-1-1-1.5-1.5l-3-3c-0.1-0.1-0.1-0.1-0.2-0.2c0.1-0.1,0.1-0.1,0.2-0.1h2h2.5L55,4.7z"/>
			<path class="st1" d="M52.8,54.8c0-0.1,0-0.1,0.1-0.2l2.1-2.1c0,0,0,0,0.1,0c0,0.7,0,1.5,0,2.2c0,0.1,0,0.2-0.1,0.2L52.8,54.8z"/>
			<path class="st1" d="M4.6,11.3c-0.1-0.1-0.2,0-0.2,0c0,0,0,0,0,0c-0.7,0.8-1.5,1.5-2.2,2.2c-0.5,0.5-1,1-1.5,1.5
				c-0.2,0.3-0.5,0.5-0.7,0.7c0-0.4,0-0.9,0-1.3c0-3.2,0-6.4,0-9.7c0-0.2,0.1-0.4,0.2-0.5c0.6-0.6,1.2-1.2,1.8-1.8L4.3,0
				C4.4,0,4.4,0,4.5-0.1h8c0.7,0,1.4,0,2.1,0c0.3,0,0.7,0,1,0c0.1,0,0.1,0,0.1,0.1S15.7,0,15.7,0.1c-0.2,0.2-0.4,0.4-0.6,0.6
				c-0.8,0.7-1.4,1.5-2.2,2.2S11.4,4.3,10.7,5c-0.2,0.1-0.3,0.3-0.5,0.5C9.6,6.2,9,6.8,8.4,7.4C7.2,8.6,6,9.9,4.7,11.1
				C4.6,11.1,4.6,11.2,4.6,11.3z"/>
			<path class="st1" d="M44.6,5.6c-0.1,0-0.1,0-0.2-0.1l-3.2-3.2L39,0c0-0.1,0.1-0.1,0.1-0.1h0.7h8.8c0.5,0,1.1,0,1.6,0h0.1V0l0,0
				h-0.1l-4.1,4L44.6,5.6z"/>
			<path class="st1" d="M10.2,40c0.1,0,0.2,0.1,0.2,0.1l4.4,4.3l1,1.1c0,0,0.1,0.1,0.1,0.2s-0.1,0-0.2,0c-2,0-4.1,0-6.1,0H4.9
				c-0.1,0-0.3,0.1-0.4,0c-0.1-0.1,0.1-0.2,0.2-0.2c1.5-1.5,3-3,4.5-4.6C9.6,40.6,9.9,40.3,10.2,40z"/>
			<path class="st1" d="M4.6,34.2L4.6,34.2c0.1-0.1,0.2-0.2,0.3-0.3c1.1-1.1,2.2-2.2,3.3-3.3c0.7-0.6,1.3-1.3,2-2
				c0.2-0.1,0.2-0.1,0.4,0l2.3,2.4l2.8,2.8c0.1,0.1,0.2,0.2,0.3,0.2c0.1,0.2,0,0.2-0.1,0.3s0-0.1-0.1-0.1c-0.5,0-1.1-0.1-1.6,0
				c-0.3,0-0.6,0-0.9,0h-0.5H4.8C4.7,34.2,4.6,34.2,4.6,34.2z"/>
			<path class="st1" d="M27.5,45.6c-0.2-0.3-0.5-0.6-0.8-0.8c-0.4-0.4-0.9-0.9-1.3-1.3l-2-2L22,40.1L21.8,40c0-0.1,0.1-0.2,0.2-0.3
				l3.4-3.4l2.1-2.1h0.1c0,1.6,0,3.1,0,4.7c0,2.2,0,4.3,0,6.5c0,0,0,0.1,0,0.1L27.5,45.6z"/>
			<path class="st1" d="M16.1,45.6c0.2,0.1,0.4,0.1,0.7,0c0.5,0,0.9,0.1,1.4,0c0.5,0,0.8,0,1.2,0c0.4,0,0.9,0,1.3,0
				c0.3,0,0.5,0,0.8,0c0.8,0,1.5,0,2.3,0c1,0,2,0,3,0h0.7c0,0.1-0.1,0.2-0.1,0.2c-0.4,0.4-0.9,0.9-1.3,1.3c-0.7,0.7-1.4,1.4-2.1,2.1
				c-0.4,0.3-0.7,0.7-1,1.1s-0.7,0.7-1,1c-0.1,0.1-0.1,0-0.2,0c-0.3-0.3-0.7-0.7-1-1s-0.7-0.8-1.1-1.1c-0.6-0.6-1.2-1.2-1.8-1.8
				L16.3,46c0,0-0.1-0.1-0.1-0.1C16.2,45.8,16,45.7,16.1,45.6z"/>
			<path class="st1" d="M16.1,34c0.1,0,0.2-0.1,0.3-0.2l4.5-4.4c0.3-0.3,0.5-0.5,0.8-0.8s0.2-0.1,0.3,0c1.1,1.1,2.2,2.2,3.3,3.3
				c0.6,0.6,1.2,1.3,1.9,1.9c0.1,0.1,0.2,0.2,0,0.3h-4.7c-1.1,0-2.2,0-3.3,0s-2,0-3,0C16.2,34.2,16.1,34.2,16.1,34z"/>
			<path class="st1" d="M44.6,5.6l1.5-1.5l4.1-4h0.1l0,0c0,0.7,0,1.4,0,2c0,1.9,0,3.8,0,5.6c0,0.5,0,1,0,1.6l0,0l0,0
				c0.1,0.6,0,1.3,0,1.9c0,0.2-0.1,0.3-0.3,0.4c-1.3,1.3-2.6,2.6-3.9,3.9l-1.3,1.3c0,0-0.1,0.1-0.2,0.1l-2.3-2.2l-3.2-3.2
				c-0.1-0.1-0.2-0.1-0.2-0.2s0.2-0.1,0.3-0.1h10.5c0.1,0,0.2,0.1,0.3-0.1S50,11.1,50,11c-0.6-0.7-1.3-1.3-1.9-2
				c-0.4-0.4-0.9-0.9-1.3-1.3c-0.6-0.7-1.3-1.3-2-1.9C44.7,5.7,44.7,5.6,44.6,5.6z"/>
			<path class="st1" d="M15.9,11.3H16v11.2c0,0.1,0,0.2,0,0.2s-0.1-0.1-0.2-0.1l-3.5-3.5l-1.9-1.9c-0.1-0.1-0.1-0.2,0-0.3l3.2-3.1
				l2.2-2.2C15.9,11.4,15.9,11.4,15.9,11.3z"/>
			<path class="st1" d="M10.3,5.5L10.3,5.5c0.1,0.1,0.1,0.2,0.2,0.3c0.4,0.4,0.8,0.8,1.2,1.2L13,8.4l2.5,2.5
				c0.1,0.1,0.2,0.3,0.3,0.4H14c-0.1-0.1-0.3-0.1-0.4,0h-0.2c-0.1-0.1-0.2-0.1-0.3,0h-0.1c0,0-0.1-0.1-0.1,0h-0.1
				c-0.1-0.1-0.3-0.1-0.4,0H9.3 M9.2,11.3H8.2c0-0.1-0.1-0.1-0.2,0c0,0,0,0,0,0H7.6c-0.1-0.1-0.2-0.1-0.2,0H4.6c0-0.1,0-0.1,0.1-0.2
				c1.3-1.2,2.5-2.5,3.8-3.7C9,6.8,9.6,6.2,10.3,5.5L9.2,11.3z"/>
		</g>
		<path class="st1" d="M12.2,11.3c0.1-0.1,0.3-0.1,0.4,0C12.5,11.4,12.4,11.4,12.2,11.3z"/>
		<path class="st1" d="M13.5,11.3c0.1-0.1,0.3-0.1,0.4,0C13.8,11.4,13.7,11.4,13.5,11.3z"/>
		<path class="st1" d="M13.1,11.3c0.1-0.1,0.2-0.1,0.3,0C13.3,11.4,13.1,11.4,13.1,11.3z"/>
		<path class="st1" d="M7.3,11.3c0.1-0.1,0.2-0.1,0.2,0C7.5,11.4,7.4,11.4,7.3,11.3z"/>
		<path class="st1" d="M8,11.3c0-0.1,0.1-0.1,0.2,0c0,0,0,0,0,0C8.1,11.3,8.1,11.4,8,11.3C8,11.3,8,11.3,8,11.3z"/>
		<path class="st1" d="M9.3,11.3C9.3,11.3,9.3,11.3,9.3,11.3L9.3,11.3z"/>
		<path class="st1" d="M12.8,11.3c0,0,0.1,0,0.1,0S12.8,11.3,12.8,11.3z"/>
		<path class="st1" d="M50.3,0L50.3,0L50.3,0z"/>
	</g>
</g>
</svg>
