<?xml version="1.0" encoding="utf-8"?>
<!-- Generator: Adobe Illustrator 22.1.0, SVG Export Plug-In . SVG Version: 6.00 Build 0)  -->
<svg version="1.1" xmlns="http://www.w3.org/2000/svg" xmlns:xlink="http://www.w3.org/1999/xlink" x="0px" y="0px"
	 viewBox="0 0 340.3 89.7" style="enable-background:new 0 0 340.3 89.7;" xml:space="preserve">
<style type="text/css">
	.st0{fill:url(#SVGID_1_);enable-background:new    ;}
	.st1{opacity:0.6;fill:none;stroke:#FFFFFF;stroke-width:2;stroke-miterlimit:10;enable-background:new    ;}
	.st2{opacity:0.55;enable-background:new    ;}
</style>
<g id="Calque_1">
	<linearGradient id="SVGID_1_" gradientUnits="userSpaceOnUse" x1="0" y1="44.8633" x2="340.32" y2="44.8633">
		<stop  offset="1.027034e-07" style="stop-color:#CD3AFE"/>
		<stop  offset="3.589737e-02" style="stop-color:#BC38E7"/>
		<stop  offset="0.1229" style="stop-color:#9734B6"/>
		<stop  offset="0.2122" style="stop-color:#77318C"/>
		<stop  offset="0.3023" style="stop-color:#5D2E6A"/>
		<stop  offset="0.3935" style="stop-color:#492C4F"/>
		<stop  offset="0.4862" style="stop-color:#3A2A3C"/>
		<stop  offset="0.5813" style="stop-color:#322931"/>
		<stop  offset="0.6825" style="stop-color:#2F292D"/>
		<stop  offset="1" style="stop-color:#A737F9"/>
	</linearGradient>
	<rect class="st0" width="340.3" height="89.7"/>
	<polygon class="st1" points="302.8,23.5 300.9,38 294.8,32.9 288.7,27.7 	"/>
	<circle class="st1" cx="306.5" cy="75.3" r="6.7"/>
	<polygon class="st1" points="289.8,54.7 287.7,52.6 282.8,57.5 277.9,52.6 275.8,54.7 280.7,59.6 275.8,64.5 277.9,66.6 
		282.8,61.7 287.7,66.6 289.8,64.5 284.9,59.6 	"/>
	<polygon class="st1" points="243.7,67 255.4,58.1 256,66 256.6,74 	"/>
	<polygon class="st1" points="224.5,31.1 209.9,33.1 213.3,25.9 216.7,18.7 	"/>
	<circle class="st1" cx="254.3" cy="42.6" r="6.7"/>
	<circle class="st1" cx="154.3" cy="25.9" r="6.7"/>
	<polygon class="st1" points="206.1,60.1 206.1,63.1 213.1,63.1 213.1,70 216,70 216,63.1 223,63.1 223,60.1 216,60.1 216,53.2 
		213.1,53.2 213.1,60.1 	"/>
	<polygon class="st1" points="34,74 35.9,59.4 42,64.5 48.1,69.7 	"/>
	<circle class="st1" cx="30.3" cy="22.1" r="6.7"/>
	<polygon class="st1" points="47,42.8 49.1,44.9 54,40 58.9,44.9 61,42.8 56.1,37.9 61,33 58.9,30.9 54,35.8 49.1,30.9 47,33 
		51.9,37.9 	"/>
	<polygon class="st1" points="93.1,20.4 81.4,29.3 80.8,21.4 80.2,13.5 	"/>
	<polygon class="st1" points="113.1,53.4 127.7,51.5 124.3,58.7 120.9,65.9 	"/>
	<polygon class="st1" points="178.1,58.5 192.7,56.6 189.3,63.8 185.9,71 	"/>
	<circle class="st1" cx="86.6" cy="56.6" r="6.7"/>
	<circle class="st1" cx="149.8" cy="66" r="6.7"/>
	<polygon class="st1" points="127.9,16.7 126.1,14.4 120.6,18.7 116.3,13.2 114,15 118.3,20.5 112.8,24.8 114.6,27.1 120.1,22.8 
		124.4,28.3 126.7,26.5 122.4,21 	"/>
	<polygon class="st1" points="185.3,31.6 183.4,29.2 178,33.5 173.7,28 171.4,29.9 175.6,35.3 170.2,39.6 172,42 177.5,37.7 
		181.7,43.1 184.1,41.3 179.8,35.9 	"/>
	<rect class="st2" width="340.3" height="89.7"/>
</g>
<g id="Calque_2">
</g>
</svg>
