<?xml version="1.0" encoding="utf-8"?>
<!-- Generator: Adobe Illustrator 22.1.0, SVG Export Plug-In . SVG Version: 6.00 Build 0)  -->
<svg version="1.1" id="Calque_1" xmlns="http://www.w3.org/2000/svg" xmlns:xlink="http://www.w3.org/1999/xlink" x="0px" y="0px"
	 viewBox="0 0 103.1 73.2" style="enable-background:new 0 0 103.1 73.2;" xml:space="preserve">
<style type="text/css">
	.st0{fill:#B2B2B2;}
	.st1{fill:#D9D9D9;}
	.st2{fill:#ECECEC;}
	.st3{fill:#1E1E1C;}
</style>
<g>
	<g>
		<path class="st0" d="M90.6,23.8L90.6,23.8c6,0,10.8,4.9,10.8,10.8v7.1c0,6-4.9,10.8-10.8,10.8l0,0c-6,0-10.8-4.9-10.8-10.8v-7.1
			C79.8,28.6,84.6,23.8,90.6,23.8z"/>
		<path class="st0" d="M11.8,24.8L11.8,24.8c6,0,10.8,4.9,10.8,10.8v7.1c0,6-4.9,10.8-10.8,10.8h0C5.8,53.5,1,48.7,1,42.7v-7.1
			C1,29.6,5.8,24.8,11.8,24.8z"/>
		<ellipse class="st0" cx="49.1" cy="36.6" rx="38.2" ry="35.8"/>
		
			<ellipse transform="matrix(0.6304 -0.7763 0.7763 0.6304 -9.3359 35.1514)" class="st1" cx="32.2" cy="27.4" rx="15.8" ry="12.8"/>
		<path class="st2" d="M37.1,54.3c0,0-7.1-1.4-9-6.1s-3.9-16.2-3.9-16.2s-0.9-9,8.1-10.4s38.5,0.5,38.5,0.5s8.7,4,6.6,11.7
			c-2,7.7-4.2,15.4-4.2,15.4s-1.1,5.2-8,5.2C58.3,54.5,37.1,54.3,37.1,54.3z"/>
		<path class="st1" d="M20.1,59.1c-0.5-0.6,67.2,18.2,65.3-34.4c0,0,9.7,19.4-12.6,39.2S23,62.6,20.1,59.1z"/>
		<path class="st3" d="M86.6,52.2c6.9,1.4,14.7-1.2,16-8.9c1.2-6.8,0.8-18.4-8-19.6c-1.1-0.2-1.6,1.5-0.5,1.7
			c7.6,1.1,7.5,11,6.8,16.9c-0.8,7.1-7.6,9.5-13.9,8.2C86,50.4,85.5,52,86.6,52.2z"/>
		<path class="st3" d="M12.8,25c-4.9-1.3-9.7,0.7-11.5,5.6c-0.4,1,1.3,1.5,1.7,0.5c1.5-3.9,5.5-5.4,9.4-4.3c0.5,0.1,0.9-0.2,1-0.6
			C13.5,25.6,13.2,25.1,12.8,25L12.8,25z"/>
		<path class="st3" d="M2,37.8v-3.1c0-0.5-0.4-0.9-0.9-0.9S0.2,34.2,0,34.7v3.1c0.2,0.5,0.6,0.9,1.1,0.9S2,38.2,2,37.8z"/>
		<path class="st3" d="M14.7,53c-1.8,0.4-3.7,0.3-5.6-0.2c-5-1.4-6.8-6.4-7.2-11.1c-0.1-1.1-1.8-1.1-1.7,0
			c0.4,5.1,2.2,10.4,7.4,12.4c2.4,0.9,5.1,1.1,7.6,0.6C16.3,54.5,15.8,52.8,14.7,53L14.7,53z"/>
		<path class="st3" d="M86.5,36.6c-0.2,15.3-10.7,28.4-25.1,33C47,74.2,30.6,70.3,20.5,59C10.4,47.9,9,31.3,17.1,18.6
			c8.3-13,24.6-19.1,39.6-16.2C73.2,5.6,86.2,19.5,86.5,36.6c0,0.5,0.4,0.9,0.9,0.9c0.5,0,0.9-0.4,0.9-0.9
			C88,20.9,77.4,7.4,62.7,2.2C47.5-3,29.7,1.1,19,13.3C8.6,25,7.2,42.2,15.6,55.5c8.6,13.4,25.1,19.8,40.6,17.2
			c17.7-3,31.7-17.8,32-36c0-0.5-0.4-0.9-0.9-0.9C86.8,35.7,86.5,36.1,86.5,36.6z"/>
		<path class="st3" d="M68,22.6c6.9,0.4,9.7,7.1,8.3,13.2c-0.7,2.9-1.6,5.8-2.4,8.7c-0.5,1.8-0.8,3.8-1.7,5.5
			c-1.6,3.1-4.6,3.8-7.9,3.8c-6,0.1-12.1,0-18.1,0c-6.8,0-14.6,0.8-17.6-6.9c-0.4-1-2.1-0.6-1.7,0.5c2.7,6.9,8.4,8.2,15.2,8.2h17.4
			c4.6,0,10.2,0.8,13.4-3.3c2.8-3.6,3.3-9.5,4.5-13.7c0.9-3.1,1.6-6.1,0.7-9.4c-1.1-4.7-5.2-8.1-10.1-8.3
			C66.9,20.8,66.9,22.6,68,22.6L68,22.6z"/>
		<path class="st3" d="M25.4,34.8c-0.7-3.2-1.1-6.4,1.1-9.3c1.8-2.4,4.4-3.4,7.4-3.5s6.1,0,9.1,0h18.4c0,0,0.9-0.3,0.9-0.7
			c0-0.5-0.9-0.3-0.9-0.3H38.3c-3,0-6.2-0.4-9,0.9c-5.6,2.5-6.1,8-5.1,13.3c0.2,1.1,1.8,0.6,1.6-0.5H25.4z"/>
		<path class="st3" d="M26.9,41.7l-0.2-2.2c0-0.5-0.4-0.9-0.9-0.9c-0.5,0-0.9,0.4-0.9,0.9l0.2,2.2c0,0.5,0.4,0.9,0.9,0.9
			C26.5,42.6,26.9,42.2,26.9,41.7L26.9,41.7z"/>
		<path class="st3" d="M56.3,38.4c0.2-3.8,6.4-3.8,6.5,0c0,1.1,1.8,1.1,1.7,0c-0.3-6-9.7-6-10,0C54.5,39.5,56.2,39.5,56.3,38.4z"/>
		<path class="st3" d="M38,38.4c0.2-3.8,6.3-3.8,6.5,0c0,1.1,1.8,1.1,1.7,0c-0.3-6-9.7-6-10,0C36.2,39.5,37.9,39.5,38,38.4z"/>
	</g>
</g>
</svg>
