<?xml version="1.0" encoding="utf-8"?>
<!-- Generator: Adobe Illustrator 22.1.0, SVG Export Plug-In . SVG Version: 6.00 Build 0)  -->
<svg version="1.1" id="Calque_1" xmlns="http://www.w3.org/2000/svg" xmlns:xlink="http://www.w3.org/1999/xlink" x="0px" y="0px"
	 viewBox="0 0 43.1 48.9" style="enable-background:new 0 0 43.1 48.9;" xml:space="preserve">
<style type="text/css">
	.st0{fill:#5CBDB3;}
	.st1{fill:#5BBEB6;}
	.st2{fill:#3EB6A3;}
</style>
<path class="st0" d="M21.5,20.6c-2.2,0-4,1.8-4,4s1.8,4,4,4s4-1.8,4-4S23.7,20.6,21.5,20.6z M21.5,27.3c-1.5,0-2.7-1.2-2.7-2.7
	s1.2-2.7,2.7-2.7c1.5,0,2.7,1.2,2.7,2.7S23,27.3,21.5,27.3L21.5,27.3z"/>
<path class="st0" d="M21.5,13.4c-6.2,0-11.2,5-11.2,11.2s5,11.2,11.2,11.2c6.2,0,11.2-5,11.2-11.2c0,0,0,0,0,0
	C32.7,18.4,27.7,13.4,21.5,13.4z M21.5,33.6c-5,0-9-4-9-9s4-9,9-9s9,4,9,9S26.5,33.6,21.5,33.6z"/>
<path class="st1" d="M21.5,17.3c-4.1,0-7.4,3.3-7.3,7.4c0,4.1,3.3,7.4,7.4,7.3c4.1,0,7.3-3.3,7.3-7.4c0,0,0,0,0,0
	C28.9,20.5,25.6,17.2,21.5,17.3C21.5,17.2,21.5,17.2,21.5,17.3z M21.5,29.7c-2.8,0-5.1-2.3-5.1-5.1c0-2.8,2.3-5.2,5.1-5.2
	c2.8,0,5.1,2.3,5.1,5.1v0C26.7,27.4,24.4,29.7,21.5,29.7z"/>
<circle class="st2" cx="21.5" cy="24.7" r="2.3"/>
<rect x="18.7" y="39.7" class="st2" width="5.5" height="9.3"/>
<rect x="18.7" y="37" class="st2" width="5.5" height="1.6"/>
<rect x="35.1" y="32.1" transform="matrix(0.7071 -0.7071 0.7071 0.7071 -14.858 37.5616)" class="st2" width="5.5" height="9.3"/>
<rect x="30.5" y="31.3" transform="matrix(0.7071 -0.7071 0.7071 0.7071 -12.9394 32.9265)" class="st2" width="5.5" height="1.6"/>
<rect x="0.7" y="34" transform="matrix(0.7071 -0.7071 0.7071 0.7071 -24.3993 14.5332)" class="st2" width="9.3" height="5.5"/>
<rect x="9.2" y="29.3" transform="matrix(0.7071 -0.7071 0.7071 0.7071 -19.7681 16.4469)" class="st2" width="1.6" height="5.5"/>
<rect x="18.9" class="st2" width="5.5" height="9.3"/>
<rect x="18.9" y="10.4" class="st2" width="5.5" height="1.6"/>
<rect x="2.5" y="7.6" transform="matrix(0.7071 -0.7071 0.7071 0.7071 -7.113 7.284)" class="st2" width="5.5" height="9.3"/>
<rect x="7.1" y="16.1" transform="matrix(0.7071 -0.7071 0.7071 0.7071 -9.0399 11.9131)" class="st2" width="5.5" height="1.6"/>
<rect x="33.2" y="9.5" transform="matrix(0.7071 -0.7071 0.7071 0.7071 2.4213 30.3127)" class="st2" width="9.3" height="5.5"/>
<rect x="32.4" y="14.1" transform="matrix(0.7071 -0.7071 0.7071 0.7071 -2.2116 28.3949)" class="st2" width="1.6" height="5.5"/>
</svg>
